<svg width="116" height="96" viewBox="0 0 116 96" fill="none" xmlns="http://www.w3.org/2000/svg">
<g clip-path="url(#clip0_445_5055)">
<path d="M115.274 53.7727C113.407 45.6634 108.845 38.9683 101.269 35.976C101.032 35.8803 100.869 35.6549 100.842 35.3953C100.407 30.2305 99.0087 24.6899 95.5602 20.5772C91.2971 15.508 85.4523 13.3082 78.8404 14.2714C78.3449 14.3466 77.8561 14.0938 77.6185 13.6498C76.7971 12.0921 75.7178 10.6438 74.3736 9.29792C68.0265 2.95121 60.6407 -0.143583 52.2028 -0.000115857C47.6885 0.0750336 43.3236 0.983659 39.108 2.72576C28.0089 7.31671 21.0305 16.8334 19.1976 29.1989C19.1229 29.6703 18.7496 30.0392 18.2812 30.1007C3.60469 32.0682 -3.76071 47.2962 1.92117 60.4474C3.39425 63.8564 6.74771 68.2492 10.4881 69.2672C11.1805 69.4516 11.8526 69.6771 12.5043 69.9299C12.7147 70.0187 12.8641 70.169 12.9387 70.3808C13.3257 71.4533 13.6787 72.5396 13.9909 73.6395C15.5726 79.2006 18.7292 84.2834 22.8837 87.8496C28.8303 92.9529 37.6009 94.9956 44.9188 91.8735C46.3104 91.2791 47.6817 90.6028 49.0394 89.8445C49.3313 89.6805 49.6979 89.7283 49.9354 89.9606C55.7531 95.6173 64.3065 97.7761 71.7941 94.3739C76.5527 92.2082 79.879 88.7514 82.8659 84.5089C83.0832 84.2014 83.4701 84.0511 83.8435 84.1331C94.6777 86.5311 106.313 83.689 112.26 73.4072C115.851 67.1972 116.855 60.6523 115.274 53.7727ZM102.057 76.5977C101.181 77.274 100.373 77.7727 99.6197 78.0938C99.3481 78.21 99.192 78.1211 99.1581 77.8274L99.1309 77.6088C99.0834 77.2467 99.2192 76.9666 99.5246 76.7685C100.509 76.1331 101.446 75.5866 102.24 74.6438C103.761 72.847 105.505 71.0639 106.591 69.0895C108.112 66.309 109.103 63.3987 109.558 60.3586C109.653 59.7232 109.49 59.648 109.069 60.1331C108.506 60.7821 107.888 61.4106 107.528 62.251C106.51 64.6216 105.268 66.8419 103.801 68.9119C101.147 72.6489 98.2756 75.9145 95.1869 78.7018C94.7728 79.0639 94.2636 79.2962 93.7206 79.3577C93.3676 79.3987 93.0349 79.385 92.7159 79.3167C92.519 79.2757 92.4647 79.0229 92.6208 78.9C96.2526 76.0716 99.4296 71.9794 103.401 66.596C105.308 64.0067 106.836 60.8368 108.58 57.8991C109.144 56.9427 109.151 55.7266 108.601 54.2441C108.479 53.9162 108.329 53.9025 108.159 54.2031C107.053 56.0819 105.614 57.537 104.48 59.4226C103.944 60.3107 103.347 61.0896 102.674 61.7591C100.366 64.0819 98.1194 66.4525 95.9404 68.8778C95.825 69.0076 95.7435 69.1647 95.7028 69.3355C95.6553 69.5473 95.5738 69.7249 95.4448 69.882C93.8292 71.8359 92.3357 73.7557 90.9577 75.648C90.5232 76.2424 89.9802 76.3654 89.3217 76.017C88.9551 75.8188 88.9958 75.2791 89.3828 75.1357C91.1953 74.4662 92.4036 73.1886 92.9467 71.3304C93.1503 70.613 93.4966 69.9708 93.9921 69.4106C96.0083 67.1083 98.1873 64.6079 100.529 61.923C101.785 60.4815 102.165 58.6438 103.577 57.3936C104.86 56.2527 107.739 53.7317 107.711 51.8735C107.705 51.1972 107.474 50.596 107.033 50.0699C106.89 49.8923 106.768 49.701 106.666 49.496L105.186 46.3261C105.03 45.9845 104.555 45.9572 104.358 46.2715C103.034 48.362 102.281 50.5755 101.127 52.748C100.149 54.5925 99.3074 56.5601 98.6014 58.6574C98.5132 58.9102 98.7779 59.1425 99.0155 59.0264C99.5111 58.7872 99.7351 58.3842 99.6876 57.8171C99.674 57.6258 99.7011 57.4414 99.7758 57.2638C100.434 55.6583 101.385 53.9162 102.613 52.0238C102.803 51.7369 103.231 51.7642 103.38 52.0785L103.672 52.7001C103.876 53.1237 103.89 53.6156 103.706 54.0528L102.213 57.5985C102.125 57.8103 101.989 57.9879 101.806 58.1314C100.719 58.9854 100.475 60.2424 99.7894 61.1579C98.3978 62.9956 96.9383 64.847 95.4245 66.7053C95.4041 66.7394 94.7524 67.5866 93.483 69.2535C91.2767 72.157 88.412 74.4593 84.8753 76.1673C84.5223 76.3381 84.3662 76.6045 84.4001 76.9734C84.4273 77.2399 84.5766 77.397 84.8414 77.438L86.0836 77.6361C86.2601 77.6634 86.4366 77.7317 86.586 77.841C87.0951 78.2031 87.6382 78.3944 88.2152 78.4149C88.575 78.4286 88.7243 78.2578 88.6632 77.9094L88.6361 77.7317C88.6157 77.5883 88.67 77.5336 88.8126 77.5678C88.9687 77.6088 89.0841 77.7112 89.152 77.882C89.2267 78.0665 89.3692 78.1758 89.5661 78.1963C89.6951 78.2168 89.8172 78.1963 89.9394 78.1416C90.048 78.0938 90.1499 77.9913 90.2517 77.8342C91.1681 76.3995 92.4647 75.5524 93.3879 74.2475C93.8971 73.5234 94.3587 72.2595 95.4109 72.1912C95.9607 72.157 96.3137 71.5831 96.0897 71.0776C95.6824 70.1621 95.9336 69.5131 96.85 69.1305C97.0876 69.0281 97.2845 68.8778 97.4406 68.6796C99.2124 66.4457 101.133 64.3688 103.204 62.4354C104.209 61.5063 104.799 60.2288 105.879 59.2518C105.94 59.1903 106.008 59.1903 106.069 59.2518L106.211 59.3953C106.259 59.4431 106.252 59.4773 106.204 59.5114C105.607 59.9145 105.247 60.4952 105.118 61.2535C105.016 61.8752 104.684 62.5311 104.134 63.2074C102.009 65.8103 99.803 68.2561 97.814 70.8795C97.332 71.5217 96.8364 72.1297 96.3273 72.7036C95.662 73.4619 94.7592 74.6848 93.6255 76.3586C92.872 77.4585 91.9556 77.9572 91.1885 78.9751C91.0527 79.1596 90.8762 79.2689 90.6522 79.3167C87.9979 79.8564 85.4251 79.6241 82.9338 78.6335C82.7234 78.5516 82.5061 78.5311 82.2821 78.5789C80.5443 78.9478 79.3088 79.8359 78.5689 81.2433C76.8921 84.4405 74.9032 87.0708 71.604 88.4166C70.5789 88.8334 69.5675 89.2159 68.5628 89.5575C65.9153 90.4661 63.3018 90.4866 60.7154 89.619C57.5588 88.5669 55.3933 87.4533 53.5061 84.4269C53.0445 83.6959 52.2231 83.1357 51.0487 82.7463C50.8247 82.6711 50.5803 82.7189 50.4039 82.8624C49.4874 83.6139 48.6389 84.3381 47.5459 84.8573C45.1496 85.9982 42.7737 86.8931 40.4181 87.549C39.909 87.6924 39.4202 87.6173 38.9518 87.3235C38.8093 87.2347 38.6599 87.2279 38.5174 87.3099C38.144 87.5285 37.6349 87.6036 36.9968 87.5353C35.5373 87.385 34.0574 87.2279 32.5572 87.0571C32.1023 87.0093 32.0277 86.8112 32.3332 86.4627L33.6026 85.0144C33.8538 84.7275 34.1389 84.6796 34.4579 84.8709L34.743 85.0349C34.9603 85.1647 35.1775 85.1579 35.3879 85.0212C37.3294 83.7778 36.2636 81.7761 38.531 80.8539C38.7618 80.765 38.8432 80.5942 38.7821 80.3483C38.721 80.116 38.592 79.9452 38.3884 79.8359C38.1847 79.7334 37.9879 79.7403 37.7978 79.8701C37.343 80.1775 36.8339 80.3415 36.2704 80.362C36.0464 80.3688 35.836 80.444 35.6527 80.5738C34.9467 81.0656 34.4104 81.6942 34.0506 82.4661C33.9556 82.6711 33.813 82.8556 33.6297 82.9922C32.7405 83.6822 32.0548 84.5157 31.5729 85.5063C31.2674 86.1211 30.8058 86.2919 30.188 86.0118C26.6648 84.4269 24.1531 82.0836 22.6597 78.9819C21.9944 77.6019 21.4106 76.1468 20.9015 74.6165C19.924 71.7061 19.6796 68.3995 19.089 65.2774C18.8718 64.1229 18.1115 63.6241 16.8081 63.7813C14.8531 64.0204 12.6808 64.3073 10.9497 63.0639C8.76387 61.4995 7.26363 59.9486 6.35399 57.3662C3.84907 50.2339 5.64121 41.1681 12.321 37.0007C16.0071 34.7053 19.7271 34.6984 23.7934 35.1562C24.6215 35.245 25.3207 34.5618 25.2529 33.7283C24.608 26.4525 26.0539 19.648 31.2334 13.964C34.9738 9.85812 39.556 7.15958 44.9663 5.86154C54.6059 3.54557 64.4015 5.45163 71.1831 13.0212C72.4865 14.4764 73.1789 16.3278 73.2536 18.5686C73.2875 19.5319 74.1904 20.2151 75.1136 19.9828C77.2723 19.4363 79.6482 18.7872 81.8069 18.8761C85.6424 19.0332 88.8329 20.4542 91.3922 23.1459C94.6845 26.6028 95.6349 32.5669 96.1101 37.11C96.2187 38.1826 96.8296 38.9341 97.9497 39.3645C102.681 41.1749 106.096 44.1468 108.193 48.28C109.85 51.5456 110.705 55.2689 110.759 59.4431C110.854 66.309 107.956 72.0272 102.057 76.5977Z" fill="#181818"/>
<path d="M31.6202 20.0373C31.3351 20.1125 31.2265 20.0031 31.3012 19.7162C31.6202 18.4797 32.1701 17.2773 32.9372 16.1159C33.0662 15.9177 33.2427 15.8221 33.4735 15.8153C33.8672 15.8016 34.1523 15.9587 34.3288 16.2867C35.2045 17.9126 32.9644 19.6821 31.6202 20.0373Z" fill="#181818"/>
<path d="M82.0175 21.3832C82.1125 21.957 81.0332 22.6197 79.6076 22.8588C78.1821 23.0979 76.9466 22.8315 76.8515 22.2576C76.7565 21.6838 77.8358 21.0211 79.2614 20.782C80.687 20.5429 81.9225 20.8093 82.0175 21.3832Z" fill="#181818"/>
<path d="M30.1474 21.4855C30.29 21.3215 30.5276 21.2874 30.7041 21.4035C31.2946 21.7997 31.763 22.3053 32.1025 22.9202C32.5098 23.6716 32.1907 24.6144 31.41 24.956C30.9417 25.161 30.4529 25.1405 29.9302 24.9014C29.7673 24.8262 29.6451 24.6827 29.6043 24.512C29.2989 23.3027 29.4821 22.2985 30.1474 21.4855Z" fill="#181818"/>
<path d="M28.8439 29.192L28.8099 28.2014C28.7963 27.7642 29.1765 27.4089 29.6177 27.4636L30.6021 27.5797C31.0908 27.6412 31.3759 28.1672 31.1655 28.6113L30.5681 29.8752C30.3441 30.3329 29.7331 30.4286 29.3869 30.046L29.0272 29.6566C28.9117 29.5268 28.8507 29.3628 28.8439 29.192Z" fill="#181818"/>
<path d="M91.0461 32.3144C91.1072 32.4716 91.1276 32.6424 91.1208 32.82C91.114 32.9839 91.0461 33.1274 90.9172 33.2504C90.3469 33.8038 89.6749 33.9131 88.8942 33.5783C88.6838 33.4895 88.548 33.3255 88.4869 33.1001C88.3444 32.5331 88.3919 32.0138 88.6295 31.5561C88.8942 31.0301 89.512 30.7978 90.055 31.0096C90.6796 31.2555 90.8425 31.7337 91.0461 32.3144Z" fill="#181818"/>
<path d="M71.2984 32.4031C72.7443 32.977 73.4978 34.1794 73.5657 36.0103C73.8305 43.3681 73.5318 50.6576 72.6697 57.8651C72.6153 58.2955 72.4049 58.7396 72.0451 59.2041C71.9026 59.3818 71.7193 59.4979 71.502 59.5525C69.8253 59.9829 68.1893 59.8873 66.594 59.2793C66.3836 59.1973 66.241 59.047 66.1664 58.8352C65.8677 58.0017 65.7115 57.3937 65.6912 57.0043C65.4061 51.3681 65.2703 45.1375 65.2771 38.3126C65.2771 36.0991 65.5622 34.6029 66.1392 33.8241C67.4562 32.0273 69.1736 31.556 71.2984 32.4031Z" fill="#181818"/>
<path d="M47.0436 42.8831C45.4144 43.3203 44.2536 45.6021 42.1899 45.9915C39.2234 46.5449 35.259 44.5159 36.637 40.772C38.8093 34.8899 47.5188 33.1341 52.5897 35.4091C58.6518 38.1213 60.4507 45.7387 55.9907 50.8352C55.1014 51.86 54.1782 52.8574 53.2346 53.8344C51.8091 55.3169 51.3543 56.7721 50.913 58.6645C50.7637 59.2998 50.2477 59.778 49.6096 59.8737C47.865 60.1401 46.2765 59.8259 44.8306 58.9309C44.5794 58.7738 44.4165 58.5142 44.3962 58.2204C44.1246 54.907 45.1565 52.1606 47.4849 49.9813C48.7271 48.8267 49.854 47.5697 50.8519 46.2101C51.3475 45.5338 51.361 44.8779 50.8926 44.2358C49.9219 42.8967 48.6389 42.4458 47.0436 42.8831Z" fill="#181818"/>
<path d="M91.6771 38.3471C91.0458 37.9987 90.8965 37.0627 91.3377 36.2498C91.7789 35.4436 92.6546 35.0679 93.2792 35.4163C93.9105 35.7647 94.0598 36.7007 93.6186 37.5136C93.1774 38.3198 92.3016 38.6955 91.6771 38.3471Z" fill="#181818"/>
<path d="M17.6908 39.2005C17.1816 40.5737 16.3331 40.8948 15.1451 40.1775C14.6496 39.8769 14.5749 39.18 14.9958 38.777C15.4913 38.3056 16.0616 38.0255 16.6997 37.9435C17.3921 37.8479 17.9352 38.5379 17.6908 39.2005Z" fill="#181818"/>
<path d="M99.3548 45.7867L98.418 45.4383C98.1532 45.3358 98.065 45.1513 98.1532 44.8781L98.7166 43.136C98.8049 42.8627 98.9814 42.7875 99.2326 42.9173C100.081 43.3273 100.767 43.9284 101.303 44.7209C101.439 44.9259 101.452 45.1377 101.337 45.3563C101.031 45.9233 100.848 46.5518 100.787 47.235C100.767 47.4058 100.604 47.5151 100.448 47.4673L100.237 47.4058C99.9793 47.3307 99.796 47.0984 99.7824 46.8251L99.7553 46.3332C99.7485 46.0668 99.6127 45.8823 99.3548 45.7867Z" fill="#181818"/>
<path d="M100.407 48.5325C100.034 50.1039 99.3278 50.8963 98.296 50.9168C98.0856 50.9168 97.9159 50.7392 97.9362 50.5274L98.0788 49.1611C98.0991 48.9083 98.2349 48.799 98.4861 48.8263C99.0631 48.8878 99.5654 48.717 99.9863 48.3003C100.4 47.8835 100.543 47.9655 100.407 48.5325Z" fill="#181818"/>
<path d="M94.3788 56.3687C94.6028 56.6488 94.3855 57.1954 93.9036 57.5985C93.4148 57.9947 92.8378 58.0903 92.607 57.8102C92.383 57.5301 92.6002 56.9836 93.0822 56.5805C93.5709 56.1843 94.148 56.0886 94.3788 56.3687Z" fill="#181818"/>
<path d="M12.3886 58.7606C12.5243 58.6854 12.6669 58.6512 12.8094 58.6581C13.5901 58.6854 14.0042 59.6009 13.5426 60.2567C13.2235 60.7076 12.8773 61.138 12.4972 61.5547C12.2799 61.787 11.9066 61.7802 11.7029 61.5411C11.2888 61.056 11.0037 60.5163 10.8476 59.9288C10.7526 59.5735 10.9766 59.2183 11.3296 59.15C11.7029 59.0817 12.0559 58.9518 12.3886 58.7606Z" fill="#181818"/>
<path d="M76.8719 78.6198C75.7857 79.8632 74.4688 80.8812 72.9278 81.6736C72.7106 81.7829 72.5409 81.9674 72.4322 82.186C71.991 83.0741 71.6244 83.9828 70.9252 84.7138C70.1989 85.4721 69.4929 86.2441 68.8072 87.0366C67.8976 88.0955 66.9065 88.3209 65.6235 88.4098C65.5149 88.4166 65.4606 88.3688 65.4674 88.2595V88.0545C65.4674 87.9315 65.5285 87.8905 65.6439 87.9247C66.3431 88.1501 66.7436 87.9179 66.8522 87.2415C66.8929 86.9887 67.0287 86.8043 67.2663 86.695C67.436 86.6198 67.6125 86.5993 67.8094 86.6472C68.0198 86.7018 68.2167 86.6677 68.3999 86.5379C69.0313 86.0801 69.4929 85.4994 69.7984 84.7889C69.9002 84.5498 69.8187 84.42 69.5676 84.3995C69.2757 84.3722 69.0245 84.4883 68.8005 84.7548C68.5968 85.0075 68.3864 85.2262 68.1759 85.4243C67.2459 86.2782 67.0151 86.1211 67.4971 84.946C67.7822 84.256 68.5629 83.5797 69.2757 83.163C71.5362 81.8376 73.5795 80.2321 75.4056 78.3534C76.2948 77.4311 77.3131 76.5771 78.4468 75.8051C80.0963 74.6779 81.6237 73.3389 83.0289 71.7812C83.1783 71.6241 83.2054 71.385 83.1036 71.1869C82.8524 70.695 82.5809 70.1758 82.2958 69.6361C82.0718 69.2125 82.16 68.8504 82.5741 68.5566C82.7981 68.3927 83.0221 68.3927 83.2462 68.5635C83.7756 68.9665 84.0879 69.5267 84.1897 70.2577C84.244 70.654 84.7124 70.8316 85.0111 70.5652C85.6085 70.0323 86.0362 69.3765 86.2941 68.5976C86.3756 68.3585 86.3756 68.1194 86.2874 67.8803C85.7375 66.3705 86.138 64.9563 87.4957 63.6378C87.6111 63.5285 87.7876 63.5285 87.903 63.6378L88.0659 63.8086C88.2696 64.0203 88.2831 64.239 88.1066 64.4781C87.3124 65.5643 86.9323 66.5891 86.9594 67.566C86.9662 67.8871 87.3328 68.0648 87.5907 67.8803C88.1338 67.4909 88.6226 67.0468 89.057 66.5344C90.2178 65.1681 91.528 64.4098 92.4105 62.7565C92.5598 62.4832 92.4784 62.3466 92.1661 62.3534C91.9557 62.3534 91.752 62.4012 91.5484 62.4832C91.4058 62.5447 91.2565 62.3944 91.3176 62.2509L91.4873 61.8342C91.6434 61.4584 91.8674 61.4106 92.1593 61.6907L92.3698 61.8888C92.5259 62.0391 92.682 62.0323 92.8314 61.8752C93.2183 61.4721 93.6663 61.192 94.1687 61.0349C94.3927 60.9597 94.5352 61.0417 94.5963 61.274C94.7321 61.841 94.6167 62.3192 94.2569 62.7086C93.5034 63.5216 92.7703 64.3824 92.0575 65.3047C90.2246 67.6617 87.55 69.3286 85.4116 71.4465C83.3208 73.5233 81.2572 75.5934 79.2139 77.6497C78.5418 78.3261 77.9444 79.2415 77.4149 80.3961C76.1455 83.1835 74.0615 85.4653 71.1492 87.2415C70.8981 87.3918 70.8302 87.3303 70.9388 87.0571C71.061 86.7496 71.2714 86.5174 71.5769 86.3739C71.7806 86.2782 71.9503 86.1416 72.086 85.9572C72.792 85.0144 73.5252 84.0921 74.2787 83.1835C74.3262 83.1288 74.6792 82.6096 75.3377 81.619C75.9554 80.6967 77.3199 79.9794 77.2588 78.7496C77.2384 78.3807 77.1094 78.3329 76.8719 78.613V78.6198Z" fill="#181818"/>
<path d="M52.2843 66.1383C52.1689 68.1673 50.2546 69.7113 48.0076 69.5883C45.7607 69.4653 44.0228 67.7164 44.1382 65.6805C44.2536 63.6515 46.168 62.1075 48.4149 62.2305C50.6619 62.3535 52.3997 64.1024 52.2843 66.1383Z" fill="#181818"/>
<path d="M72.9752 66.4528C72.9752 68.5023 71.3256 70.1625 69.2891 70.1625C67.2526 70.1625 65.603 68.5023 65.603 66.4528C65.603 64.4033 67.2526 62.7432 69.2891 62.7432C71.3256 62.7432 72.9752 64.4033 72.9752 66.4528Z" fill="#181818"/>
<path d="M90.3261 63.2968C90.6452 63.0577 90.713 63.1192 90.523 63.4676C90.3533 63.7887 90.1021 64.0962 89.7762 64.3899C89.4504 64.6769 89.3825 64.6222 89.5658 64.226C89.7355 63.8639 89.9867 63.5496 90.3261 63.2968Z" fill="#181818"/>
<path d="M26.6852 65.8916C26.6852 66.7388 26.0064 67.422 25.1646 67.422C24.3229 67.422 23.644 66.7388 23.644 65.8916C23.644 65.0445 24.3229 64.3613 25.1646 64.3613C26.0064 64.3613 26.6852 65.0445 26.6852 65.8916Z" fill="#181818"/>
<path d="M74.319 72.7647C74.448 73.0243 74.5158 73.3112 74.5158 73.6187C74.5158 73.8783 74.414 74.1242 74.2375 74.3155C71.9363 76.7681 69.4585 79.0773 66.8042 81.2566C66.621 81.4001 66.5734 81.3659 66.6481 81.1473L67.3473 79.1797C67.4288 78.9543 67.5713 78.7767 67.7818 78.6537C69.4992 77.6016 71.1488 76.1942 72.7305 74.4317C73.1039 74.0149 73.1107 73.5982 72.7373 73.1814C72.5744 72.997 72.4454 72.792 72.3504 72.5529C72.2825 72.3753 72.3979 72.1772 72.5879 72.1703L73.355 72.1293C73.5723 72.1157 73.7691 72.0132 73.9049 71.8492C74.9096 70.6195 75.6699 69.301 76.1926 67.8868C76.3148 67.5521 76.7628 67.4837 76.9732 67.7775C78.073 69.2873 75.3848 71.2207 74.448 72.0542C74.2239 72.2592 74.1832 72.4983 74.319 72.7647Z" fill="#181818"/>
<path d="M26.9433 69.083C27.0519 69.0283 27.1673 69.001 27.2895 69.001C28.2806 69.0078 28.5454 69.5885 28.0905 70.7294C27.9955 70.9685 27.8258 71.1735 27.6086 71.3169C26.7261 71.8976 25.9454 72.5877 25.2734 73.4006C24.7778 74.0087 23.841 73.9677 23.393 73.3255C22.8431 72.533 22.8363 71.4331 23.6985 70.907C24.805 70.2239 25.8843 69.6158 26.9433 69.083Z" fill="#181818"/>
<path d="M31.7424 74.0018C30.9414 74.5484 30.4323 74.8558 29.9774 75.7917C29.8824 75.9967 29.7263 76.1333 29.509 76.2016C27.7644 76.7482 26.8005 78.135 25.1237 78.5586C24.6553 78.6747 24.2209 78.2648 24.3159 77.7866C24.4381 77.1718 24.7436 76.6799 25.2323 76.311C26.5425 75.3272 27.9002 74.3502 29.319 73.3801C30.1539 72.8131 30.955 72.7721 31.7356 73.2708C32.0004 73.4416 32.0004 73.8242 31.7424 74.0018Z" fill="#181818"/>
<path d="M32.8695 79.4875L33.5076 79.0571C33.7045 78.9273 33.9014 78.9273 34.0982 79.0571C34.2612 79.1664 34.3562 79.3304 34.3901 79.5558C34.4241 79.754 34.3766 79.9453 34.2612 80.1161C33.4601 81.3116 32.5641 82.4593 31.5797 83.5661C30.8941 84.3449 30.1338 84.4201 29.3056 83.7847L26.9772 82.0016C26.631 81.742 26.536 81.2501 26.7668 80.8744C27.4388 79.7745 28.4028 79.0366 29.6518 78.6472C29.8283 78.5926 29.9709 78.4901 30.0795 78.3398C30.2221 78.1348 30.256 77.9094 30.1813 77.6703C30.0999 77.3833 30.385 77.1374 30.6565 77.2535L30.867 77.3492C31.091 77.4517 31.3082 77.4312 31.5119 77.3014C31.8445 77.0827 32.1975 77.0213 32.5573 77.1169C32.7881 77.1784 32.9714 77.3628 33.0325 77.602C33.1886 78.2237 33.0868 78.8044 32.727 79.3441C32.5301 79.631 32.5776 79.6788 32.8695 79.4875Z" fill="#181818"/>
<path d="M48.9374 80.1909C48.9918 79.9039 49.1615 79.7127 49.4534 79.6238C49.8403 79.5077 49.9218 79.6238 49.7113 79.9586C49.2429 80.7033 48.7474 81.3591 48.2247 81.9398C47.9463 82.2404 47.8445 82.1926 47.9124 81.7895C47.9871 81.3045 48.245 80.9082 48.6795 80.6008C48.8153 80.5051 48.9103 80.3548 48.9374 80.1909Z" fill="#181818"/>
<path d="M37.3157 86.4696C37.0577 86.7566 36.6165 86.7839 36.3314 86.5243L36.2499 86.4491C35.958 86.1895 35.9377 85.7455 36.1956 85.4585L41.1987 79.8428C41.4566 79.5559 41.8979 79.5285 42.183 79.7882L42.2644 79.8633C42.5563 80.1229 42.5767 80.567 42.3187 80.8539L37.3157 86.4696Z" fill="#181818"/>
<path d="M54.755 81.8656C54.3545 81.2781 53.8929 81.1278 53.3634 81.4216C53.0444 81.5924 52.7864 81.5309 52.5827 81.2371L52.3927 80.9502C52.2094 80.6837 52.2637 80.4856 52.5556 80.3558L53.4788 79.9391C53.73 79.8298 53.9608 79.8571 54.178 80.0142C54.9655 80.5813 55.4882 81.4216 55.7461 82.5351C55.7869 82.7264 55.9023 82.8836 56.0652 82.986C56.1399 83.0339 56.2213 83.0544 56.3096 83.0544C56.4385 83.0544 56.4589 83.1022 56.3639 83.191C55.8412 83.6897 55.3796 84.2431 54.9858 84.8511C54.9383 84.9263 54.8772 84.9399 54.8093 84.8784L54.6668 84.7623C54.6668 84.7623 54.6464 84.7145 54.6668 84.7008C55.5696 84.0655 55.5968 83.1227 54.755 81.8656Z" fill="#181818"/>
<path d="M42.7193 85.1234C41.5924 85.8407 40.3909 86.3873 39.1079 86.7562C39.1079 86.7562 39.1034 86.7562 39.0943 86.7562L39.0264 86.5512C38.9857 86.4419 39.0196 86.3668 39.1283 86.3258C40.6149 85.7383 41.6332 84.7955 42.1966 83.5043C42.7804 82.1516 44.4504 80.9082 45.9031 81.6187C46.0796 81.7075 46.2696 81.7553 46.4597 81.7758C47.0299 81.8305 47.1861 82.0764 46.9281 82.5205C46.8331 82.6776 46.7109 82.8143 46.5615 82.9167C45.8148 83.436 45.1156 84.0167 44.4571 84.652C44.1041 84.9936 43.7783 85.1097 43.3235 85.0141C43.1062 84.9663 42.9026 85.0073 42.7193 85.1234Z" fill="#181818"/>
<path d="M57.8101 86.4017C59.5751 85.7936 62.3719 85.131 62.3312 82.8696C62.3244 82.3641 62.5416 82.2206 62.9964 82.4324L63.94 82.8696C64.327 83.0404 64.4831 83.341 64.422 83.7578C64.3677 84.0925 64.2251 84.4683 64.0011 84.8713C63.8857 85.0763 63.716 85.1788 63.4784 85.1788C61.727 85.1788 61.1093 86.2035 60.0774 87.3308C59.6701 87.7748 59.0456 87.9456 58.4754 87.768C57.8305 87.5631 57.2535 87.2761 56.7443 86.9004C56.2488 86.5315 56.1945 86.1079 56.5882 85.6365C57.5793 84.4273 58.8759 83.3684 60.4712 82.4461C60.668 82.3299 60.7699 82.3846 60.7631 82.6169L60.7427 83.5801C60.7427 83.8124 60.6341 83.9695 60.4101 84.0515C59.2357 84.4683 58.3057 85.1583 57.6065 86.1216C57.3824 86.429 57.4503 86.5246 57.8101 86.4017Z" fill="#181818"/>
</g>
<defs>
<clipPath id="clip0_445_5055">
<rect width="116" height="96" fill="white"/>
</clipPath>
</defs>
</svg>
