<svg width="464" height="464" viewBox="0 0 464 464" fill="none" xmlns="http://www.w3.org/2000/svg">
<path d="M386.778 287.657V291.912C386.121 293.616 385.618 295.403 384.775 297.009C383.145 300.112 381.457 303.202 379.542 306.133C377.09 309.885 374.489 313.552 371.761 317.109C369.858 319.596 367.602 321.811 365.56 324.193C362.795 327.419 359.843 330.461 356.333 332.862C353.347 334.905 351.233 337.571 349.94 340.89C349.438 342.18 349.215 343.578 348.885 344.852C350.802 344.182 352.528 343.118 354.277 343.079C356.982 343.017 359.771 343.395 362.398 344.068C364.954 344.722 367.345 346.009 369.823 346.977C373.594 348.447 376.354 350.987 378.186 354.593C380.842 359.815 381.818 365.418 381.972 371.199C382.02 372.935 381.911 374.688 381.701 376.411C381.486 378.158 381.212 379.931 380.675 381.599C380.09 383.412 379.17 385.117 378.396 386.869C377.513 388.869 376.317 390.536 374.197 391.451C372.663 392.113 371.259 393.081 369.722 393.735C368.669 394.182 367.435 394.932 366.443 393.531C366.14 393.102 365.89 392.639 365.592 392.158C363.231 392.77 360.864 393.397 358.492 393.998C353.227 395.333 347.888 396.107 342.45 396.165C336.299 396.232 330.151 396.296 324.003 396.45C322.004 396.501 320.012 396.828 318.018 397.043C315.082 397.362 312.157 397.817 309.213 397.982C307.07 398.101 304.908 397.777 302.754 397.78C300.425 397.782 298.093 397.891 295.766 398.04C294.455 398.123 293.157 398.378 291.851 398.556H289.192C288.788 398.468 288.387 398.341 287.98 398.296C285.64 398.051 283.324 397.857 281.452 396.091C280.399 395.097 279.338 393.969 277.75 393.775C276.16 393.581 274.564 393.411 272.972 393.238C271.365 393.062 269.759 392.858 268.148 392.733C266.398 392.597 264.628 392.35 262.894 392.491C259.133 392.799 255.39 393.299 251.645 393.764C247.524 394.278 243.418 394.948 239.288 395.352C235.382 395.732 231.452 395.932 227.527 396.064C225.083 396.147 222.632 395.934 220.185 395.9C212.665 395.796 205.14 395.809 197.625 395.586C194.423 395.49 191.227 394.985 188.047 394.538C184.492 394.038 180.944 394.153 177.474 394.881C171.289 396.184 165.085 397.269 158.778 397.777C157.124 397.91 155.488 398.29 153.842 398.556H146.929C146.668 398.468 146.415 398.333 146.147 398.298C144.855 398.128 143.56 397.921 142.262 397.844C139.717 397.689 137.167 397.564 134.617 397.514C131.378 397.45 128.129 397.602 124.898 397.421C122.236 397.272 119.593 396.48 116.944 396.503C113.269 396.538 109.789 395.724 106.273 394.935C102.736 394.142 99.2025 394.022 95.6443 394.817C92.9802 395.413 90.6507 394.083 90.3264 391.563C89.837 387.752 89.486 383.918 89.26 380.083C89.1376 378.036 89.3185 375.956 89.5096 373.906C89.712 371.744 90.0548 369.593 90.4033 367.449C90.9059 364.36 92.4032 361.687 94.0302 359.079C95.7002 356.401 97.5166 353.848 100.33 352.229C101.984 351.277 103.696 350.351 105.691 350.83C107.084 351.165 108.408 351.532 109.903 351.564C113.854 351.652 117.827 351.928 121.526 353.585C124.241 354.8 127.054 354.616 129.862 354.117C130.963 353.92 132.016 353.455 133.09 353.109C132.492 351.926 132.152 350.468 131.242 349.612C128.772 347.285 126.185 345.038 123.416 343.081C119.234 340.127 115.011 337.173 110.53 334.716C103.691 330.964 96.6445 327.581 89.6321 324.154C87.4702 323.095 85.4067 322.023 84.2475 319.816C83.7659 318.902 83.4815 317.883 83.1064 316.913C83.1064 316.381 83.1064 315.849 83.1064 315.317C83.7264 312.533 84.4284 309.762 84.947 306.957C85.6885 302.941 86.2578 298.899 87.7735 295.062C89.6321 290.353 92.2167 286.099 95.6899 282.429C97.3225 280.706 99.0427 279.028 101.335 278.126C103.375 277.326 105.467 277.049 107.645 277.278C111.309 277.664 114.976 278.004 118.638 278.401C122.401 278.804 126.153 279.329 129.921 279.658C132.607 279.892 135.077 280.74 137.372 282.022C139.688 283.317 141.852 284.875 144.378 286.511C144.546 285.019 144.665 283.868 144.809 282.719C145.243 279.265 145.599 275.797 146.152 272.362C146.556 269.856 146.968 267.301 147.841 264.942C148.74 262.512 150.234 260.308 151.399 257.97C152.353 256.055 153.175 254.077 154.111 252.152C155.568 249.147 157.02 246.137 158.573 243.182C159.974 240.518 161.434 237.878 163.006 235.312C164.899 232.219 167.103 229.307 168.864 226.146C170.738 222.779 172.028 219.187 172.837 215.331C173.645 211.47 175.427 207.819 176.658 204.035C177.19 202.402 177.61 200.684 177.719 198.98C177.849 196.932 177.583 194.863 177.509 192.803C177.463 191.563 177.878 190.54 178.897 189.742C179.471 189.29 180.104 188.755 180.383 188.115C181.444 185.692 183.061 183.775 185.263 182.355C189.961 179.324 194.681 176.324 199.388 173.303C201.877 171.705 204.433 170.197 206.82 168.458C208.892 166.951 210.743 165.142 212.742 163.531C213.606 162.834 214.883 162.491 215.476 161.64C216.845 159.672 217.914 157.492 219.087 155.428C215.949 155.543 212.968 155.804 209.995 155.721C206.637 155.628 203.244 155.468 199.941 154.899C195.998 154.221 193.37 151.839 192.873 147.656C192.546 144.906 192.309 142.143 192.163 139.381C192.116 138.461 191.9 137.966 191.009 137.647C190.118 137.328 189.289 136.825 188.465 136.346C186.736 135.344 186.35 134.506 187.087 132.632C188.169 129.874 189.422 127.183 190.573 124.452C190.708 124.13 190.759 123.708 190.682 123.37C189.943 120.104 189.236 116.828 188.366 113.595C188.055 112.444 188.395 111.989 189.344 111.803C189.478 111.194 189.757 110.625 189.685 110.103C189.528 108.965 190.778 107.657 189.273 106.655C189.118 106.553 189.185 105.963 189.294 105.652C190.459 102.315 190.842 98.8312 191.384 95.3641C191.698 93.3483 191.817 91.027 194.264 90.0591C194.432 89.9925 194.477 89.5697 194.543 89.3063C195.11 87.0061 196.038 84.8816 198.106 83.5759C202.114 81.0446 206.57 79.6216 211.25 79.2281C216.353 78.7976 221.456 79.3746 226.405 80.6454C232.125 82.1161 237.778 83.847 243.426 85.5836C248.151 87.0353 252.962 88.3491 257.243 90.9127C259.032 91.9842 260.652 93.3724 262.229 94.7549C262.694 95.1643 262.798 96.0339 262.968 96.7175C263.154 97.4538 263.324 98.2199 263.319 98.9726C263.314 99.7648 263.016 100.552 262.981 101.347C262.827 104.876 262.867 108.42 262.556 111.933C262.279 115.087 261.833 118.254 261.078 121.322C260.681 122.936 260.886 124.146 261.684 125.452C261.947 125.885 262.024 126.433 262.285 127.239C261.596 126.925 261.341 126.808 261.038 126.673C260.942 128.518 260.984 130.292 259.673 131.752C259.251 132.222 259.07 132.951 258.892 133.594C258.687 134.344 258.668 135.142 258.464 135.892C257.993 137.626 258.767 139.061 259.466 140.527C259.719 141.056 260.059 141.569 260.184 142.128C260.394 143.085 260.466 144.074 260.601 145.098C260.761 145.108 260.931 145.14 261.099 145.127C265.313 144.755 268.706 146.154 271.273 149.613C271.81 150.339 272.283 151.341 273.65 151.288C276.801 151.161 279.963 151.219 283.116 151.259C284.64 151.277 286.177 151.323 287.682 151.543C289.153 151.759 290.517 152.07 291.915 151.126C292.501 150.733 293.455 150.658 294.194 150.762C296.76 151.118 299.321 151.541 301.853 152.089C303.781 152.506 305.549 153.344 306.381 155.319C306.681 156.032 306.629 156.891 306.892 157.628C308.32 161.643 309.92 165.605 311.223 169.66C312.417 173.375 313.468 177.117 316.244 180.033C316.797 180.616 317.441 181.358 318.148 181.499C319.929 181.852 320.634 183.006 320.818 184.562C321.153 187.41 321.217 190.295 321.671 193.122C322.155 196.145 322.942 199.121 323.652 202.104C323.721 202.397 324.133 202.737 324.45 202.822C326.83 203.458 328.968 204.827 330.018 206.835C331.305 209.292 331.795 212.18 332.505 214.916C332.818 216.126 332.645 217.471 333.01 218.658C334.068 222.098 335.339 225.47 336.429 228.903C337.195 231.32 338.294 233.78 338.341 236.237C338.392 238.79 340.365 240.93 339.527 243.542C339.365 244.047 339.314 244.587 339.213 245.113C339.123 245.629 339.296 246.209 339.597 246.714C340.203 247.733 340.096 248.684 339.562 249.684C339.429 249.934 339.397 250.392 339.541 250.613C340.892 252.737 342.381 254.782 343.649 256.954C344.864 259.037 345.888 261.233 346.957 263.397C348.127 265.767 349.379 268.107 350.361 270.553C351.164 272.553 352.514 273.327 354.546 273.348C355.679 273.358 356.814 273.486 357.942 273.614C361.689 274.034 365.432 274.467 369.174 274.914C371.323 275.169 373.54 275.202 375.596 275.789C378.776 276.698 381.544 278.477 383.345 281.357C384.613 283.386 385.642 285.564 386.778 287.675V287.657Z" fill="white"/>
<path d="M113.286 399.846C112.98 399.344 112.488 399.588 112.092 399.593C108.193 399.626 104.462 398.767 100.814 397.487C100.136 397.251 99.5349 397.206 98.8037 397.424C95.8044 398.325 92.8606 397.594 90.0551 396.634C88.1222 395.972 86.2022 395.655 84.2611 395.911C82.2853 396.171 80.3017 396.152 78.331 396.262C75.3102 396.432 72.2818 396.86 69.1704 396.607C69.277 395.972 69.7023 395.942 70.1332 395.863C75.4061 394.9 80.6712 393.905 85.9496 392.988C86.6516 392.866 86.6516 392.738 86.4789 392.129C84.4154 384.934 84.9258 377.751 86.6091 370.569C87.5796 366.418 88.6803 362.31 90.7361 358.55C93.7061 353.117 98.2589 349.61 104.199 347.902C105.744 347.459 107.31 347.576 108.893 347.751C109.725 347.841 109.924 348.77 110.682 348.86C111.775 348.99 111.281 349.913 111.467 350.45C117.173 350.362 122.832 350.424 128.328 352.248C127.233 349.753 124.792 348.961 122.728 347.762C115.942 343.815 109.23 339.747 102.83 335.2C97.9131 331.706 92.8606 328.371 88.4625 324.188C87.9066 323.659 87.3936 322.502 86.2448 323.478C86.1996 323.515 85.3992 323.404 85.0641 322.737C83.3808 319.389 82.8438 315.764 82.1951 312.153C81.49 308.215 80.9745 304.245 80.6896 300.261C80.3575 295.605 79.7084 290.955 80.3227 286.261C80.7537 282.974 82.1551 280.153 83.9153 277.396C86.4841 273.372 89.7789 270.189 93.5575 267.264C96.2805 265.155 98.8862 265.719 101.668 266.038C109.049 266.884 116.131 269.035 123.124 271.391C129.254 273.455 135.253 275.906 140.887 279.14C141.938 279.743 142.935 280.44 143.985 281.111C143.302 276.864 144.315 272.891 145.421 268.976C146.974 263.496 149.58 258.423 151.822 253.208C153.728 248.775 155.803 244.417 158.007 240.138C160.015 236.24 162.073 232.352 164.256 228.536C167.864 222.229 170.845 215.645 171.994 208.38C172.949 202.344 174.802 196.55 176.571 190.726C177.033 189.205 177.897 188.168 179.389 187.65C180.543 187.248 181.32 186.794 181.394 185.23C181.487 183.286 182.934 181.938 184.697 181.156C187.96 179.709 190.563 177.292 193.485 175.346C197.216 172.857 201.069 170.565 205.023 168.45C205.866 168.001 206.39 167.48 206.789 166.539C207.57 164.691 209.084 163.329 210.735 162.231C212.36 161.148 213.929 159.934 215.854 159.364C216.229 159.253 216.516 158.96 216.665 158.319C215.718 158.934 214.641 158.78 213.873 159.505C213.753 159.617 213.543 159.742 213.41 159.71C212.213 159.423 211.312 160.322 210.214 160.468C207.339 160.851 204.353 160.96 201.654 161.883C199.907 162.478 198.421 162.199 196.876 161.976C194.956 161.699 194.014 160.093 193.27 158.455C192.831 157.492 192.685 156.444 192.629 155.402C192.523 153.392 191.135 151.823 190.826 149.858C190.332 146.709 190.164 143.577 190.627 140.426C190.712 139.838 190.592 139.78 190.033 139.689C187.183 139.232 185.351 136.52 186.055 133.725C186.848 130.576 187.901 127.505 189.39 124.607C189.741 123.923 189.778 123.378 189.403 122.671C188.589 121.131 187.904 119.525 187.146 117.956C186.829 117.305 186.835 116.627 186.848 115.936C186.853 115.627 186.983 115.246 186.853 115.018C185.503 112.654 186.829 110.428 187.313 108.24C188.278 103.879 189.089 99.47 190.592 95.2394C190.704 94.9228 190.751 94.7394 190.249 94.4524C188.733 93.5854 187.744 92.104 187.734 90.3838C187.72 88.2429 186.997 86.2619 186.768 84.1825C186.579 82.4756 186.332 80.7497 186.891 79.0983C187.406 77.5748 187.034 75.9684 187.611 74.4368C188.217 72.8308 189.262 71.868 190.837 71.4852C191.382 71.3525 191.815 71.2193 192.179 70.7965C192.876 69.9854 193.661 69.4032 194.815 69.249C195.596 69.145 195.998 68.1878 196.873 67.9485C198.266 67.5657 199.58 67.8209 200.845 68.2596C201.547 68.5014 201.84 68.2995 202.002 67.7517C202.553 65.8957 203.837 65.3029 205.674 65.2573C206.432 65.2388 207.179 64.6537 207.927 64.319C209.496 63.617 210.833 64.2232 212.043 65.1486C212.759 65.6938 213.349 65.8717 214.298 65.659C216.455 65.1778 218.773 64.5583 220.832 64.6992C224.193 64.9304 227.759 64.0634 230.958 65.8317C231.455 66.1058 232.138 66.2626 232.409 66.6854C233.409 68.2437 234.622 67.4965 235.544 66.8847C237.35 65.6882 239.041 66.0049 240.751 66.8688C241.392 67.1932 241.876 67.4617 242.669 67.2147C245.064 66.4727 247.114 67.4325 248.965 68.858C249.598 69.3448 250.204 69.6026 250.994 69.5841C253.212 69.5308 255.278 69.9562 256.863 71.682C257.217 72.0674 257.653 72.0064 258.091 71.972C260.166 71.8178 261.892 72.5408 263.247 74.0914C264.024 74.9768 265.109 75.3837 266.021 76.0616C269.276 78.4787 270.895 81.7254 271.105 85.733C271.145 86.5175 271.475 87.2724 271.369 88.0809C271.313 88.5119 271.491 88.679 271.953 88.7245C272.78 88.8014 273.065 89.3892 272.943 90.1389C272.408 93.4419 271.901 96.7496 271.278 100.036C270.762 102.775 270.106 105.487 269.502 108.21C269.161 109.742 268.425 110.963 267.146 111.981C265.912 112.96 265.508 114.587 265.029 116.026C264.457 117.743 264.231 119.573 263.782 121.336C263.644 121.881 263.607 122.115 264.263 122.216C265.029 122.336 265.239 122.887 265.279 123.665C265.351 125.083 265.255 126.357 263.96 127.266C263.71 127.441 263.471 127.758 263.2 127.718C261.862 127.527 261.745 128.476 261.535 129.385C260.86 132.307 260.168 135.227 259.493 138.15C259.41 138.509 259.179 138.961 259.69 139.182C261.852 140.12 261.663 141.795 261.059 143.702C263.186 143.606 265.228 143.731 267.303 144.141C269.821 144.638 270.789 146.343 271.595 148.369C271.767 148.808 271.799 149.3 271.908 149.765C272.002 150.161 272.193 150.273 272.658 150.254C279.413 149.988 286.164 149.962 292.918 150.275C296.691 150.451 300.374 151.288 304.116 151.682C305.724 151.852 306.456 153.177 307.195 154.304C310.974 160.074 312.827 166.6 314.38 173.229C314.42 173.399 314.46 173.607 314.399 173.756C313.896 174.944 314.585 175.234 315.553 175.564C316.853 176.008 317.108 177.375 317.616 178.457C317.943 179.151 318.188 179.473 319.058 179.162C320.198 178.75 321.033 179.388 321.464 180.427C322.501 182.946 323.049 185.597 323.437 188.28C324.028 192.348 324.099 196.481 325.006 200.515C325.245 201.578 325.508 202.179 326.769 202.182C328.814 202.187 329.835 203.698 330.585 205.322C331.803 207.957 332.284 210.837 333.135 213.595C334.645 218.488 336.002 223.431 337.31 228.383C338.488 232.847 339.565 237.344 340.564 241.851C340.807 242.947 341.131 244.271 339.916 245.167C339.517 245.459 339.669 245.728 339.82 246.071C341.679 250.256 343.293 254.708 346.282 258.125C348.925 261.148 349.63 264.727 350.935 268.174C351.273 269.067 351.664 269.136 352.313 268.751C353.437 268.086 354.698 267.687 355.722 266.818C358.617 264.361 362.045 264.573 365.473 265.065C370.905 265.844 376.237 267.129 381.51 268.631C383.475 269.19 385.451 269.788 387.262 270.838C388.333 271.46 388.482 271.958 387.467 272.739C387.988 273.152 388.514 273.425 388.831 274.01C391.503 278.972 393.683 284.096 394.696 289.692C394.915 290.896 394.59 292.159 395.181 293.297V295.422C394.614 295.906 395.005 296.571 394.872 297.14C393.957 301.054 392.245 304.601 390.001 307.909C387.756 311.217 385.126 314.225 382.603 317.312C378.864 321.888 374.671 326.036 370.27 329.974C365.84 333.94 360.729 337.067 356.357 341.217C361.787 342.284 367.06 343.549 371.985 345.932C376.543 348.139 380.157 351.277 381.994 356.183C383.212 359.432 383.954 362.765 384.315 366.213C384.876 371.593 384.544 376.879 383.039 382.086C382.414 384.242 381.188 386.144 380.46 388.226C379.835 390.015 378.792 391.238 377.346 392.294C376.405 392.98 375.373 393.52 374.134 394.209C375.625 394.334 376.851 394.355 378.05 394.552C382.645 395.304 387.248 395.903 391.918 395.865C392.234 395.865 392.779 395.719 392.729 396.235C392.694 396.578 392.654 397.15 392.035 397.211C391.737 397.243 391.442 397.448 391.155 397.431C387.179 397.224 383.244 397.916 379.284 397.958C375.676 397.998 372.062 397.815 368.459 397.785C360.811 397.724 353.169 397.482 345.524 397.461C343.865 397.456 342.205 397.886 340.549 397.647C338.413 397.341 336.281 397.113 334.119 397.174C331.074 397.261 328.032 397.235 324.982 397.379C320.542 397.589 316.093 397.777 311.649 397.913C306.448 398.072 301.257 398.522 296.048 398.509C294.631 398.503 293.203 398.394 291.799 398.53C288.616 398.841 285.571 397.838 282.444 397.682C282.279 397.674 282.114 397.586 281.96 397.517C279.521 396.416 276.961 395.701 274.296 395.608C269.624 395.445 264.965 395.828 260.298 396.052C256.028 396.256 251.742 396.211 247.463 396.368C243.405 396.517 239.326 396.376 235.287 396.724C232.691 396.948 230.093 396.903 227.501 397.094C222.164 397.49 216.798 397.618 211.445 397.591C208.807 397.578 206.159 397.514 203.515 397.434C201.356 397.368 199.162 397.431 197.048 397.065C194.804 396.677 192.6 396.807 190.398 397.001C186.553 397.339 182.694 397.355 178.881 397.059C176.453 396.87 174.124 396.982 171.784 397.397C167.441 398.168 163.102 398.915 158.706 399.365C157.299 399.508 155.821 399.221 154.465 399.833H137.726C137.515 399.391 137.109 399.575 136.79 399.575C129.31 399.564 121.829 399.567 114.349 399.583C114.078 399.583 113.714 399.434 113.546 399.833H113.28L113.286 399.846ZM310.136 363.517C309.886 363.578 309.639 363.642 309.389 363.703C308.514 363.69 307.833 364.243 307.059 364.522C302.526 366.155 298.013 367.849 293.471 369.466C292.644 369.758 292.28 370.096 292.336 371.026C292.418 372.383 292.262 373.741 292.16 375.1C291.807 379.943 290.533 384.503 288.312 388.8C287.98 389.444 287.911 389.983 288.132 390.619C288.642 392.092 288.706 393.619 288.629 395.15C288.587 396.025 288.366 396.152 287.467 396.027C286.472 395.033 286.786 393.512 285.994 392.331C285.252 392.922 284.696 393.682 283.896 394.145C283.467 394.392 283.483 394.866 283.67 395.198C283.992 395.775 284.17 396.328 283.821 396.964C285.111 396.631 286.3 396.326 287.485 396.022C287.366 396.349 286.898 396.429 286.895 396.918C292.363 396.671 297.819 396.402 303.278 396.185C308.264 395.988 313.25 395.812 318.236 395.653C323.711 395.477 329.194 395.504 334.675 395.381C341.767 395.222 348.845 395.432 355.894 394.084C360.732 393.158 365.013 391.622 368.161 387.659C368.477 387.26 369.116 386.984 369.56 387.21C370.118 387.497 370.323 388.146 370.169 388.811C369.881 390.05 369.238 391.079 368.201 391.815C367.773 392.121 367.339 392.387 366.994 393.015C369.706 392.597 372.331 392.364 374.564 390.819C375.402 390.239 376.354 389.845 376.923 388.829C379.925 383.461 381.002 377.658 381.116 371.593C381.191 367.623 380.648 363.74 379.779 359.882C378.739 355.266 376.559 351.383 372.573 348.698C369.69 346.757 366.433 345.589 363.223 344.307C360.296 343.14 357.695 344.592 354.948 344.948C355.682 345.536 356.543 345.454 357.333 345.629C360.399 346.315 363.5 346.95 366.249 348.525C373.541 352.694 377.391 359.212 378.106 367.41C378.638 373.51 377.896 379.578 375.477 385.309C375.006 386.42 374.485 387.532 373.74 388.526C373.328 389.074 372.929 388.821 372.604 388.649C372.253 388.46 371.897 388.058 372.253 387.601C372.668 387.069 372.575 386.426 372.743 385.843C374.657 379.262 375.423 372.566 375.035 365.703C374.719 360.108 371.857 356.021 367.858 352.484C365.151 350.091 361.824 348.942 358.442 348.113C356.219 347.565 354.211 345.82 351.682 346.669C351.568 346.709 351.363 346.544 351.225 346.44C350.651 346.015 350.111 346.153 349.51 346.429C343.564 349.152 337.632 351.91 331.648 354.551C326.349 356.888 320.983 359.071 315.582 361.166C313.745 361.879 311.803 362.414 310.131 363.523L310.136 363.517ZM215.372 164.374C214.492 165.129 213.899 165.722 213.229 166.204C209.836 168.65 206.175 170.682 202.664 172.947C197.474 176.298 192.342 179.744 186.941 182.757C185.75 183.422 184.604 184.06 183.662 185.108C182.816 186.046 182.269 187.192 181.367 188.067C180.66 188.753 180.102 189.445 180.197 190.57C180.261 191.327 179.974 192.114 179.833 192.888C179.325 195.635 178.208 198.212 177.594 200.927C176.528 205.639 175.594 210.38 174.448 215.073C172.824 221.729 169.343 227.592 166.136 233.538C161.727 241.713 157.983 250.187 154.215 258.656C152.72 262.015 151.42 265.464 149.045 268.357C148.583 268.921 147.966 269.673 148.022 270.282C148.171 271.878 147.977 273.423 147.838 274.989C147.628 277.369 147.665 279.794 146.706 282.039C146.432 282.682 146.87 282.663 147.174 282.823C152.415 285.583 157.592 288.449 162.724 291.414C170.077 295.661 177.219 300.235 184.282 304.936C190.741 309.236 197.118 313.658 203.521 318.041C203.763 318.205 203.997 318.344 204.239 318.219C204.523 318.07 204.449 317.753 204.348 317.516C203.999 316.703 204.122 315.844 204.188 315.025C204.281 313.892 204.494 312.584 205.752 312.257C206.441 312.079 206.712 311.725 206.991 311.281C208.35 309.122 209.826 307.058 211.66 305.274C214.08 302.921 216.801 301.03 220.175 300.386C221.59 300.118 223.036 300.565 224.461 300.74C228.083 301.184 231.857 300.737 235.249 302.562C235.436 302.662 235.76 302.538 236.01 302.479C240.424 301.456 244.841 300.448 249.247 299.392C253.177 298.453 257.145 297.642 260.875 296.012C261.2 295.871 261.535 295.991 261.405 295.294C261.128 293.829 261.697 292.576 263.016 291.731C266.851 289.274 270.86 287.163 275.187 285.727C275.969 285.466 276.152 285.243 276.208 284.472C276.285 283.4 276.793 282.52 277.915 282.07C279.123 281.584 280.335 281.065 281.455 280.411C286.449 277.494 291.631 274.997 297.159 273.274C298.109 272.979 298.117 272.591 297.71 271.806C296.769 269.987 296.186 268.027 295.676 266.049C295.471 265.254 295.423 264.512 296.136 263.871C297.378 262.752 298.008 261.228 298.8 259.797C299.308 258.88 299.178 258.271 298.665 257.46C296.982 254.796 295.628 251.971 294.825 248.905C294.601 248.054 295.006 247.254 295.508 246.911C296.104 246.504 296.537 247.352 296.872 247.834C298.462 250.131 299.965 252.487 300.89 255.149C301.371 256.534 301.973 257.902 300.935 259.367C299.755 261.031 298.258 262.526 298.965 264.996C299.574 267.115 299.744 269.362 300.071 271.562C300.146 272.064 300.38 272.09 300.787 272.061C301.502 272.008 300.973 271.681 300.917 271.492C300.539 270.184 301.302 269.734 302.374 269.376C305.509 268.325 308.745 268.493 311.947 268.65C314.505 268.772 317.103 268.913 319.552 269.892C319.962 270.054 320.387 270.189 320.318 270.628C320.227 271.202 319.666 271.048 319.347 270.905C318.826 270.671 318.307 270.748 317.786 270.724C314.032 270.543 310.309 271.035 306.573 271.266C306.068 271.298 305.257 271.388 305.206 271.779C305.001 273.367 303.667 273.702 302.616 274.101C294.29 277.281 286.539 281.858 277.894 284.248C277.618 284.325 277.203 284.118 277.33 284.807C277.663 286.575 276.868 287.897 275.36 288.785C272.02 290.747 268.669 292.693 265.311 294.624C263.753 295.52 263.755 295.478 265.13 296.544C265.652 296.948 266.141 297.421 266.54 297.945C268.026 299.887 269.364 301.929 270.571 304.061C271.004 304.83 271.182 306.072 272.009 306.234C273.107 306.449 273.647 307.013 274.02 307.875C274.304 308.537 274.634 308.462 275.128 308.17C278.878 305.957 282.635 303.764 286.382 301.546C293.556 297.302 300.749 293.095 308.176 289.301C313.122 286.772 318.159 284.442 323.248 282.222C328.62 279.879 333.922 277.38 339.243 274.92C342.609 273.364 345.957 271.766 349.3 270.158C349.539 270.043 350.204 270.019 349.784 269.418C348 266.87 347.329 263.794 345.388 261.236C341.631 256.277 338.698 250.767 336.486 244.912C336.02 243.678 335.717 242.316 334.986 241.263C333.358 238.92 332.407 236.336 331.702 233.626C330.768 230.039 330.011 226.398 328.931 222.857C327.279 217.437 325.142 212.167 323.908 206.614C322.879 201.982 321.844 197.363 321.57 192.593C321.392 189.498 321.092 186.389 320.084 183.403C319.839 182.674 319.518 182.201 318.783 181.991C317.869 181.73 316.952 181.334 316.699 180.358C316.409 179.231 315.715 178.75 314.678 178.484C313.213 178.106 311.761 177.681 310.314 177.236C304.052 175.303 298.085 172.676 292.376 169.474C286.821 166.358 281.526 162.853 276.961 158.37C276.208 157.631 275.488 157.155 274.426 157.261C273.799 157.325 273.257 157.133 272.855 156.634C271.672 158.979 270.555 161.359 269.297 163.659C266.957 167.94 264.383 172.101 262.194 176.457C260.128 180.571 257.818 184.469 254.632 187.849C254.797 187.272 254.967 186.682 255.193 185.895C252.236 186.942 249.611 186.517 247.208 184.865C245.835 183.921 244.522 182.9 243.328 181.714C241.35 179.749 238.786 179.973 237.752 182.121C239.103 182.403 239.709 183.054 239.44 184.076C239.137 185.227 238.23 186.336 237.191 186.128C235.454 185.783 235.146 186.817 234.625 187.886C234.497 188.144 234.377 188.479 234.016 188.455C233.662 187.852 234.234 187.381 234.202 186.796C234.05 183.985 235.071 181.613 236.856 179.454C238.908 176.968 242.647 176.452 245.178 178.5C246.851 179.853 248.42 181.342 250.148 182.618C251.452 183.581 252.374 185.124 254.193 185.363C255.031 185.475 255.661 185.541 256.044 184.52C256.437 183.464 256.967 182.464 257.352 181.39C258.31 178.72 259.137 175.989 260.479 173.474C263.793 167.265 266.917 160.941 271.222 155.315C271.387 155.099 271.834 154.78 271.353 154.448C269.467 153.147 269.053 151.118 268.617 149.076C268.433 148.217 268.143 147.372 267.157 147.055C265.207 146.428 263.242 145.922 261.112 146.162C261.455 146.819 261.075 147.978 262.171 147.906C263.455 147.824 263.242 148.59 263.07 149.233C262.617 150.927 262.102 152.57 261.852 154.344C261.336 158.006 259.028 160.87 256.823 163.704C253.778 167.618 249.814 170.453 245.633 172.998C241.692 175.396 237.85 177.992 233.359 179.337C232.734 179.523 232.425 179.933 232.745 180.659C233.242 181.786 233.292 183.036 233.08 184.185C232.622 186.634 233.032 188.942 233.625 191.301C234.51 194.819 234.928 198.419 235.287 202.033C235.787 207.077 236.154 212.132 236.268 217.19C236.411 223.548 236.305 229.906 235.843 236.264C235.646 238.979 235.09 241.665 235.167 244.414C235.188 245.191 235.039 246.063 234.92 246.887C234.401 250.472 233.925 254.064 233.37 257.643C232.917 260.566 232.734 263.581 230.788 266.147C231.973 265.911 233 265.472 234.489 265.746C231.676 266.9 229.213 267.894 226.767 268.931C226.458 269.062 225.943 268.993 225.937 269.599C225.919 271.508 225.158 273.244 224.642 275.039C224.381 275.949 223.855 276.991 224.392 277.816C225.001 278.752 224.661 279.406 224.296 280.185C223.036 282.873 221.576 285.453 219.989 287.958C219.135 289.303 218.782 291.178 216.524 291.218C218.683 292.885 219.133 292.531 217.766 295.265C217.444 295.911 217.941 296.06 218.417 296.233C219.938 296.786 221.034 297.775 221.688 299.418C221.377 299.373 221.196 299.402 221.135 299.328C219.874 297.807 218.056 297.262 216.319 296.6C214.213 295.794 214.117 295.64 214.963 293.685C214.42 293.526 213.873 293.377 213.333 293.202C208.456 291.617 203.904 289.386 199.497 286.753C193.974 283.453 189.244 279.244 184.734 274.737C184.303 274.306 183.585 273.8 184.175 273.077C184.697 272.439 185.492 272.349 186.279 272.577C186.569 272.66 186.845 272.808 187.111 272.955C190.297 274.699 192.937 277.196 195.836 279.334C202.103 283.953 208.959 287.508 215.907 290.936C216.971 287.479 218.736 284.421 220.303 281.273C220.965 279.943 222.198 278.949 222.672 277.579C223.31 275.736 223.656 273.79 224.068 271.873C224.445 270.12 224.568 268.442 226.554 267.381C228.36 266.416 228.711 264.174 229.083 262.305C230.176 256.795 230.968 251.227 232.104 245.728C232.532 243.651 232.263 241.218 234.271 239.66C234.335 239.609 234.218 239.346 234.207 239.181C233.936 234.746 233.606 230.315 233.42 225.877C233.25 221.795 233.287 217.708 233.173 213.624C233.04 208.907 232.774 204.197 232.529 199.488C232.465 198.268 232.508 197.01 232.274 195.813C231.468 191.686 230.721 187.551 230.091 183.355C229.625 184.262 228.695 184.387 227.756 183.613C226.94 182.94 226.222 182.153 225.429 181.451C225.02 181.087 224.626 180.683 223.959 181.153C221.084 183.179 218.196 185.15 214.537 185.581C213.383 185.716 212.415 185.65 211.407 185.075C210.863 184.764 211.402 183.97 210.671 183.826C210.014 183.695 209.759 183.198 210.067 182.642C210.347 182.143 210.804 182.068 211.407 182.403C211.883 182.669 212.564 182.738 212.652 181.818C212.799 180.268 213.434 178.885 214.245 177.596C215.221 176.042 215.928 174.591 215.665 172.546C215.333 169.956 215.096 167.307 215.364 164.387L215.372 164.374ZM242.594 133.565C243.115 134.191 242.974 134.656 242.623 135.126C241.86 136.147 241.131 137.198 240.209 138.091C239.871 138.419 239.797 139.221 239.047 138.756C238.244 138.259 238.924 137.746 239.132 137.304C240.161 135.1 241.725 133.058 241.102 130.377C241.039 130.1 241.036 129.627 241.432 129.635C241.897 129.646 242.4 129.848 242.586 130.356C242.69 130.635 242.695 130.967 242.671 131.268C242.626 131.837 242.846 132.052 243.421 132.047C245.359 132.023 247.314 132.098 249.218 131.694C250.582 131.404 251.821 130.869 252.832 129.747C254.962 127.377 256.097 124.58 256.443 121.504C256.927 117.204 252.68 113.747 248.412 114.691C246.436 115.13 244.804 116.14 243.115 117.137C240.111 118.914 239.799 122.185 238.621 124.979C238.6 125.027 238.685 125.139 238.743 125.194C238.951 125.389 239.366 125.53 238.911 125.872C238.531 126.16 238.1 126.458 237.619 126.255C236.374 125.732 235.593 123.74 236.204 122.434C237.169 120.374 237.978 118.222 239.251 116.329C240.312 114.755 241.515 113.143 243.477 112.737C245.477 112.324 247.599 111.583 249.569 112.167C251.592 112.766 251.728 111.875 251.952 110.375C252.202 108.686 252.656 107.027 252.781 105.312C252.842 104.467 252.518 104.044 251.678 103.812C250.401 103.459 249.109 103.153 247.801 103.084C246.647 103.023 246.168 102.592 246.396 101.467C246.551 100.704 246.16 100.172 245.748 99.6161C245.264 98.9622 244.732 99.6642 244.168 99.5151C242.193 98.9914 240.166 98.6481 238.153 98.2761C234.808 97.6565 231.46 97.0606 228.112 96.46C227.642 96.375 227.144 96.4626 227.474 95.6222C227.764 94.8854 227.498 94.3059 226.477 94.2259C222.722 93.9308 218.978 93.487 215.218 93.2421C212.006 93.032 208.794 93.2421 205.576 93.4363C201.715 93.6704 197.912 94.3991 194.051 94.5452C193.759 94.5559 193.522 94.6199 193.437 94.9228C192.94 96.7285 191.951 98.5686 192.07 100.334C192.259 103.15 191.522 105.799 191.299 108.522C191.121 110.681 190.924 110.691 192.996 110.739C193.549 110.753 194.044 110.893 194.187 111.367C194.402 112.071 192.222 114.305 191.406 114.159C190.459 113.989 190.483 114.555 190.329 115.151C189.917 116.728 190.446 118.235 190.603 119.77C190.65 120.24 190.9 120.429 191.312 120.126C192.137 119.523 192.9 120.041 193.427 120.461C193.948 120.876 193.746 121.751 193.464 122.322C192.014 125.25 190.502 128.146 188.994 131.045C188.877 131.271 188.643 131.441 188.459 131.632C187.204 132.93 187.369 134.552 188.933 135.443C191.057 136.653 193.597 136.437 195.793 137.435C195.743 138.328 195.155 138.963 194.294 139.314C193.751 139.535 193.549 139.913 193.546 140.413C193.541 141.851 193.639 143.284 193.871 144.699C196.833 143.912 199.779 144.035 202.92 144.367C202.308 145.167 201.641 145.561 200.912 145.808C199.841 146.17 198.745 146.407 197.585 146.385C196.357 146.364 194.985 146.71 194.192 147.438C193.541 148.037 194.488 149.276 194.799 150.209C195.652 152.778 195.665 152.775 198.178 152.214C198.516 152.14 198.851 152.039 199.191 151.967C199.888 151.82 200.574 151.961 201.016 152.482C201.904 153.535 202.763 153.9 203.803 152.722C204.071 152.416 204.204 152.682 204.425 152.831C204.776 153.068 204.489 153.639 204.965 153.783C205.355 153.522 205.143 153.108 205.276 152.815C205.424 152.493 205.377 151.94 205.943 151.988C206.387 152.028 206.935 152.19 206.999 152.645C207.177 153.868 208.336 154.107 209.046 154.745C209.711 155.344 211.405 154.756 211.894 153.969C212.075 153.682 212.283 153.477 212.639 153.565C213.056 153.669 212.801 153.972 212.814 154.203C212.851 154.82 213.048 155.086 213.809 155.176C215.779 155.408 217.175 154.099 218.856 153.575C222.77 152.355 226.397 150.544 229.857 148.324C229.974 148.816 229.95 149.382 230.218 149.722C231.016 150.741 230.375 151.225 229.777 152.039C228.607 153.629 227.413 155.259 227.506 157.474C227.679 161.662 227.711 165.856 227.793 170.046C227.801 170.408 227.806 170.743 228.112 171.003C229.471 172.168 230.325 173.716 231.258 175.202C231.535 175.644 231.779 175.785 232.317 175.471C236.983 172.742 241.626 169.977 246.141 166.999C251.39 163.536 256.174 159.593 259.626 154.24C259.831 153.921 260.336 153.647 259.958 153.142C259.37 152.355 259.113 151.398 258.628 150.382C256.9 152.334 255.259 154.158 253.669 156.024C253.38 156.362 253.215 156.745 252.808 156.28C252.204 155.583 251.38 155.219 250.657 154.703C249.305 153.738 249.146 151.895 250.417 151.177C251.149 150.762 251.46 150.35 251.467 149.576C251.467 149.371 251.582 149.151 251.693 148.967C252.773 147.188 253.619 145.268 255.023 143.689C255.393 143.271 255.541 142.777 255.209 142.133C254.329 140.429 253.643 138.623 252.731 136.94C252.077 135.732 251.252 134.377 251.337 133.188C251.462 131.441 250.885 132.265 250.157 132.496C247.785 133.249 245.397 133.986 242.591 133.565H242.594ZM111.31 350.686C108.419 353.487 105.819 355.917 103.553 358.685C98.2134 365.203 95.746 372.784 95.5385 381.094C95.4586 384.296 96.259 387.479 96.6817 390.667C96.735 391.063 96.9292 391.066 97.1926 391.079C98.8784 391.153 100.359 391.97 101.931 392.44C104.928 393.342 107.92 394.267 111.004 394.775C114.759 395.395 118.574 395.44 122.364 395.552C127.919 395.714 133.474 395.82 139.026 396.089C143.533 396.307 148.038 396.07 152.54 395.857C155.207 395.73 157.879 395.573 160.536 395.31C164.362 394.932 168.176 394.416 172.002 394.017C173.882 393.82 174.156 393.717 173.815 391.967C173.616 390.941 173.983 389.813 173.13 388.853C167.851 382.918 165.939 375.669 165.434 368.003C165.205 364.541 165.758 361.065 166.973 357.76C167.248 357.013 167.184 356.601 166.362 356.271C164.282 355.433 162.238 354.516 160.193 353.601C159.368 353.232 158.6 353.096 157.664 353.301C152.021 354.54 146.291 355.178 140.553 355.768C138.611 355.968 136.638 356.053 134.628 356.648C135.418 356.93 135.872 357.428 136.285 358.01C137.978 360.393 139.002 363.081 139.842 365.844C140.058 366.551 140.348 366.663 140.94 366.365C141.959 365.852 143.057 365.575 144.153 365.323C147.594 364.527 151.077 363.945 154.574 363.474C157.01 363.147 159.451 362.748 161.921 362.937C162.684 362.996 163.597 362.929 163.884 363.988C164.256 365.357 163.865 365.724 162.131 365.852C159.821 366.022 157.51 366.213 155.212 366.575C152.449 367.009 149.66 367.285 146.894 367.718C145.134 367.995 143.384 368.338 141.611 368.561C141.06 368.63 140.587 368.758 140.797 369.753C141.85 374.709 141.767 379.701 140.598 384.631C140.188 386.362 139.502 388.04 138.505 389.547C138.202 390.007 137.757 390.43 137.191 390.215C136.683 390.021 136.904 389.446 136.96 389.045C137.218 387.229 137.489 385.415 137.803 383.607C138.454 379.839 138.483 376.05 137.938 372.284C137.303 367.899 136 363.677 134.49 359.515C134.165 358.619 134.186 357.276 133.575 356.89C132.867 356.447 131.636 356.84 130.631 356.853C130.192 356.861 129.751 356.811 129.315 356.824C127.089 356.88 125.084 355.899 122.967 355.444C119.532 354.705 116.025 354.261 112.679 353.101C111.685 352.758 110.887 352.362 111.315 350.689L111.31 350.686ZM203.906 342.116C205.619 342.395 207.078 341.856 208.549 341.51C213.458 340.353 218.306 338.952 223.243 337.91C226.77 337.165 230.256 336.12 233.353 334.298C236.653 332.357 239.725 330.017 242.852 327.789C245.354 326.01 247.633 323.859 250.287 322.361C257.461 318.314 264.628 314.254 271.759 310.132C272.493 309.709 272.491 309.348 272.105 308.835C271.132 307.531 270.106 306.271 269.116 304.982C268.789 304.553 268.454 304.5 268.04 304.822C266.856 305.745 265.54 306.457 264.234 307.178C260.969 308.978 257.472 310.217 253.919 311.292C252.981 311.576 251.93 311.717 251.085 310.85C249.021 308.736 246.745 306.822 245.027 304.388C244.759 304.011 244.498 303.875 244.038 303.979C242.214 304.402 240.387 304.822 238.552 305.189C237.002 305.497 235.239 306.085 233.914 305.218C232.524 304.306 231.096 304.28 229.636 304.006C228.461 303.785 227.275 303.963 226.081 303.745C223.321 303.242 220.701 303.338 218.284 305.282C214.771 308.111 211.296 310.967 208.23 314.278C207.605 314.953 207.044 315.187 206.225 314.81C206.01 314.711 205.778 314.432 205.563 314.791C205.441 314.996 205.473 315.224 205.661 315.389C207.249 316.785 207.704 318.873 208.844 320.615C210.78 318.681 212.655 316.74 214.609 314.884C216.037 313.525 217.526 312.22 219.188 311.135C220.018 310.595 220.935 310.882 221.459 311.363C222.209 312.052 221.18 312.47 220.797 312.9C218.045 316.006 215.08 318.91 212.144 321.84C210.817 323.167 210.87 323.098 212.352 324.271C213.258 324.989 213.817 324.975 214.668 324.167C215.87 323.027 217.234 322.048 218.566 321.048C220.249 319.785 222.06 318.719 223.943 317.777C224.289 317.604 224.714 317.469 225.001 317.806C225.36 318.229 224.82 318.392 224.637 318.636C223.786 319.769 222.693 320.646 221.582 321.513C219.72 322.968 217.71 324.194 215.699 325.417C214.918 325.893 214.875 325.965 215.346 326.247C217.279 327.398 219.199 328.573 221.451 329.371C221.023 328.576 220.606 327.789 221.467 327.148C223.924 325.319 226.597 323.864 229.482 322.83C230.383 322.508 230.992 323.082 231.484 323.734C231.971 324.38 231.516 324.959 231.115 325.35C228.682 327.722 225.719 329.095 222.353 329.86C225.208 331.318 228.275 332.099 231.474 332.746C230.899 333.426 230.402 334.466 230.083 334.548C228.453 334.974 227.099 336.08 225.432 336.33C218.845 337.319 212.415 338.968 206.047 340.885C205.318 341.103 204.518 341.284 203.906 342.114V342.116ZM107.539 350.378C100.822 351.317 96.1765 354.489 93.5626 360.499C91.9511 364.2 91.0656 368.104 90.1883 372.008C89.4837 375.14 89.0872 378.339 89.1778 381.538C89.2839 385.25 89.8584 388.928 90.6644 392.565C90.8212 393.273 91.1507 393.555 91.7144 393.719C92.6321 393.985 93.5626 394.206 94.4881 394.448C95.2644 394.65 96.033 394.095 95.8869 393.619C95.6021 392.696 95.6872 391.754 95.4161 390.84C93.9188 385.806 92.5178 380.775 93.3259 375.39C93.9587 371.17 95.0174 367.107 96.836 363.254C99.2428 358.151 102.92 354.072 107.539 350.381V350.378ZM213.211 184.007C213.769 184.129 214.216 184.693 214.721 184.092C216.497 181.983 218.827 180.505 220.855 178.683C223.443 176.362 225.007 176.471 227.216 179.116C228.144 180.225 229.131 181.287 229.854 182.69C230.035 181.595 229.907 180.571 230.476 179.752C230.899 179.141 230.668 178.805 230.221 178.417C229.115 177.457 228.112 176.354 227.485 175.059C226.607 173.243 224.985 171.918 224.562 169.772C223.773 165.776 222.813 161.808 222.089 157.729C221.64 157.867 221.576 158.224 221.486 158.463C220.824 160.26 220.242 162.09 219.558 163.88C219.074 165.148 219.015 166.363 219.218 167.725C219.457 169.326 219.417 171.006 219.241 172.623C219.138 173.58 219.175 174.657 218.449 175.497C217.67 176.402 217.133 177.462 216.54 178.497C215.498 180.321 214.702 182.297 213.211 184.004V184.007ZM246.423 303.572C248.011 305.825 249.553 308.008 251.087 310.196C251.438 310.696 251.805 310.478 252.233 310.318C253.98 309.672 255.733 309.039 257.496 308.446C260.873 307.311 264.197 306.048 267.457 304.609C268.284 304.245 268.289 303.942 267.72 303.309C266.718 302.195 265.822 300.987 264.835 299.86C263.296 298.108 263.282 298.126 261.251 299.15C256.613 301.487 251.494 302.174 246.423 303.572ZM268.76 368.729C249.851 375.603 231.229 383.017 211.963 389.34C212.857 389.558 213.564 389.582 214.226 389.42C216.322 388.909 218.428 388.417 220.481 387.758C227.639 385.463 234.654 382.772 241.634 379.985C247.593 377.605 253.55 375.214 259.485 372.773C262.604 371.489 265.67 370.083 268.763 368.729H268.76ZM288.249 309.975C306.211 301.74 324.368 293.92 341.692 284.357C323.897 292.941 305.709 300.7 288.249 309.975ZM113.889 284.251C115.064 285.296 158.358 309.837 159.294 309.946C159.052 309.763 158.89 309.619 158.712 309.51C150.644 304.649 142.584 299.78 134.505 294.94C128.227 291.178 121.861 287.57 115.296 284.331C114.871 284.121 114.395 283.695 113.889 284.248V284.251ZM201.415 340.199C198.75 339.308 196.126 339.367 193.559 339.587C189.823 339.909 186.098 340.417 182.41 341.135C180.873 341.433 179.32 341.667 177.839 342.204C177.584 342.297 177.331 342.454 177.381 342.765C177.429 343.06 177.719 342.994 177.919 342.967C180.048 342.701 182.203 342.542 184.306 342.13C189.236 341.162 194.209 340.67 199.215 340.388C199.888 340.35 200.011 340.473 199.941 341.175C199.734 343.292 200.247 345.342 200.707 347.397C200.915 346.19 200.418 345.015 200.657 343.794C200.883 342.63 200.332 341.324 201.42 340.199H201.415ZM257.541 148.348C260.647 143.854 260.841 142.649 259.051 140.516C258.086 142.112 257.738 143.747 258.706 145.521C257.825 145.545 257.863 144.824 257.57 144.67C255.85 145.861 256.395 147.13 257.541 148.35V148.348ZM255.523 152.091C255.515 151.858 253.555 149.853 253.385 149.839C253.257 149.829 251.731 152.076 251.733 152.267C251.752 153.198 252.925 154.152 254.044 153.831C254.741 153.631 255.377 152.913 255.523 152.091ZM304.161 170.682C303.682 168.77 302.871 167.057 301.967 165.379C301.805 165.079 301.563 164.898 301.215 165.015C300.909 165.119 300.914 165.438 300.906 165.68C300.848 167.345 301.42 168.823 302.353 170.166C302.457 170.312 302.765 170.621 303.007 170.368C303.645 169.706 303.542 170.772 304.156 170.684L304.161 170.682ZM330.223 210.167C329.747 208.487 329.404 207.072 328.931 205.7C328.692 205.009 328.234 204.437 327.389 204.248C326.732 204.102 326.431 204.229 326.346 204.894C326.282 205.397 327.798 207.827 328.184 207.673C329.455 207.157 329.109 208.383 329.457 208.785C329.707 209.072 329.548 209.646 330.223 210.167ZM162.77 351.692C164.4 352.335 165.729 352.862 167.253 353.463C166.742 352.078 166.365 350.939 166.37 349.703C164.851 349.743 164.16 351.067 162.77 351.692ZM307.589 161.529C307.264 160.63 307.043 159.939 306.764 159.271C306.341 158.261 306.243 157.064 305.052 156.493C304.677 156.314 304.393 156.041 304.018 156.394C303.648 156.743 303.802 157.075 304.055 157.434C304.882 158.599 305.69 159.777 306.501 160.949C306.719 161.266 307.07 161.329 307.589 161.529ZM304.071 153.517C303.972 153.41 303.877 153.304 303.778 153.2C301.672 154.256 299.72 155.554 297.952 157.131C297.766 157.296 297.322 157.471 297.601 157.843C297.851 158.173 298.205 158.136 298.529 157.881C300.374 156.426 302.223 154.971 304.068 153.52L304.071 153.517ZM255.549 147.244C254.611 148.212 254.505 149.247 255.23 150.35C255.451 150.685 255.65 151.031 255.874 151.392C256.854 150.034 256.746 148.651 255.549 147.244ZM279.644 371.375C276.461 372.252 273.278 373.127 270.095 374.005C270.124 374.111 270.156 374.22 270.185 374.326C273.467 373.797 276.602 372.752 279.641 371.375H279.644ZM170.914 349.689C168.662 350.198 168.343 350.74 168.697 353.192C169.42 352.051 170.106 350.966 170.914 349.689ZM296.923 162.196C298.082 162.178 297.63 161.157 298.061 160.71C298.473 160.285 298.096 159.934 297.79 159.607C297.396 159.186 297.069 159.511 296.753 159.694C296.343 159.936 296.316 160.25 296.561 160.681C296.814 161.127 296.957 161.638 296.923 162.194V162.196ZM285.965 154.275C285.201 154.514 284.816 155.062 284.741 155.623C284.675 156.123 285.215 156.503 285.733 156.386C286.199 156.28 286.906 156.205 286.898 155.541C286.89 154.961 285.97 154.969 285.965 154.275ZM293.032 157.506C292.376 157.657 291.4 157.506 291.232 158.271C291.113 158.816 292.075 158.984 292.551 159.053C293.19 159.146 293.599 158.601 293.721 157.947C293.849 157.256 293.288 157.647 293.035 157.503L293.032 157.506ZM128.331 286.625C127.355 287.439 126.788 289.285 127.264 290.066C127.988 289.056 128.738 288.091 128.331 286.625ZM293.025 161.327C291.65 162.271 290.283 163.231 289.243 164.558C290.684 163.691 292.012 162.693 293.025 161.327ZM264.194 124.418C264.162 124.051 263.965 123.79 263.625 123.815C262.92 123.865 262.995 124.492 262.825 124.969C262.617 125.553 263.309 125.593 263.341 125.585C263.934 125.436 263.827 124.756 264.194 124.421V124.418ZM236.039 184.938C236.568 184.818 236.975 184.711 237.39 184.639C237.643 184.597 237.954 184.655 237.914 184.251C237.89 184.012 238.005 183.669 237.651 183.608C237.414 183.568 237.063 183.57 236.925 183.711C236.603 184.036 236.377 184.456 236.042 184.94L236.039 184.938Z" fill="#181818"/>
<path d="M310.137 363.519C312.583 363.089 315.016 362.551 317.475 362.254C322.049 361.701 326.634 361.182 331.25 361.844C331.739 361.913 332.244 361.847 332.114 362.618C332 363.288 331.899 363.955 331.037 363.961C329.282 363.971 327.565 364.32 325.828 364.511C322.671 364.857 319.518 365.251 316.353 365.538C314.391 365.719 312.415 365.772 310.445 365.82C309.923 365.833 309.211 366.152 308.895 365.487C308.578 364.825 308.98 364.235 309.386 363.706C309.636 363.644 309.884 363.581 310.134 363.519H310.137Z" fill="#181818"/>
<path d="M180.673 265.479C181.46 262.384 181.724 259.469 182.311 256.608C183.029 253.112 183.928 249.665 184.819 246.216C186.688 238.986 188.653 231.78 190.602 224.571C191.541 221.098 192.522 217.638 193.52 214.184C193.676 213.647 193.56 212.772 194.586 212.905C195.628 213.041 196.418 213.394 196.45 214.65C196.519 217.346 195.929 219.947 195.282 222.521C193.357 230.19 191.472 237.869 189.031 245.4C187.651 249.66 186.43 253.97 185.135 258.259C184.332 260.924 184.029 263.721 182.979 266.319C182.811 266.732 183.021 266.965 183.258 267.247C184.01 268.138 184.494 269.186 184.696 270.314C184.792 270.851 185.111 271.781 184.38 271.935C183.763 272.063 182.875 271.848 182.433 271.13C182.117 270.614 181.684 270.061 181.646 269.5C181.569 268.385 180.059 268.277 180.147 267.128C180.147 267.112 179.902 267.024 179.822 267.066C178.934 267.535 178.402 266.931 177.915 266.383C177.105 265.471 176.562 264.349 175.623 263.514C175.272 263.203 175.299 262.575 175.663 262.19C176.038 261.794 176.573 261.857 177.02 262.086C178.469 262.831 179.828 263.695 180.668 265.479H180.673Z" fill="#181818"/>
<path d="M247.46 251.602C247.46 253.585 247.444 255.048 247.474 256.508C247.479 256.808 247.248 257.255 247.761 257.391C248.072 257.473 248.458 257.5 248.122 257.938C247.838 258.308 247.455 258.385 247.128 257.968C246.604 257.303 246.277 256.508 246.171 255.705C245.774 252.66 245.74 249.591 245.823 246.526C245.897 243.707 245.764 240.88 246.141 238.072C246.641 234.339 246.718 230.57 247.144 226.827C247.386 224.699 247.522 222.551 247.74 220.415C247.929 218.554 248.266 216.717 248.833 214.929C248.931 214.618 249.021 214.196 249.434 214.137C249.851 214.076 250.074 214.361 250.173 214.743C250.356 215.443 250.856 215.483 251.481 215.469C257.416 215.355 263.343 215.624 269.27 215.863C274.097 216.06 278.923 216.31 283.75 216.541C284.842 216.594 285.933 216.679 287.023 216.73C287.284 216.743 287.614 216.682 287.65 217.001C287.685 217.304 287.51 217.573 287.135 217.645C286.414 217.783 285.696 218.099 284.983 218.081C280.397 217.964 275.812 217.775 271.225 217.613C270.917 217.602 270.605 217.565 270.297 217.578C265.875 217.764 261.463 217.35 257.049 217.222C255.007 217.163 252.906 217.323 250.875 216.847C250.34 216.722 250.17 216.903 250.114 217.413C249.721 221.123 249.287 224.824 249.032 228.55C248.79 232.1 248.359 235.636 248.024 239.178C247.912 240.356 247.806 241.556 247.785 242.72C247.726 245.858 247.205 248.98 247.458 251.599L247.46 251.602Z" fill="#181818"/>
<path d="M186.356 267.404C185.367 267.428 185.093 266.904 185.649 265.984C187.329 263.202 189.366 260.676 191.382 258.147C194.544 254.175 197.804 250.282 201.045 246.37C203.824 243.017 206.635 239.69 209.435 236.353C209.576 236.186 209.711 236 209.889 235.885C210.193 235.691 210.483 235.258 210.903 235.656C211.28 236.015 210.892 236.335 210.738 236.59C208.725 239.924 206.406 243.051 204.095 246.179C200.955 250.425 197.751 254.627 194.533 258.815C192.664 261.248 190.722 263.623 188.795 266.008C188.175 266.773 187.439 267.399 186.356 267.407V267.404Z" fill="#181818"/>
<path d="M296.127 219.319C297.093 214.982 297.625 210.677 298.741 206.486C300.834 198.636 304.081 191.324 308.881 184.74C309.939 183.288 311.077 181.9 312.394 180.663C312.883 180.203 313.412 179.826 313.994 179.512C314.428 179.278 314.949 179.023 315.332 179.438C315.71 179.847 315.13 180.153 314.946 180.432C313.034 183.32 311 186.128 309.146 189.05C304.241 196.791 300.598 205.095 298.215 213.951C297.864 215.256 297.529 216.57 297.104 217.854C296.936 218.359 296.93 219.027 296.133 219.319H296.127Z" fill="#181818"/>
<path d="M284.661 244.25C284.661 241.59 284.661 239.221 284.661 236.855C284.661 232.629 284.839 228.409 285.214 224.202C285.302 223.218 285.64 222.256 285.898 221.293C285.956 221.067 285.993 220.708 286.35 220.735C286.757 220.767 286.767 221.115 286.78 221.429C286.789 221.604 286.783 221.783 286.783 221.961C286.796 227.21 286.871 232.464 286.496 237.706C286.344 239.795 286.041 241.878 285.709 243.946C285.565 244.845 285.64 245.545 286.414 246.106C286.674 246.294 287.084 246.579 286.722 246.949C286.406 247.27 286.206 246.824 285.977 246.664C285.943 246.64 285.916 246.571 285.887 246.574C283.76 246.616 283.861 244.308 282.555 243.38C281.085 242.335 279.832 240.907 278.681 239.437C277.848 238.375 276.825 237.458 276.184 236.248C275.966 235.839 275.735 235.413 276.442 235.091C277.061 234.809 277.17 235.035 277.503 235.52C279.579 238.546 281.92 241.367 284.661 244.252V244.25Z" fill="#181818"/>
<path d="M315.979 213.944C316.159 216.452 315.313 218.712 314.566 220.964C313.003 225.69 310.788 230.144 308.666 234.635C307.671 236.741 306.682 238.85 305.488 240.871C308.788 232.146 311.623 223.265 314.984 214.572C315.106 214.256 315.367 213.974 315.976 213.944H315.979Z" fill="#181818"/>
<path d="M177.996 272.842C178.967 272.855 180.208 272.655 180.312 273.504C180.394 274.193 179.086 273.945 178.416 274.068C173.933 274.897 169.449 275.724 165.003 276.735C164.033 276.955 163.051 277.168 162.062 277.274C161.602 277.325 161.079 277.117 160.882 276.61C160.653 276.014 161.094 275.732 161.546 275.522C163.378 274.671 165.357 274.28 167.319 273.972C170.904 273.408 174.52 273.06 177.993 272.836L177.996 272.842Z" fill="#181818"/>
<path d="M195.22 212.956C193.43 211.27 192.544 209.21 191.419 207.332C189.292 203.782 187.165 200.224 185.567 196.387C185.389 195.961 184.982 195.39 185.474 195.092C185.912 194.826 186.349 195.315 186.66 195.712C188.758 198.389 190.276 201.421 191.893 204.386C192.94 206.308 193.863 208.3 194.794 210.284C195.15 211.045 195.605 211.832 195.22 212.959V212.956Z" fill="#181818"/>
<path d="M239.595 241.443C239.345 238.813 239.579 236.207 240.063 233.636C240.446 231.601 240.254 229.541 240.547 227.509C241.249 222.666 241.039 217.769 241.368 212.902C241.398 212.482 241.353 211.836 241.895 211.836C242.589 211.836 242.408 212.522 242.406 212.966C242.385 216.67 242.605 220.383 242.132 224.068C241.493 229.07 241.594 234.17 240.082 239.065C239.85 239.81 239.792 240.653 239.592 241.443H239.595Z" fill="#181818"/>
<path d="M262.431 261.403C259.527 261.023 256.169 261.291 252.919 260.374C252.108 260.145 251.851 259.749 251.983 258.973C252.13 258.111 252.821 258.43 253.236 258.472C255.459 258.712 257.674 259.018 259.886 259.332C262.644 259.722 265.415 259.821 268.194 259.84C268.547 259.84 268.903 259.824 269.252 259.863C269.55 259.898 269.685 260.156 269.733 260.417C269.802 260.773 269.531 260.815 269.26 260.895C268.574 261.097 267.88 261.14 267.17 261.161C265.721 261.204 264.274 261.305 262.431 261.403Z" fill="#181818"/>
<path d="M306.94 254.906C307.544 254.265 322.017 248 323.876 247.514C322.025 250 310.982 255.746 306.94 254.906Z" fill="#181818"/>
<path d="M164.158 267.671C164.557 266.607 164.887 266.32 166.416 266.243C171.067 266.011 175.398 267.232 179.523 269.298C179.823 269.447 180.339 269.583 180.15 269.976C179.964 270.364 179.504 270.16 179.121 270.029C175.768 268.875 172.284 268.386 168.772 268.046C167.235 267.897 165.727 267.397 164.155 267.674L164.158 267.671Z" fill="#181818"/>
<path d="M307.477 267.768C306.759 267.816 306.2 266.846 306.461 266.141C306.921 264.899 308.102 264.357 309.03 263.609C310.325 262.567 311.753 261.689 313.138 260.761C313.423 260.573 313.766 260.466 314.09 260.344C314.598 260.153 314.768 260.629 315.034 260.868C315.38 261.182 315.061 261.44 314.851 261.634C312.614 263.705 310.386 265.79 307.873 267.537C307.729 267.635 307.573 267.712 307.477 267.768Z" fill="#181818"/>
<path d="M328.939 252.56C328.139 254.042 326.91 254.605 325.774 255.174C323.823 256.155 321.706 256.706 319.568 257.131C318.906 257.262 317.906 257.363 317.725 256.645C317.568 256.023 318.456 255.738 319.113 255.56C322.076 254.759 325.065 254.044 327.859 252.717C328.08 252.611 328.365 252.638 328.939 252.558V252.56Z" fill="#181818"/>
<path d="M236.239 265.592C238.438 261.558 237.497 256.995 238.533 252.384C239.105 253.833 239.129 254.987 239.089 256.104C239.002 258.683 238.512 261.223 238.164 263.775C237.946 265.382 237.598 265.735 236.239 265.589V265.592Z" fill="#181818"/>
<path d="M240.967 198.657C240.276 196.064 239.97 193.405 239.494 190.781C239.316 189.797 239.122 188.813 238.992 187.821C238.938 187.414 238.75 186.784 239.258 186.648C239.699 186.531 239.885 187.061 240.036 187.499C240.601 189.111 240.781 190.802 241.018 192.467C241.276 194.285 241.494 196.131 241.337 197.984C241.316 198.224 241.411 198.535 240.962 198.654L240.967 198.657Z" fill="#181818"/>
<path d="M230.96 268.124C232.032 269.672 231.269 274.684 229.766 276.732C230.037 273.942 230.043 271.118 230.96 268.124Z" fill="#181818"/>
<path d="M236.353 106.673C237.162 107.521 238.074 107.42 239.097 107.268C238.536 105.612 239.299 104.16 239.733 102.658C239.903 102.07 240.126 101.956 240.775 102.264C241.764 102.735 242.82 103 244.009 102.892C244.73 102.825 245.724 103.296 245.578 104.383C245.357 106.019 245.043 107.646 244.676 109.258C244.509 109.997 244.009 110.374 243.11 110.276C241.831 110.135 240.594 110.247 239.696 111.459C239.105 112.26 238.06 112.353 237.276 112.007C235.268 111.122 233.322 110.047 232.681 107.689C232.444 106.814 231.561 106.34 231.42 105.428C231.293 104.612 230.755 103.713 232.223 103.479C232.779 103.391 233.242 102.817 233.8 102.594C235.883 101.759 237.544 103.083 237.382 105.346C237.332 106.048 236.898 106.322 236.353 106.676V106.673ZM240.48 107.763C239.866 108.422 238.664 108.885 239.72 110.116C240.413 109.454 240.898 108.739 240.453 107.734C240.73 107.83 240.985 108.306 241.296 107.79C241.533 107.399 241.977 107.077 241.807 106.537C241.764 106.399 241.57 106.261 241.416 106.215C241.084 106.12 241.15 106.423 241.07 106.604C240.895 107 240.679 107.375 240.48 107.76V107.763ZM243.708 109.869C243.799 108.54 243.317 107.317 243.456 106.029C243.666 104.072 243.44 103.953 241.536 103.514C240.767 103.336 240.584 103.498 240.549 104.187C240.517 104.809 240.499 105.25 241.403 105.221C242.62 105.181 242.985 105.694 242.629 106.907C242.373 107.774 241.895 108.574 241.506 109.423C242.174 109.558 242.881 109.702 243.711 109.872L243.708 109.869ZM237.419 110.675C237.401 110.279 237.372 109.933 237.369 109.587C237.369 109.22 237.372 108.891 236.863 108.851C236.348 108.811 236.348 109.13 236.279 109.502C236.127 110.321 237.372 111.704 238.217 111.52C238.733 111.409 239.228 110.904 239.153 110.417C239.073 109.893 238.983 109.037 238.334 108.96C237.542 108.867 238.036 109.675 237.871 110.053C237.789 110.241 237.837 110.491 237.417 110.675H237.419ZM234.258 107.431C235.268 107.197 235.393 106.479 235.196 105.636C235.098 105.213 234.731 105.101 234.364 105.237C234.085 105.338 233.768 105.558 234.016 105.928C234.335 106.407 234.024 106.968 234.258 107.431ZM233.399 103.724C234.223 103.95 234.654 104.742 235.414 104.253C235.654 104.099 235.473 103.721 235.249 103.466C234.601 102.727 234.149 103.282 233.401 103.724H233.399Z" fill="#181818"/>
<path d="M211.152 112.358C208.533 112.291 205.632 112.451 202.736 112.834C202.031 112.927 201.489 112.746 201.457 111.8C201.398 110.074 201.768 109.369 203.416 108.866C207.052 107.763 210.639 107.731 214.133 109.475C214.774 109.794 215.186 110.289 215.476 110.858C215.968 111.826 215.537 112.403 214.503 112.363C213.487 112.326 212.466 112.355 211.149 112.355L211.152 112.358Z" fill="#181818"/>
<path d="M251.757 118.612C249.731 118.08 248.311 119.067 246.836 119.817C246.418 120.03 246.373 120.301 246.607 120.777C246.971 121.508 247.194 122.317 247.426 123.106C247.596 123.686 247.325 124.141 246.83 124.447C246.216 124.827 245.974 124.244 245.644 123.938C245.493 123.798 245.423 123.572 245.301 123.396C244.24 121.878 244.221 121.865 243.081 123.276C242.852 123.561 242.693 123.962 242.312 123.71C242.004 123.502 242.108 123.053 242.222 122.721C243.049 120.322 244.695 118.626 246.875 117.427C248.133 116.735 249.468 116.405 250.904 116.881C251.433 117.057 251.808 117.357 252.05 117.881C252.34 118.503 252.148 118.663 251.757 118.612Z" fill="#181818"/>
<path d="M214.017 118.513C213.57 119.108 213.03 119.483 212.458 119.561C210.916 119.765 210.318 120.816 209.961 122.108C209.666 123.18 208.898 123.61 207.919 123.898C207.01 124.163 206.475 123.879 206.287 122.973C206.169 122.417 206.092 121.853 206.042 121.289C206.013 120.949 206.095 120.717 205.592 120.542C204.758 120.247 204.71 119.391 205.502 119.045C206.882 118.439 208.132 117.489 209.908 118.135C211.126 118.577 212.567 118.406 214.014 118.516L214.017 118.513Z" fill="#181818"/>
<path d="M229.7 98.3203C230.732 99.1366 230.553 100.142 230.421 100.993C229.976 103.809 230.476 106.646 230.152 109.438C229.886 111.709 230.671 113.445 232.019 115.155C233.258 116.727 234.313 118.442 235.305 120.197C235.781 121.037 235.779 121.859 235.766 122.728C235.752 123.531 235.191 123.718 234.521 123.776C233.771 123.84 233.633 123.364 233.617 122.784C233.604 122.367 233.303 121.952 233.598 121.534C234.981 119.58 233.263 118.49 232.386 117.163C232.362 117.126 232.354 117.07 232.322 117.049C228.937 114.855 229.093 111.515 229.375 108.101C229.477 106.872 229.397 105.627 229.399 104.388C229.399 103.373 229.267 102.33 229.439 101.347C229.609 100.386 229.634 99.4343 229.703 98.3203H229.7Z" fill="#181818"/>
<path d="M248.452 158.619C247.787 156.364 246.793 154.242 245.969 152.059C245.705 151.362 245.769 150.71 246.567 150.306C247.7 149.732 248.795 149.08 249.939 148.533C250.189 148.413 250.59 147.958 250.851 148.416C251.035 148.74 250.715 149.067 250.394 149.261C249.492 149.803 248.628 150.42 247.679 150.856C246.804 151.258 246.527 151.62 246.921 152.633C247.668 154.553 248.216 156.552 248.455 158.619H248.452Z" fill="#181818"/>
<path d="M252.97 123.558C252.686 124.803 252.63 126.247 251.362 127.204C251.098 127.403 250.811 127.624 250.537 127.433C250.266 127.247 250.319 126.835 250.425 126.569C250.883 125.436 251.38 124.319 251.885 123.207C252.037 122.872 252.122 122.357 252.667 122.513C253.162 122.654 252.851 123.117 252.97 123.558Z" fill="#181818"/>
<path d="M201.229 133.783C201.229 133.916 201.236 134.006 201.229 134.094C201.146 134.9 201.199 136.115 200.391 136.189C199.614 136.261 199.952 134.987 199.654 134.354C199.375 133.764 199.25 133.107 199.649 132.48C199.827 132.201 199.835 131.767 200.306 131.765C200.819 131.765 200.885 132.203 201.077 132.536C201.316 132.953 201.189 133.397 201.231 133.78L201.229 133.783Z" fill="#181818"/>
<path d="M232.67 99.07C233.343 99.0782 233.901 99.1207 233.912 99.9452C233.922 100.972 233.167 101.11 232.431 101.2C231.766 101.283 231.465 100.911 231.529 100.251C231.598 99.5142 231.872 98.9824 232.673 99.07H232.67Z" fill="#181818"/>
<path d="M247.995 105.729C248.639 105.631 249.46 105.745 249.452 106.418C249.442 107.284 248.54 107.279 247.817 107.316C247.174 107.348 246.496 107.154 246.496 106.55C246.496 105.699 247.285 105.657 247.995 105.729Z" fill="#181818"/>
<path d="M255.874 155.848C255.752 157.047 252.082 159.515 249.939 159.576C252.281 158.64 254.17 157.374 255.874 155.848Z" fill="#181818"/>
<path d="M236.369 99.4332C236.975 99.694 237.236 100.226 237.348 100.837C237.39 101.066 237.35 101.529 237.031 101.38C236.491 101.127 235.991 100.694 235.813 100.082C235.72 99.7576 236.004 99.5316 236.366 99.4307L236.369 99.4332Z" fill="#181818"/>
<path d="M246.215 108.412C247.431 107.907 248.582 108.215 249.723 108.691C248.529 109.063 247.391 108.446 246.215 108.412Z" fill="#181818"/>
<path d="M248.311 109.848C248.067 109.917 248.027 109.936 247.984 109.938C247.301 109.981 246.593 110.074 246.139 109.391C246.088 109.314 246.219 108.984 246.298 108.968C247.085 108.835 247.673 109.191 248.311 109.846V109.848Z" fill="#181818"/>
<path d="M233.652 111.803C233.806 111.593 233.838 111.345 234.234 111.465C234.753 111.619 235.332 111.731 235.415 112.31C235.47 112.701 234.971 112.619 234.686 112.616C234.144 112.611 233.825 112.292 233.652 111.805V111.803Z" fill="#181818"/>
<path d="M235.069 114.264C235.098 114.695 234.776 114.746 234.475 114.711C234.039 114.661 233.757 114.312 233.712 113.935C233.651 113.421 234.127 113.539 234.444 113.48C235.14 113.355 234.869 113.977 235.069 114.264Z" fill="#181818"/>
<path d="M332.707 377.95C331.189 379.764 329.234 379.49 327.519 379.604C322.634 379.931 317.731 379.998 312.835 380.208C309.753 380.341 306.674 380.591 303.592 380.708C299.978 380.843 296.375 380.628 292.79 380.117C292.774 379.448 293.299 379.29 293.798 379.136C295.745 378.527 297.777 378.554 299.776 378.339C301.648 378.136 303.523 377.964 305.397 377.807C305.951 377.761 305.855 377.559 305.759 377.128C305.347 375.305 304.988 373.467 304.661 371.627C304.515 370.805 304.581 369.994 304.818 369.154C305.243 367.635 306.381 367.859 307.421 368C308.368 368.13 308.538 369.007 308.554 369.779C308.602 371.858 308.57 373.94 308.572 376.022C308.572 377.666 308.594 377.708 310.171 377.527C316.14 376.847 322.132 376.682 328.133 376.732C328.487 376.735 328.841 376.724 329.194 376.732C331.665 376.77 332.497 376.054 332.704 373.512C333.215 367.271 334.837 361.296 336.916 355.425C337.148 354.77 337.451 354.14 337.762 353.521C337.956 353.133 337.959 352.372 338.555 352.539C339.208 352.723 339.493 353.342 339.466 354.114C339.419 355.528 339.086 356.89 338.796 358.251C337.764 363.099 336.744 367.947 335.948 372.839C335.571 375.166 335.151 377.493 335.14 379.865C335.132 381.189 335.289 382.473 335.94 383.662C336.073 383.907 336.347 384.154 336.007 384.476C335.664 384.8 335.435 384.489 335.199 384.356C333.965 383.662 333.752 382.33 333.31 381.17C332.957 380.237 332.742 379.248 332.707 377.955V377.95Z" fill="#181818"/>
<path d="M344.976 363.726C344.915 360.732 345.197 357.652 346.032 354.637C346.101 354.39 346.229 354.153 346.279 353.903C346.436 353.137 347.109 352.887 347.657 352.94C348.356 353.007 348.215 353.773 348.143 354.249C347.715 357.102 347.912 359.968 347.907 362.827C347.899 369.143 348.723 375.357 350.305 381.47C350.478 382.14 350.765 382.781 350.999 383.436C351.164 383.901 351.539 384.318 350.784 384.728C349.978 385.167 349.805 384.603 349.489 384.156C347.952 381.989 347.221 379.476 346.614 376.958C345.577 372.658 344.878 368.3 344.979 363.726H344.976Z" fill="#181818"/>
<path d="M319.276 388.527C319.109 388.95 318.729 388.96 318.388 388.937C315.91 388.777 313.45 389.104 310.988 389.245C307.18 389.463 303.38 389.832 299.585 390.207C298.974 390.268 298.623 389.939 298.046 389.865C299.388 388.644 313.45 387.819 319.279 388.527H319.276Z" fill="#181818"/>
<path d="M316.3 375.05C316.348 375.566 316.252 376.183 315.821 376.319C315.231 376.502 315.074 375.829 314.912 375.399C314.45 374.173 313.968 372.947 313.612 371.689C313.378 370.862 313.928 370.117 314.194 369.365C314.325 368.996 314.768 368.996 315.13 369.048C315.569 369.112 315.644 369.538 315.71 369.83C316.095 371.548 315.888 373.335 316.3 375.053V375.05Z" fill="#181818"/>
<path d="M128.661 384.215C128.9 382.356 129.243 380.655 129.256 378.902C129.291 374.363 128.368 369.968 127.496 365.559C127.201 364.067 126.879 362.583 126.584 361.091C126.465 360.485 126.789 359.974 127.063 359.49C127.52 358.682 128.187 358.706 128.61 359.552C129.884 362.101 130.559 364.851 131.057 367.625C131.666 371.018 131.876 374.448 131.352 377.886C131.067 379.743 130.903 381.625 129.807 383.258C129.56 383.625 129.39 384.01 128.661 384.215Z" fill="#181818"/>
<path d="M142.53 383.109C143.23 382.17 144.376 382.066 145.365 381.829C147.947 381.21 150.553 380.683 153.172 380.247C153.994 380.109 154.111 379.867 153.874 379.179C152.944 376.458 152.079 373.722 151.688 370.858C151.649 370.555 151.569 370.254 151.553 369.951C151.518 369.233 151.534 368.231 152.202 368.108C152.888 367.983 153.59 368.688 153.933 369.446C154.688 371.108 154.739 372.919 154.991 374.682C155.207 376.181 155.345 377.692 155.76 379.163C155.871 379.556 155.895 379.785 156.401 379.707C157.344 379.566 158.321 379.622 159.169 379.051C159.613 378.75 160.158 378.687 160.443 379.189C160.791 379.806 160.107 379.886 159.772 380.045C158.913 380.46 158.041 380.845 157.089 381.042C156.658 381.133 155.978 381.186 156.297 382.048C156.465 382.502 155.933 382.795 155.693 382.497C154.425 380.917 153.013 382.111 151.71 382.26C148.857 382.587 146.046 383.284 143.158 383.367C142.961 383.372 142.714 383.449 142.528 383.106L142.53 383.109Z" fill="#181818"/>
<path d="M164.306 387.105C164.093 388.044 163.593 388.518 162.908 388.895C157.65 391.791 151.994 393.602 146.203 395.027C145.958 395.088 145.36 395.708 145.168 394.881C145.016 394.232 145.546 394.046 145.984 393.868C148.077 393.019 150.178 392.187 152.281 391.36C155.765 389.993 159.163 388.403 162.743 387.276C163.237 387.121 163.678 387.13 164.306 387.105Z" fill="#181818"/>
<path d="M159.517 373.847C159.517 373.14 159.517 372.43 159.517 371.722C159.517 370.97 159.829 370.364 160.395 369.882C160.727 369.6 161.097 369.249 161.531 369.388C161.983 369.529 161.749 370.135 161.932 370.403C162.81 371.693 162.323 372.621 161.456 373.698C161.057 374.193 161.161 375.126 161.118 375.865C161.076 376.604 160.579 376.931 160.015 376.95C159.201 376.977 159.571 376.246 159.533 375.841C159.472 375.182 159.517 374.514 159.517 373.85V373.847Z" fill="#181818"/>
<path d="M149.179 377.254C149.099 377.395 149.046 377.57 148.929 377.669C148.748 377.823 148.609 377.637 148.495 377.525C147.937 376.972 147.378 376.424 146.945 375.751C146.711 375.389 146.825 375.217 147.059 374.977C147.328 374.704 147.639 374.68 147.83 374.975C148.304 375.698 148.713 376.461 149.179 377.254Z" fill="#181818"/>
<path d="M261.102 300.805C262.402 301.826 262.944 303.033 263.415 304.392C262.596 304.551 262.54 303.137 261.729 303.724C261.022 304.237 262.077 304.831 261.623 305.54C260.966 304.131 259.647 303.153 259.676 301.206C260.088 301.82 260.394 302.219 260.636 302.653C260.823 302.988 260.902 303.233 261.391 302.953C261.838 302.698 261.806 302.568 261.577 302.174C261.391 301.855 261.017 301.6 261.102 300.805Z" fill="#181818"/>
<path d="M263.897 302.975C264.596 303.081 265.199 303.693 265.04 302.703C264.939 302.084 264.711 301.52 264.341 301.026C264.051 300.64 263.625 300.212 263.173 300.321C262.607 300.459 263.317 301.012 263.046 301.339C262.963 301.44 262.894 301.552 262.751 301.754C262.293 301.292 261.908 300.802 262.136 300.185C262.285 299.786 262.791 299.645 263.251 299.685C263.987 299.747 264.657 300.004 264.966 300.712C265.226 301.308 265.349 301.964 265.535 302.594C265.679 303.078 265.798 303.615 265.208 303.831C264.607 304.049 264.553 303.381 263.897 302.972V302.975Z" fill="#181818"/>
<path d="M255.295 307.52C254.383 306.581 253.938 305.566 253.598 304.507C253.486 304.159 253.555 303.75 252.987 304.045C252.71 304.188 252.468 304.63 252.088 304.231C251.907 304.042 251.955 303.811 252.146 303.654C252.481 303.377 252.864 303.156 253.311 303.3C253.545 303.375 253.771 303.5 253.904 303.779C254.449 304.936 255.146 306.031 255.297 307.52H255.295Z" fill="#181818"/>
<path d="M254.993 303.594C256.368 302.434 256.437 302.448 257.075 303.918C257.198 304.197 257.32 304.477 257.445 304.753C257.57 305.025 257.697 305.296 257.955 305.846C256.984 305.559 256.756 304.875 256.543 304.328C256.248 303.565 255.926 303.096 254.996 303.591L254.993 303.594Z" fill="#181818"/>
<path d="M257.919 302.24C259.344 302.942 259.381 304.421 259.903 305.639C258.82 304.756 258.685 303.322 257.919 302.24Z" fill="#181818"/>
<path d="M252.103 307.515C252.481 307.632 252.512 307.922 252.507 308.238C252.499 308.73 252.215 308.953 251.763 308.953C251.475 308.953 251.231 308.749 251.284 308.464C251.369 308.015 251.704 307.719 252.1 307.515H252.103Z" fill="#181818"/>
</svg>
