<svg width="1410" height="642" viewBox="0 0 1410 642" fill="none" xmlns="http://www.w3.org/2000/svg">
<circle cx="1" cy="1" r="1" fill="#D9D9D9"/>
<circle cx="1" cy="33" r="1" fill="#D9D9D9"/>
<circle cx="1" cy="65" r="1" fill="#D9D9D9"/>
<circle cx="1" cy="97" r="1" fill="#D9D9D9"/>
<circle cx="1" cy="129" r="1" fill="#D9D9D9"/>
<circle cx="1" cy="161" r="1" fill="#D9D9D9"/>
<circle cx="1" cy="193" r="1" fill="#D9D9D9"/>
<circle cx="1" cy="225" r="1" fill="#D9D9D9"/>
<circle cx="1" cy="257" r="1" fill="#D9D9D9"/>
<circle cx="1" cy="289" r="1" fill="#D9D9D9"/>
<circle cx="1" cy="321" r="1" fill="#D9D9D9"/>
<circle cx="1" cy="353" r="1" fill="#D9D9D9"/>
<circle cx="1" cy="385" r="1" fill="#D9D9D9"/>
<circle cx="1" cy="417" r="1" fill="#D9D9D9"/>
<circle cx="1" cy="449" r="1" fill="#D9D9D9"/>
<circle cx="1" cy="481" r="1" fill="#D9D9D9"/>
<circle cx="1" cy="513" r="1" fill="#D9D9D9"/>
<circle cx="1" cy="545" r="1" fill="#D9D9D9"/>
<circle cx="1" cy="577" r="1" fill="#D9D9D9"/>
<circle cx="1" cy="609" r="1" fill="#D9D9D9"/>
<circle cx="1" cy="641" r="1" fill="#D9D9D9"/>
<circle cx="33" cy="1" r="1" fill="#D9D9D9"/>
<circle cx="33" cy="33" r="1" fill="#D9D9D9"/>
<circle cx="33" cy="65" r="1" fill="#D9D9D9"/>
<circle cx="33" cy="97" r="1" fill="#D9D9D9"/>
<circle cx="33" cy="129" r="1" fill="#D9D9D9"/>
<circle cx="33" cy="161" r="1" fill="#D9D9D9"/>
<circle cx="33" cy="193" r="1" fill="#D9D9D9"/>
<circle cx="33" cy="225" r="1" fill="#D9D9D9"/>
<circle cx="33" cy="257" r="1" fill="#D9D9D9"/>
<circle cx="33" cy="289" r="1" fill="#D9D9D9"/>
<circle cx="33" cy="321" r="1" fill="#D9D9D9"/>
<circle cx="33" cy="353" r="1" fill="#D9D9D9"/>
<circle cx="33" cy="385" r="1" fill="#D9D9D9"/>
<circle cx="33" cy="417" r="1" fill="#D9D9D9"/>
<circle cx="33" cy="449" r="1" fill="#D9D9D9"/>
<circle cx="33" cy="481" r="1" fill="#D9D9D9"/>
<circle cx="33" cy="513" r="1" fill="#D9D9D9"/>
<circle cx="33" cy="545" r="1" fill="#D9D9D9"/>
<circle cx="33" cy="577" r="1" fill="#D9D9D9"/>
<circle cx="33" cy="609" r="1" fill="#D9D9D9"/>
<circle cx="33" cy="641" r="1" fill="#D9D9D9"/>
<circle cx="65" cy="1" r="1" fill="#D9D9D9"/>
<circle cx="65" cy="33" r="1" fill="#D9D9D9"/>
<circle cx="65" cy="65" r="1" fill="#D9D9D9"/>
<circle cx="65" cy="97" r="1" fill="#D9D9D9"/>
<circle cx="65" cy="129" r="1" fill="#D9D9D9"/>
<circle cx="65" cy="161" r="1" fill="#D9D9D9"/>
<circle cx="65" cy="193" r="1" fill="#D9D9D9"/>
<circle cx="65" cy="225" r="1" fill="#D9D9D9"/>
<circle cx="65" cy="257" r="1" fill="#D9D9D9"/>
<circle cx="65" cy="289" r="1" fill="#D9D9D9"/>
<circle cx="65" cy="321" r="1" fill="#D9D9D9"/>
<circle cx="65" cy="353" r="1" fill="#D9D9D9"/>
<circle cx="65" cy="385" r="1" fill="#D9D9D9"/>
<circle cx="65" cy="417" r="1" fill="#D9D9D9"/>
<circle cx="65" cy="449" r="1" fill="#D9D9D9"/>
<circle cx="65" cy="481" r="1" fill="#D9D9D9"/>
<circle cx="65" cy="513" r="1" fill="#D9D9D9"/>
<circle cx="65" cy="545" r="1" fill="#D9D9D9"/>
<circle cx="65" cy="577" r="1" fill="#D9D9D9"/>
<circle cx="65" cy="609" r="1" fill="#D9D9D9"/>
<circle cx="65" cy="641" r="1" fill="#D9D9D9"/>
<circle cx="97" cy="1" r="1" fill="#D9D9D9"/>
<circle cx="97" cy="33" r="1" fill="#D9D9D9"/>
<circle cx="97" cy="65" r="1" fill="#D9D9D9"/>
<circle cx="97" cy="97" r="1" fill="#D9D9D9"/>
<circle cx="97" cy="129" r="1" fill="#D9D9D9"/>
<circle cx="97" cy="161" r="1" fill="#D9D9D9"/>
<circle cx="97" cy="193" r="1" fill="#D9D9D9"/>
<circle cx="97" cy="225" r="1" fill="#D9D9D9"/>
<circle cx="97" cy="257" r="1" fill="#D9D9D9"/>
<circle cx="97" cy="289" r="1" fill="#D9D9D9"/>
<circle cx="97" cy="321" r="1" fill="#D9D9D9"/>
<circle cx="97" cy="353" r="1" fill="#D9D9D9"/>
<circle cx="97" cy="385" r="1" fill="#D9D9D9"/>
<circle cx="97" cy="417" r="1" fill="#D9D9D9"/>
<circle cx="97" cy="449" r="1" fill="#D9D9D9"/>
<circle cx="97" cy="481" r="1" fill="#D9D9D9"/>
<circle cx="97" cy="513" r="1" fill="#D9D9D9"/>
<circle cx="97" cy="545" r="1" fill="#D9D9D9"/>
<circle cx="97" cy="577" r="1" fill="#D9D9D9"/>
<circle cx="97" cy="609" r="1" fill="#D9D9D9"/>
<circle cx="97" cy="641" r="1" fill="#D9D9D9"/>
<circle cx="129" cy="1" r="1" fill="#D9D9D9"/>
<circle cx="129" cy="33" r="1" fill="#D9D9D9"/>
<circle cx="129" cy="65" r="1" fill="#D9D9D9"/>
<circle cx="129" cy="97" r="1" fill="#D9D9D9"/>
<circle cx="129" cy="129" r="1" fill="#D9D9D9"/>
<circle cx="129" cy="161" r="1" fill="#D9D9D9"/>
<circle cx="129" cy="193" r="1" fill="#D9D9D9"/>
<circle cx="129" cy="225" r="1" fill="#D9D9D9"/>
<circle cx="129" cy="257" r="1" fill="#D9D9D9"/>
<circle cx="129" cy="289" r="1" fill="#D9D9D9"/>
<circle cx="129" cy="321" r="1" fill="#D9D9D9"/>
<circle cx="129" cy="353" r="1" fill="#D9D9D9"/>
<circle cx="129" cy="385" r="1" fill="#D9D9D9"/>
<circle cx="129" cy="417" r="1" fill="#D9D9D9"/>
<circle cx="129" cy="449" r="1" fill="#D9D9D9"/>
<circle cx="129" cy="481" r="1" fill="#D9D9D9"/>
<circle cx="129" cy="513" r="1" fill="#D9D9D9"/>
<circle cx="129" cy="545" r="1" fill="#D9D9D9"/>
<circle cx="129" cy="577" r="1" fill="#D9D9D9"/>
<circle cx="129" cy="609" r="1" fill="#D9D9D9"/>
<circle cx="129" cy="641" r="1" fill="#D9D9D9"/>
<circle cx="161" cy="1" r="1" fill="#D9D9D9"/>
<circle cx="161" cy="33" r="1" fill="#D9D9D9"/>
<circle cx="161" cy="65" r="1" fill="#D9D9D9"/>
<circle cx="161" cy="97" r="1" fill="#D9D9D9"/>
<circle cx="161" cy="129" r="1" fill="#D9D9D9"/>
<circle cx="161" cy="161" r="1" fill="#D9D9D9"/>
<circle cx="161" cy="193" r="1" fill="#D9D9D9"/>
<circle cx="161" cy="225" r="1" fill="#D9D9D9"/>
<circle cx="161" cy="257" r="1" fill="#D9D9D9"/>
<circle cx="161" cy="289" r="1" fill="#D9D9D9"/>
<circle cx="161" cy="321" r="1" fill="#D9D9D9"/>
<circle cx="161" cy="353" r="1" fill="#D9D9D9"/>
<circle cx="161" cy="385" r="1" fill="#D9D9D9"/>
<circle cx="161" cy="417" r="1" fill="#D9D9D9"/>
<circle cx="161" cy="449" r="1" fill="#D9D9D9"/>
<circle cx="161" cy="481" r="1" fill="#D9D9D9"/>
<circle cx="161" cy="513" r="1" fill="#D9D9D9"/>
<circle cx="161" cy="545" r="1" fill="#D9D9D9"/>
<circle cx="161" cy="577" r="1" fill="#D9D9D9"/>
<circle cx="161" cy="609" r="1" fill="#D9D9D9"/>
<circle cx="161" cy="641" r="1" fill="#D9D9D9"/>
<circle cx="193" cy="1" r="1" fill="#D9D9D9"/>
<circle cx="193" cy="33" r="1" fill="#D9D9D9"/>
<circle cx="193" cy="65" r="1" fill="#D9D9D9"/>
<circle cx="193" cy="97" r="1" fill="#D9D9D9"/>
<circle cx="193" cy="129" r="1" fill="#D9D9D9"/>
<circle cx="193" cy="161" r="1" fill="#D9D9D9"/>
<circle cx="193" cy="193" r="1" fill="#D9D9D9"/>
<circle cx="193" cy="225" r="1" fill="#D9D9D9"/>
<circle cx="193" cy="257" r="1" fill="#D9D9D9"/>
<circle cx="193" cy="289" r="1" fill="#D9D9D9"/>
<circle cx="193" cy="321" r="1" fill="#D9D9D9"/>
<circle cx="193" cy="353" r="1" fill="#D9D9D9"/>
<circle cx="193" cy="385" r="1" fill="#D9D9D9"/>
<circle cx="193" cy="417" r="1" fill="#D9D9D9"/>
<circle cx="193" cy="449" r="1" fill="#D9D9D9"/>
<circle cx="193" cy="481" r="1" fill="#D9D9D9"/>
<circle cx="193" cy="513" r="1" fill="#D9D9D9"/>
<circle cx="193" cy="545" r="1" fill="#D9D9D9"/>
<circle cx="193" cy="577" r="1" fill="#D9D9D9"/>
<circle cx="193" cy="609" r="1" fill="#D9D9D9"/>
<circle cx="193" cy="641" r="1" fill="#D9D9D9"/>
<circle cx="225" cy="1" r="1" fill="#D9D9D9"/>
<circle cx="225" cy="33" r="1" fill="#D9D9D9"/>
<circle cx="225" cy="65" r="1" fill="#D9D9D9"/>
<circle cx="225" cy="97" r="1" fill="#D9D9D9"/>
<circle cx="225" cy="129" r="1" fill="#D9D9D9"/>
<circle cx="225" cy="161" r="1" fill="#D9D9D9"/>
<circle cx="225" cy="193" r="1" fill="#D9D9D9"/>
<circle cx="225" cy="225" r="1" fill="#D9D9D9"/>
<circle cx="225" cy="257" r="1" fill="#D9D9D9"/>
<circle cx="225" cy="289" r="1" fill="#D9D9D9"/>
<circle cx="225" cy="321" r="1" fill="#D9D9D9"/>
<circle cx="225" cy="353" r="1" fill="#D9D9D9"/>
<circle cx="225" cy="385" r="1" fill="#D9D9D9"/>
<circle cx="225" cy="417" r="1" fill="#D9D9D9"/>
<circle cx="225" cy="449" r="1" fill="#D9D9D9"/>
<circle cx="225" cy="481" r="1" fill="#D9D9D9"/>
<circle cx="225" cy="513" r="1" fill="#D9D9D9"/>
<circle cx="225" cy="545" r="1" fill="#D9D9D9"/>
<circle cx="225" cy="577" r="1" fill="#D9D9D9"/>
<circle cx="225" cy="609" r="1" fill="#D9D9D9"/>
<circle cx="225" cy="641" r="1" fill="#D9D9D9"/>
<circle cx="257" cy="1" r="1" fill="#D9D9D9"/>
<circle cx="257" cy="33" r="1" fill="#D9D9D9"/>
<circle cx="257" cy="65" r="1" fill="#D9D9D9"/>
<circle cx="257" cy="97" r="1" fill="#D9D9D9"/>
<circle cx="257" cy="129" r="1" fill="#D9D9D9"/>
<circle cx="257" cy="161" r="1" fill="#D9D9D9"/>
<circle cx="257" cy="193" r="1" fill="#D9D9D9"/>
<circle cx="257" cy="225" r="1" fill="#D9D9D9"/>
<circle cx="257" cy="257" r="1" fill="#D9D9D9"/>
<circle cx="257" cy="289" r="1" fill="#D9D9D9"/>
<circle cx="257" cy="321" r="1" fill="#D9D9D9"/>
<circle cx="257" cy="353" r="1" fill="#D9D9D9"/>
<circle cx="257" cy="385" r="1" fill="#D9D9D9"/>
<circle cx="257" cy="417" r="1" fill="#D9D9D9"/>
<circle cx="257" cy="449" r="1" fill="#D9D9D9"/>
<circle cx="257" cy="481" r="1" fill="#D9D9D9"/>
<circle cx="257" cy="513" r="1" fill="#D9D9D9"/>
<circle cx="257" cy="545" r="1" fill="#D9D9D9"/>
<circle cx="257" cy="577" r="1" fill="#D9D9D9"/>
<circle cx="257" cy="609" r="1" fill="#D9D9D9"/>
<circle cx="257" cy="641" r="1" fill="#D9D9D9"/>
<circle cx="289" cy="1" r="1" fill="#D9D9D9"/>
<circle cx="289" cy="33" r="1" fill="#D9D9D9"/>
<circle cx="289" cy="65" r="1" fill="#D9D9D9"/>
<circle cx="289" cy="97" r="1" fill="#D9D9D9"/>
<circle cx="289" cy="129" r="1" fill="#D9D9D9"/>
<circle cx="289" cy="161" r="1" fill="#D9D9D9"/>
<circle cx="289" cy="193" r="1" fill="#D9D9D9"/>
<circle cx="289" cy="225" r="1" fill="#D9D9D9"/>
<circle cx="289" cy="257" r="1" fill="#D9D9D9"/>
<circle cx="289" cy="289" r="1" fill="#D9D9D9"/>
<circle cx="289" cy="321" r="1" fill="#D9D9D9"/>
<circle cx="289" cy="353" r="1" fill="#D9D9D9"/>
<circle cx="289" cy="385" r="1" fill="#D9D9D9"/>
<circle cx="289" cy="417" r="1" fill="#D9D9D9"/>
<circle cx="289" cy="449" r="1" fill="#D9D9D9"/>
<circle cx="289" cy="481" r="1" fill="#D9D9D9"/>
<circle cx="289" cy="513" r="1" fill="#D9D9D9"/>
<circle cx="289" cy="545" r="1" fill="#D9D9D9"/>
<circle cx="289" cy="577" r="1" fill="#D9D9D9"/>
<circle cx="289" cy="609" r="1" fill="#D9D9D9"/>
<circle cx="289" cy="641" r="1" fill="#D9D9D9"/>
<circle cx="321" cy="1" r="1" fill="#D9D9D9"/>
<circle cx="321" cy="33" r="1" fill="#D9D9D9"/>
<circle cx="321" cy="65" r="1" fill="#D9D9D9"/>
<circle cx="321" cy="97" r="1" fill="#D9D9D9"/>
<circle cx="321" cy="129" r="1" fill="#D9D9D9"/>
<circle cx="321" cy="161" r="1" fill="#D9D9D9"/>
<circle cx="321" cy="193" r="1" fill="#D9D9D9"/>
<circle cx="321" cy="225" r="1" fill="#D9D9D9"/>
<circle cx="321" cy="257" r="1" fill="#D9D9D9"/>
<circle cx="321" cy="289" r="1" fill="#D9D9D9"/>
<circle cx="321" cy="321" r="1" fill="#D9D9D9"/>
<circle cx="321" cy="353" r="1" fill="#D9D9D9"/>
<circle cx="321" cy="385" r="1" fill="#D9D9D9"/>
<circle cx="321" cy="417" r="1" fill="#D9D9D9"/>
<circle cx="321" cy="449" r="1" fill="#D9D9D9"/>
<circle cx="321" cy="481" r="1" fill="#D9D9D9"/>
<circle cx="321" cy="513" r="1" fill="#D9D9D9"/>
<circle cx="321" cy="545" r="1" fill="#D9D9D9"/>
<circle cx="321" cy="577" r="1" fill="#D9D9D9"/>
<circle cx="321" cy="609" r="1" fill="#D9D9D9"/>
<circle cx="321" cy="641" r="1" fill="#D9D9D9"/>
<circle cx="353" cy="1" r="1" fill="#D9D9D9"/>
<circle cx="353" cy="33" r="1" fill="#D9D9D9"/>
<circle cx="353" cy="65" r="1" fill="#D9D9D9"/>
<circle cx="353" cy="97" r="1" fill="#D9D9D9"/>
<circle cx="353" cy="129" r="1" fill="#D9D9D9"/>
<circle cx="353" cy="161" r="1" fill="#D9D9D9"/>
<circle cx="353" cy="193" r="1" fill="#D9D9D9"/>
<circle cx="353" cy="225" r="1" fill="#D9D9D9"/>
<circle cx="353" cy="257" r="1" fill="#D9D9D9"/>
<circle cx="353" cy="289" r="1" fill="#D9D9D9"/>
<circle cx="353" cy="321" r="1" fill="#D9D9D9"/>
<circle cx="353" cy="353" r="1" fill="#D9D9D9"/>
<circle cx="353" cy="385" r="1" fill="#D9D9D9"/>
<circle cx="353" cy="417" r="1" fill="#D9D9D9"/>
<circle cx="353" cy="449" r="1" fill="#D9D9D9"/>
<circle cx="353" cy="481" r="1" fill="#D9D9D9"/>
<circle cx="353" cy="513" r="1" fill="#D9D9D9"/>
<circle cx="353" cy="545" r="1" fill="#D9D9D9"/>
<circle cx="353" cy="577" r="1" fill="#D9D9D9"/>
<circle cx="353" cy="609" r="1" fill="#D9D9D9"/>
<circle cx="353" cy="641" r="1" fill="#D9D9D9"/>
<circle cx="385" cy="1" r="1" fill="#D9D9D9"/>
<circle cx="385" cy="33" r="1" fill="#D9D9D9"/>
<circle cx="385" cy="65" r="1" fill="#D9D9D9"/>
<circle cx="385" cy="97" r="1" fill="#D9D9D9"/>
<circle cx="385" cy="129" r="1" fill="#D9D9D9"/>
<circle cx="385" cy="161" r="1" fill="#D9D9D9"/>
<circle cx="385" cy="193" r="1" fill="#D9D9D9"/>
<circle cx="385" cy="225" r="1" fill="#D9D9D9"/>
<circle cx="385" cy="257" r="1" fill="#D9D9D9"/>
<circle cx="385" cy="289" r="1" fill="#D9D9D9"/>
<circle cx="385" cy="321" r="1" fill="#D9D9D9"/>
<circle cx="385" cy="353" r="1" fill="#D9D9D9"/>
<circle cx="385" cy="385" r="1" fill="#D9D9D9"/>
<circle cx="385" cy="417" r="1" fill="#D9D9D9"/>
<circle cx="385" cy="449" r="1" fill="#D9D9D9"/>
<circle cx="385" cy="481" r="1" fill="#D9D9D9"/>
<circle cx="385" cy="513" r="1" fill="#D9D9D9"/>
<circle cx="385" cy="545" r="1" fill="#D9D9D9"/>
<circle cx="385" cy="577" r="1" fill="#D9D9D9"/>
<circle cx="385" cy="609" r="1" fill="#D9D9D9"/>
<circle cx="385" cy="641" r="1" fill="#D9D9D9"/>
<circle cx="417" cy="1" r="1" fill="#D9D9D9"/>
<circle cx="417" cy="33" r="1" fill="#D9D9D9"/>
<circle cx="417" cy="65" r="1" fill="#D9D9D9"/>
<circle cx="417" cy="97" r="1" fill="#D9D9D9"/>
<circle cx="417" cy="129" r="1" fill="#D9D9D9"/>
<circle cx="417" cy="161" r="1" fill="#D9D9D9"/>
<circle cx="417" cy="193" r="1" fill="#D9D9D9"/>
<circle cx="417" cy="225" r="1" fill="#D9D9D9"/>
<circle cx="417" cy="257" r="1" fill="#D9D9D9"/>
<circle cx="417" cy="289" r="1" fill="#D9D9D9"/>
<circle cx="417" cy="321" r="1" fill="#D9D9D9"/>
<circle cx="417" cy="353" r="1" fill="#D9D9D9"/>
<circle cx="417" cy="385" r="1" fill="#D9D9D9"/>
<circle cx="417" cy="417" r="1" fill="#D9D9D9"/>
<circle cx="417" cy="449" r="1" fill="#D9D9D9"/>
<circle cx="417" cy="481" r="1" fill="#D9D9D9"/>
<circle cx="417" cy="513" r="1" fill="#D9D9D9"/>
<circle cx="417" cy="545" r="1" fill="#D9D9D9"/>
<circle cx="417" cy="577" r="1" fill="#D9D9D9"/>
<circle cx="417" cy="609" r="1" fill="#D9D9D9"/>
<circle cx="417" cy="641" r="1" fill="#D9D9D9"/>
<circle cx="449" cy="1" r="1" fill="#D9D9D9"/>
<circle cx="449" cy="33" r="1" fill="#D9D9D9"/>
<circle cx="449" cy="65" r="1" fill="#D9D9D9"/>
<circle cx="449" cy="97" r="1" fill="#D9D9D9"/>
<circle cx="449" cy="129" r="1" fill="#D9D9D9"/>
<circle cx="449" cy="161" r="1" fill="#D9D9D9"/>
<circle cx="449" cy="193" r="1" fill="#D9D9D9"/>
<circle cx="449" cy="225" r="1" fill="#D9D9D9"/>
<circle cx="449" cy="257" r="1" fill="#D9D9D9"/>
<circle cx="449" cy="289" r="1" fill="#D9D9D9"/>
<circle cx="449" cy="321" r="1" fill="#D9D9D9"/>
<circle cx="449" cy="353" r="1" fill="#D9D9D9"/>
<circle cx="449" cy="385" r="1" fill="#D9D9D9"/>
<circle cx="449" cy="417" r="1" fill="#D9D9D9"/>
<circle cx="449" cy="449" r="1" fill="#D9D9D9"/>
<circle cx="449" cy="481" r="1" fill="#D9D9D9"/>
<circle cx="449" cy="513" r="1" fill="#D9D9D9"/>
<circle cx="449" cy="545" r="1" fill="#D9D9D9"/>
<circle cx="449" cy="577" r="1" fill="#D9D9D9"/>
<circle cx="449" cy="609" r="1" fill="#D9D9D9"/>
<circle cx="449" cy="641" r="1" fill="#D9D9D9"/>
<circle cx="481" cy="1" r="1" fill="#D9D9D9"/>
<circle cx="481" cy="33" r="1" fill="#D9D9D9"/>
<circle cx="481" cy="65" r="1" fill="#D9D9D9"/>
<circle cx="481" cy="97" r="1" fill="#D9D9D9"/>
<circle cx="481" cy="129" r="1" fill="#D9D9D9"/>
<circle cx="481" cy="161" r="1" fill="#D9D9D9"/>
<circle cx="481" cy="193" r="1" fill="#D9D9D9"/>
<circle cx="481" cy="225" r="1" fill="#D9D9D9"/>
<circle cx="481" cy="257" r="1" fill="#D9D9D9"/>
<circle cx="481" cy="289" r="1" fill="#D9D9D9"/>
<circle cx="481" cy="321" r="1" fill="#D9D9D9"/>
<circle cx="481" cy="353" r="1" fill="#D9D9D9"/>
<circle cx="481" cy="385" r="1" fill="#D9D9D9"/>
<circle cx="481" cy="417" r="1" fill="#D9D9D9"/>
<circle cx="481" cy="449" r="1" fill="#D9D9D9"/>
<circle cx="481" cy="481" r="1" fill="#D9D9D9"/>
<circle cx="481" cy="513" r="1" fill="#D9D9D9"/>
<circle cx="481" cy="545" r="1" fill="#D9D9D9"/>
<circle cx="481" cy="577" r="1" fill="#D9D9D9"/>
<circle cx="481" cy="609" r="1" fill="#D9D9D9"/>
<circle cx="481" cy="641" r="1" fill="#D9D9D9"/>
<circle cx="513" cy="1" r="1" fill="#D9D9D9"/>
<circle cx="513" cy="33" r="1" fill="#D9D9D9"/>
<circle cx="513" cy="65" r="1" fill="#D9D9D9"/>
<circle cx="513" cy="97" r="1" fill="#D9D9D9"/>
<circle cx="513" cy="129" r="1" fill="#D9D9D9"/>
<circle cx="513" cy="161" r="1" fill="#D9D9D9"/>
<circle cx="513" cy="193" r="1" fill="#D9D9D9"/>
<circle cx="513" cy="225" r="1" fill="#D9D9D9"/>
<circle cx="513" cy="257" r="1" fill="#D9D9D9"/>
<circle cx="513" cy="289" r="1" fill="#D9D9D9"/>
<circle cx="513" cy="321" r="1" fill="#D9D9D9"/>
<circle cx="513" cy="353" r="1" fill="#D9D9D9"/>
<circle cx="513" cy="385" r="1" fill="#D9D9D9"/>
<circle cx="513" cy="417" r="1" fill="#D9D9D9"/>
<circle cx="513" cy="449" r="1" fill="#D9D9D9"/>
<circle cx="513" cy="481" r="1" fill="#D9D9D9"/>
<circle cx="513" cy="513" r="1" fill="#D9D9D9"/>
<circle cx="513" cy="545" r="1" fill="#D9D9D9"/>
<circle cx="513" cy="577" r="1" fill="#D9D9D9"/>
<circle cx="513" cy="609" r="1" fill="#D9D9D9"/>
<circle cx="513" cy="641" r="1" fill="#D9D9D9"/>
<circle cx="545" cy="1" r="1" fill="#D9D9D9"/>
<circle cx="545" cy="33" r="1" fill="#D9D9D9"/>
<circle cx="545" cy="65" r="1" fill="#D9D9D9"/>
<circle cx="545" cy="97" r="1" fill="#D9D9D9"/>
<circle cx="545" cy="129" r="1" fill="#D9D9D9"/>
<circle cx="545" cy="161" r="1" fill="#D9D9D9"/>
<circle cx="545" cy="193" r="1" fill="#D9D9D9"/>
<circle cx="545" cy="225" r="1" fill="#D9D9D9"/>
<circle cx="545" cy="257" r="1" fill="#D9D9D9"/>
<circle cx="545" cy="289" r="1" fill="#D9D9D9"/>
<circle cx="545" cy="321" r="1" fill="#D9D9D9"/>
<circle cx="545" cy="353" r="1" fill="#D9D9D9"/>
<circle cx="545" cy="385" r="1" fill="#D9D9D9"/>
<circle cx="545" cy="417" r="1" fill="#D9D9D9"/>
<circle cx="545" cy="449" r="1" fill="#D9D9D9"/>
<circle cx="545" cy="481" r="1" fill="#D9D9D9"/>
<circle cx="545" cy="513" r="1" fill="#D9D9D9"/>
<circle cx="545" cy="545" r="1" fill="#D9D9D9"/>
<circle cx="545" cy="577" r="1" fill="#D9D9D9"/>
<circle cx="545" cy="609" r="1" fill="#D9D9D9"/>
<circle cx="545" cy="641" r="1" fill="#D9D9D9"/>
<circle cx="577" cy="1" r="1" fill="#D9D9D9"/>
<circle cx="577" cy="33" r="1" fill="#D9D9D9"/>
<circle cx="577" cy="65" r="1" fill="#D9D9D9"/>
<circle cx="577" cy="97" r="1" fill="#D9D9D9"/>
<circle cx="577" cy="129" r="1" fill="#D9D9D9"/>
<circle cx="577" cy="161" r="1" fill="#D9D9D9"/>
<circle cx="577" cy="193" r="1" fill="#D9D9D9"/>
<circle cx="577" cy="225" r="1" fill="#D9D9D9"/>
<circle cx="577" cy="257" r="1" fill="#D9D9D9"/>
<circle cx="577" cy="289" r="1" fill="#D9D9D9"/>
<circle cx="577" cy="321" r="1" fill="#D9D9D9"/>
<circle cx="577" cy="353" r="1" fill="#D9D9D9"/>
<circle cx="577" cy="385" r="1" fill="#D9D9D9"/>
<circle cx="577" cy="417" r="1" fill="#D9D9D9"/>
<circle cx="577" cy="449" r="1" fill="#D9D9D9"/>
<circle cx="577" cy="481" r="1" fill="#D9D9D9"/>
<circle cx="577" cy="513" r="1" fill="#D9D9D9"/>
<circle cx="577" cy="545" r="1" fill="#D9D9D9"/>
<circle cx="577" cy="577" r="1" fill="#D9D9D9"/>
<circle cx="577" cy="609" r="1" fill="#D9D9D9"/>
<circle cx="577" cy="641" r="1" fill="#D9D9D9"/>
<circle cx="609" cy="1" r="1" fill="#D9D9D9"/>
<circle cx="609" cy="33" r="1" fill="#D9D9D9"/>
<circle cx="609" cy="65" r="1" fill="#D9D9D9"/>
<circle cx="609" cy="97" r="1" fill="#D9D9D9"/>
<circle cx="609" cy="129" r="1" fill="#D9D9D9"/>
<circle cx="609" cy="161" r="1" fill="#D9D9D9"/>
<circle cx="609" cy="193" r="1" fill="#D9D9D9"/>
<circle cx="609" cy="225" r="1" fill="#D9D9D9"/>
<circle cx="609" cy="257" r="1" fill="#D9D9D9"/>
<circle cx="609" cy="289" r="1" fill="#D9D9D9"/>
<circle cx="609" cy="321" r="1" fill="#D9D9D9"/>
<circle cx="609" cy="353" r="1" fill="#D9D9D9"/>
<circle cx="609" cy="385" r="1" fill="#D9D9D9"/>
<circle cx="609" cy="417" r="1" fill="#D9D9D9"/>
<circle cx="609" cy="449" r="1" fill="#D9D9D9"/>
<circle cx="609" cy="481" r="1" fill="#D9D9D9"/>
<circle cx="609" cy="513" r="1" fill="#D9D9D9"/>
<circle cx="609" cy="545" r="1" fill="#D9D9D9"/>
<circle cx="609" cy="577" r="1" fill="#D9D9D9"/>
<circle cx="609" cy="609" r="1" fill="#D9D9D9"/>
<circle cx="609" cy="641" r="1" fill="#D9D9D9"/>
<circle cx="641" cy="1" r="1" fill="#D9D9D9"/>
<circle cx="641" cy="33" r="1" fill="#D9D9D9"/>
<circle cx="641" cy="65" r="1" fill="#D9D9D9"/>
<circle cx="641" cy="97" r="1" fill="#D9D9D9"/>
<circle cx="641" cy="129" r="1" fill="#D9D9D9"/>
<circle cx="641" cy="161" r="1" fill="#D9D9D9"/>
<circle cx="641" cy="193" r="1" fill="#D9D9D9"/>
<circle cx="641" cy="225" r="1" fill="#D9D9D9"/>
<circle cx="641" cy="257" r="1" fill="#D9D9D9"/>
<circle cx="641" cy="289" r="1" fill="#D9D9D9"/>
<circle cx="641" cy="321" r="1" fill="#D9D9D9"/>
<circle cx="641" cy="353" r="1" fill="#D9D9D9"/>
<circle cx="641" cy="385" r="1" fill="#D9D9D9"/>
<circle cx="641" cy="417" r="1" fill="#D9D9D9"/>
<circle cx="641" cy="449" r="1" fill="#D9D9D9"/>
<circle cx="641" cy="481" r="1" fill="#D9D9D9"/>
<circle cx="641" cy="513" r="1" fill="#D9D9D9"/>
<circle cx="641" cy="545" r="1" fill="#D9D9D9"/>
<circle cx="641" cy="577" r="1" fill="#D9D9D9"/>
<circle cx="641" cy="609" r="1" fill="#D9D9D9"/>
<circle cx="641" cy="641" r="1" fill="#D9D9D9"/>
<circle cx="673" cy="1" r="1" fill="#D9D9D9"/>
<circle cx="673" cy="33" r="1" fill="#D9D9D9"/>
<circle cx="673" cy="65" r="1" fill="#D9D9D9"/>
<circle cx="673" cy="97" r="1" fill="#D9D9D9"/>
<circle cx="673" cy="129" r="1" fill="#D9D9D9"/>
<circle cx="673" cy="161" r="1" fill="#D9D9D9"/>
<circle cx="673" cy="193" r="1" fill="#D9D9D9"/>
<circle cx="673" cy="225" r="1" fill="#D9D9D9"/>
<circle cx="673" cy="257" r="1" fill="#D9D9D9"/>
<circle cx="673" cy="289" r="1" fill="#D9D9D9"/>
<circle cx="673" cy="321" r="1" fill="#D9D9D9"/>
<circle cx="673" cy="353" r="1" fill="#D9D9D9"/>
<circle cx="673" cy="385" r="1" fill="#D9D9D9"/>
<circle cx="673" cy="417" r="1" fill="#D9D9D9"/>
<circle cx="673" cy="449" r="1" fill="#D9D9D9"/>
<circle cx="673" cy="481" r="1" fill="#D9D9D9"/>
<circle cx="673" cy="513" r="1" fill="#D9D9D9"/>
<circle cx="673" cy="545" r="1" fill="#D9D9D9"/>
<circle cx="673" cy="577" r="1" fill="#D9D9D9"/>
<circle cx="673" cy="609" r="1" fill="#D9D9D9"/>
<circle cx="673" cy="641" r="1" fill="#D9D9D9"/>
<circle cx="705" cy="1" r="1" fill="#D9D9D9"/>
<circle cx="705" cy="33" r="1" fill="#D9D9D9"/>
<circle cx="705" cy="65" r="1" fill="#D9D9D9"/>
<circle cx="705" cy="97" r="1" fill="#D9D9D9"/>
<circle cx="705" cy="129" r="1" fill="#D9D9D9"/>
<circle cx="705" cy="161" r="1" fill="#D9D9D9"/>
<circle cx="705" cy="193" r="1" fill="#D9D9D9"/>
<circle cx="705" cy="225" r="1" fill="#D9D9D9"/>
<circle cx="705" cy="257" r="1" fill="#D9D9D9"/>
<circle cx="705" cy="289" r="1" fill="#D9D9D9"/>
<circle cx="705" cy="321" r="1" fill="#D9D9D9"/>
<circle cx="705" cy="353" r="1" fill="#D9D9D9"/>
<circle cx="705" cy="385" r="1" fill="#D9D9D9"/>
<circle cx="705" cy="417" r="1" fill="#D9D9D9"/>
<circle cx="705" cy="449" r="1" fill="#D9D9D9"/>
<circle cx="705" cy="481" r="1" fill="#D9D9D9"/>
<circle cx="705" cy="513" r="1" fill="#D9D9D9"/>
<circle cx="705" cy="545" r="1" fill="#D9D9D9"/>
<circle cx="705" cy="577" r="1" fill="#D9D9D9"/>
<circle cx="705" cy="609" r="1" fill="#D9D9D9"/>
<circle cx="705" cy="641" r="1" fill="#D9D9D9"/>
<circle cx="737" cy="1" r="1" fill="#D9D9D9"/>
<circle cx="737" cy="33" r="1" fill="#D9D9D9"/>
<circle cx="737" cy="65" r="1" fill="#D9D9D9"/>
<circle cx="737" cy="97" r="1" fill="#D9D9D9"/>
<circle cx="737" cy="129" r="1" fill="#D9D9D9"/>
<circle cx="737" cy="161" r="1" fill="#D9D9D9"/>
<circle cx="737" cy="193" r="1" fill="#D9D9D9"/>
<circle cx="737" cy="225" r="1" fill="#D9D9D9"/>
<circle cx="737" cy="257" r="1" fill="#D9D9D9"/>
<circle cx="737" cy="289" r="1" fill="#D9D9D9"/>
<circle cx="737" cy="321" r="1" fill="#D9D9D9"/>
<circle cx="737" cy="353" r="1" fill="#D9D9D9"/>
<circle cx="737" cy="385" r="1" fill="#D9D9D9"/>
<circle cx="737" cy="417" r="1" fill="#D9D9D9"/>
<circle cx="737" cy="449" r="1" fill="#D9D9D9"/>
<circle cx="737" cy="481" r="1" fill="#D9D9D9"/>
<circle cx="737" cy="513" r="1" fill="#D9D9D9"/>
<circle cx="737" cy="545" r="1" fill="#D9D9D9"/>
<circle cx="737" cy="577" r="1" fill="#D9D9D9"/>
<circle cx="737" cy="609" r="1" fill="#D9D9D9"/>
<circle cx="737" cy="641" r="1" fill="#D9D9D9"/>
<circle cx="769" cy="1" r="1" fill="#D9D9D9"/>
<circle cx="769" cy="33" r="1" fill="#D9D9D9"/>
<circle cx="769" cy="65" r="1" fill="#D9D9D9"/>
<circle cx="769" cy="97" r="1" fill="#D9D9D9"/>
<circle cx="769" cy="129" r="1" fill="#D9D9D9"/>
<circle cx="769" cy="161" r="1" fill="#D9D9D9"/>
<circle cx="769" cy="193" r="1" fill="#D9D9D9"/>
<circle cx="769" cy="225" r="1" fill="#D9D9D9"/>
<circle cx="769" cy="257" r="1" fill="#D9D9D9"/>
<circle cx="769" cy="289" r="1" fill="#D9D9D9"/>
<circle cx="769" cy="321" r="1" fill="#D9D9D9"/>
<circle cx="769" cy="353" r="1" fill="#D9D9D9"/>
<circle cx="769" cy="385" r="1" fill="#D9D9D9"/>
<circle cx="769" cy="417" r="1" fill="#D9D9D9"/>
<circle cx="769" cy="449" r="1" fill="#D9D9D9"/>
<circle cx="769" cy="481" r="1" fill="#D9D9D9"/>
<circle cx="769" cy="513" r="1" fill="#D9D9D9"/>
<circle cx="769" cy="545" r="1" fill="#D9D9D9"/>
<circle cx="769" cy="577" r="1" fill="#D9D9D9"/>
<circle cx="769" cy="609" r="1" fill="#D9D9D9"/>
<circle cx="769" cy="641" r="1" fill="#D9D9D9"/>
<circle cx="801" cy="1" r="1" fill="#D9D9D9"/>
<circle cx="801" cy="33" r="1" fill="#D9D9D9"/>
<circle cx="801" cy="65" r="1" fill="#D9D9D9"/>
<circle cx="801" cy="97" r="1" fill="#D9D9D9"/>
<circle cx="801" cy="129" r="1" fill="#D9D9D9"/>
<circle cx="801" cy="161" r="1" fill="#D9D9D9"/>
<circle cx="801" cy="193" r="1" fill="#D9D9D9"/>
<circle cx="801" cy="225" r="1" fill="#D9D9D9"/>
<circle cx="801" cy="257" r="1" fill="#D9D9D9"/>
<circle cx="801" cy="289" r="1" fill="#D9D9D9"/>
<circle cx="801" cy="321" r="1" fill="#D9D9D9"/>
<circle cx="801" cy="353" r="1" fill="#D9D9D9"/>
<circle cx="801" cy="385" r="1" fill="#D9D9D9"/>
<circle cx="801" cy="417" r="1" fill="#D9D9D9"/>
<circle cx="801" cy="449" r="1" fill="#D9D9D9"/>
<circle cx="801" cy="481" r="1" fill="#D9D9D9"/>
<circle cx="801" cy="513" r="1" fill="#D9D9D9"/>
<circle cx="801" cy="545" r="1" fill="#D9D9D9"/>
<circle cx="801" cy="577" r="1" fill="#D9D9D9"/>
<circle cx="801" cy="609" r="1" fill="#D9D9D9"/>
<circle cx="801" cy="641" r="1" fill="#D9D9D9"/>
<circle cx="833" cy="1" r="1" fill="#D9D9D9"/>
<circle cx="833" cy="33" r="1" fill="#D9D9D9"/>
<circle cx="833" cy="65" r="1" fill="#D9D9D9"/>
<circle cx="833" cy="97" r="1" fill="#D9D9D9"/>
<circle cx="833" cy="129" r="1" fill="#D9D9D9"/>
<circle cx="833" cy="161" r="1" fill="#D9D9D9"/>
<circle cx="833" cy="193" r="1" fill="#D9D9D9"/>
<circle cx="833" cy="225" r="1" fill="#D9D9D9"/>
<circle cx="833" cy="257" r="1" fill="#D9D9D9"/>
<circle cx="833" cy="289" r="1" fill="#D9D9D9"/>
<circle cx="833" cy="321" r="1" fill="#D9D9D9"/>
<circle cx="833" cy="353" r="1" fill="#D9D9D9"/>
<circle cx="833" cy="385" r="1" fill="#D9D9D9"/>
<circle cx="833" cy="417" r="1" fill="#D9D9D9"/>
<circle cx="833" cy="449" r="1" fill="#D9D9D9"/>
<circle cx="833" cy="481" r="1" fill="#D9D9D9"/>
<circle cx="833" cy="513" r="1" fill="#D9D9D9"/>
<circle cx="833" cy="545" r="1" fill="#D9D9D9"/>
<circle cx="833" cy="577" r="1" fill="#D9D9D9"/>
<circle cx="833" cy="609" r="1" fill="#D9D9D9"/>
<circle cx="833" cy="641" r="1" fill="#D9D9D9"/>
<circle cx="865" cy="1" r="1" fill="#D9D9D9"/>
<circle cx="865" cy="33" r="1" fill="#D9D9D9"/>
<circle cx="865" cy="65" r="1" fill="#D9D9D9"/>
<circle cx="865" cy="97" r="1" fill="#D9D9D9"/>
<circle cx="865" cy="129" r="1" fill="#D9D9D9"/>
<circle cx="865" cy="161" r="1" fill="#D9D9D9"/>
<circle cx="865" cy="193" r="1" fill="#D9D9D9"/>
<circle cx="865" cy="225" r="1" fill="#D9D9D9"/>
<circle cx="865" cy="257" r="1" fill="#D9D9D9"/>
<circle cx="865" cy="289" r="1" fill="#D9D9D9"/>
<circle cx="865" cy="321" r="1" fill="#D9D9D9"/>
<circle cx="865" cy="353" r="1" fill="#D9D9D9"/>
<circle cx="865" cy="385" r="1" fill="#D9D9D9"/>
<circle cx="865" cy="417" r="1" fill="#D9D9D9"/>
<circle cx="865" cy="449" r="1" fill="#D9D9D9"/>
<circle cx="865" cy="481" r="1" fill="#D9D9D9"/>
<circle cx="865" cy="513" r="1" fill="#D9D9D9"/>
<circle cx="865" cy="545" r="1" fill="#D9D9D9"/>
<circle cx="865" cy="577" r="1" fill="#D9D9D9"/>
<circle cx="865" cy="609" r="1" fill="#D9D9D9"/>
<circle cx="865" cy="641" r="1" fill="#D9D9D9"/>
<circle cx="897" cy="1" r="1" fill="#D9D9D9"/>
<circle cx="897" cy="33" r="1" fill="#D9D9D9"/>
<circle cx="897" cy="65" r="1" fill="#D9D9D9"/>
<circle cx="897" cy="97" r="1" fill="#D9D9D9"/>
<circle cx="897" cy="129" r="1" fill="#D9D9D9"/>
<circle cx="897" cy="161" r="1" fill="#D9D9D9"/>
<circle cx="897" cy="193" r="1" fill="#D9D9D9"/>
<circle cx="897" cy="225" r="1" fill="#D9D9D9"/>
<circle cx="897" cy="257" r="1" fill="#D9D9D9"/>
<circle cx="897" cy="289" r="1" fill="#D9D9D9"/>
<circle cx="897" cy="321" r="1" fill="#D9D9D9"/>
<circle cx="897" cy="353" r="1" fill="#D9D9D9"/>
<circle cx="897" cy="385" r="1" fill="#D9D9D9"/>
<circle cx="897" cy="417" r="1" fill="#D9D9D9"/>
<circle cx="897" cy="449" r="1" fill="#D9D9D9"/>
<circle cx="897" cy="481" r="1" fill="#D9D9D9"/>
<circle cx="897" cy="513" r="1" fill="#D9D9D9"/>
<circle cx="897" cy="545" r="1" fill="#D9D9D9"/>
<circle cx="897" cy="577" r="1" fill="#D9D9D9"/>
<circle cx="897" cy="609" r="1" fill="#D9D9D9"/>
<circle cx="897" cy="641" r="1" fill="#D9D9D9"/>
<circle cx="929" cy="1" r="1" fill="#D9D9D9"/>
<circle cx="929" cy="33" r="1" fill="#D9D9D9"/>
<circle cx="929" cy="65" r="1" fill="#D9D9D9"/>
<circle cx="929" cy="97" r="1" fill="#D9D9D9"/>
<circle cx="929" cy="129" r="1" fill="#D9D9D9"/>
<circle cx="929" cy="161" r="1" fill="#D9D9D9"/>
<circle cx="929" cy="193" r="1" fill="#D9D9D9"/>
<circle cx="929" cy="225" r="1" fill="#D9D9D9"/>
<circle cx="929" cy="257" r="1" fill="#D9D9D9"/>
<circle cx="929" cy="289" r="1" fill="#D9D9D9"/>
<circle cx="929" cy="321" r="1" fill="#D9D9D9"/>
<circle cx="929" cy="353" r="1" fill="#D9D9D9"/>
<circle cx="929" cy="385" r="1" fill="#D9D9D9"/>
<circle cx="929" cy="417" r="1" fill="#D9D9D9"/>
<circle cx="929" cy="449" r="1" fill="#D9D9D9"/>
<circle cx="929" cy="481" r="1" fill="#D9D9D9"/>
<circle cx="929" cy="513" r="1" fill="#D9D9D9"/>
<circle cx="929" cy="545" r="1" fill="#D9D9D9"/>
<circle cx="929" cy="577" r="1" fill="#D9D9D9"/>
<circle cx="929" cy="609" r="1" fill="#D9D9D9"/>
<circle cx="929" cy="641" r="1" fill="#D9D9D9"/>
<circle cx="961" cy="1" r="1" fill="#D9D9D9"/>
<circle cx="961" cy="33" r="1" fill="#D9D9D9"/>
<circle cx="961" cy="65" r="1" fill="#D9D9D9"/>
<circle cx="961" cy="97" r="1" fill="#D9D9D9"/>
<circle cx="961" cy="129" r="1" fill="#D9D9D9"/>
<circle cx="961" cy="161" r="1" fill="#D9D9D9"/>
<circle cx="961" cy="193" r="1" fill="#D9D9D9"/>
<circle cx="961" cy="225" r="1" fill="#D9D9D9"/>
<circle cx="961" cy="257" r="1" fill="#D9D9D9"/>
<circle cx="961" cy="289" r="1" fill="#D9D9D9"/>
<circle cx="961" cy="321" r="1" fill="#D9D9D9"/>
<circle cx="961" cy="353" r="1" fill="#D9D9D9"/>
<circle cx="961" cy="385" r="1" fill="#D9D9D9"/>
<circle cx="961" cy="417" r="1" fill="#D9D9D9"/>
<circle cx="961" cy="449" r="1" fill="#D9D9D9"/>
<circle cx="961" cy="481" r="1" fill="#D9D9D9"/>
<circle cx="961" cy="513" r="1" fill="#D9D9D9"/>
<circle cx="961" cy="545" r="1" fill="#D9D9D9"/>
<circle cx="961" cy="577" r="1" fill="#D9D9D9"/>
<circle cx="961" cy="609" r="1" fill="#D9D9D9"/>
<circle cx="961" cy="641" r="1" fill="#D9D9D9"/>
<circle cx="993" cy="1" r="1" fill="#D9D9D9"/>
<circle cx="993" cy="33" r="1" fill="#D9D9D9"/>
<circle cx="993" cy="65" r="1" fill="#D9D9D9"/>
<circle cx="993" cy="97" r="1" fill="#D9D9D9"/>
<circle cx="993" cy="129" r="1" fill="#D9D9D9"/>
<circle cx="993" cy="161" r="1" fill="#D9D9D9"/>
<circle cx="993" cy="193" r="1" fill="#D9D9D9"/>
<circle cx="993" cy="225" r="1" fill="#D9D9D9"/>
<circle cx="993" cy="257" r="1" fill="#D9D9D9"/>
<circle cx="993" cy="289" r="1" fill="#D9D9D9"/>
<circle cx="993" cy="321" r="1" fill="#D9D9D9"/>
<circle cx="993" cy="353" r="1" fill="#D9D9D9"/>
<circle cx="993" cy="385" r="1" fill="#D9D9D9"/>
<circle cx="993" cy="417" r="1" fill="#D9D9D9"/>
<circle cx="993" cy="449" r="1" fill="#D9D9D9"/>
<circle cx="993" cy="481" r="1" fill="#D9D9D9"/>
<circle cx="993" cy="513" r="1" fill="#D9D9D9"/>
<circle cx="993" cy="545" r="1" fill="#D9D9D9"/>
<circle cx="993" cy="577" r="1" fill="#D9D9D9"/>
<circle cx="993" cy="609" r="1" fill="#D9D9D9"/>
<circle cx="993" cy="641" r="1" fill="#D9D9D9"/>
<circle cx="1025" cy="1" r="1" fill="#D9D9D9"/>
<circle cx="1025" cy="33" r="1" fill="#D9D9D9"/>
<circle cx="1025" cy="65" r="1" fill="#D9D9D9"/>
<circle cx="1025" cy="97" r="1" fill="#D9D9D9"/>
<circle cx="1025" cy="129" r="1" fill="#D9D9D9"/>
<circle cx="1025" cy="161" r="1" fill="#D9D9D9"/>
<circle cx="1025" cy="193" r="1" fill="#D9D9D9"/>
<circle cx="1025" cy="225" r="1" fill="#D9D9D9"/>
<circle cx="1025" cy="257" r="1" fill="#D9D9D9"/>
<circle cx="1025" cy="289" r="1" fill="#D9D9D9"/>
<circle cx="1025" cy="321" r="1" fill="#D9D9D9"/>
<circle cx="1025" cy="353" r="1" fill="#D9D9D9"/>
<circle cx="1025" cy="385" r="1" fill="#D9D9D9"/>
<circle cx="1025" cy="417" r="1" fill="#D9D9D9"/>
<circle cx="1025" cy="449" r="1" fill="#D9D9D9"/>
<circle cx="1025" cy="481" r="1" fill="#D9D9D9"/>
<circle cx="1025" cy="513" r="1" fill="#D9D9D9"/>
<circle cx="1025" cy="545" r="1" fill="#D9D9D9"/>
<circle cx="1025" cy="577" r="1" fill="#D9D9D9"/>
<circle cx="1025" cy="609" r="1" fill="#D9D9D9"/>
<circle cx="1025" cy="641" r="1" fill="#D9D9D9"/>
<circle cx="1057" cy="1" r="1" fill="#D9D9D9"/>
<circle cx="1057" cy="33" r="1" fill="#D9D9D9"/>
<circle cx="1057" cy="65" r="1" fill="#D9D9D9"/>
<circle cx="1057" cy="97" r="1" fill="#D9D9D9"/>
<circle cx="1057" cy="129" r="1" fill="#D9D9D9"/>
<circle cx="1057" cy="161" r="1" fill="#D9D9D9"/>
<circle cx="1057" cy="193" r="1" fill="#D9D9D9"/>
<circle cx="1057" cy="225" r="1" fill="#D9D9D9"/>
<circle cx="1057" cy="257" r="1" fill="#D9D9D9"/>
<circle cx="1057" cy="289" r="1" fill="#D9D9D9"/>
<circle cx="1057" cy="321" r="1" fill="#D9D9D9"/>
<circle cx="1057" cy="353" r="1" fill="#D9D9D9"/>
<circle cx="1057" cy="385" r="1" fill="#D9D9D9"/>
<circle cx="1057" cy="417" r="1" fill="#D9D9D9"/>
<circle cx="1057" cy="449" r="1" fill="#D9D9D9"/>
<circle cx="1057" cy="481" r="1" fill="#D9D9D9"/>
<circle cx="1057" cy="513" r="1" fill="#D9D9D9"/>
<circle cx="1057" cy="545" r="1" fill="#D9D9D9"/>
<circle cx="1057" cy="577" r="1" fill="#D9D9D9"/>
<circle cx="1057" cy="609" r="1" fill="#D9D9D9"/>
<circle cx="1057" cy="641" r="1" fill="#D9D9D9"/>
<circle cx="1089" cy="1" r="1" fill="#D9D9D9"/>
<circle cx="1089" cy="33" r="1" fill="#D9D9D9"/>
<circle cx="1089" cy="65" r="1" fill="#D9D9D9"/>
<circle cx="1089" cy="97" r="1" fill="#D9D9D9"/>
<circle cx="1089" cy="129" r="1" fill="#D9D9D9"/>
<circle cx="1089" cy="161" r="1" fill="#D9D9D9"/>
<circle cx="1089" cy="193" r="1" fill="#D9D9D9"/>
<circle cx="1089" cy="225" r="1" fill="#D9D9D9"/>
<circle cx="1089" cy="257" r="1" fill="#D9D9D9"/>
<circle cx="1089" cy="289" r="1" fill="#D9D9D9"/>
<circle cx="1089" cy="321" r="1" fill="#D9D9D9"/>
<circle cx="1089" cy="353" r="1" fill="#D9D9D9"/>
<circle cx="1089" cy="385" r="1" fill="#D9D9D9"/>
<circle cx="1089" cy="417" r="1" fill="#D9D9D9"/>
<circle cx="1089" cy="449" r="1" fill="#D9D9D9"/>
<circle cx="1089" cy="481" r="1" fill="#D9D9D9"/>
<circle cx="1089" cy="513" r="1" fill="#D9D9D9"/>
<circle cx="1089" cy="545" r="1" fill="#D9D9D9"/>
<circle cx="1089" cy="577" r="1" fill="#D9D9D9"/>
<circle cx="1089" cy="609" r="1" fill="#D9D9D9"/>
<circle cx="1089" cy="641" r="1" fill="#D9D9D9"/>
<circle cx="1121" cy="1" r="1" fill="#D9D9D9"/>
<circle cx="1121" cy="33" r="1" fill="#D9D9D9"/>
<circle cx="1121" cy="65" r="1" fill="#D9D9D9"/>
<circle cx="1121" cy="97" r="1" fill="#D9D9D9"/>
<circle cx="1121" cy="129" r="1" fill="#D9D9D9"/>
<circle cx="1121" cy="161" r="1" fill="#D9D9D9"/>
<circle cx="1121" cy="193" r="1" fill="#D9D9D9"/>
<circle cx="1121" cy="225" r="1" fill="#D9D9D9"/>
<circle cx="1121" cy="257" r="1" fill="#D9D9D9"/>
<circle cx="1121" cy="289" r="1" fill="#D9D9D9"/>
<circle cx="1121" cy="321" r="1" fill="#D9D9D9"/>
<circle cx="1121" cy="353" r="1" fill="#D9D9D9"/>
<circle cx="1121" cy="385" r="1" fill="#D9D9D9"/>
<circle cx="1121" cy="417" r="1" fill="#D9D9D9"/>
<circle cx="1121" cy="449" r="1" fill="#D9D9D9"/>
<circle cx="1121" cy="481" r="1" fill="#D9D9D9"/>
<circle cx="1121" cy="513" r="1" fill="#D9D9D9"/>
<circle cx="1121" cy="545" r="1" fill="#D9D9D9"/>
<circle cx="1121" cy="577" r="1" fill="#D9D9D9"/>
<circle cx="1121" cy="609" r="1" fill="#D9D9D9"/>
<circle cx="1121" cy="641" r="1" fill="#D9D9D9"/>
<circle cx="1153" cy="1" r="1" fill="#D9D9D9"/>
<circle cx="1153" cy="33" r="1" fill="#D9D9D9"/>
<circle cx="1153" cy="65" r="1" fill="#D9D9D9"/>
<circle cx="1153" cy="97" r="1" fill="#D9D9D9"/>
<circle cx="1153" cy="129" r="1" fill="#D9D9D9"/>
<circle cx="1153" cy="161" r="1" fill="#D9D9D9"/>
<circle cx="1153" cy="193" r="1" fill="#D9D9D9"/>
<circle cx="1153" cy="225" r="1" fill="#D9D9D9"/>
<circle cx="1153" cy="257" r="1" fill="#D9D9D9"/>
<circle cx="1153" cy="289" r="1" fill="#D9D9D9"/>
<circle cx="1153" cy="321" r="1" fill="#D9D9D9"/>
<circle cx="1153" cy="353" r="1" fill="#D9D9D9"/>
<circle cx="1153" cy="385" r="1" fill="#D9D9D9"/>
<circle cx="1153" cy="417" r="1" fill="#D9D9D9"/>
<circle cx="1153" cy="449" r="1" fill="#D9D9D9"/>
<circle cx="1153" cy="481" r="1" fill="#D9D9D9"/>
<circle cx="1153" cy="513" r="1" fill="#D9D9D9"/>
<circle cx="1153" cy="545" r="1" fill="#D9D9D9"/>
<circle cx="1153" cy="577" r="1" fill="#D9D9D9"/>
<circle cx="1153" cy="609" r="1" fill="#D9D9D9"/>
<circle cx="1153" cy="641" r="1" fill="#D9D9D9"/>
<circle cx="1185" cy="1" r="1" fill="#D9D9D9"/>
<circle cx="1185" cy="33" r="1" fill="#D9D9D9"/>
<circle cx="1185" cy="65" r="1" fill="#D9D9D9"/>
<circle cx="1185" cy="97" r="1" fill="#D9D9D9"/>
<circle cx="1185" cy="129" r="1" fill="#D9D9D9"/>
<circle cx="1185" cy="161" r="1" fill="#D9D9D9"/>
<circle cx="1185" cy="193" r="1" fill="#D9D9D9"/>
<circle cx="1185" cy="225" r="1" fill="#D9D9D9"/>
<circle cx="1185" cy="257" r="1" fill="#D9D9D9"/>
<circle cx="1185" cy="289" r="1" fill="#D9D9D9"/>
<circle cx="1185" cy="321" r="1" fill="#D9D9D9"/>
<circle cx="1185" cy="353" r="1" fill="#D9D9D9"/>
<circle cx="1185" cy="385" r="1" fill="#D9D9D9"/>
<circle cx="1185" cy="417" r="1" fill="#D9D9D9"/>
<circle cx="1185" cy="449" r="1" fill="#D9D9D9"/>
<circle cx="1185" cy="481" r="1" fill="#D9D9D9"/>
<circle cx="1185" cy="513" r="1" fill="#D9D9D9"/>
<circle cx="1185" cy="545" r="1" fill="#D9D9D9"/>
<circle cx="1185" cy="577" r="1" fill="#D9D9D9"/>
<circle cx="1185" cy="609" r="1" fill="#D9D9D9"/>
<circle cx="1185" cy="641" r="1" fill="#D9D9D9"/>
<circle cx="1217" cy="1" r="1" fill="#D9D9D9"/>
<circle cx="1217" cy="33" r="1" fill="#D9D9D9"/>
<circle cx="1217" cy="65" r="1" fill="#D9D9D9"/>
<circle cx="1217" cy="97" r="1" fill="#D9D9D9"/>
<circle cx="1217" cy="129" r="1" fill="#D9D9D9"/>
<circle cx="1217" cy="161" r="1" fill="#D9D9D9"/>
<circle cx="1217" cy="193" r="1" fill="#D9D9D9"/>
<circle cx="1217" cy="225" r="1" fill="#D9D9D9"/>
<circle cx="1217" cy="257" r="1" fill="#D9D9D9"/>
<circle cx="1217" cy="289" r="1" fill="#D9D9D9"/>
<circle cx="1217" cy="321" r="1" fill="#D9D9D9"/>
<circle cx="1217" cy="353" r="1" fill="#D9D9D9"/>
<circle cx="1217" cy="385" r="1" fill="#D9D9D9"/>
<circle cx="1217" cy="417" r="1" fill="#D9D9D9"/>
<circle cx="1217" cy="449" r="1" fill="#D9D9D9"/>
<circle cx="1217" cy="481" r="1" fill="#D9D9D9"/>
<circle cx="1217" cy="513" r="1" fill="#D9D9D9"/>
<circle cx="1217" cy="545" r="1" fill="#D9D9D9"/>
<circle cx="1217" cy="577" r="1" fill="#D9D9D9"/>
<circle cx="1217" cy="609" r="1" fill="#D9D9D9"/>
<circle cx="1217" cy="641" r="1" fill="#D9D9D9"/>
<circle cx="1249" cy="1" r="1" fill="#D9D9D9"/>
<circle cx="1249" cy="33" r="1" fill="#D9D9D9"/>
<circle cx="1249" cy="65" r="1" fill="#D9D9D9"/>
<circle cx="1249" cy="97" r="1" fill="#D9D9D9"/>
<circle cx="1249" cy="129" r="1" fill="#D9D9D9"/>
<circle cx="1249" cy="161" r="1" fill="#D9D9D9"/>
<circle cx="1249" cy="193" r="1" fill="#D9D9D9"/>
<circle cx="1249" cy="225" r="1" fill="#D9D9D9"/>
<circle cx="1249" cy="257" r="1" fill="#D9D9D9"/>
<circle cx="1249" cy="289" r="1" fill="#D9D9D9"/>
<circle cx="1249" cy="321" r="1" fill="#D9D9D9"/>
<circle cx="1249" cy="353" r="1" fill="#D9D9D9"/>
<circle cx="1249" cy="385" r="1" fill="#D9D9D9"/>
<circle cx="1249" cy="417" r="1" fill="#D9D9D9"/>
<circle cx="1249" cy="449" r="1" fill="#D9D9D9"/>
<circle cx="1249" cy="481" r="1" fill="#D9D9D9"/>
<circle cx="1249" cy="513" r="1" fill="#D9D9D9"/>
<circle cx="1249" cy="545" r="1" fill="#D9D9D9"/>
<circle cx="1249" cy="577" r="1" fill="#D9D9D9"/>
<circle cx="1249" cy="609" r="1" fill="#D9D9D9"/>
<circle cx="1249" cy="641" r="1" fill="#D9D9D9"/>
<circle cx="1281" cy="1" r="1" fill="#D9D9D9"/>
<circle cx="1281" cy="33" r="1" fill="#D9D9D9"/>
<circle cx="1281" cy="65" r="1" fill="#D9D9D9"/>
<circle cx="1281" cy="97" r="1" fill="#D9D9D9"/>
<circle cx="1281" cy="129" r="1" fill="#D9D9D9"/>
<circle cx="1281" cy="161" r="1" fill="#D9D9D9"/>
<circle cx="1281" cy="193" r="1" fill="#D9D9D9"/>
<circle cx="1281" cy="225" r="1" fill="#D9D9D9"/>
<circle cx="1281" cy="257" r="1" fill="#D9D9D9"/>
<circle cx="1281" cy="289" r="1" fill="#D9D9D9"/>
<circle cx="1281" cy="321" r="1" fill="#D9D9D9"/>
<circle cx="1281" cy="353" r="1" fill="#D9D9D9"/>
<circle cx="1281" cy="385" r="1" fill="#D9D9D9"/>
<circle cx="1281" cy="417" r="1" fill="#D9D9D9"/>
<circle cx="1281" cy="449" r="1" fill="#D9D9D9"/>
<circle cx="1281" cy="481" r="1" fill="#D9D9D9"/>
<circle cx="1281" cy="513" r="1" fill="#D9D9D9"/>
<circle cx="1281" cy="545" r="1" fill="#D9D9D9"/>
<circle cx="1281" cy="577" r="1" fill="#D9D9D9"/>
<circle cx="1281" cy="609" r="1" fill="#D9D9D9"/>
<circle cx="1281" cy="641" r="1" fill="#D9D9D9"/>
<circle cx="1313" cy="1" r="1" fill="#D9D9D9"/>
<circle cx="1313" cy="33" r="1" fill="#D9D9D9"/>
<circle cx="1313" cy="65" r="1" fill="#D9D9D9"/>
<circle cx="1313" cy="97" r="1" fill="#D9D9D9"/>
<circle cx="1313" cy="129" r="1" fill="#D9D9D9"/>
<circle cx="1313" cy="161" r="1" fill="#D9D9D9"/>
<circle cx="1313" cy="193" r="1" fill="#D9D9D9"/>
<circle cx="1313" cy="225" r="1" fill="#D9D9D9"/>
<circle cx="1313" cy="257" r="1" fill="#D9D9D9"/>
<circle cx="1313" cy="289" r="1" fill="#D9D9D9"/>
<circle cx="1313" cy="321" r="1" fill="#D9D9D9"/>
<circle cx="1313" cy="353" r="1" fill="#D9D9D9"/>
<circle cx="1313" cy="385" r="1" fill="#D9D9D9"/>
<circle cx="1313" cy="417" r="1" fill="#D9D9D9"/>
<circle cx="1313" cy="449" r="1" fill="#D9D9D9"/>
<circle cx="1313" cy="481" r="1" fill="#D9D9D9"/>
<circle cx="1313" cy="513" r="1" fill="#D9D9D9"/>
<circle cx="1313" cy="545" r="1" fill="#D9D9D9"/>
<circle cx="1313" cy="577" r="1" fill="#D9D9D9"/>
<circle cx="1313" cy="609" r="1" fill="#D9D9D9"/>
<circle cx="1313" cy="641" r="1" fill="#D9D9D9"/>
<circle cx="1345" cy="1" r="1" fill="#D9D9D9"/>
<circle cx="1345" cy="33" r="1" fill="#D9D9D9"/>
<circle cx="1345" cy="65" r="1" fill="#D9D9D9"/>
<circle cx="1345" cy="97" r="1" fill="#D9D9D9"/>
<circle cx="1345" cy="129" r="1" fill="#D9D9D9"/>
<circle cx="1345" cy="161" r="1" fill="#D9D9D9"/>
<circle cx="1345" cy="193" r="1" fill="#D9D9D9"/>
<circle cx="1345" cy="225" r="1" fill="#D9D9D9"/>
<circle cx="1345" cy="257" r="1" fill="#D9D9D9"/>
<circle cx="1345" cy="289" r="1" fill="#D9D9D9"/>
<circle cx="1345" cy="321" r="1" fill="#D9D9D9"/>
<circle cx="1345" cy="353" r="1" fill="#D9D9D9"/>
<circle cx="1345" cy="385" r="1" fill="#D9D9D9"/>
<circle cx="1345" cy="417" r="1" fill="#D9D9D9"/>
<circle cx="1345" cy="449" r="1" fill="#D9D9D9"/>
<circle cx="1345" cy="481" r="1" fill="#D9D9D9"/>
<circle cx="1345" cy="513" r="1" fill="#D9D9D9"/>
<circle cx="1345" cy="545" r="1" fill="#D9D9D9"/>
<circle cx="1345" cy="577" r="1" fill="#D9D9D9"/>
<circle cx="1345" cy="609" r="1" fill="#D9D9D9"/>
<circle cx="1345" cy="641" r="1" fill="#D9D9D9"/>
<circle cx="1377" cy="1" r="1" fill="#D9D9D9"/>
<circle cx="1377" cy="33" r="1" fill="#D9D9D9"/>
<circle cx="1377" cy="65" r="1" fill="#D9D9D9"/>
<circle cx="1377" cy="97" r="1" fill="#D9D9D9"/>
<circle cx="1377" cy="129" r="1" fill="#D9D9D9"/>
<circle cx="1377" cy="161" r="1" fill="#D9D9D9"/>
<circle cx="1377" cy="193" r="1" fill="#D9D9D9"/>
<circle cx="1377" cy="225" r="1" fill="#D9D9D9"/>
<circle cx="1377" cy="257" r="1" fill="#D9D9D9"/>
<circle cx="1377" cy="289" r="1" fill="#D9D9D9"/>
<circle cx="1377" cy="321" r="1" fill="#D9D9D9"/>
<circle cx="1377" cy="353" r="1" fill="#D9D9D9"/>
<circle cx="1377" cy="385" r="1" fill="#D9D9D9"/>
<circle cx="1377" cy="417" r="1" fill="#D9D9D9"/>
<circle cx="1377" cy="449" r="1" fill="#D9D9D9"/>
<circle cx="1377" cy="481" r="1" fill="#D9D9D9"/>
<circle cx="1377" cy="513" r="1" fill="#D9D9D9"/>
<circle cx="1377" cy="545" r="1" fill="#D9D9D9"/>
<circle cx="1377" cy="577" r="1" fill="#D9D9D9"/>
<circle cx="1377" cy="609" r="1" fill="#D9D9D9"/>
<circle cx="1377" cy="641" r="1" fill="#D9D9D9"/>
<circle cx="1409" cy="1" r="1" fill="#D9D9D9"/>
<circle cx="1409" cy="33" r="1" fill="#D9D9D9"/>
<circle cx="1409" cy="65" r="1" fill="#D9D9D9"/>
<circle cx="1409" cy="97" r="1" fill="#D9D9D9"/>
<circle cx="1409" cy="129" r="1" fill="#D9D9D9"/>
<circle cx="1409" cy="161" r="1" fill="#D9D9D9"/>
<circle cx="1409" cy="193" r="1" fill="#D9D9D9"/>
<circle cx="1409" cy="225" r="1" fill="#D9D9D9"/>
<circle cx="1409" cy="257" r="1" fill="#D9D9D9"/>
<circle cx="1409" cy="289" r="1" fill="#D9D9D9"/>
<circle cx="1409" cy="321" r="1" fill="#D9D9D9"/>
<circle cx="1409" cy="353" r="1" fill="#D9D9D9"/>
<circle cx="1409" cy="385" r="1" fill="#D9D9D9"/>
<circle cx="1409" cy="417" r="1" fill="#D9D9D9"/>
<circle cx="1409" cy="449" r="1" fill="#D9D9D9"/>
<circle cx="1409" cy="481" r="1" fill="#D9D9D9"/>
<circle cx="1409" cy="513" r="1" fill="#D9D9D9"/>
<circle cx="1409" cy="545" r="1" fill="#D9D9D9"/>
<circle cx="1409" cy="577" r="1" fill="#D9D9D9"/>
<circle cx="1409" cy="609" r="1" fill="#D9D9D9"/>
<circle cx="1409" cy="641" r="1" fill="#D9D9D9"/>
</svg>
