<svg xmlns="http://www.w3.org/2000/svg" width="80" height="81" viewBox="0 0 80 81" fill="none">
  <g clip-path="url(#clip0_578_3172)">
    <path d="M39.2296 16.2478C39.2735 16.8145 38.859 17.3073 38.303 17.3517H38.2543C37.6983 17.401 37.2057 16.9821 37.1618 16.4202L35.928 1.28072C35.8841 0.713968 36.2986 0.221145 36.8546 0.176791H36.9034C37.4593 0.127509 37.9519 0.546408 37.9958 1.10823L39.2296 16.2478Z" fill="black"/>
    <path d="M61.6781 6.64807C61.9317 6.09118 62.5462 5.81027 63.1265 5.97783C63.2679 6.01726 63.3947 6.09118 63.5069 6.1996C63.9263 6.59386 63.9995 7.04726 63.7215 7.55487C61.7854 11.0884 59.898 14.5727 58.0546 18.0076C57.8254 18.4315 57.4206 18.6631 56.8402 18.7075C56.5964 18.7222 56.3964 18.5744 56.2355 18.2639C56.1428 18.0816 56.1477 17.8647 56.2453 17.6824C57.8936 14.6712 59.7029 10.9898 61.6781 6.64807Z" fill="black"/>
    <path d="M46.2472 18.0767C46.3984 16.3222 47.1787 14.9177 47.7298 13.3357C47.8029 13.1287 47.8078 12.902 47.7493 12.6901C47.3738 11.3546 47.4421 9.98943 47.9541 8.6046C48.1833 7.97871 48.5491 7.75201 49.0563 7.91957C49.3928 8.03292 49.6123 8.35326 49.6025 8.71302C49.5293 10.7582 49.6366 12.8774 49.1294 14.7747C48.8027 15.9969 48.4125 17.1452 47.9688 18.2245C47.7786 18.6828 47.4469 18.9046 46.9739 18.8947C46.5447 18.8849 46.2082 18.5103 46.2472 18.0767Z" fill="black"/>
    <path d="M19.0299 20.9638C16.3476 17.1888 13.8994 13.5074 10.9636 9.9147C10.6173 9.48594 10.6368 9.08183 11.0318 8.69742C11.661 8.0814 12.4461 8.36723 13.3874 9.55494C13.7531 10.0182 14.0994 10.4913 14.4213 10.9693C16.5037 14.0593 18.3861 16.967 20.0589 19.6923C20.2881 20.0619 20.2394 20.54 19.9419 20.8554L19.7907 21.018C19.5761 21.2447 19.2103 21.2201 19.0299 20.9638Z" fill="black"/>
    <path d="M27.125 9.91501L30.4364 19.2343C30.6119 19.732 30.4412 19.9834 29.9194 19.9982C29.778 20.0031 29.6414 19.9785 29.5098 19.9242C29.0903 19.7567 28.749 19.4068 28.5588 18.9485C27.5005 16.3907 26.5349 13.6605 25.6619 10.7627C25.4912 10.2107 25.6717 9.82137 26.1984 9.59467C26.3886 9.51582 26.5934 9.51582 26.8128 9.5996C26.9592 9.65381 27.0713 9.76716 27.125 9.91501Z" fill="black"/>
    <path d="M12.1633 26.6616C8.79823 23.6603 6.63778 21.8565 3.16546 20.6639C2.91674 20.5752 2.79969 20.2943 2.91186 20.0528C3.3459 19.1263 4.07743 18.9883 5.10645 19.6388C6.84261 20.7378 8.58853 21.822 10.3393 22.8915C11.1245 23.3695 11.9682 24.1876 12.8607 25.3507C13.0899 25.6513 13.1777 25.9223 13.124 26.1687C13.0655 26.4595 12.885 26.6517 12.5827 26.7503C12.4266 26.7996 12.2852 26.77 12.1633 26.6616Z" fill="black"/>
    <path d="M74.1868 23.7482C72.3483 24.9655 70.3634 26.0447 68.2371 26.9762C68.1493 27.0107 68.0566 27.0255 67.964 27.0205C67.5397 26.991 67.3056 26.8431 67.2715 26.577C67.1886 25.9856 67.3836 25.5273 67.8616 25.202C69.427 24.1375 70.9925 23.1174 72.558 22.1465C73.0066 21.8656 73.6016 21.8705 74.1039 22.1613C74.2015 22.2155 74.2893 22.2894 74.3673 22.3781C74.8306 22.9055 74.7721 23.3588 74.1868 23.7482Z" fill="black"/>
    <path d="M5.35916 34.3736C3.68152 34.1962 2.06728 34.2603 0.506686 33.5949C0.0872764 33.4175 -0.112675 32.9296 0.0580153 32.5009C0.0823996 32.4417 0.106784 32.3826 0.131168 32.3284C0.389642 31.6926 0.848067 31.4462 1.51132 31.5892C5.02754 32.3432 8.37794 32.9543 11.5625 33.4126C12.0356 33.4816 12.3623 33.7526 12.5379 34.2258C12.5915 34.3736 12.5477 34.5215 12.3965 34.6693C12.1868 34.8763 11.938 34.9699 11.6503 34.9453C9.50937 34.7826 7.41232 34.5954 5.35916 34.3736Z" fill="black"/>
    <path d="M10.9289 45.0633C11.0459 45.6646 10.6606 46.2461 10.0657 46.3644L2.42851 47.8921C1.83353 48.0154 1.25806 47.6211 1.14102 47.0199L1.10688 46.8572C0.989835 46.256 1.37511 45.6744 1.97008 45.5562L9.60725 44.0284C10.2022 43.9052 10.7777 44.2995 10.8947 44.9007L10.9289 45.0633Z" fill="black"/>
    <path d="M12.2407 60.1192C11.7628 60.4395 11.119 60.3261 10.7728 59.8629C10.7337 59.8087 10.6947 59.7594 10.6557 59.7052C10.3972 59.3553 10.4606 58.8625 10.802 58.5963C13.099 56.8074 14.9766 55.1564 16.4445 53.6533C16.8639 53.2246 17.3468 53.1654 17.8978 53.4808C17.971 53.5252 18.0295 53.5942 18.0637 53.678C18.2831 54.1954 18.21 54.6587 17.8442 55.0677C15.9569 57.1869 14.089 58.8723 12.2407 60.1192Z" fill="black"/>
    <path d="M57.6782 57.5417C57.4588 57.4382 57.3661 57.1721 57.4734 56.9503L57.6782 56.5117C57.966 55.9104 59.1608 55.8858 60.3459 56.4624L67.1881 59.7742C68.3781 60.3508 69.1096 61.3069 68.8268 61.9081L68.617 62.3467C68.5098 62.5685 68.2513 62.6621 68.0318 62.5537L57.6782 57.5417Z" fill="black"/>
    <path d="M23.5259 70.3403C23.3308 70.7888 22.8139 70.9958 22.3652 70.8036L22.3213 70.7838C21.8726 70.5916 21.6678 70.0643 21.8629 69.6109L25.4083 61.3759C25.6034 60.9274 26.1204 60.7204 26.569 60.9126L26.6129 60.9323C27.0616 61.1245 27.2664 61.6518 27.0714 62.1052L23.5259 70.3403Z" fill="black"/>
    <path d="M64.375 75.6132C64.0922 75.9187 63.6191 75.9385 63.3119 75.6526L50.5442 63.6179C50.2419 63.332 50.2272 62.854 50.5052 62.5435L50.871 62.1493C51.1538 61.8437 51.6269 61.824 51.9341 62.1098L64.7018 74.1446C65.0041 74.4304 65.0188 74.9085 64.7408 75.2189L64.375 75.6132Z" fill="black"/>
    <path d="M35.786 73.5282C35.747 73.9569 35.3714 74.2724 34.9471 74.2329L34.4497 74.1886C34.0254 74.1491 33.7133 73.7697 33.7523 73.3409L34.3961 66.3428C34.4351 65.9141 34.8106 65.5987 35.2349 65.6381L35.7323 65.6824C36.1566 65.7219 36.4687 66.1013 36.4297 66.5301L35.786 73.5282Z" fill="black"/>
    <path d="M48.9295 76.0516C49.3147 77.195 49.6903 78.3039 50.0511 79.3733C50.2121 79.8464 49.7634 80.2949 49.2952 80.1322C47.9102 79.6443 46.9641 76.8007 46.5642 75.5046C45.6912 72.661 44.8475 69.7238 44.0331 66.688C43.9112 66.2395 44.2282 65.7911 44.6866 65.7615L44.8914 65.7467C45.5205 65.7024 45.9156 65.9833 46.0765 66.5993C46.969 69.9357 47.92 73.0849 48.9295 76.0516Z" fill="black"/>
    <path d="M60.0536 29.7559C56.1033 23.7237 48.632 23.1471 42.8675 26.8088C41.6727 27.5678 40.4925 28.3563 39.3172 29.1744C39.1611 29.2779 39.0197 29.2631 38.8929 29.1251C35.8107 25.8035 30.851 23.1274 26.2521 24.6749C19.2391 27.0306 15.801 33.3584 17.1811 40.5783C17.7663 43.6584 19.3464 46.5464 21.9165 49.2471C23.8234 51.2479 25.4718 52.682 26.8617 53.5445C30.7193 55.9347 34.2209 58.453 37.3762 61.1044C37.859 61.5085 38.4003 61.7352 39.0002 61.7796C39.127 61.7845 39.244 61.7549 39.3562 61.6908C42.4091 59.7935 45.7351 57.7285 49.3342 55.4961C52.3433 53.6283 54.4891 52.0611 55.7766 50.7945C57.7858 48.8183 59.1758 47.1821 59.9512 45.8909C63.3455 40.2136 63.3796 34.8369 60.0536 29.7559ZM59.8341 39.7701C59.3025 42.4954 58.1419 44.8954 56.3569 46.9604C53.7088 50.0208 50.2218 52.6426 45.8961 54.8258C45.8717 54.8406 45.8473 54.8357 45.8327 54.811L45.7595 54.6977C45.7059 54.6238 45.7205 54.5597 45.8034 54.5153C46.4471 54.1408 47.0909 53.7219 47.7395 53.2537C49.9682 51.6323 51.958 49.9617 53.7039 48.2368C56.4545 45.5262 58.5515 41.8991 59.049 38.1684C59.2879 36.3844 59.0099 34.5314 58.2248 32.6093C56.4203 28.2035 51.2704 27.0749 47.1884 28.6372C44.155 29.8003 41.5215 31.5695 39.2928 33.94C39.1806 34.0582 39.0685 34.0582 38.9563 33.94C38.2248 33.1564 37.4932 32.3974 36.7666 31.6631C33.899 28.7653 29.4318 26.6708 25.5742 28.6569C21.7946 30.6036 20.4291 35.4973 20.8192 39.6321C21.3557 45.3291 26.413 48.9563 29.9487 52.7855C29.9536 52.7855 29.9536 52.8003 29.9487 52.8052L29.8658 52.8989C29.8024 52.9629 29.739 52.9629 29.6707 52.9087C28.154 51.6471 26.6568 50.351 25.184 49.0253C22.9651 47.0244 21.3021 44.5603 20.1901 41.6379C17.8346 35.4184 21.0338 26.6265 28.5539 26.4244C32.2945 26.3209 35.4986 28.7801 37.9321 31.4956C38.1223 31.7075 38.3516 31.8603 38.6198 31.944C38.849 32.018 39.0977 31.9588 39.2733 31.7913C42.2579 28.8935 46.8032 26.2914 50.8314 26.5476C57.4054 26.9665 61.0485 33.5654 59.8341 39.7701ZM54.611 42.9734C54.7427 42.7763 55.0353 42.8009 55.1377 43.0178C55.1767 43.1065 55.2011 43.205 55.206 43.3135C55.2304 43.757 55.1767 44.1118 55.0402 44.378C54.4208 45.5805 53.7088 46.5365 52.909 47.2511C51.6166 48.4093 50.2462 49.5871 48.7929 50.7847C48.6807 50.8783 48.5149 50.829 48.471 50.691L48.4223 50.5383C48.3394 50.2869 48.4028 50.075 48.6027 49.9124C50.7144 48.1678 52.7188 45.8564 54.611 42.9734ZM51.1875 31.5892L51.324 30.2438C51.3386 30.1206 51.4459 30.0319 51.5727 30.0467H51.6654C52.3238 30.1255 52.8212 30.5543 52.7773 31.0126L52.7627 31.1407C52.7139 31.604 52.1384 31.9194 51.4752 31.8455L51.3825 31.8356C51.2606 31.8258 51.1728 31.7124 51.1875 31.5892ZM55.2791 32.3087C55.6351 32.7276 55.9326 33.2796 56.1765 33.9646C57.0982 36.5421 57.1519 38.8091 56.3423 40.7606C56.1326 41.2584 55.918 41.2633 55.6888 40.7754C55.6742 40.7508 55.6693 40.5734 55.6644 40.2481C55.6449 37.5721 55.4352 34.965 55.0304 32.427C54.9768 32.087 55.0597 32.0475 55.2791 32.3087ZM48.8758 30.229L48.71 31.1703C48.6759 31.3625 48.5296 31.5104 48.3394 31.5448L47.3835 31.7173C47.0811 31.7765 46.8129 31.5202 46.847 31.2147L46.9202 30.5296C46.9397 30.3571 47.047 30.2142 47.2031 30.1502L48.2565 29.7165C48.5881 29.5785 48.9441 29.8693 48.8758 30.229Z" fill="black"/>
    <path d="M74.3822 38.4547C76.0355 38.7948 77.5571 39.3467 79.2396 39.1841C79.6931 39.1447 80.0296 38.7356 79.9955 38.2773C79.9906 38.2132 79.9857 38.1492 79.976 38.09C79.9175 37.405 79.5566 37.0305 78.8787 36.9664C75.2991 36.6165 71.9243 36.1828 68.7495 35.6505C68.2764 35.5717 67.8863 35.7294 67.579 36.1286C67.4815 36.2518 67.4815 36.4095 67.579 36.5968C67.7156 36.858 67.9253 37.0206 68.2081 37.0847C70.3003 37.5824 72.3535 38.0407 74.3773 38.4498L74.3822 38.4547Z" fill="black"/>
    <path d="M65.891 46.9554C65.5983 47.4926 65.7934 48.1628 66.325 48.4585L73.1526 52.2335C73.6842 52.5292 74.3523 52.3272 74.64 51.7949L74.7181 51.6471C75.0107 51.1099 74.8156 50.4396 74.284 50.144L67.4564 46.3689C66.9249 46.0732 66.2567 46.2753 65.969 46.8075L65.891 46.9554Z" fill="black"/>
  </g>
  <defs>
    <clipPath id="clip0_578_3172">
      <rect width="80" height="80" fill="white" transform="translate(0 0.166992)"/>
    </clipPath>
  </defs>
</svg>