<svg xmlns="http://www.w3.org/2000/svg" width="124" height="81" viewBox="0 0 124 81" fill="none">
  <g clip-path="url(#clip0_578_3075)">
    <path d="M123.634 62.8146C123.021 52.626 120.44 42.9163 118.595 32.7933C117.232 25.347 116.294 19.6655 113.145 13.3739C112.526 12.1339 111.613 11.2023 110.733 10.1264C110.244 9.5228 109.742 8.6568 109.24 7.52838C108.06 4.85821 106.117 2.97532 103.412 1.88626C99.5202 0.318272 95.3154 -0.173773 90.7978 0.40356C86.9841 0.889045 83.7572 2.52263 81.1235 5.29777C80.8889 5.54051 80.6411 5.56019 80.3738 5.35026L79.7741 4.87133C79.6307 4.75324 79.4547 4.68763 79.2787 4.66795C78.0335 4.53018 76.7819 4.46457 75.5302 4.45801C66.1885 4.41209 56.8402 4.39897 47.4984 4.42521C45.9273 4.43177 44.5975 4.84509 43.5088 5.66516C43.3393 5.79638 43.1763 5.78326 43.0264 5.63236C40.6209 3.2115 38.0198 1.65007 35.2231 0.94809C28.1565 -0.823273 17.8043 0.757833 14.3101 8.26972C13.2736 10.5069 11.3179 11.8321 10.151 13.8987C8.31912 17.1593 7.08703 20.5053 6.44165 23.9496C5.76367 27.5645 5.04658 32.5505 4.15347 37.0445C2.91486 43.2968 1.83922 49.5753 0.920037 55.88C0.639719 57.8088 0.620162 59.9476 0.405034 61.9945C0.202945 63.9168 0.444148 66.2392 1.12865 68.9619C2.6541 75.037 7.35431 78.7109 13.2671 79.8918C19.9491 81.2236 25.9009 77.6153 29.6037 72.006C32.3352 67.8597 34.656 63.5034 36.5791 58.9438C36.6899 58.6814 37.0093 58.583 37.244 58.747C39.128 60.0723 41.1685 60.3281 43.5935 60.4134C48.6067 60.5971 52.5311 58.5764 55.3669 54.3514C55.7254 53.8134 56.4165 53.6101 57.0097 53.8659C57.5899 54.1152 58.2809 54.253 59.0762 54.2792C62.0554 54.3645 65.0411 54.312 68.0464 54.1349C68.2615 54.1218 68.444 54.1874 68.607 54.3383C70.1846 55.8472 71.6775 57.5071 73.4767 58.5174C77.838 60.9645 82.323 61.0301 86.9255 58.7208C87.1145 58.6224 87.2579 58.6748 87.3492 58.8717C89.1289 62.7883 91.0324 66.541 93.0664 70.1297C94.494 72.6424 95.9673 74.5909 97.4928 75.9883C101.202 79.3801 107.069 81.0727 112.024 79.5441C116.033 78.3042 119.371 76.3294 121.431 72.603C123.106 69.5655 123.843 66.2983 123.634 62.8146ZM82.9945 11.3991C83.353 9.94268 83.3335 8.21068 84.2396 7.02977C85.0023 6.03256 86.0063 5.31089 87.2514 4.85821C92.7209 2.86379 101.847 2.57512 105.798 7.91545C106.313 8.60431 106.196 8.74209 105.439 8.32877C102.838 6.87888 99.9896 6.03256 96.88 5.78982C91.4366 5.36338 86.8733 7.26595 83.1966 11.5041C82.9815 11.7534 82.9163 11.7206 82.9945 11.3991ZM45.5232 8.63712C45.8296 8.05978 46.4228 7.69895 47.0682 7.69895C56.8011 7.70551 66.5535 7.70551 76.319 7.69895C77.9031 7.69895 79.07 8.44686 79.22 10.0476C79.6633 14.7254 79.6828 20.2822 79.2787 26.7247C79.2721 26.8034 79.2069 26.8625 79.1287 26.8625H78.9592C78.8875 26.8494 78.8549 26.8166 78.8614 26.7509C78.9788 22.7687 78.9657 18.747 78.8288 14.6729C78.7832 13.2099 78.542 11.7534 78.1052 10.3101C77.9292 9.7065 77.3555 9.3063 76.7297 9.34566C66.9056 9.96236 57.2704 9.84427 47.8244 8.98483C46.4358 8.86018 45.6601 9.47688 45.4971 10.8415C45.2885 12.5735 45.295 14.2268 45.5101 15.8079C45.5623 16.1687 45.5297 16.1753 45.4123 15.8275C44.6953 13.6757 44.5714 10.4544 45.5232 8.63712ZM76.2929 19.7573C76.2734 19.2981 76.1365 18.4977 75.8888 17.3562C75.4846 15.4798 75.5563 13.7544 74.259 11.9961C74.1221 11.8059 73.9657 11.7928 73.7962 11.9502C73.6593 12.0814 73.5615 12.2323 73.5158 12.4095C73.4572 12.6194 73.5354 12.7309 73.7505 12.7506C74.0178 12.7703 74.246 12.8687 74.435 13.0458C74.5719 13.1836 74.6567 13.3804 74.6958 13.6494C74.8848 14.955 74.8653 16.2409 74.6371 17.5071C74.3764 18.9832 74.2264 20.1182 74.1938 20.912C74.1482 22.0667 74.0308 23.2148 73.8483 24.3498C73.8222 24.54 73.6462 24.6712 73.4637 24.645L73.2877 24.6253C73.1573 24.6056 73.0595 24.481 73.0791 24.3498C73.3463 22.2569 73.5484 20.0591 73.6984 17.7498C73.7114 17.612 73.6919 17.4743 73.6332 17.3496C73.5158 17.0937 73.4637 17.1069 73.4702 17.389C73.4832 17.9007 73.3007 18.4321 72.9291 18.9898C72.8118 19.1603 72.7401 19.3506 72.7205 19.5605L72.1794 24.5269C72.1599 24.6778 72.0165 24.7828 71.873 24.7434L71.6905 24.6975C71.6384 24.6844 71.6123 24.6516 71.6188 24.5925L71.8405 20.3216C71.8405 20.1772 71.8926 20.0394 71.9708 19.9214C72.2577 19.4752 72.3489 19.0029 72.2446 18.5108C72.2316 18.4255 72.1664 18.3599 72.0882 18.3337C72.0034 18.3074 71.9252 18.3074 71.847 18.3403C71.7883 18.3599 71.7622 18.4059 71.7622 18.4649C71.7557 19.1406 71.5667 19.7377 71.2016 20.2691C71.0842 20.4462 71.0256 20.6365 71.0191 20.8464L70.9669 24.2973C70.9604 24.645 70.5497 24.8287 70.2954 24.5925C69.9499 24.271 69.9173 23.7593 70.0542 23.2738C70.2694 22.5194 70.2889 21.7058 70.0999 20.8267C70.0412 20.5446 70.1064 20.2756 70.3085 20.0066C70.4389 19.8295 70.4389 19.6458 70.315 19.4687C70.2433 19.3703 70.152 19.2981 70.0282 19.2653C69.787 19.1997 69.6696 19.2915 69.6761 19.5474L69.7544 21.6271C69.7609 21.8567 69.6827 22.0404 69.5066 22.1913C69.1937 22.4603 69.1546 22.7687 69.3828 23.1295C69.461 23.2541 69.4806 23.4116 69.4284 23.5494L68.8939 25.0518C68.8678 25.1174 68.783 25.1305 68.7374 25.078C68.1442 24.3235 67.8964 23.5166 67.9942 22.6571C68.0073 22.5259 67.9551 22.4275 67.8443 22.3553C67.7856 22.316 67.7139 22.3094 67.6357 22.3291C67.5379 22.3553 67.4792 22.4144 67.4466 22.5062C67.3097 22.8867 67.2511 23.2738 67.2706 23.6675C67.2837 23.884 67.212 24.0742 67.062 24.2317C66.8273 24.4744 66.5535 24.6056 66.2341 24.6253C66.0059 24.645 65.869 24.5335 65.8234 24.3038C65.7517 23.8971 65.8234 23.5231 66.045 23.1754C66.1689 22.972 66.1168 22.8605 65.8821 22.8277C65.7452 22.808 65.6213 22.8539 65.517 22.9655C65.4453 23.0376 65.3997 23.1492 65.3736 23.3132C65.3345 23.5822 65.2628 23.8446 65.1519 24.0939C65.0672 24.2973 64.9107 24.4023 64.6956 24.4088L62.2901 24.4875C62.1597 24.4941 62.0619 24.4351 61.9902 24.317C61.9641 24.271 61.9381 24.2186 61.912 24.1661C61.8664 24.0677 61.8012 24.048 61.7164 24.107C61.6577 24.1398 61.5991 24.1792 61.5404 24.2186C61.4361 24.2842 61.3188 24.317 61.1949 24.3235L57.1205 24.5072C56.762 24.5269 56.6903 24.3891 56.8989 24.1005C57.1335 23.7659 57.277 23.3985 57.3226 22.9983C57.3422 22.8408 57.2444 22.6899 57.0879 22.6374C57.0032 22.6112 56.9119 22.6178 56.8272 22.6571C56.7489 22.6899 56.6903 22.749 56.6511 22.8277C56.3839 23.3394 56.1948 23.8774 56.0905 24.4482C56.0514 24.6647 55.934 24.8287 55.732 24.9271C55.5951 24.9927 55.4516 25.0189 55.3017 25.0058C55.0475 24.9796 54.9497 24.8418 55.0018 24.5925C55.0475 24.3891 55.1583 24.2186 55.3473 24.0939C55.5233 23.9758 55.5494 23.8315 55.4125 23.6675C55.3278 23.5691 55.23 23.4969 55.1061 23.451C54.8584 23.3657 54.8388 23.2345 55.0409 23.0639C55.3213 22.8343 55.406 22.5522 55.3017 22.211C55.2365 21.9945 55.1257 21.9683 54.9627 22.1323C54.6042 22.4997 54.2 22.6243 53.7502 22.5128C53.522 22.4538 53.4047 22.3029 53.3981 22.0732C53.3786 21.6534 53.5024 21.2728 53.7828 20.9382C53.861 20.8398 53.8806 20.7349 53.8414 20.6168C53.8219 20.5446 53.7762 20.4856 53.7111 20.4528C53.6002 20.3937 53.535 20.42 53.5024 20.5446C53.2482 21.5353 52.5833 22.1454 51.5011 22.3816C51.2469 22.4341 51.1817 22.3488 51.3055 22.1257C51.7945 21.24 52.3421 20.4987 52.9483 19.9148C53.02 19.8426 53.0526 19.7705 53.0592 19.6852C53.0657 19.4884 52.9809 19.4359 52.8049 19.5343L52.3355 19.8098C52.14 19.9214 51.977 20.0723 51.8466 20.2559C51.3642 20.9383 50.7449 21.4631 49.9952 21.8305C49.8127 21.9158 49.6823 21.8699 49.6041 21.6862L49.5128 21.4762C49.4281 21.286 49.4867 21.1744 49.6888 21.1416C50.3081 21.0301 50.7514 20.7283 51.0252 20.2297C51.1165 20.0657 51.1035 19.9082 50.9926 19.7573L50.7253 19.4031C50.595 19.2259 50.4907 19.2456 50.4124 19.449C50.3016 19.7245 50.1126 19.9476 49.8583 20.1247C49.6562 20.2625 49.4867 20.2297 49.3563 20.0132C49.252 19.8361 49.2325 19.6261 49.2912 19.3768C49.3498 19.1603 49.4867 19.0422 49.7084 19.0094L51.814 18.7273C51.8792 18.7273 51.9118 18.6814 51.9053 18.6224V18.4452C51.8988 18.3862 51.8727 18.3599 51.8205 18.3599C50.7579 18.3862 49.7084 18.3599 48.6719 18.2878C48.5089 18.2812 48.3981 18.2353 48.3264 18.1631C48.2677 18.0909 48.2351 18.0188 48.2416 17.9335C48.2481 17.7432 48.3459 17.6711 48.535 17.7039L48.7762 17.7498C48.9848 17.7826 49.1412 17.7104 49.2455 17.5333C49.3824 17.2971 49.5715 17.1593 49.8062 17.1265C50.0083 17.0937 50.1386 17.179 50.2103 17.3693C50.256 17.4874 50.3212 17.5661 50.419 17.612C50.5819 17.6842 50.6797 17.6317 50.6993 17.448C50.7905 16.5623 50.6145 15.7619 50.1647 15.0337C50.0539 14.85 49.8974 14.7975 49.6953 14.8697C49.5454 14.9222 49.3955 14.9484 49.2455 14.955C49.0434 14.955 48.9848 14.8763 49.0826 14.6991L50.419 12.2389C50.5363 12.0224 50.5298 11.8125 50.3994 11.6091C50.269 11.3926 50.0995 11.2286 49.8844 11.1039C49.6628 10.9727 49.5454 11.0383 49.5324 11.2942C49.5128 11.5631 49.6301 11.7534 49.8714 11.8649C50.1191 11.9699 50.1191 12.0749 49.8779 12.1864C48.9457 12.5997 48.4111 13.3542 48.2807 14.4498C48.2677 14.5417 48.2155 14.581 48.1243 14.5679H48.1177C48.0265 14.5548 47.9874 14.5023 48.0004 14.4104C48.046 14.0759 48.0134 13.7413 47.9156 13.4198C47.8505 13.2164 47.8831 13.0262 48.0134 12.8556C48.2677 12.5144 48.385 12.2126 48.3785 11.9437C48.3459 11.2351 48.8674 10.6184 49.5715 10.5463C50.1517 10.4872 50.7058 10.3888 51.2273 10.2641C51.4685 10.2051 51.5272 10.2904 51.4098 10.5069C51.2534 10.7956 51.1752 11.0973 51.1686 11.4123C51.1621 11.655 51.286 11.7731 51.5272 11.7534C51.9118 11.7206 52.1204 11.4123 52.14 10.8152C52.1465 10.6775 52.2117 10.6053 52.3486 10.5922L52.5767 10.5791C52.6811 10.5725 52.7267 10.6184 52.7136 10.7234L52.6354 11.6156C52.6159 11.8584 52.7071 11.924 52.9223 11.8125C53.1374 11.7009 53.2286 11.4779 53.1961 11.1498C53.1765 10.9661 53.1243 10.789 53.0461 10.6184C52.9483 10.415 53.007 10.2707 53.2091 10.1854C53.3916 10.1067 53.5807 10.087 53.7828 10.1264C53.9979 10.1723 54.1152 10.3035 54.1218 10.5266C54.1283 10.848 54.1609 11.1695 54.2065 11.491C54.2521 11.7928 54.3238 11.7993 54.4282 11.5107C54.539 11.2089 54.6042 10.9005 54.6368 10.5922C54.6563 10.3691 54.7802 10.2641 54.9953 10.2707C59.9758 10.461 64.9824 10.5266 70.0086 10.4675C71.4819 10.4478 73.0856 10.6775 74.6241 10.7037C74.8131 10.7103 74.8848 10.8021 74.8522 10.9858L74.8066 11.2089C74.7805 11.3401 74.8327 11.4057 74.9696 11.4123C75.2369 11.4123 75.3933 11.2482 75.4324 10.9202C75.452 10.7824 75.5237 10.684 75.6476 10.6315C75.7323 10.5987 75.8171 10.5856 75.8953 10.5922C76.0452 10.6053 76.1495 10.684 76.1952 10.8284C76.4559 11.596 76.7232 12.1733 76.7428 13.0065C76.834 17.2971 76.8731 21.6271 76.8536 25.9899C76.8536 26.1277 76.7819 26.1867 76.645 26.1605L76.3321 26.1014C76.2278 26.0818 76.1821 26.0162 76.1886 25.9177C76.3581 23.838 76.3907 21.7846 76.2929 19.7573ZM75.3477 24.481C75.3477 24.6122 75.2369 24.7172 75.1 24.7172H75.0608C74.9305 24.7172 74.8262 24.5991 74.8262 24.4679L74.9826 18.5108C74.9826 18.3796 75.0934 18.2746 75.2303 18.2746H75.2695C75.3998 18.2746 75.5041 18.3927 75.5041 18.5239L75.3477 24.481ZM75.1391 25.9177C69.9304 26.2851 64.7152 26.4688 59.4869 26.4688C59.0371 26.4688 58.9393 26.2851 59.1936 25.9112C59.2587 25.8193 59.2979 25.7078 59.3044 25.5832C59.3174 25.4191 59.5456 25.3863 59.6108 25.5372C59.8324 26.0358 60.204 26.1342 60.7255 25.8325C60.9015 25.7275 61.1101 25.6881 61.3122 25.7144C61.5795 25.7472 61.8403 25.7603 62.101 25.7406C65.517 25.4847 68.4832 25.4388 70.9995 25.5963C71.1625 25.6028 71.3189 25.57 71.4623 25.4913C71.6253 25.406 71.7687 25.4126 71.8991 25.5176C72.023 25.616 72.1664 25.6684 72.3294 25.675C73.1834 25.7013 74.0308 25.6422 74.8848 25.5044C74.9957 25.4847 75.1065 25.5307 75.2303 25.6422C75.4194 25.8062 75.3933 25.8981 75.1391 25.9177ZM58.2613 26.5935C57.981 26.7247 57.7007 26.6985 57.4204 26.5213C57.1661 26.3573 57.1401 26.1671 57.3356 25.9374C57.4986 25.7472 57.7137 25.6028 57.968 25.4979C58.2287 25.3929 58.3852 25.4782 58.4439 25.7537L58.5156 26.0949C58.5612 26.3245 58.4765 26.4951 58.2613 26.5935ZM53.3786 24.3826L53.7306 24.4023C53.9718 24.4154 54.0631 24.54 54.0175 24.7696C54.0044 24.8418 53.9718 24.914 53.9197 24.9796C53.8023 25.137 53.5742 25.1567 53.4373 25.0189C53.3069 24.8943 53.2352 24.7368 53.2221 24.5466C53.2156 24.4547 53.2873 24.376 53.3786 24.3826ZM53.1504 23.1754C53.2286 22.9655 53.4373 22.8671 53.7763 22.8802C53.9783 22.7031 54.1674 22.7162 54.3304 22.9196C54.4868 23.1098 54.4216 23.3985 54.2 23.4903C53.9392 23.6019 53.6719 23.6347 53.4047 23.6019C53.1504 23.5625 53.0657 23.4182 53.1504 23.1754ZM53.4177 26.4295C53.4177 26.3573 53.4568 26.2983 53.5024 26.2392C53.5611 26.1736 53.6328 26.1539 53.7176 26.1736C54.6302 26.4164 55.7189 26.0752 56.6511 25.9965C56.7685 25.9834 56.8272 26.0358 56.8272 26.1605V26.3311C56.8206 26.5673 56.6055 26.7444 56.3708 26.6985C55.4451 26.5082 54.5585 26.5082 53.7045 26.6919C53.4829 26.7378 53.3851 26.6525 53.4177 26.4295ZM50.7645 26.4623L52.3355 26.3507C52.5898 26.3311 52.6224 26.4032 52.4203 26.5673C52.2117 26.7313 51.9966 26.7575 51.7684 26.646C51.6445 26.5804 51.5011 26.5738 51.3707 26.6197C51.1686 26.6919 50.96 26.6853 50.7449 26.5935C50.5689 26.5213 50.5754 26.4754 50.7645 26.4623ZM50.1908 23.1951C50.1582 23.0704 50.2038 23.0048 50.3277 22.9852C50.445 22.972 50.5428 22.972 50.6862 22.9589C50.7384 22.9524 50.7905 22.9589 50.8492 22.9786C50.8688 22.9852 50.8883 23.0048 50.8948 23.0245C50.9209 23.1229 50.9274 23.2279 50.9144 23.3394C50.8948 23.5166 50.7971 23.5953 50.621 23.5822C50.3929 23.5691 50.2495 23.4378 50.1908 23.1951ZM52.5442 25.5307C52.4333 25.7144 52.3225 25.7144 52.2117 25.5372L51.8271 24.9337C51.801 24.8943 51.8271 24.8484 51.8662 24.8418C52.1465 24.7959 52.3812 24.8746 52.5702 25.078C52.6289 25.1436 52.6485 25.2354 52.6289 25.3207C52.6093 25.3929 52.5833 25.4651 52.5442 25.5307ZM52.1139 23.405L51.99 23.0508C51.9509 22.9458 51.9966 22.8211 52.0943 22.7621C52.2052 22.7031 52.3225 22.6768 52.4464 22.6965C52.6745 22.7293 52.7919 22.8605 52.8049 23.0901C52.8114 23.241 52.7658 23.3788 52.655 23.5034C52.4985 23.6937 52.1921 23.6412 52.1139 23.405ZM48.1373 16.6476C48.0069 16.5623 47.9222 16.4508 47.8831 16.3261C47.8048 16.0572 47.9026 15.9456 48.1764 15.9916L48.4567 16.0375C48.6653 16.0703 48.8609 16.0375 49.0434 15.9325C49.3955 15.7357 49.6171 15.6438 49.7019 15.6504C50.7645 15.7619 50.7971 16.0244 49.8062 16.4246C49.5193 16.5426 49.0956 16.6411 48.5284 16.7132C48.372 16.7329 48.2416 16.7132 48.1373 16.6476ZM18.1694 8.80769C19.1603 5.6586 24.3885 4.22183 27.283 3.80851C31.3573 3.23118 40.3731 3.93973 40.4318 9.84427C40.4318 10.0936 40.3471 10.1329 40.1711 9.96236C39.0498 8.87986 37.7851 8.0401 36.3835 7.42997C30.1513 4.72044 24.1669 5.68485 18.3649 8.97171C18.1628 9.08324 18.0977 9.02419 18.1694 8.80769ZM89.4744 50.9793C88.2162 53.1771 86.5082 54.8106 84.357 55.8866C78.3464 58.8913 74.083 55.2961 70.0999 51.058C69.8978 50.8415 69.3763 50.4741 68.5483 49.9624C68.3658 49.8508 68.1963 49.864 68.0333 50.0083C67.4923 50.4938 66.8078 50.7496 65.9799 50.7824C62.3618 50.9071 58.7763 50.5922 55.2365 49.8443C55.0018 49.7983 54.8323 49.8771 54.728 50.0936C53.0331 53.551 50.5037 55.7423 47.1399 56.6673C42.9547 57.822 35.6795 55.4602 34.1214 51.0449C33.6781 49.7984 33.8411 49.7131 34.6038 50.7956C36.4748 53.4395 39.3105 55.0862 43.1046 55.7423C48.5284 56.687 52.1335 53.0065 54.9171 48.8274C55.0409 48.6437 55.1257 48.4469 55.1713 48.2304L55.2952 47.7252C55.3669 47.43 55.4973 47.3972 55.6863 47.6333C56.3904 48.4928 57.466 49.0504 58.9132 49.3194C61.2666 49.759 66.1428 50.3232 67.9486 48.4141C68.1376 48.2172 68.4506 48.2304 68.6266 48.4403C71.4884 51.9633 75.7714 56.1359 80.7063 55.6767C84.2266 55.3486 87.0624 53.7216 89.2071 50.7956C89.2658 50.7168 89.3375 50.7037 89.4222 50.7562C89.507 50.8218 89.52 50.894 89.4679 50.9793H89.4744ZM30.1904 23.9955C29.8058 23.4575 29.8188 22.9261 30.2295 22.4078C31.6572 20.5905 33.9519 19.1013 36.0706 20.6889C37.7264 21.9289 37.4657 24.4219 35.9989 25.6291C34.2518 27.0593 31.2921 25.5241 30.1904 23.9955ZM31.4616 38.2517L30.8815 38.9405C30.8163 39.0127 30.7902 38.9996 30.7967 38.9012C30.8163 38.7109 30.7902 38.5075 30.725 38.2976C30.6533 38.0811 30.7315 37.9499 30.9532 37.904C31.1031 37.8777 31.2465 37.8909 31.3834 37.9433C31.5529 38.0155 31.579 38.1139 31.4616 38.2517ZM24.6102 46.1244C24.4407 46.0654 24.3233 45.9538 24.2581 45.7833C24.1603 45.534 24.2386 45.4552 24.4863 45.5471C24.9752 45.7308 25.3794 45.9473 25.6988 46.2031C25.9661 46.4131 25.927 46.4918 25.5945 46.4459C25.4576 46.4262 25.3272 46.3868 25.2034 46.3344C25.1447 46.3015 24.9426 46.2359 24.6102 46.1244ZM24.6427 47.6596C24.558 47.817 24.4407 47.8695 24.2842 47.8105C24.1343 47.7514 24.043 47.6399 24.0169 47.4759C23.9974 47.3316 24.0234 47.1938 24.0821 47.0691C24.2451 46.7345 24.395 46.7477 24.5189 47.0954L24.6558 47.489C24.6753 47.5481 24.6688 47.6071 24.6427 47.6596ZM25.4511 44.4843C25.3207 44.4121 25.2555 44.3202 25.2621 44.2153C25.2686 44.0775 25.3403 44.0316 25.4641 44.0841C25.764 44.2087 25.9726 44.4252 26.0835 44.727C26.1552 44.9107 26.09 44.9894 25.9009 44.9697C25.6728 44.9369 25.5228 44.7795 25.4511 44.4843ZM20.1251 25.3601C18.8082 24.3301 18.0977 20.9973 20.2815 20.3478C22.6414 19.6458 24.4146 21.3581 25.9466 22.8671C26.1812 23.1033 26.2138 23.4706 26.0248 23.7462C24.7405 25.57 22.1916 26.974 20.1251 25.3601ZM24.0756 40.3183C23.6388 40.3248 23.3585 40.1083 23.2412 39.6688C23.2086 39.5507 23.3194 39.4392 23.4367 39.4785C23.7301 39.5704 23.9908 39.7147 24.219 39.905C24.5384 40.1739 24.4863 40.3117 24.0756 40.3183ZM26.116 15.5782C26.2855 13.8659 27.1526 13.0262 28.7106 13.059C30.2687 13.0918 30.9336 14.4695 30.9336 15.8538C30.9401 17.5661 30.1513 19.4031 28.5737 21.3778C28.15 21.9158 27.7719 21.883 27.4524 21.2728C26.3898 19.2456 25.94 17.343 26.116 15.5782ZM26.0117 33.364C25.8162 33.2591 25.7053 33.0951 25.6858 32.872C25.4381 30.5627 25.94 27.0659 27.6611 25.3601C27.8175 25.2026 27.9674 25.2092 28.1174 25.3798C29.6689 27.2496 30.2947 29.4933 29.9883 32.1241C29.7537 34.1251 27.2699 34.0398 26.0117 33.364ZM32.3873 37.9105L35.008 37.0445C35.2166 36.9724 35.347 37.0445 35.3926 37.261C35.4187 37.3857 35.3665 37.4841 35.2427 37.5431C34.3365 37.9958 33.3978 38.2058 32.4265 38.173C31.9245 38.1533 31.9115 38.068 32.3873 37.9105ZM44.5714 52.5997V52.5669C44.5714 52.5669 44.5779 52.5407 44.5975 52.5407C47.5115 52.3111 49.578 51.1236 51.3577 48.8208C51.4033 48.7683 51.449 48.7618 51.5011 48.8077H51.5076C51.5598 48.8536 51.5663 48.9061 51.5337 48.9651C49.8974 51.5435 47.5962 52.7703 44.6301 52.6588C44.591 52.6522 44.5714 52.6325 44.5714 52.5997ZM52.1595 46.4524C52.2834 46.1113 52.6028 45.7898 53.1113 45.488C53.3851 45.324 53.4177 45.3634 53.2156 45.6127L52.4203 46.5902C52.0422 47.056 51.9574 47.0101 52.1595 46.4524ZM64.0307 39.2095C64.2849 39.0718 64.4218 38.8028 64.4414 38.4157C64.4544 38.1795 64.5783 38.0614 64.813 38.0549H65.0867C65.2562 38.0417 65.3931 38.1861 65.3801 38.3567C65.2562 40.1083 64.487 41.158 63.0789 41.4926C62.2771 41.6829 61.4817 41.1384 61.3774 40.3117L61.1427 38.5141C61.0841 38.0221 61.2862 37.5366 61.6773 37.2348C62.4661 36.6378 63.1115 36.7493 63.6134 37.5825C63.7243 37.7728 63.7634 37.9761 63.7308 38.1926C63.6852 38.4551 63.6721 38.724 63.6786 39.0062C63.6852 39.262 63.8025 39.3342 64.0307 39.2095ZM62.5248 34.2169C62.2249 34.1579 61.9446 34.2104 61.6903 34.3744L57.7789 36.9264C57.7789 36.9264 57.7594 36.9264 57.7463 36.9199L57.616 36.7755C57.616 36.7755 57.5899 36.7362 57.6094 36.7165C58.6329 35.4241 59.8259 34.4859 61.2014 33.902C63.131 33.0819 65.3084 33.9348 65.9994 35.9424C66.3319 36.9002 66.2276 36.9461 65.6995 36.0867C65.1063 35.1354 64.0502 34.5121 62.5248 34.2169ZM80.954 39.203C81.6125 39.1702 82.4013 39.2817 83.327 39.5376C83.6334 39.6228 83.7442 40.0034 83.5291 40.2395C82.7859 41.0727 81.5016 41.7288 80.3934 41.2696C78.4507 40.4626 78.1704 37.4316 79.7611 36.1195C81.0388 35.0698 82.8446 36.0736 83.9137 36.9396C84.2331 37.1954 84.2983 37.5038 84.1158 37.8646L83.9723 38.1467C83.8615 38.3698 83.5747 38.4157 83.4052 38.2386C82.6685 37.4644 81.8667 37.097 81.0127 37.1364C80.6411 37.1561 80.4521 37.3529 80.4325 37.7268L80.3999 38.6584C80.3869 39.0455 80.5694 39.2227 80.954 39.203ZM76.4298 36.4475C74.8848 39.2817 76.2343 44.3465 79.9892 44.6745C82.6751 44.9041 84.3178 43.0212 85.061 40.6069C85.2696 39.9378 85.1979 39.3342 84.8394 38.7962C84.6568 38.5141 84.5786 38.1795 84.6112 37.8449C84.6308 37.6415 84.6829 37.4579 84.7611 37.2807C84.885 37.0117 85.0284 36.9921 85.2044 37.2348C85.6673 37.8646 86.0063 38.8487 86.2149 40.1871C86.8733 44.4318 83.2227 46.7936 79.5003 46.3409C78.1769 46.1835 77.0557 45.5668 76.143 44.4843C74.8457 42.9491 74.0569 41.0203 73.7766 38.7044C73.581 37.1101 73.2225 36.2835 74.3372 34.9648C76.4364 32.5046 80.1783 31.0219 83.2096 32.3734C84.5917 32.9901 85.4717 34.1841 85.8433 35.962C85.9932 36.664 85.8563 36.7296 85.4456 36.1457C82.825 32.4521 78.5225 32.6096 76.4298 36.4475ZM84.5656 49.9492C84.6047 50.028 84.1092 50.3429 83.4573 50.6512C82.8054 50.953 82.2448 51.1367 82.2122 51.0514C82.1731 50.9727 82.6685 50.6578 83.3204 50.3494C83.9724 50.0476 84.533 49.864 84.5656 49.9492ZM73.6201 49.9164C75.1717 51.4844 76.8927 52.8359 78.7832 53.9578C78.8614 54.0037 78.881 54.0693 78.8354 54.1546H78.8288C78.7832 54.2464 78.718 54.2596 78.6333 54.2136C76.671 53.1443 74.924 51.7862 73.3985 50.1329C73.3268 50.0608 73.3333 49.9886 73.405 49.9164H73.4115C73.4832 49.8377 73.5484 49.8443 73.6201 49.9164ZM119.384 68.7323C117.936 73.141 114.507 75.7783 109.103 76.6443C106.17 77.1101 101.984 75.0632 99.7223 73.0032C98.7966 72.1634 97.7666 70.8644 96.6323 69.1062C93.6531 64.5007 91.9842 60.3478 89.8916 55.8079C89.7873 55.5848 89.8069 55.3749 89.9438 55.178L90.537 54.3317C90.6478 54.1743 90.7326 54.1874 90.7912 54.3645C92.2515 59.0422 94.4549 63.9233 97.4015 69.0209C99.2725 72.2619 101.769 74.3153 104.885 75.1748C107.982 76.0276 110.863 75.7127 113.543 74.23C117.102 72.2553 118.784 69.2833 118.595 65.3273C118.536 64.0742 118.393 62.6965 118.165 61.2007C117.976 59.9345 117.813 58.6289 117.663 57.2774C117.122 52.1995 115.779 45.3043 113.64 36.5853C113.504 36.0145 113.393 35.4306 113.314 34.8205C113.151 33.5215 112.565 32.3996 112.663 30.9235C112.676 30.7267 112.584 30.6283 112.389 30.6217C112.239 30.6217 112.141 30.6939 112.102 30.8382C111.033 34.9583 106.104 38.4682 102.108 40.5938C101.906 40.7053 101.691 40.7119 101.469 40.6266C101.261 40.5479 101.085 40.397 100.948 40.1805C100.837 40.0034 100.687 39.9574 100.498 40.0427C100.146 40.2067 99.807 40.3642 99.4746 40.5217C98.7966 40.8431 98.2946 41.4598 97.4015 41.6173C97.1929 41.6566 97.0365 41.7682 96.9387 41.9519C96.7887 42.234 96.5671 42.3849 96.2803 42.4111C96.026 42.4374 95.9673 42.3389 96.0912 42.1224C96.8735 40.7447 98.06 40.8825 99.2334 40.023C99.4094 39.8984 99.5984 39.8328 99.8136 39.8328C101.124 39.8197 102.134 39.3801 102.838 38.5207C103.353 37.8974 103.256 37.7728 102.545 38.1598C102.369 38.2517 102.141 38.4091 101.854 38.6388C101.685 38.77 101.495 38.8487 101.28 38.8684C96.202 39.3079 91.8734 37.6022 88.301 33.7445C88.2423 33.6855 88.1771 33.6789 88.1054 33.7314L87.9685 33.843C87.9359 33.8626 87.9359 33.8954 87.9555 33.9282C88.8225 35.1616 90.0937 36.1851 90.3805 37.6481C91.1563 41.5648 88.7638 45.967 86.078 48.624C86.0323 48.6699 85.9802 48.6699 85.9346 48.624C85.8889 48.5781 85.8824 48.5322 85.9215 48.4797C89.0181 44.7532 90.6935 40.8628 88.2684 36.1064C87.2058 34.0135 85.7716 32.1897 83.9789 30.6283C83.8159 30.4839 83.6203 30.4052 83.4052 30.3855C81.1301 30.1756 78.8288 29.8344 76.5928 29.8016C67.2706 29.6639 57.8897 29.9197 48.5871 29.5851C46.8465 29.5195 45.3928 29.6048 44.2324 29.841C43.059 30.0772 42.1854 30.8972 41.6118 32.2947C41.4944 32.5768 41.5531 32.6227 41.7943 32.4324C42.2115 32.1044 42.7004 31.901 43.2546 31.8223C46.2859 31.409 48.4176 31.4483 49.6497 31.9273C51.7162 32.7408 53.1895 34.1644 54.0696 36.1917C54.552 37.3004 54.7606 38.665 54.702 40.2986C54.6433 41.7091 54.4673 43.1 54.1674 44.4777C54.1478 44.5695 54.0892 44.6089 53.9979 44.5892H53.9914C53.9066 44.563 53.8675 44.5105 53.8806 44.4187C54.6302 40.2986 53.1635 33.4165 47.8961 33.4034C45.3276 33.3968 40.7121 34.4859 40.2754 37.7006C40.0211 39.5179 40.3275 41.1974 41.1945 42.7391C42.0876 44.3268 43.424 45.0025 45.2037 44.7598C47.0617 44.5039 50.4581 42.1552 50.3342 40.069C50.2625 38.8487 50.4841 38.7897 51.0057 39.8984C52.1009 42.2012 49.9496 44.622 47.7983 45.7111C45.2103 47.0232 43.0003 46.5837 41.1685 44.399C39.4931 42.398 38.7369 39.859 38.8933 36.7821C38.9064 36.4738 38.8021 36.4278 38.5869 36.6443C36.6051 38.5666 37.5895 42.3324 38.4435 44.622C38.4826 44.7204 38.45 44.7992 38.3522 44.8451C38.2545 44.891 38.1762 44.8713 38.1241 44.7795C36.7095 42.3586 36.025 39.7278 36.0706 36.8936C36.0771 36.6771 36.1488 36.4869 36.2988 36.3294C37.7916 34.7352 39.3692 33.2459 41.0381 31.8551C43.0264 30.2018 42.4527 26.705 42.4918 24.4285C42.6287 16.9363 39.1867 12.1798 32.1657 10.1592C28.5607 9.1226 25.1121 9.65401 21.8265 11.76C17.687 14.417 14.4992 18.4255 14.2514 23.6019C14.0167 28.5026 15.6269 32.603 19.082 35.8899C19.3232 36.1195 19.3754 36.3294 19.5449 36.605C19.6035 36.6903 19.6818 36.7756 19.7861 36.8477C20.3272 37.2151 20.5944 37.7793 20.5814 38.5404C21.0247 38.7503 21.4615 38.9602 21.8917 39.1767C22.0417 39.2489 22.1329 39.3276 22.1655 39.426C22.2242 39.5769 22.1916 39.7475 22.0808 39.9378C22.0025 40.0624 21.82 40.0755 21.7287 39.964C21.4484 39.6425 21.1029 39.3735 20.6857 39.1439C20.5227 39.0521 20.4641 38.9143 20.5227 38.7306L20.5814 38.5404C20.0273 37.5759 19.3428 36.7231 18.5409 35.9817C17.2567 34.7942 16.6048 34.1972 16.5983 34.1907C14.7078 32.0847 13.3388 29.6442 12.4978 26.8822C11.4352 23.405 12.4913 20.9448 13.5083 17.7039C13.58 17.4611 13.5278 17.4218 13.3388 17.5989C13.1823 17.7432 13.0585 17.9138 12.9737 18.1106C11.5526 21.4041 10.8615 24.9927 10.9072 28.8766C10.9333 31.2646 11.4483 33.1672 12.4522 34.5843C14.2319 37.1036 16.8395 39.4326 19.7861 40.1215C20.7444 40.3511 21.6701 40.6135 22.5697 40.9087C23.2933 41.1515 23.9452 41.5189 24.5254 41.9978C24.6884 42.1356 24.6819 42.2602 24.5124 42.3849C24.4276 42.4439 24.3168 42.4373 24.1864 42.3783C23.7496 42.1749 23.365 41.9125 23.0195 41.5779C22.8696 41.4336 22.687 41.3614 22.485 41.3549L20.1185 41.2958C19.9295 41.2892 19.8382 41.3877 19.8513 41.5845C19.8708 41.8797 19.9882 42.1749 20.1903 42.4702C20.3206 42.6604 20.438 42.6539 20.5358 42.4439C20.777 41.9453 21.2203 41.7813 21.8656 41.9584C21.9178 41.9781 22.0482 41.9978 22.2633 42.024C22.4002 42.0437 22.498 42.1093 22.5697 42.2208C22.7522 42.5292 22.674 42.6342 22.3285 42.5489C21.7613 42.4111 21.3181 42.667 20.9921 43.323C20.8813 43.533 20.9399 43.6051 21.1681 43.533C21.7418 43.3558 22.172 43.5723 22.4654 44.189C22.5697 44.4055 22.5241 44.5892 22.3285 44.727C22.0417 44.9369 21.6831 44.9041 21.2463 44.6352C21.1486 44.5695 21.0247 44.5499 20.9008 44.5695C20.2033 44.6942 20.1055 44.891 20.6075 45.16C20.79 45.2584 21.2007 45.2912 21.8396 45.265C22.0743 45.2584 22.1851 45.3699 22.1655 45.5996C22.1525 45.8292 22.0091 45.9998 21.7353 46.1244C21.5201 46.2228 21.5071 46.3475 21.6962 46.4918C21.8005 46.5771 21.9308 46.5902 22.0808 46.5312C22.2633 46.4656 22.3741 46.4328 22.4198 46.4262C23.0326 46.3672 23.352 46.7149 23.3846 47.4628C23.3846 47.5677 23.2803 47.6333 23.1955 47.5874C22.5893 47.266 21.9634 47.0888 21.318 47.0626C21.1811 47.056 21.0508 47.1479 21.0051 47.2856C20.953 47.4497 21.0051 47.5612 21.1616 47.6202C21.6244 47.7842 22.0808 48.0204 22.5371 48.3157C22.6675 48.4009 22.837 48.4272 22.9869 48.3747C23.202 48.3025 23.3324 48.355 23.3846 48.5453C23.4432 48.7749 23.5867 48.9258 23.8148 48.998C24.0234 49.057 24.219 49.1292 24.4081 49.2079C24.5515 49.2669 24.6427 49.3457 24.6819 49.4441C24.721 49.5425 24.7145 49.6278 24.6623 49.7131C24.6297 49.7655 24.5841 49.7787 24.5254 49.759L20.6922 48.4665C20.4641 48.3878 20.3402 48.4665 20.3076 48.7093L20.2815 48.9783C20.8878 48.9914 21.4224 49.2538 21.8852 49.7721C22.0286 49.9296 22.2046 50.0411 22.4067 50.1133C22.9543 50.297 23.3976 50.6381 23.7431 51.1433C23.8735 51.3401 23.8605 51.5238 23.6975 51.7009C23.5997 51.8059 23.4563 51.8518 23.2803 51.8453C23.0586 51.8321 22.9282 51.714 22.8826 51.4975L22.7848 51.0383C22.7457 50.8415 22.6284 50.7365 22.4263 50.73C22.2763 50.73 22.1329 50.7562 21.996 50.8284C21.82 50.9268 21.6701 50.9005 21.5397 50.7562C21.318 50.5266 21.0573 50.3822 20.7509 50.3232C20.5358 50.2773 20.3923 50.1526 20.3337 49.9427C20.262 49.6868 20.2424 49.3653 20.2815 48.9783C19.9621 49.5228 19.8773 50.0805 20.0208 50.6512C20.0794 50.8612 20.2033 51.0055 20.4054 51.0908L21.2529 51.4385C21.4289 51.5107 21.5267 51.6353 21.5462 51.8256C21.5658 51.983 21.6179 52.1142 21.7092 52.2258C21.7809 52.3111 21.9699 52.3898 22.2763 52.4554C22.4263 52.4882 22.5632 52.5538 22.687 52.6391C22.8109 52.7309 22.8696 52.8556 22.8761 53.013C22.8826 53.2295 22.8174 53.3936 22.6675 53.5051C22.4393 53.6691 22.2763 53.6166 22.172 53.3608C21.9048 52.685 21.4419 52.3373 20.7965 52.3242C20.5618 52.3176 20.3402 52.2389 20.1577 52.088C19.9425 51.9174 19.7013 51.8453 19.4275 51.8781C19.1146 51.9174 19.0299 52.0749 19.1733 52.357C19.4145 52.8228 19.8122 53.013 20.3663 52.9146C20.5814 52.8818 20.7574 52.9474 20.8943 53.118C21.1551 53.4329 21.1486 53.761 20.8748 54.1087C20.7313 54.2858 20.6596 54.4957 20.6661 54.7254C20.6857 55.7947 20.5684 56.7723 20.3141 57.658C20.2424 57.9138 20.112 57.9532 19.923 57.7629L19.7144 57.553C19.5449 57.3824 19.4862 57.1331 19.5579 56.9035L20.3402 54.358C20.4249 54.1021 20.3598 53.8856 20.1446 53.7085C19.9295 53.5313 19.6818 53.492 19.4015 53.5773C19.1994 53.6429 19.0038 53.6429 18.8017 53.5707C18.5605 53.4854 18.3193 53.4264 18.0716 53.3804C17.8434 53.3345 17.8108 53.4001 17.9608 53.5773C18.1498 53.7938 18.404 53.879 18.73 53.8462C18.9582 53.8266 19.082 53.9315 19.1016 54.1612L19.1798 55.224C19.1994 55.447 19.1277 55.6373 18.9712 55.8013C18.6518 56.1359 18.5735 56.5427 18.743 57.0216C18.8147 57.2315 18.7626 57.4021 18.5801 57.5267C18.3649 57.6776 18.1237 57.7039 17.863 57.5989C17.6609 57.5202 17.5501 57.3758 17.5175 57.1593C17.4979 57.0019 17.4458 56.8576 17.374 56.7329C17.2306 56.477 17.1068 56.4902 16.9959 56.7592L16.3897 58.2353C16.2593 58.5436 16.3375 58.6092 16.6244 58.4452C17.2045 58.1106 17.7978 58.1369 18.404 58.5371C18.4823 58.5896 18.5018 58.6617 18.4627 58.747L18.052 59.5868C17.9868 59.718 17.9086 59.7245 17.8239 59.613C17.1394 58.7601 16.5396 58.6355 16.0376 59.2456C15.8942 59.4162 15.8616 59.6064 15.9333 59.8164C16.0376 60.1116 16.1159 60.3019 16.1615 60.3872C16.5657 61.1285 16.3701 61.3647 15.5748 61.0826C15.4053 61.0235 15.1641 60.9973 14.8447 61.0104C14.6165 61.017 14.5513 61.1285 14.6361 61.345C14.6752 61.4434 14.7469 61.5156 14.8577 61.5615C15.3857 61.778 15.64 62.1388 15.6139 62.6309C15.5944 62.9261 15.4509 63.018 15.1771 62.9064C14.8186 62.7621 14.434 62.6768 14.0167 62.6571C13.7755 62.644 13.5409 62.5718 13.3388 62.4406C13.1041 62.2897 12.8433 62.2701 12.5565 62.3685C12.3544 62.4406 12.2175 62.5784 12.1588 62.7818C11.9046 63.6937 12.1132 64.5728 12.7716 65.4191C12.8498 65.511 12.8303 65.6488 12.739 65.7275L12.3674 66.0358C12.2696 66.1211 12.1784 66.1146 12.0936 66.0162C11.4743 65.3011 11.1549 64.4875 11.1223 63.5887C11.1158 63.3657 11.031 63.1754 10.8746 63.018C10.6464 62.8015 10.3857 62.6375 10.0858 62.5259C9.87717 62.4472 9.72723 62.3094 9.62945 62.106C9.45343 61.7321 9.46647 61.2991 9.67508 60.807C9.79894 60.5184 9.55122 60.21 9.24483 60.2559L8.16267 60.4265C7.92146 60.4659 7.79108 60.3675 7.76501 60.1247C7.62159 58.8717 7.61507 57.6973 7.75197 56.6017C7.85627 55.7751 7.88235 54.9747 7.82368 54.2071C7.76501 53.3804 7.84975 52.5341 8.08444 51.6616C8.14311 51.4385 8.11052 51.2286 7.98665 51.0317C7.75197 50.6709 7.78456 50.2904 8.07792 49.8902C8.25393 49.6606 8.3452 49.3785 8.3452 49.0898L8.39083 44.9501C8.39083 44.6155 8.7233 44.3793 9.03622 44.4908C9.55774 44.6811 9.87065 45.0878 9.97495 45.7177C10.001 45.8751 10.0662 45.8948 10.177 45.7767L10.7572 45.1403C10.9593 44.9173 10.9267 44.7401 10.6595 44.6155C10.3726 44.4777 10.0727 44.4252 9.76635 44.4515C9.55122 44.4711 9.36869 44.399 9.21875 44.2415C8.87324 43.8676 8.71027 43.4214 8.74286 42.89C8.7559 42.6604 8.87976 42.5489 9.10793 42.5554C9.57078 42.5686 10.0076 42.6735 10.4182 42.8703C10.6203 42.9688 10.7703 42.9163 10.8681 42.7129C10.9789 42.4833 10.9919 42.2405 10.9007 41.9912C10.7898 41.696 10.6399 41.6632 10.4443 41.9059L10.2813 42.1028C10.1445 42.2602 9.98147 42.3127 9.77938 42.2537C9.19919 42.0831 8.76894 41.7026 8.48862 41.1187C8.33868 40.8038 8.28653 40.8169 8.32564 41.1646L8.41039 41.8207C8.43647 42.0568 8.42343 42.2865 8.37128 42.5161C7.9671 44.2612 7.73893 46.0194 7.68678 47.7842C7.68026 47.9614 7.62811 48.1385 7.53032 48.296C7.44558 48.4337 7.3869 48.5781 7.35431 48.729C6.66981 52.3307 6.03095 56.8051 5.45076 62.1585C4.83797 67.7613 5.86145 72.7605 11.696 74.8599C16.3962 76.5591 20.451 75.7127 23.8735 72.334C27.309 68.9356 29.9623 63.3657 31.7876 58.7929C32.3352 57.4283 32.609 56.0637 32.6025 54.6926C32.6025 54.3711 32.6937 54.3448 32.8828 54.6007L33.9389 56.0637C34.0692 56.2409 34.0627 56.4836 33.9258 56.6542C33.7368 56.8904 33.5868 57.1593 33.4825 57.4546C32.0288 61.4106 29.9232 65.4651 27.1526 69.6179C23.1825 75.5815 17.3871 78.9406 10.4574 75.1682C4.83797 72.111 3.72322 66.9478 3.93182 60.8464C4.01005 58.4911 4.57069 54.5023 5.62025 48.8733C6.64374 43.4083 7.60855 37.9433 8.52121 32.4652C8.52773 32.439 8.7233 31.0088 9.12096 28.1812C9.79894 23.3198 10.9463 18.642 14.61 15.1256C17.2828 12.5604 20.3858 10.0017 23.8474 8.91266C26.1617 8.191 28.4499 7.94169 30.725 8.15819C37.4461 8.80769 41.6965 12.193 43.4762 18.3009C44.3432 21.2925 44.4932 25.242 44.5779 28.601C44.5844 28.8897 44.7344 29.034 45.0212 29.0406C57.3682 29.2637 69.2459 28.9028 81.619 29.2505C81.9645 29.2637 82.1209 29.0996 82.0884 28.7519C81.7559 25.1698 81.8276 21.4959 82.3165 17.7301C82.4599 16.6279 82.7337 15.7816 83.1444 15.1912C85.6347 11.6353 88.2879 9.07668 92.7665 8.41406C94.9504 8.09259 97.0951 8.13195 99.1943 8.54527C101.228 8.94547 103.158 9.7721 104.983 11.0383C107.897 13.0524 110.074 15.552 111.522 18.5371C112.35 20.2363 113.204 23.346 114.09 27.8794C115.453 34.8599 116.9 42.0765 118.432 49.5228C119.064 52.5997 119.534 55.8013 119.84 59.1275C120.231 63.405 120.081 66.6066 119.384 68.7323ZM93.5032 39.4588C93.5097 39.2686 93.6009 39.1898 93.7835 39.2358C93.966 39.2751 94.1225 39.4457 94.2528 39.7541C94.3311 39.9443 94.1616 40.1411 93.966 40.0887C93.6466 40.0034 93.4966 39.7934 93.5032 39.4588ZM100.355 40.8825C100.492 40.666 100.648 40.5938 100.824 40.6594C101.078 40.7447 101.137 41.0859 100.928 41.2499C100.752 41.3877 100.544 41.4729 100.289 41.4992L100.374 41.7747C100.439 42.0175 100.361 42.2799 100.172 42.4439L98.8162 43.5986C98.6141 43.7691 98.3989 43.7954 98.1643 43.6707C97.9165 43.5395 97.8057 43.3165 97.8383 43.0081C97.8579 42.7719 97.9882 42.6735 98.2229 42.7129L98.4576 42.7457C98.6336 42.7785 98.7836 42.726 98.9009 42.5882C99.3116 42.129 99.7744 41.7682 100.289 41.4992C100.192 41.3089 100.218 41.099 100.355 40.8825ZM101.17 42.0634C101.124 41.8863 101.183 41.8272 101.359 41.8863L101.554 41.9519C101.671 41.9912 101.782 41.9781 101.88 41.9059C105.27 39.5507 108.921 37.5235 111.398 34.0857C111.58 33.8298 111.978 33.9217 112.03 34.23C112.206 35.2404 111.998 36.1785 111.411 37.038C111.3 37.202 111.254 37.3857 111.287 37.5891L111.541 39.2358C111.567 39.4195 111.659 39.5704 111.809 39.6819C112.024 39.8394 112.258 39.9115 112.526 39.905C112.754 39.905 112.956 40.023 113.054 40.233C113.178 40.5151 113.21 40.8038 113.145 41.099C113.099 41.3024 113.151 41.4795 113.295 41.6304C113.536 41.8928 113.66 42.1946 113.653 42.5423C113.653 42.7654 113.543 42.9032 113.327 42.9622C112.904 43.0869 112.513 43.2574 112.167 43.4805C111.965 43.6051 111.972 43.7298 112.18 43.8544C112.682 44.1431 113.171 44.0578 113.647 43.592C113.797 43.4411 113.901 43.4739 113.96 43.6773L114.129 44.2678C114.181 44.458 114.123 44.6023 113.953 44.7008C113.686 44.8517 113.151 45.0157 112.356 45.1994C112.154 45.2453 112.043 45.3503 112.03 45.5077C112.004 45.7505 112.108 45.8948 112.343 45.9473C112.923 46.0719 113.425 45.921 113.856 45.4946C114.012 45.3437 114.149 45.3568 114.266 45.5405C114.507 45.9145 114.579 46.3278 114.481 46.787C114.436 47.0035 114.449 47.2135 114.507 47.4234C114.775 48.3616 115.003 49.3129 115.192 50.2642C115.335 50.9793 114.775 51.6288 114.097 51.5303C113.829 51.491 113.504 51.55 113.132 51.714C112.852 51.8387 112.708 52.0486 112.702 52.357L112.689 52.6916C112.676 53.1771 112.858 53.2689 113.236 52.9737L114.768 51.76C114.931 51.6353 115.068 51.655 115.185 51.8321C115.414 52.1798 115.511 52.5538 115.479 52.954C115.459 53.1771 115.335 53.3148 115.12 53.3673C114.631 53.4788 114.149 53.6166 113.666 53.7741C113.36 53.8725 113.165 54.0168 113.08 54.2005C113.002 54.3514 112.975 54.522 113.002 54.7057C113.034 54.9353 113.165 55.0665 113.393 55.1124C113.888 55.2108 114.208 55.014 114.351 54.522C114.534 53.8922 115.374 53.7872 115.707 54.3514C116.059 54.9484 115.955 55.5389 115.401 56.1096C115.251 56.2671 115.062 56.3196 114.846 56.2737C114.501 56.1949 114.221 56.1818 114.005 56.2343C113.334 56.3918 113.054 57.1987 113.477 57.7498C113.601 57.9138 113.79 57.986 114.032 57.9729C114.247 57.9663 114.397 57.8613 114.481 57.6711L114.853 56.8444C114.964 56.5886 115.146 56.523 115.388 56.6607C116.046 57.0216 116.157 57.5202 115.733 58.1697C115.583 58.3862 115.185 58.852 114.54 59.5671C114.39 59.7311 114.24 59.7311 114.09 59.5671C113.999 59.4621 113.914 59.3571 113.829 59.2522C113.699 59.0882 113.601 59.1013 113.53 59.3047C113.432 59.5999 113.314 59.9279 113.191 60.2888C113.125 60.479 113.178 60.5184 113.347 60.4068C113.725 60.151 114.11 60.0198 114.501 60.0066C114.788 59.9935 114.99 59.9542 115.114 59.882C115.303 59.7705 115.453 59.613 115.577 59.4162C115.668 59.2653 115.753 59.18 115.831 59.1538C115.902 59.1275 115.968 59.121 116.039 59.1406C116.196 59.1735 116.268 59.2719 116.261 59.4293C116.241 59.7114 116.137 59.9542 115.948 60.1641C115.811 60.3084 115.811 60.4528 115.948 60.5971C116.189 60.8595 116.339 61.1548 116.398 61.4828C116.444 61.7386 116.352 61.8174 116.118 61.719C115.759 61.5746 115.577 61.2925 115.557 60.8792C115.544 60.6627 115.433 60.5709 115.225 60.6037C115.081 60.6233 114.957 60.6627 114.859 60.7218C114.612 60.8727 114.599 61.24 114.84 61.4041C115.159 61.6271 115.374 61.8305 115.485 62.0142C115.726 62.4078 115.518 62.9196 115.075 63.0311C114.26 63.2345 113.595 63.6019 113.086 64.1267C112.949 64.271 112.806 64.271 112.663 64.1201C112.239 63.6675 111.75 63.6215 111.196 63.9889C111.007 64.1136 110.955 64.2907 111.039 64.5072C111.196 64.8812 111.489 65.0321 111.926 64.9599C112.011 64.9468 112.167 64.8812 112.382 64.7631C112.454 64.7172 112.532 64.6844 112.617 64.6647C112.806 64.6056 112.891 64.6778 112.871 64.8681C112.819 65.5372 112.526 66.0621 111.991 66.4426C111.815 66.5673 111.652 66.5541 111.496 66.4098C111.215 66.1539 110.883 66.108 110.498 66.272C110.296 66.3573 110.12 66.3311 109.957 66.1802C109.657 65.9046 109.514 65.5635 109.527 65.1633C109.533 64.9468 109.644 64.8353 109.859 64.8221C109.977 64.8156 110.088 64.7893 110.192 64.7565C110.413 64.6778 110.44 64.5597 110.277 64.3957C110.061 64.1923 109.742 63.9299 109.312 63.5953C108.927 63.3066 108.81 62.9327 108.96 62.4734C109.031 62.2569 109.175 62.1454 109.403 62.1388C109.605 62.1323 109.755 62.1651 109.866 62.2241C110.114 62.3619 110.42 62.2307 110.394 61.9945L110.237 60.6037C110.205 60.3412 110.061 60.2297 109.801 60.2625C109.683 60.2822 109.579 60.3347 109.488 60.42C109.338 60.5709 109.312 60.7349 109.41 60.9251C109.52 61.1285 109.527 61.3188 109.436 61.4893C109.331 61.6927 109.24 61.6862 109.162 61.4697C109.058 61.1876 108.855 61.0629 108.556 61.0957C108.38 61.1154 108.249 61.1941 108.151 61.3384C108.106 61.4106 108.041 61.4631 107.962 61.4893C107.03 61.8174 106.802 61.5418 107.265 60.6693C107.669 59.9017 108.243 59.2456 108.979 58.7076C109.175 58.5633 109.149 58.2615 108.927 58.1566C108.627 58.0122 108.38 58.1041 108.177 58.4255C107.917 58.852 107.636 59.2653 107.337 59.6655C107.187 59.8623 106.998 60.0001 106.763 60.0723L104.051 60.9251C103.823 60.9973 103.705 60.9186 103.692 60.6824C103.66 60.0198 104.005 59.6983 104.742 59.7311C104.944 59.7311 105.146 59.7311 105.361 59.7114C105.576 59.6917 105.752 59.5933 105.889 59.4228C106.391 58.7864 106.737 58.0778 106.919 57.2971C106.971 57.0675 106.887 56.9953 106.672 57.0741L105.915 57.3496C105.668 57.4415 105.4 57.3168 105.309 57.0675L105.14 56.5755C105.068 56.3786 105.172 56.1556 105.368 56.09L106.17 55.8144C106.469 55.7095 106.463 55.657 106.144 55.6504C105.915 55.6504 105.7 55.6898 105.485 55.7751C105.283 55.8472 105.081 55.8603 104.879 55.8079L104.201 55.6242C104.22 55.9981 104.116 56.3327 103.901 56.6279C103.771 56.8051 103.608 56.8379 103.412 56.7395C102.838 56.4311 102.402 56.582 102.108 57.179C102.01 57.3824 101.874 57.4152 101.691 57.2906C101.502 57.1593 101.385 57.0019 101.339 56.8116C101.293 56.5951 101.378 56.4836 101.593 56.4902L102.382 56.5098C102.61 56.5098 102.76 56.4114 102.832 56.1949C103.027 55.611 103.484 55.4208 104.201 55.6242C104.305 54.8303 104.775 54.1218 105.609 53.492C106.013 53.1836 105.974 53.1049 105.492 53.2558C104.318 53.6232 103.301 55.2436 102.095 55.1124C101.861 55.0862 101.795 54.9681 101.893 54.7516C102.069 54.3645 102.33 54.0496 102.688 53.8069C102.923 53.6429 103.093 53.4329 103.197 53.1639C103.334 52.8162 103.516 52.5079 103.751 52.2323C103.953 51.9962 103.999 51.655 103.855 51.3795L103.758 51.1761C103.595 50.848 103.425 50.848 103.262 51.1761C102.747 52.2061 102.05 52.9474 101.17 53.4001C100.498 53.7478 100.329 53.5773 100.661 52.895C100.778 52.6522 101.013 52.3767 101.365 52.0683C101.528 51.924 101.632 51.7468 101.678 51.5369C101.887 50.6119 102.454 50.0805 103.386 49.9427C103.575 49.9164 103.647 49.8115 103.595 49.6212C103.569 49.5228 103.516 49.4441 103.432 49.385C103.314 49.2997 103.151 49.3194 103.067 49.4375C102.845 49.7262 102.604 49.7721 102.343 49.5687C102.193 49.4572 102.056 49.4638 101.919 49.595L100.061 51.4123C99.8331 51.6288 99.6245 51.6156 99.4355 51.3729C99.2464 51.1302 99.1551 50.9202 99.1747 50.7365C99.2008 50.4807 99.3377 50.3757 99.5919 50.4216L100.25 50.5397C100.518 50.5856 100.615 50.4807 100.557 50.2182C100.465 49.7852 100.27 49.4047 99.9635 49.0832C99.807 48.9192 99.8266 48.7946 100.029 48.6962C100.361 48.5322 100.7 48.5125 101.046 48.6502C101.241 48.729 101.365 48.6699 101.417 48.4665C101.515 48.0795 101.554 47.699 101.522 47.325C101.502 47.1085 101.398 46.9707 101.196 46.8986C100.589 46.6755 100.355 46.2491 100.492 45.6192C100.531 45.4421 100.472 45.3109 100.322 45.2256C100.25 45.1862 100.185 45.1666 100.113 45.16C99.9374 45.1534 99.8201 45.2322 99.7484 45.3896C99.6767 45.5471 99.5854 45.6783 99.4615 45.7898C99.3637 45.8751 99.266 45.9013 99.1682 45.8751C99.103 45.8554 99.0508 45.8226 99.0182 45.7636C98.9205 45.6061 98.9596 45.488 99.1291 45.4027C99.3703 45.2846 99.455 45.101 99.3963 44.8451C99.3442 44.6352 99.4159 44.4187 99.5789 44.2809L101.111 43.0212C101.248 42.9097 101.306 42.7588 101.28 42.5817C101.254 42.4111 101.215 42.2405 101.17 42.0634ZM112.513 37.8449C112.702 38.2517 112.799 38.6847 112.793 39.1439C112.793 39.3867 112.676 39.472 112.447 39.3932C112.187 39.3079 111.985 39.1374 111.848 38.8815C111.711 38.6388 111.685 38.396 111.763 38.1467C111.919 37.6481 112.056 37.1495 112.18 36.6575C112.187 36.6181 112.232 36.605 112.265 36.6312C112.441 36.7952 112.506 36.9855 112.447 37.202C112.395 37.4185 112.415 37.635 112.513 37.8449ZM115.225 67.0987C114.918 67.1839 114.736 67.3873 114.677 67.7154C114.625 67.9909 114.338 68.1484 114.084 68.0434C113.908 67.9712 113.771 67.8531 113.673 67.6891C113.51 67.4398 113.575 67.2758 113.856 67.1971C114.371 67.0462 114.82 66.81 115.198 66.4754C115.387 66.3114 115.511 66.3508 115.577 66.5869C115.596 66.6657 115.596 66.7378 115.564 66.8034C115.498 66.9543 115.388 67.0527 115.225 67.0987ZM115.42 68.9291C115.479 69.3621 115.27 69.5523 114.781 69.4998C114.449 69.467 114.397 69.3227 114.625 69.08C114.762 68.9422 114.931 68.8307 115.14 68.7585C115.303 68.6994 115.401 68.7519 115.42 68.9291ZM112.017 68.9881C112.324 68.5814 112.63 68.1812 112.93 67.7941C112.989 67.7219 113.054 67.7088 113.132 67.7678C113.21 67.8335 113.217 67.8991 113.158 67.9712C112.865 68.3255 112.61 68.7191 112.395 69.1521C112.35 69.2505 112.278 69.2702 112.18 69.2112L112.043 69.1259C111.985 69.0931 111.972 69.0472 112.017 68.9881ZM110.29 68.2861C109.814 68.6338 109.638 68.5223 109.762 67.945C109.872 67.3742 110.29 67.0987 111 67.1183C111.209 67.1249 111.398 67.0724 111.574 66.9543C111.802 66.7903 112.082 66.8166 112.402 67.0331C112.669 67.2102 112.643 67.3283 112.33 67.3808C111.633 67.4989 110.955 67.8006 110.29 68.2861ZM113.099 69.5589L113.64 69.6114C113.908 69.6311 113.986 69.7688 113.882 70.0116C113.784 70.2412 113.627 70.4118 113.399 70.5233C113.178 70.6283 113.002 70.5758 112.871 70.3724C112.78 70.2281 112.734 70.0706 112.728 69.9C112.728 69.6507 112.852 69.5392 113.099 69.5589ZM113.856 66.272C113.523 66.4295 113.38 66.3245 113.425 65.9571C113.549 64.9205 114.175 64.4088 114.84 63.7265C115.107 63.451 115.394 63.3526 115.694 63.4247C116.235 63.5625 116.346 63.8577 116.033 64.317C115.401 65.2289 114.677 65.8849 113.856 66.272ZM107.988 64.0545L106.678 64.1595C106.417 64.1792 106.346 64.0677 106.456 63.8315C106.509 63.72 106.574 63.6281 106.652 63.5428C106.73 63.4641 106.789 63.3722 106.828 63.2738C106.887 63.1361 106.965 63.0114 107.063 62.8999C107.219 62.7227 107.408 62.6768 107.623 62.7621C107.995 62.8999 108.21 63.2148 108.275 63.6937C108.308 63.9168 108.21 64.0349 107.988 64.0545ZM108.386 65.0911L108.582 65.7341C108.64 65.9112 108.588 66.049 108.432 66.1474C108.204 66.2851 107.969 66.2655 107.728 66.0752C107.578 65.9506 107.493 65.7997 107.473 65.6225C107.46 65.406 107.513 65.2026 107.623 65.0058C107.806 64.6909 108.282 64.7434 108.386 65.0911ZM106.763 62.316C106.639 62.5522 106.391 62.6899 106.02 62.7227C105.889 62.7359 105.726 62.7687 105.524 62.8211C105.439 62.8408 105.348 62.8539 105.263 62.8605C104.964 62.8671 104.911 62.7621 105.114 62.539C105.374 62.2438 105.531 61.883 105.583 61.45C105.615 61.1941 105.915 61.0695 106.117 61.2335L106.619 61.6271C106.854 61.8174 106.9 62.047 106.763 62.316ZM105.009 63.5625L106.789 65.6488C106.965 65.8521 106.932 66.0162 106.685 66.1343C106.574 66.1802 106.463 66.2064 106.346 66.1999C106.117 66.1867 106.007 66.0621 106 65.8325C105.981 64.75 105.407 64.1726 104.279 64.0939C104.018 64.0742 103.966 63.9561 104.116 63.7462C104.207 63.6215 104.312 63.5231 104.436 63.4575C104.651 63.3394 104.846 63.3722 105.009 63.5625ZM107.128 67.571C107.239 67.5382 107.356 67.5317 107.48 67.5513C107.682 67.5841 107.858 67.5317 108.014 67.4005C108.23 67.2364 108.464 67.1183 108.725 67.0462C108.979 66.9806 109.051 67.0659 108.934 67.302C108.777 67.617 108.503 67.7678 108.106 67.7482C107.904 67.7416 107.741 67.8203 107.617 67.9843C107.486 68.168 107.323 68.2336 107.128 68.1812C106.404 67.9843 106.404 67.781 107.128 67.571ZM103.503 58.1106C103.484 57.8679 103.542 57.6514 103.666 57.448C103.797 57.2446 103.973 57.1856 104.194 57.2578C104.651 57.4086 104.872 57.7432 104.866 58.255C104.866 58.478 104.761 58.6289 104.553 58.7142C104.351 58.7929 104.149 58.7929 103.94 58.7076C103.673 58.5961 103.529 58.3927 103.503 58.1106ZM102.193 60.2559C102.362 60.3609 102.467 60.4987 102.512 60.6627C102.565 60.8792 102.48 60.9842 102.252 60.9711C102.063 60.9579 101.9 60.8726 101.776 60.7086C101.724 60.643 101.717 60.5709 101.75 60.4921C101.874 60.2231 102.017 60.1444 102.193 60.2559ZM102.16 58.4911C102.389 58.3337 102.617 58.2812 102.845 58.3271C103.086 58.3731 103.145 58.5108 103.021 58.7273C102.878 58.9701 102.701 59.1866 102.493 59.3637C102.402 59.449 102.33 59.4293 102.284 59.3178C102.265 59.2587 102.245 59.1997 102.226 59.1406C102.213 59.0947 102.193 59.0554 102.173 59.0226C102.128 58.9635 102.095 58.9045 102.063 58.8389C101.997 58.6945 102.03 58.5764 102.16 58.4911ZM102.61 64.4023C102.715 64.317 102.845 64.3038 103.008 64.3695C103.054 64.3891 103.099 64.3957 103.145 64.3957C103.216 64.4023 103.256 64.4088 103.275 64.4219C103.477 64.54 103.477 64.8287 103.275 64.9402C103.138 65.0255 102.923 64.9796 102.643 64.8156C102.493 64.7237 102.473 64.5138 102.61 64.4023ZM98.6923 55.0403C98.9661 54.8303 99.2529 54.7516 99.3377 54.8566C99.4224 54.9681 99.2725 55.224 98.9987 55.4339C98.7249 55.6438 98.438 55.7226 98.3533 55.6176C98.2686 55.5061 98.4185 55.2502 98.6923 55.0403ZM98.3011 52.9474C98.249 53.2164 98.1121 53.4067 97.897 53.5182C97.6688 53.6363 97.5841 53.5707 97.6297 53.3148C97.734 52.7703 98.0991 52.4882 98.7314 52.4751C99.1943 52.4685 99.5137 52.6391 99.6962 52.9999C99.7875 53.1771 99.7484 53.2164 99.5724 53.1311C99.3637 53.0327 99.1943 52.9081 99.0704 52.7506C98.8357 52.4554 98.3663 52.5735 98.3011 52.9474ZM99.6701 57.0544C99.9896 56.8969 100.309 56.8707 100.374 57.0085C100.446 57.1462 100.237 57.389 99.9179 57.5464C99.5984 57.7039 99.279 57.7301 99.2138 57.5923C99.1421 57.4546 99.3507 57.2118 99.6701 57.0544ZM100.087 54.2924C100.081 54.2202 100.107 54.1808 100.166 54.1612C100.244 54.1283 100.289 54.1546 100.302 54.2399C100.394 54.7319 100.681 55.0337 101.17 55.1584C101.359 55.2043 101.43 55.3289 101.378 55.5192L101.332 55.6898C101.3 55.8144 101.163 55.8735 101.052 55.8144C100.498 55.5126 100.172 55.0075 100.081 54.2924H100.087ZM98.927 47.4693C98.927 47.1282 99.3442 46.8658 99.8527 46.8723C100.355 46.8723 100.759 47.161 100.752 47.4956C100.752 47.8367 100.335 48.0992 99.8266 48.0926C99.3246 48.0926 98.9205 47.8039 98.927 47.4693ZM98.1708 48.5518C98.6336 48.4272 99.0117 48.5453 99.3116 48.9127C99.4811 49.1226 99.4355 49.2473 99.1682 49.2801L97.408 49.5294C97.1994 49.5622 97.1799 49.5097 97.3428 49.3785C97.3885 49.3457 97.4341 49.3063 97.4798 49.2735C97.5841 49.1948 97.6623 49.0964 97.721 48.9848C97.8448 48.7487 97.9948 48.6043 98.1708 48.5518ZM97.1929 44.0775C97.1929 44.0775 97.1473 44.0775 97.1016 44.0578C97.0365 44.025 96.9778 43.9988 96.9256 43.9922C96.7431 43.9594 96.5997 43.8872 96.4889 43.7692C96.3585 43.6248 96.4498 43.3952 96.6453 43.3821C96.867 43.369 97.0756 43.4477 97.2646 43.6117C97.4146 43.7429 97.3755 43.9922 97.1929 44.0775ZM48.7696 39.9706C48.6002 39.9181 48.4372 39.9115 48.2807 39.9509C48.0656 40.0099 47.8961 40.1215 47.7657 40.2986C46.9769 41.3286 45.9143 41.6435 44.5649 41.2433C44.3563 41.1843 44.2324 41.0465 44.1868 40.83C43.939 39.59 43.8608 37.2348 44.9495 36.3229C45.797 35.6078 47.3029 35.0698 48.1764 36.0342C48.9652 36.9133 49.4541 37.9761 49.6432 39.2161C49.7214 39.7147 49.2455 40.1215 48.7696 39.9706ZM20.112 39.0718C20.099 39.1374 20.0664 39.1898 20.0142 39.2227C19.9751 39.2489 19.923 39.2489 19.8578 39.2292C18.4627 38.8028 17.524 38.291 17.0351 37.7006C15.8421 36.2441 14.5969 34.827 13.3127 33.4428C13.0324 33.141 12.8238 32.7933 12.6934 32.3931C12.6086 32.1503 12.6608 32.1241 12.8368 32.3078C14.3818 33.8889 15.803 35.4503 17.0872 36.9986C17.4588 37.4382 18.4497 38.0942 20.0599 38.9668C20.1055 38.9865 20.1185 39.0258 20.112 39.0718ZM22.7327 44.9435C22.7783 44.6745 22.9348 44.563 23.202 44.6024C23.4172 44.6352 23.5867 44.7336 23.7105 44.8976C23.8605 45.0944 23.8279 45.2584 23.6193 45.3831C23.3389 45.5602 23.0847 45.6717 22.85 45.7242C22.674 45.7636 22.6023 45.698 22.6349 45.5208L22.7327 44.9435ZM22.6349 43.2049C22.6479 42.89 23.026 42.7326 23.2477 42.9556C23.6127 43.3099 23.6519 43.6248 23.365 43.9004C23.189 44.0775 23.026 44.0709 22.8631 43.8807C22.7001 43.6839 22.6284 43.4608 22.6349 43.2049ZM24.6362 53.6363C24.5906 53.8266 24.3298 53.925 24.0495 53.8594C23.7757 53.7938 23.5867 53.5838 23.6323 53.3936C23.6779 53.2033 23.9387 53.1049 24.219 53.1705C24.4928 53.2361 24.6819 53.446 24.6362 53.6363ZM21.7809 57.4021C21.631 57.4939 21.5397 57.448 21.5201 57.2709L21.3832 56.3196C21.3506 56.0768 21.4484 56.0047 21.6701 56.0965C21.9308 56.2081 22.1199 56.3918 22.2437 56.6607C22.3155 56.8182 22.4393 56.9035 22.6088 56.9166L22.8891 56.9428C23.0651 56.956 23.176 57.0478 23.2281 57.2184C23.2738 57.3562 23.2477 57.4677 23.1499 57.5399C23.0912 57.5792 23.013 57.5792 22.9608 57.5333L22.5827 57.225C22.4328 57.1069 22.2829 57.0937 22.1264 57.1921L21.7809 57.4021ZM21.8982 59.4359C21.8135 59.508 21.7222 59.5671 21.6179 59.5999C21.318 59.7114 21.2268 59.613 21.3376 59.3112L21.6179 58.5568C21.6636 58.4452 21.82 58.4387 21.8722 58.5502L22.0156 58.852C22.1264 59.0816 22.0873 59.2719 21.8982 59.4359ZM21.5136 54.6335C21.5006 54.3645 21.7744 54.1743 22.0221 54.2858C22.3937 54.4498 22.5827 54.6926 22.5762 55.0075C22.5762 55.0534 22.5371 55.0993 22.485 55.1059C21.8526 55.1715 21.5332 55.014 21.5136 54.6335ZM14.1667 64.9271C14.7925 65.5766 15.1445 66.3179 15.2228 67.1511C15.2488 67.407 15.1837 67.4333 15.0272 67.2299C14.9424 67.1183 14.8707 67.0003 14.8186 66.8625C14.7469 66.6853 14.623 66.5673 14.434 66.5213C13.58 66.3114 13.241 65.78 13.404 64.9337C13.4496 64.7237 13.3974 64.54 13.2605 64.3826C12.9802 64.0677 12.7847 63.7199 12.6738 63.3329C12.6152 63.1098 12.6934 63.0114 12.9216 63.0442C14.4796 63.2476 15.4118 64.048 15.7117 65.4454C16.3375 65.4847 16.7417 65.6553 16.9177 65.9506C17.0351 66.1539 16.9764 66.2458 16.7482 66.2392C16.3245 66.2195 15.979 65.9571 15.7117 65.4454L14.5709 64.4679C14.4666 64.376 14.3688 64.3826 14.2775 64.481L14.1602 64.6122C14.0819 64.6975 14.0819 64.8418 14.1667 64.9271ZM7.9671 65.57C7.83672 65.3667 7.78456 65.2355 7.81716 65.1633C8.05836 64.6844 8.24741 64.704 8.39083 65.2223C8.51469 65.675 8.71027 66.0555 8.97754 66.3639C9.6816 67.184 10.692 67.9515 12.0024 68.6535C12.0936 68.6994 12.1132 68.7716 12.0676 68.87C12.0219 68.9684 11.9502 68.9947 11.8655 68.9487C10.2422 68.1943 8.94495 67.0659 7.9671 65.57ZM11.018 71.5139C10.9463 71.5796 10.6203 71.3434 10.2944 70.9957C9.96844 70.6414 9.75983 70.3002 9.82502 70.2346C9.89673 70.169 10.2227 70.4052 10.5486 70.7529C10.8746 71.1072 11.0832 71.4483 11.018 71.5139ZM8.8928 63.4182C8.9971 63.6478 9.04274 63.8971 9.03622 64.1661C9.0297 64.4088 8.90584 64.54 8.66463 64.5663C8.46254 64.5925 8.27349 64.5203 8.09748 64.3498C7.97362 64.2317 7.89539 64.0545 7.87583 63.8118C7.79108 62.808 7.6933 61.883 7.59551 61.0498C7.54336 60.6233 7.71937 60.479 8.12355 60.6168L8.59944 60.7808C8.95147 60.9054 9.09489 61.1482 9.0297 61.5221L8.81457 62.8211C8.78197 63.0311 8.80805 63.2279 8.8928 63.4182ZM9.55774 64.1726C9.57729 64.0086 9.56426 63.8446 9.50559 63.6871C9.45995 63.5625 9.44691 63.4313 9.47299 63.2935C9.51862 63.077 9.63597 63.018 9.83154 63.1229C10.3726 63.405 10.5421 63.8643 10.3531 64.5138C10.2944 64.7237 10.2944 64.9337 10.3596 65.137C10.6008 65.9112 11.1549 66.3311 12.0219 66.4032C12.6347 66.4492 13.1367 66.7313 13.5343 67.2496C13.606 67.3414 13.593 67.4201 13.5083 67.4923L13.3583 67.6104C13.1888 67.7482 13.0193 67.7482 12.8564 67.5973C11.6243 66.5016 9.19267 66.6657 9.55774 64.1726ZM16.318 64.0808C16.2267 63.838 16.3114 63.7396 16.5657 63.7856C16.7287 63.8118 16.8525 63.8905 17.009 63.9299C17.3284 64.0152 17.5175 64.2186 17.5631 64.5335C17.6087 64.7893 17.5044 64.8943 17.2502 64.8615C16.8004 64.8025 16.4875 64.54 16.318 64.0808ZM16.859 62.8736C16.3832 62.5653 16.4223 62.3881 16.9894 62.3291C17.0155 62.3225 17.3089 62.4013 17.863 62.5587C17.9999 62.5981 18.0455 62.7752 17.9347 62.8736C17.6283 63.1426 17.2697 63.1426 16.859 62.8736ZM17.9738 61.4041L17.3284 61.286C17.0872 61.2466 16.9177 61.017 16.9438 60.7677C16.9503 60.6758 16.9829 60.5905 17.0285 60.5118C17.1198 60.3675 17.2502 60.2888 17.4197 60.2756C17.9021 60.2428 18.202 60.4987 18.3193 61.0432C18.3845 61.3319 18.2671 61.45 17.9738 61.4041ZM18.3389 64.54C18.5409 64.3235 18.7691 64.1398 19.0234 63.9889C19.3558 63.7987 19.421 63.8512 19.2124 64.153C19.1668 64.2251 19.1016 64.2776 19.0234 64.317C18.8995 64.3891 18.8147 64.4941 18.7691 64.6319L18.6583 65.0124C18.5931 65.2289 18.4888 65.2551 18.3454 65.078C18.3063 65.0321 18.2737 64.973 18.2541 64.914C18.2085 64.7762 18.2346 64.6516 18.3389 64.54ZM19.3623 60.4921C19.4992 60.3806 19.773 60.5118 19.9816 60.7742C20.1903 61.0367 20.2554 61.3385 20.1251 61.4434C19.9882 61.555 19.7209 61.4237 19.5058 61.1613C19.2972 60.8989 19.232 60.5971 19.3623 60.4921ZM20.0012 59.6655C19.5905 59.718 19.2189 59.5146 18.8995 59.0554C18.8147 58.9373 18.9125 58.7667 19.0625 58.7864C19.2711 58.8126 19.4666 58.8782 19.6557 58.9766C19.747 59.0291 19.8578 59.0422 19.9556 59.0226C20.0403 59.0029 20.1251 59.0029 20.2098 59.0226C20.262 59.0291 20.2946 59.0619 20.3141 59.121C20.3337 59.2063 20.3402 59.285 20.3206 59.3703C20.2815 59.5474 20.1772 59.6458 20.0012 59.6655Z" fill="black"/>
    <path d="M52.1593 12.5597C51.3835 12.7762 50.8034 13.242 50.4122 13.9636C50.3144 14.1473 50.334 14.3179 50.4774 14.4753C50.6665 14.6787 50.7577 14.8952 50.7447 15.1248C50.7316 15.3545 50.836 15.4988 51.0511 15.5644L51.4292 15.6759C51.5987 15.7284 51.7617 15.5972 51.7551 15.4201L51.7291 14.9083C51.716 14.6787 51.8203 14.5278 52.0485 14.4688C52.2115 14.4229 52.2962 14.3048 52.2962 14.1276C51.8073 14.541 51.364 14.6066 50.9598 14.3113C50.7642 14.1736 50.7968 13.8718 51.012 13.7734C51.5856 13.5109 52.0159 13.1763 52.3093 12.7696C52.4592 12.5662 52.407 12.494 52.1593 12.5597Z" fill="black"/>
    <path d="M53.6262 14.5547C53.2937 14.6335 53.1242 14.8697 53.1047 15.2633C53.0981 15.4404 53.2872 15.5585 53.4436 15.4798C53.5675 15.4142 53.7044 15.1977 53.8609 14.8369C53.9261 14.6794 53.7892 14.5154 53.6262 14.5547Z" fill="black"/>
    <path d="M66.6836 19.5926C66.5271 19.6123 66.3837 19.6714 66.2598 19.7698C66.0642 19.9207 66.0447 20.0978 66.1946 20.3012C66.3315 20.4915 66.5141 20.5046 66.7422 20.3537C66.8205 20.3012 66.8791 20.2225 66.9117 20.1306L66.9704 19.9338C67.0551 19.6648 66.9573 19.5533 66.6836 19.5926Z" fill="black"/>
    <path d="M63.4042 22.5258C63.1239 22.6636 63.0196 22.8801 63.0783 23.1688C63.1174 23.3393 63.2021 23.4837 63.326 23.6018C63.4433 23.7133 63.6259 23.6936 63.7171 23.569C63.9844 23.2081 64.0366 22.8998 63.8605 22.6439C63.7562 22.4996 63.5672 22.4471 63.4042 22.5258Z" fill="black"/>
    <path d="M59.1476 22.7222C59.0303 22.6434 58.8803 22.65 58.7695 22.7353C58.5153 22.9255 58.4696 23.1748 58.6326 23.4832C58.7434 23.6997 59.0237 23.7522 59.2063 23.5947C59.2649 23.5357 59.2975 23.4701 59.291 23.3848C59.291 23.3126 59.291 23.2404 59.3171 23.1683C59.3758 22.9911 59.3236 22.8402 59.1476 22.7222Z" fill="black"/>
    <path d="M60.9855 22.8927C60.7117 22.7418 60.49 22.7811 60.3271 23.0239C60.1576 23.2863 60.2879 23.634 60.5878 23.7127C60.7899 23.7652 60.9594 23.7259 61.0833 23.6012C61.2919 23.3913 61.2462 23.037 60.9855 22.8927Z" fill="black"/>
    <path d="M10.2415 37.1231C10.2024 36.3293 10.0329 36.2965 9.72652 37.0378C9.53747 37.5036 9.5831 37.8316 9.86342 38.0219C10.737 38.6058 10.9977 39.3537 10.5153 40.3706C10.4632 40.469 10.4892 40.5412 10.6001 40.574L10.7826 40.6396C10.8739 40.6724 10.9391 40.6396 10.9782 40.5477L11.4867 39.3078C11.5714 39.1044 11.5258 38.9338 11.3432 38.8026C10.6457 38.2974 10.2741 37.7398 10.2415 37.1231Z" fill="black"/>
    <path d="M111.756 42.5162C112.206 42.339 112.525 42.0897 112.714 41.7551C112.897 41.4337 112.805 41.309 112.44 41.3812C111.71 41.5255 111.358 41.8273 111.391 42.28C111.41 42.5227 111.528 42.6014 111.756 42.5162Z" fill="black"/>
    <path d="M100.759 44.5888C100.922 44.8841 101.137 45.1399 101.404 45.3433C101.632 45.5204 101.704 45.7501 101.619 46.0256C101.469 46.5176 101.639 46.826 102.121 46.9572C102.33 47.0097 102.473 46.9375 102.551 46.7341C102.59 46.6357 102.604 46.5242 102.59 46.4127C102.571 46.288 102.48 46.1306 102.31 45.9534C101.952 45.5926 101.717 45.1596 101.6 44.661C101.554 44.4576 101.424 44.3395 101.215 44.3133L100.967 44.2739C100.791 44.2542 100.674 44.4379 100.759 44.5888Z" fill="black"/>
    <path d="M112.714 48.6959C113.164 48.5975 113.575 48.1842 113.933 47.4691C114.031 47.2788 113.881 47.0558 113.673 47.0754C112.897 47.1476 112.427 47.5412 112.278 48.2629C112.199 48.6369 112.343 48.7812 112.714 48.6959Z" fill="black"/>
    <path d="M10.2093 47.7638C10.4375 47.6195 10.3919 47.2783 10.1376 47.1931C10.0529 47.1668 9.86383 47.2193 9.58352 47.3571C9.45314 47.4227 9.4075 47.5867 9.49225 47.7113C9.65523 47.9475 9.88991 47.9672 10.2093 47.7638Z" fill="black"/>
    <path d="M10.1898 49.5682C10.4767 49.227 10.5418 48.8137 10.3463 48.6431C10.1442 48.4726 9.75304 48.6169 9.47272 48.958C9.18588 49.2992 9.12069 49.7125 9.31626 49.8831C9.51835 50.0537 9.9095 49.9093 10.1898 49.5682Z" fill="black"/>
    <path d="M113.008 49.4892C112.636 49.8435 112.5 50.3159 112.708 50.5389C112.923 50.762 113.399 50.6636 113.771 50.3093C114.142 49.955 114.279 49.4827 114.071 49.2596C113.855 49.0365 113.38 49.135 113.008 49.4892Z" fill="black"/>
    <path d="M9.72073 50.8808C9.33611 51.0711 9.19269 51.3794 9.29047 51.7993C9.49256 52.7309 9.42086 53.3214 9.52516 54.2005C9.5382 54.2858 9.59035 54.3317 9.6751 54.3252L9.83807 54.312C9.9489 54.3055 10.001 54.2464 10.001 54.1349C10.0076 53.1705 10.1119 52.252 10.327 51.3729C10.4117 51.0186 10.0467 50.7168 9.72073 50.8808Z" fill="black"/>
    <path d="M12.7907 54.9943C12.8559 54.7057 12.8885 54.4563 12.895 54.2398C12.9146 53.8134 12.7386 53.7019 12.38 53.8987C12.1714 54.0102 12.1193 54.1742 12.2301 54.3907L12.367 54.6532C12.4126 54.7516 12.4061 54.8369 12.3344 54.9156L12.1388 55.1321C11.9563 55.3355 12.0019 55.4536 12.2757 55.4732C12.543 55.4929 12.719 55.3355 12.7907 54.9943Z" fill="black"/>
    <path d="M9.46659 55.2763C9.60349 55.5059 9.81861 55.6043 10.112 55.5715C10.3662 55.5387 10.451 55.4009 10.3727 55.1582C10.3271 55.0007 10.2228 54.8826 10.0729 54.7973C9.87077 54.6924 9.66868 54.6924 9.46659 54.7908C9.17323 54.9286 8.86684 55.0335 8.53437 55.1122C8.34532 55.1516 8.34532 55.191 8.53437 55.2369C8.6843 55.2697 8.81468 55.25 8.93203 55.1647C9.15367 55.0073 9.32969 55.0466 9.46659 55.2763Z" fill="black"/>
    <path d="M17.5884 56.011C17.9404 56.011 18.2207 55.7289 18.2207 55.3747C18.2207 55.0204 17.9404 54.7383 17.5884 54.7383C17.2364 54.7383 16.9561 55.0204 16.9561 55.3747C16.9561 55.7289 17.2364 56.011 17.5884 56.011Z" fill="black"/>
    <path d="M11.1151 57.054L10.9847 56.8243C10.8673 56.621 10.6978 56.5685 10.4827 56.6538C10.1372 56.7981 9.77215 56.844 9.40056 56.785C9.23107 56.7587 9.1724 56.8243 9.21803 56.9884C9.24411 57.0736 9.31582 57.1261 9.42664 57.1524C9.51791 57.1786 9.60917 57.172 9.69392 57.1327C9.90905 57.0408 10.072 57.0933 10.1894 57.2901C10.4566 57.7297 10.8217 57.8215 11.2976 57.5526C11.5388 57.4214 11.8256 57.3885 12.0864 57.4738C12.2363 57.5198 12.3798 57.5985 12.5167 57.7035C12.7709 57.8937 12.9078 57.8347 12.9339 57.5132C12.9665 56.9818 12.8035 56.68 12.4384 56.5947C12.2168 56.5422 12.0342 56.6078 11.8843 56.785L11.6301 57.0933C11.441 57.3295 11.265 57.3164 11.1151 57.054Z" fill="black"/>
    <path d="M9.15955 58.5822C8.99005 58.8643 8.98354 59.1333 9.13999 59.3891C9.27689 59.6188 9.42683 59.6253 9.5898 59.4088C9.7593 59.1792 9.71367 58.8971 9.45291 58.5625C9.3486 58.4247 9.25082 58.4313 9.15955 58.5822Z" fill="black"/>
    <path d="M10.9003 59.6516C11.1675 59.6582 11.3044 59.3367 11.1154 59.153C10.9198 58.9627 10.6851 58.8184 10.4048 58.72C10.281 58.6741 10.1441 58.7659 10.1375 58.8971C10.1049 59.3826 10.3592 59.6319 10.9003 59.6516Z" fill="black"/>
    <path d="M12.5434 59.0874L12.3478 59.1465C12.1718 59.199 12.1066 59.3171 12.1457 59.4942C12.2891 60.1699 12.4586 60.8326 12.6477 61.4886C12.7324 61.7773 12.8628 61.9544 13.0323 62.02C13.3257 62.1316 13.6321 61.8888 13.5995 61.5739C13.5734 61.3574 13.4821 61.154 13.3257 60.9703C13.2018 60.8194 13.1171 60.6554 13.0779 60.4652L12.8041 59.2383C12.7715 59.094 12.6868 59.0415 12.5434 59.0874Z" fill="black"/>
    <path d="M10.848 60.4787C10.8154 60.4196 10.7697 60.3868 10.7045 60.3934L10.5025 60.4065C10.2091 60.4262 10.1113 60.5705 10.2221 60.8526C10.5025 61.5678 10.7437 62.0008 10.9457 62.1516C12.0409 62.9848 12.2235 62.8208 11.4868 61.653C11.4021 61.5284 11.1935 61.1348 10.848 60.4787Z" fill="black"/>
    <path d="M112.988 62.8672L113.314 62.9459C113.562 63.0049 113.751 62.9196 113.875 62.7031C114.097 62.3292 114.057 61.9093 113.764 61.4566C113.686 61.332 113.516 61.332 113.438 61.4501L112.812 62.421C112.662 62.6572 112.721 62.8081 112.988 62.8672Z" fill="black"/>
    <path d="M104.187 11.6354C102.766 10.7694 101.403 10.2249 100.1 9.99523C96.5728 9.39165 93.2742 10.1724 90.2102 12.3374C85.4905 15.6702 83.4761 20.0592 84.1736 25.5111C84.4018 27.3218 84.9624 28.8307 85.8555 30.0444C87.9547 32.8917 90.5036 34.978 93.3133 36.9199C95.4841 38.4223 97.8962 38.0746 100.269 38.0746C101.162 38.0812 102.055 37.6941 103.04 37.7531C103.203 37.7663 103.353 37.7203 103.489 37.6219C103.711 37.4579 103.77 37.3267 104.024 37.2021C105.895 36.2573 107.46 34.9452 108.724 33.2591C110.673 30.6611 112.955 27.6367 112.688 25.1043C112.049 19.1998 109.213 14.7123 104.187 11.6354ZM91.4098 26.3836C91.1881 26.3836 90.9925 26.3114 90.8296 26.1671C89.4019 24.96 89.0825 23.392 89.8843 21.4566C90.0212 21.1351 90.3341 20.9252 90.6796 20.9252C92.2507 20.9318 93.3263 21.5813 93.9131 22.8737C94.8192 24.8681 93.3981 26.3967 91.4098 26.3836ZM96.8922 14.1809L97.6354 13.6036C98.4698 12.9541 99.6693 13.105 100.315 13.9382L100.947 14.7582C101.592 15.598 101.443 16.8051 100.615 17.4546L99.8714 18.032C99.037 18.6815 97.8375 18.5306 97.1921 17.6974L96.5598 16.8773C95.9144 16.0375 96.0643 14.8304 96.8922 14.1809ZM101.045 33.1148L99.5716 33.8299C98.7567 34.2301 97.7788 33.948 97.2899 33.1738L96.7684 32.3472C96.4098 31.783 96.3968 31.0548 96.7358 30.4774L97.5181 29.1259C98.1504 28.05 99.6433 27.9254 100.439 28.8832L101.645 30.3462C102.388 31.245 102.094 32.6096 101.045 33.1148ZM107.864 25.0715C106.971 26.3246 105.387 26.7248 104.324 25.9637C103.255 25.1961 103.118 23.5626 104.011 22.3029C104.904 21.0498 106.488 20.6496 107.551 21.4107C108.62 22.1783 108.757 23.8119 107.864 25.0715Z" fill="black"/>
  </g>
  <defs>
    <clipPath id="clip0_578_3075">
      <rect width="123.333" height="80" fill="white" transform="translate(0.333008 0.166992)"/>
    </clipPath>
  </defs>
</svg>