<svg xmlns="http://www.w3.org/2000/svg" width="110" height="81" viewBox="0 0 110 81" fill="none">
  <g clip-path="url(#clip0_578_3125)">
    <path d="M109.948 79.4126L101.143 78.9626C100.99 78.9582 100.841 78.9891 100.706 79.0641C100.579 79.1347 100.452 79.1567 100.32 79.1302C100.097 79.0817 100.084 79.0067 100.29 78.8964C101.178 78.4244 102.146 78.2523 103.184 78.3891C103.332 78.4111 103.486 78.3979 103.63 78.3494C104.414 78.0979 105.211 78.0185 106.029 78.1023C106.17 78.1155 106.305 78.0935 106.432 78.0317C106.726 77.8949 107.023 77.8949 107.325 78.0405C107.579 78.1641 107.873 77.9699 107.868 77.6876C107.868 77.6655 107.833 77.6214 107.763 77.564C107.728 77.5376 107.689 77.5243 107.649 77.5199L101.704 77.4008C101.546 77.3964 101.537 77.3655 101.682 77.2993C102.606 76.867 103.591 76.6332 104.642 76.5979C105.526 76.567 106.148 76.1434 107.01 76.1523C107.268 76.1523 107.312 76.0552 107.141 75.8611C106.953 75.6449 106.546 75.7067 105.911 76.042C105.705 76.1523 105.5 76.1479 105.294 76.0376C104.895 75.8214 104.436 75.7287 103.924 75.764C103.722 75.7773 103.692 75.7067 103.827 75.5567C104.046 75.314 104.199 75.0669 104.291 74.8243C104.357 74.6566 104.436 74.6478 104.532 74.8022C104.646 74.9831 104.812 75.0802 105.027 75.0978C105.189 75.1111 105.211 75.0581 105.097 74.939C104.874 74.714 104.681 74.4669 104.51 74.1978C104.436 74.0787 104.471 74.0125 104.611 74.0037L106.253 73.9155C106.301 73.911 106.327 73.8846 106.332 73.836L106.345 73.7169C106.358 73.5934 106.305 73.5316 106.187 73.5316H104.782C104.633 73.5272 104.558 73.4522 104.554 73.3022C104.536 72.636 104.589 71.9787 104.712 71.3213C104.808 70.8139 104.747 70.4433 104.523 70.2095C102.321 67.8933 99.9351 65.9212 97.5665 63.7991C95.6008 62.0344 93.1884 59.6034 90.8899 57.6357C90.7017 57.4769 90.6185 57.221 90.671 56.9784C90.9862 55.5357 91.1438 54.0313 91.1438 52.4651C91.1395 37.7736 91.1088 23.0822 91.0607 8.3863C91.0607 6.42303 90.8987 5.01566 90.5878 4.16858C90.0274 2.62885 89.0292 1.5303 87.5976 0.864108C86.6213 0.409688 84.8875 0.184684 82.3964 0.184684C61.0706 0.189096 39.7405 0.184684 18.4103 0.167037C15.4201 0.167037 13.4718 0.0479167 11.5235 1.64942C10.1225 2.80091 9.42205 4.18623 9.42205 5.80979C9.40016 18.7497 9.40892 31.6941 9.44394 44.634C9.45708 48.7194 9.33011 53.0077 10.105 57.0225C10.2232 57.6137 10.0656 58.1563 9.63658 58.6549C7.59638 61.0373 5.17091 64.0726 2.85489 66.7374C1.91359 67.8183 -0.0302886 69.8521 0.000358157 71.3257C0.0178706 72.2831 0.210507 73.289 0.578269 74.3434C0.959164 75.4243 1.49767 76.2802 2.20255 76.9067C3.14822 77.7538 4.04135 78.3449 4.88195 78.6758C6.13409 79.1744 6.09031 79.3597 4.75061 79.2361C3.68235 79.1391 2.46523 79.2494 1.09489 79.567C0.906627 79.6067 0.766527 79.6861 0.670209 79.8053C0.560756 79.942 0.591403 79.9994 0.766527 79.9817C3.60792 79.6861 5.97648 79.6111 7.88096 79.7479C11.6505 80.017 14.3868 80.1538 16.0899 80.1582C41.5224 80.1759 66.9504 80.1538 92.3785 80.0965C94.2698 80.0965 96.1612 80.0347 98.0481 79.9156C98.3765 79.8979 98.6479 79.7391 98.9369 79.7347C102.601 79.7082 106.27 79.6773 109.943 79.6464C109.983 79.6464 110 79.6288 110 79.5891V79.47C110 79.4347 109.983 79.417 109.948 79.4126ZM101.502 73.8007C101.143 74.0478 100.653 73.8757 100.517 73.4566C100.412 73.1301 100.421 72.7684 100.544 72.3713C100.566 72.3051 100.631 72.261 100.701 72.2698L100.876 72.2963C101.003 72.3095 101.043 72.3801 101.003 72.5037L100.771 73.1963C100.714 73.3596 100.806 73.5404 100.973 73.589L101.113 73.6331C101.323 73.6993 101.463 73.6287 101.537 73.4213C101.651 73.0904 101.647 72.7507 101.52 72.4022C101.489 72.3095 101.516 72.2478 101.608 72.2125L101.717 72.1728C101.765 72.1595 101.818 72.1772 101.84 72.2169C102.199 72.8743 102.085 73.4037 101.502 73.8007ZM11.5192 6.68774C11.5542 1.93619 15.8141 2.20531 19.1546 2.20531C40.3227 2.22296 61.4909 2.22296 82.6591 2.20972C84.6336 2.20531 85.9777 2.39061 86.6869 2.75679C88.0967 3.48474 88.7884 4.87006 88.7578 6.91275C88.5783 19.513 88.9548 36.3177 88.8453 51.0312C88.841 51.8386 88.7709 53.1048 88.6396 54.8342C88.6308 54.9798 88.5827 55.1122 88.4951 55.2313C88.2849 55.5092 88.2018 55.8004 88.2455 56.096C88.2674 56.2637 88.2061 56.3122 88.0529 56.2416C87.6983 56.0784 87.3305 56.0916 86.954 56.2857C86.8752 56.321 86.7832 56.2813 86.7614 56.2019L86.7001 55.9769C86.6825 55.9063 86.7176 55.8357 86.7876 55.8136C87.9347 55.4872 88.2981 54.8739 87.8734 53.9695C87.8165 53.8504 87.8559 53.793 87.9829 53.8018C88.0792 53.8018 88.1536 53.7621 88.2018 53.6607C88.228 53.6121 88.2368 53.546 88.228 53.4621C88.158 52.8224 88.1273 52.1915 88.1361 51.565C88.1405 51.2077 88.031 51.1724 87.8165 51.4503C87.6195 51.7018 87.5844 52.0062 87.7114 52.3636C87.8778 52.8312 87.6589 53.3518 87.2035 53.5548C86.8402 53.718 86.4899 53.8857 86.1528 54.0577C85.9952 54.1371 85.8463 54.1283 85.7019 54.0313C85.5618 53.9386 85.5705 53.868 85.7281 53.8107C85.9558 53.7313 86.1834 53.6563 86.4155 53.5857C86.5512 53.546 86.6475 53.4577 86.7001 53.321C86.827 52.9989 87.0547 52.7871 87.383 52.6945C87.5407 52.6504 87.5669 52.5665 87.4662 52.4386C87.3918 52.3459 87.2824 52.3062 87.1335 52.3151C86.989 52.3283 86.9102 52.2577 86.9015 52.1077C86.9015 52.015 86.9496 51.9268 87.0591 51.8474C87.44 51.5695 87.6457 51.2959 87.6808 51.0268L85.9908 51.2077C85.7719 51.2297 85.588 51.04 85.6187 50.8238L85.8201 49.3679C85.842 49.2312 85.9164 49.1826 86.0477 49.2224C86.2053 49.2709 86.3629 49.2841 86.5206 49.2665C86.665 49.2488 86.7614 49.1694 86.8008 49.0238C86.8971 48.6797 87.0678 48.4194 87.3174 48.2429C87.4794 48.1282 87.4619 48.062 87.2648 48.0444C87.0722 48.0267 86.8927 47.965 86.7263 47.8591C86.5906 47.7753 86.5775 47.6738 86.6869 47.5591C87.1116 47.1091 87.44 47.2988 87.6676 48.1238C87.707 48.265 87.6983 48.415 87.637 48.5473C87.2955 49.3106 86.8358 49.9062 86.2623 50.3341C86.144 50.418 86.1222 50.5238 86.1966 50.6518L86.3235 50.8724C86.398 51.0047 86.4899 51.0136 86.5906 50.9033L87.4881 49.9238C87.5932 49.8091 87.6589 49.8312 87.6851 49.9856C87.7464 50.3297 87.7464 50.6783 87.6851 51.0268L87.7902 51.1415C87.8953 51.2562 87.9697 51.2386 88.0179 51.0886C88.1448 50.6783 88.1624 50.2635 88.0617 49.8488C88.0266 49.7121 87.9566 49.5974 87.8471 49.5135C87.707 49.3988 87.7027 49.2356 87.8384 49.0194C87.8471 49.0062 87.8603 48.9973 87.8778 48.9929C87.9084 48.9885 87.9478 48.9885 87.9872 48.9929C88.0179 48.9973 88.0398 48.9797 88.0485 48.9488C88.2061 48.287 88.1405 47.6694 87.8471 47.0914C87.7815 46.9635 87.7858 46.84 87.8559 46.7164C88.0748 46.337 88.0485 45.9664 87.7727 45.6046C87.6983 45.5032 87.707 45.4105 87.799 45.3267L87.9303 45.2076C88.0004 45.1458 88.031 45.0487 88.0047 44.9561C87.9741 44.8193 87.8997 44.7267 87.7902 44.6781C87.6501 44.612 87.5888 44.5061 87.6063 44.3517C87.6195 44.2414 87.6501 44.1311 87.6983 44.0296C87.7552 43.8973 87.7815 43.7605 87.7683 43.6149C87.6501 42.0487 87.602 40.4825 87.6326 38.9163C87.637 38.5633 87.51 38.1795 87.4443 37.8265C87.4137 37.6633 87.3524 37.6545 87.2605 37.7913C87.1685 37.928 87.1291 38.0824 87.151 38.2501C87.1598 38.3295 87.2254 38.4619 87.3436 38.6516C87.5363 38.956 87.5319 39.2648 87.3305 39.5781C87.2123 39.7589 87.151 39.9045 87.151 40.006C87.151 40.2222 87.2167 40.4207 87.3612 40.6016C87.4356 40.6943 87.4443 40.7869 87.3787 40.8884L87.2955 41.0119C87.2123 41.1487 87.1992 41.2898 87.2605 41.4354C87.4443 41.8722 87.3612 42.2031 87.0634 42.5516C86.9671 42.6663 86.9015 42.7943 86.8708 42.9399C86.8358 43.0855 86.8927 43.1561 87.0416 43.1516L87.2473 43.1428C87.4356 43.134 87.51 43.2222 87.4619 43.4075C87.3787 43.734 87.1773 43.9678 86.8621 44.109C86.7088 44.1796 86.757 44.409 86.9233 44.4134C87.1379 44.4223 87.2955 44.4884 87.3962 44.612C87.5494 44.7929 87.5188 44.9384 87.3042 45.0399C87.0022 45.1811 86.7745 45.3752 86.6213 45.6223C86.363 46.0326 85.7456 45.9443 85.6012 45.4811C85.5399 45.2782 85.5793 45.0752 85.7237 44.8679C85.8595 44.6737 85.8726 44.4179 85.7588 44.2105C85.6231 43.9678 85.6274 43.7296 85.7807 43.4958C85.877 43.3502 85.8814 43.2046 85.7894 43.059C85.7675 43.0193 85.7413 42.984 85.7106 42.9443C85.6449 42.8649 85.6143 42.7722 85.6143 42.6708C85.5749 32.0691 85.5661 21.4718 85.5793 10.8702C85.5793 7.28776 85.2859 5.97303 81.3281 5.9642C60.427 5.91567 40.4716 5.91567 21.4575 5.97303C20.9803 5.97303 20.6344 5.93773 20.4199 5.86273C20.2841 5.8142 20.1484 5.80096 20.0039 5.8142C18.4979 5.98185 16.7729 5.8142 15.2887 6.78039C15.1661 6.85981 15.0829 6.9701 15.0392 7.11128C14.8159 7.83924 14.7064 8.76573 14.7108 9.89075C14.7633 22.7954 14.8027 35.7 14.829 48.6047C14.8334 50.3209 14.8115 51.6974 15.5208 52.8798C15.6258 53.0518 15.582 53.1754 15.3938 53.246L15.2493 53.3033C15.0873 53.3651 14.9516 53.321 14.8509 53.1754C14.2949 52.3856 14.076 51.6224 14.1854 50.89C14.2073 50.7356 14.1635 50.7136 14.0541 50.8238L13.682 51.2121C13.5637 51.3312 13.5594 51.4592 13.6601 51.5959C14.2555 52.3724 13.8483 53.0871 14.7196 53.8063C14.9516 53.996 14.991 54.1857 15.0129 54.4636C15.2581 54.9269 15.7003 55.0989 16.3438 54.9754C16.4927 54.9489 16.5321 55.0019 16.4577 55.1342C16.357 55.3239 16.2213 55.4783 16.0549 55.5975C15.9235 55.6901 15.7966 55.6813 15.6784 55.5798C15.5864 55.5004 15.5164 55.3989 15.4726 55.2798C15.4332 55.1783 15.3675 55.0989 15.2668 55.046C15.0479 54.9357 14.9647 54.7416 15.0129 54.4636C14.3824 54.2386 13.9315 53.7798 13.6557 53.096C13.625 53.0298 13.5813 53.0077 13.5156 53.0386L13.3536 53.1136C13.2879 53.1445 13.2704 53.193 13.3011 53.2592C13.6119 53.9474 13.7389 54.8607 14.6758 54.9313C14.9034 54.9445 15.0523 55.1872 14.9604 55.3989C14.8684 55.6107 14.7415 55.7916 14.5707 55.9416C14.435 56.0695 14.4525 56.1048 14.632 56.0563C15.0567 55.946 15.442 56.0475 15.7966 56.3695C15.9148 56.4798 15.8973 56.5548 15.744 56.6034C15.3763 56.7137 15.0085 56.6916 14.6451 56.5416C14.5094 56.4842 14.3693 56.4622 14.2248 56.4754C13.6907 56.524 13.1653 56.4754 12.6531 56.3254C12.513 56.2857 12.4167 56.1931 12.3641 56.0563C12.0445 55.2489 11.8738 54.4195 11.8519 53.568C11.4097 37.9457 11.4141 22.3145 11.5235 6.68774H11.5192ZM86.7789 54.6048C86.9015 54.3798 87.0416 54.2827 87.1992 54.3048C87.3743 54.3357 87.4356 54.4327 87.3787 54.6048C87.3218 54.7945 87.1817 54.8916 86.9628 54.9004C86.7263 54.9136 86.665 54.8122 86.7789 54.6048ZM85.1765 53.1621C85.1064 53.2901 85.0758 53.2812 85.0802 53.1357C85.0845 53.0695 85.067 53.0121 85.0364 52.9548C84.9707 52.8268 84.87 52.7915 84.7387 52.8533C84.3753 53.0298 83.9856 53.0562 83.5785 52.9283C83.4165 52.8798 83.2414 52.9151 83.1056 53.021C82.9261 53.1621 82.7291 53.1798 82.519 53.0695C82.3745 52.9945 82.2213 52.9636 82.0593 52.968L71.8189 53.1754C71.7182 53.1798 71.6262 53.1577 71.5387 53.1136C71.4993 53.096 71.4642 53.0783 71.4248 53.0607C71.3854 53.043 71.3417 53.0342 71.2935 53.0342C61.9637 53.2283 52.6384 53.2283 43.3086 53.0298C41.1327 52.9857 38.7817 53.1709 36.4569 53.1842C29.754 53.2151 23.0205 53.2107 16.2563 53.1621C16.2169 53.1621 16.1994 53.1445 16.1994 53.1092V52.9945C16.1906 52.8754 16.2475 52.818 16.3614 52.8136C18.3446 52.7386 21.0591 52.7033 24.5046 52.7165C25.5992 52.7165 26.6762 52.5577 27.7313 52.5445C36.4613 52.4342 42.1747 52.4077 44.876 52.4695C55.1864 52.6989 63.6143 52.7033 70.1596 52.4871C70.304 52.4827 70.5886 52.5136 71.0133 52.5886C71.3986 52.6592 71.8232 52.5401 72.2041 52.5886C73.4782 52.7607 74.5114 52.7871 75.2995 52.668C76.0919 52.5489 76.7968 52.5092 77.4053 52.5489C77.9526 52.5842 78.5174 52.5886 79.0909 52.5577C79.6382 52.5268 80.1986 52.5665 80.7809 52.6724C80.9998 52.7121 81.1968 52.6724 81.3719 52.5577C81.442 52.5136 81.5208 52.4871 81.5996 52.4871L84.7299 52.4121C84.8043 52.4121 84.8656 52.443 84.9094 52.5048L84.9795 52.6062C85.0539 52.7165 85.1327 52.7165 85.2071 52.6062C85.5005 52.1959 85.8682 51.8695 86.3104 51.6268C86.4461 51.5518 86.4899 51.5871 86.4374 51.7371C86.3323 52.0239 86.1834 52.2842 85.9952 52.5136C85.9033 52.6239 85.7894 52.7077 85.6537 52.7562C85.4436 52.8312 85.2859 52.9636 85.1765 53.1577V53.1621ZM85.3516 57.1284C85.3472 57.1725 85.321 57.1901 85.2816 57.1857C84.7737 57.1372 84.2658 57.0798 83.7624 57.0225C83.6967 57.0225 83.666 56.9784 83.6704 56.9078H83.6748C83.6792 56.8372 83.7186 56.8063 83.7842 56.8107C84.2965 56.8416 84.8 56.9254 85.3034 57.0534C85.3428 57.0622 85.356 57.0887 85.3516 57.1284ZM84.7124 63.6976C83.7142 63.6888 82.9568 63.8167 82.4445 64.0859C81.5208 64.5623 81.3237 64.3682 80.562 63.8167C80.0979 63.4814 80.1504 63.3403 80.7196 63.3888C81.9761 63.4991 83.3245 63.5211 84.7693 63.4506C84.7824 63.4461 84.7956 63.4594 84.7956 63.477V63.6094C84.8 63.6667 84.7693 63.6976 84.7124 63.6976ZM85.6318 65.0344C85.75 64.9506 85.8682 64.955 85.9864 65.0388C86.4286 65.3609 86.7745 65.7491 87.0197 66.2035C87.0678 66.2918 87.0065 66.4065 86.9015 66.4065L83.1144 66.4859C82.8035 66.4903 82.5146 66.3359 82.3482 66.0756L81.8447 65.2991C81.6127 64.9418 81.7046 64.8094 82.1162 64.9109C83.4384 65.2285 84.3665 65.9212 85.6318 65.0344ZM69.7831 64.2667C69.516 64.2712 69.3277 64.1565 69.2139 63.9138L68.9293 63.3006C68.8242 63.0756 68.8943 62.9564 69.1438 62.952C70.0808 62.9255 71.1578 63.1726 72.3749 63.6888C72.6682 63.8167 72.839 64.002 72.8871 64.2491C72.909 64.3638 72.874 64.4035 72.7777 64.3726C72.7558 64.3682 72.7383 64.3594 72.7208 64.3462C72.6726 64.3153 72.6332 64.2976 72.6026 64.2976C71.6175 64.2579 70.6762 64.2491 69.7831 64.2667ZM70.2471 66.1815C70.1858 66.2697 70.0895 66.3271 69.9582 66.3536C69.678 66.4109 69.4109 66.3933 69.157 66.305C68.9512 66.2388 68.9468 66.1594 69.1438 66.0668L69.9231 65.7094C70.0151 65.6653 70.1289 65.6874 70.199 65.7624C70.3259 65.8991 70.3434 66.0403 70.2471 66.1815ZM16.6021 64.7035C17.2808 64.6329 18.0469 64.752 18.9094 65.0609C19.1765 65.1535 19.3253 65.4447 19.2465 65.7182C19.1371 66.0933 18.8569 66.2785 18.3972 66.2785C17.2545 66.2785 16.1775 66.3359 15.1574 66.4462C15.0041 66.4638 14.9122 66.2785 15.0173 66.1638L16.068 64.9815C16.2125 64.8182 16.3876 64.7256 16.6021 64.7035ZM16.624 63.8079C16.6766 63.6756 16.7598 63.5653 16.878 63.4814C17.0049 63.3888 17.145 63.3711 17.2939 63.4329L18.1695 63.8035C18.3227 63.8653 18.314 63.8917 18.1476 63.8829C17.6485 63.852 17.3596 63.7991 16.7641 63.9667C16.6109 64.0109 16.5627 63.9579 16.624 63.8079ZM18.5854 62.1314C18.3797 62.1226 18.222 61.9505 18.2264 61.7432V61.6991C18.2352 61.4917 18.4103 61.3285 18.6117 61.3373L23.6947 61.5182C23.9005 61.527 24.0581 61.6991 24.0537 61.9064V61.9505C24.0449 62.1579 23.8698 62.3211 23.6684 62.3123L18.5854 62.1314ZM34.3423 56.921C34.3773 56.9254 34.3948 56.9431 34.3948 56.9784C34.3992 57.049 34.3641 57.0798 34.2985 57.0843C29.2155 57.1416 24.1325 57.1504 19.0451 57.1151C18.546 57.1151 17.7799 56.9828 16.7422 56.7313C16.6021 56.696 16.5803 56.621 16.6766 56.5107C16.7116 56.471 16.751 56.4401 16.7948 56.4225C16.9305 56.3651 17.0312 56.4004 17.1056 56.5284C17.1582 56.621 17.2282 56.696 17.3158 56.7534C17.3815 56.7931 17.4471 56.8107 17.5172 56.8151C23.0993 56.8328 28.7076 56.8681 34.3423 56.921ZM18.0557 55.5489C18.2702 55.1166 18.5373 54.7283 18.8613 54.3842C18.9838 54.2563 19.0232 54.2739 18.9751 54.446C18.9269 54.6357 18.8306 54.8033 18.6861 54.9401C18.6029 55.0195 18.546 55.1122 18.511 55.2225C18.4453 55.4122 18.3315 55.5533 18.1695 55.6504C18.0163 55.7431 17.9769 55.7122 18.0557 55.5489ZM19.6274 55.4916C19.6362 55.4475 19.6581 55.4078 19.6887 55.368C19.7106 55.3416 19.7237 55.3107 19.7237 55.271C19.7106 55.0636 19.7456 54.8827 19.8376 54.7283C19.9251 54.5739 19.9996 54.5827 20.0565 54.7504C20.1878 55.1342 20.0827 55.4078 19.7413 55.5798C19.6406 55.6328 19.6055 55.6019 19.6274 55.4916ZM21.0109 55.3151C21.1948 54.8475 21.4881 54.5077 21.7026 54.1063C21.7026 54.0886 21.707 54.071 21.707 54.0533C21.707 54.0533 21.707 54.0445 21.7114 54.0533H21.7158C21.7158 54.0533 21.7245 54.0666 21.7245 54.071C21.7158 54.0842 21.7114 54.0974 21.7026 54.1107C21.6939 54.6357 21.5056 55.068 21.1379 55.4078C20.9671 55.5622 20.9277 55.5357 21.0109 55.3195V55.3151ZM20.4593 63.6756C20.4593 63.477 21.961 63.3535 23.8041 63.3932L24.0537 63.402C24.1675 63.402 24.2551 63.4991 24.2551 63.6138L24.2376 64.3109C24.2376 64.4256 24.1413 64.5138 24.0274 64.5138L23.7779 64.505C21.9347 64.4653 20.4461 64.2712 20.4505 64.0726L20.4593 63.6756ZM20.595 65.4227C20.6694 65.2329 20.7964 65.18 20.9846 65.255C21.8821 65.6212 22.7446 65.6344 23.5721 65.2947C24.1237 65.0697 24.5922 65.1888 24.9731 65.6521C25.1964 65.9256 25.0169 66.3359 24.6666 66.3536C23.9005 66.3933 23.0949 66.3756 22.2543 66.3094C22.1098 66.2962 21.9741 66.3183 21.8427 66.3756C21.545 66.4991 21.2342 66.5344 20.9058 66.4815C20.7526 66.4594 20.6475 66.3756 20.5862 66.2344C20.4768 65.9874 20.4812 65.7182 20.595 65.4227ZM24.0099 58.9417C23.8654 58.9637 23.7779 59.0431 23.7472 59.1843C23.6903 59.4402 23.5633 59.6431 23.3663 59.7975C23.2087 59.9211 23.0292 59.974 22.8278 59.952C21.799 59.8461 20.6169 59.9784 19.2816 60.3446C19.2071 60.3667 19.1458 60.2828 19.1896 60.2167L19.9339 59.1225C19.9733 59.0652 20.0302 59.0299 20.1003 59.0211C22.8016 58.6902 25.4985 58.6019 28.1954 58.7475C28.5675 58.7696 28.6551 58.6813 28.9791 58.5931C29.0973 58.5622 29.1411 58.6063 29.1104 58.7255L28.8171 59.8328C28.7777 59.9828 28.6814 60.0358 28.5369 59.9961C28.4712 59.9784 28.4055 59.9343 28.3486 59.8681C28.2567 59.7578 28.1385 59.6872 28.0027 59.6564C27.2804 59.4843 26.558 59.4578 25.8268 59.5725C25.6867 59.5946 25.5685 59.5549 25.4722 59.4446C25.0869 59.0167 24.601 58.849 24.0099 58.9417ZM25.3146 61.3858C25.3277 61.1696 25.4416 61.0417 25.6561 61.0108C26.79 60.8299 27.8232 60.8167 28.7558 60.9667C29.2549 61.0461 29.5701 61.2755 29.7015 61.6505C29.7671 61.8358 29.6358 62.0344 29.4388 62.0388L25.6035 62.1623C25.4197 62.1711 25.2708 62.0167 25.2839 61.8314L25.3146 61.3858ZM30.5026 63.6094V63.6888C30.5158 63.8917 30.3625 64.0638 30.1655 64.0726L26.5098 64.2712C26.3084 64.2844 26.1377 64.13 26.1289 63.927V63.8476C26.1158 63.6447 26.269 63.4726 26.466 63.4638L30.1218 63.2653C30.3231 63.252 30.4939 63.4064 30.5026 63.6094ZM30.4238 61.3682C30.5858 61.2623 30.6909 61.302 30.7391 61.4917C30.7785 61.6417 30.7785 61.7829 30.7303 61.9196C30.6603 62.1358 30.3669 62.1579 30.2619 61.9549C30.1436 61.7123 30.1962 61.5182 30.4238 61.3682ZM26.0019 65.8594L26.1552 65.4756C26.2471 65.2506 26.466 65.1006 26.7112 65.1006C27.8364 65.1094 28.6638 65.0388 29.1936 64.8888C29.7146 64.7432 30.0736 64.6682 30.275 64.655C30.507 64.6418 30.7084 64.8094 30.7478 65.0388L30.8923 65.8771C30.9405 66.155 30.8222 66.3006 30.5464 66.3227C30.1174 66.358 29.7496 66.3359 29.4388 66.2521C29.3118 66.2168 29.1805 66.1991 29.0491 66.1991L26.2165 66.1815C25.9888 66.1815 25.9188 66.0756 26.0019 65.8594ZM30.1612 59.5461C29.9379 59.5681 29.8022 59.4667 29.7452 59.2505L29.5964 58.6593C29.5657 58.5269 29.6139 58.4608 29.7496 58.4608L35.3054 58.4255C35.4324 58.4255 35.5156 58.4828 35.555 58.6019L35.879 59.5152C35.949 59.7137 35.8877 59.7799 35.6907 59.7137L35.1741 59.5417C35.0384 59.4931 34.907 59.4975 34.7713 59.5505C34.5699 59.6299 34.3729 59.6475 34.1759 59.599C34.0314 59.5681 33.9745 59.4799 34.0139 59.3343C34.0533 59.1843 34.0577 59.0387 34.0358 58.8931C34.0051 58.7034 33.9438 58.6946 33.8519 58.8578C33.7731 58.9946 33.7293 59.1446 33.7162 59.3078C33.7074 59.4534 33.6286 59.524 33.4841 59.5284C33.3178 59.5328 33.1645 59.4931 33.0201 59.4093C32.9019 59.3431 32.7793 59.3122 32.6479 59.3255L30.1612 59.5461ZM31.9649 61.024C31.9693 60.8917 32.0744 60.7902 32.2057 60.7946L35.6907 60.8917C36.0672 60.9005 36.3649 61.1696 36.3562 61.4917V61.6329C36.343 61.9549 36.0322 62.2064 35.6557 62.1976L32.1707 62.0961C32.0394 62.0961 31.9387 61.9858 31.943 61.8535L31.9649 61.024ZM34.7669 63.1064C35.9271 63.0491 36.8772 63.1726 36.8903 63.3888C36.9034 63.6006 35.9709 63.8211 34.8063 63.8829C33.6461 63.9403 32.6961 63.8167 32.6829 63.6006C32.6698 63.3888 33.6023 63.1682 34.7669 63.1064ZM32.95 64.5094L36.9385 64.655C36.9998 64.6594 37.0523 64.6991 37.0698 64.7565L37.5032 66.155C37.5339 66.2521 37.4638 66.3447 37.3631 66.3447L32.9807 66.2477C32.9062 66.2433 32.8449 66.1815 32.8406 66.1065L32.8012 64.6594C32.7968 64.5756 32.8668 64.5094 32.95 64.5094ZM36.8991 59.6828C36.759 59.6961 36.6977 59.6343 36.7196 59.4931C36.7765 59.074 36.7283 58.6725 36.5751 58.2799C36.5269 58.1608 36.5663 58.099 36.6933 58.1034L41.2421 58.2534C41.3954 58.2578 41.5355 58.3416 41.6099 58.474C41.8113 58.8225 41.7019 59.0519 41.2772 59.1622C41.1502 59.1931 41.1371 59.2505 41.2421 59.3343C41.2816 59.3652 41.3253 59.3828 41.3779 59.3961C41.4348 59.4093 41.4917 59.4005 41.5442 59.3696C41.8901 59.1578 42.1791 59.2108 42.4111 59.524C42.503 59.6475 42.4768 59.6828 42.3323 59.6343C41.9952 59.5196 41.6668 59.5196 41.3428 59.6299C41.2027 59.6784 41.0626 59.6917 40.9182 59.6784C39.5741 59.5505 38.2344 59.5505 36.8991 59.6828ZM38.0636 61.0682L42.6169 61.1476C42.7351 61.152 42.7964 61.2093 42.8051 61.3285L42.8708 62.1579C42.8796 62.2417 42.8051 62.3079 42.7263 62.2902C41.4085 62.0476 40.0688 61.9505 38.716 61.9946C38.3964 62.0035 38.1337 61.8844 37.9367 61.6329C37.8841 61.5667 37.8447 61.4961 37.8141 61.4167C37.7528 61.2446 37.8798 61.0637 38.0636 61.0682ZM42.9365 63.2608L42.9496 63.3667C42.9715 63.5476 42.8489 63.7153 42.6694 63.7417L39.7054 64.1653C39.5259 64.1917 39.3596 64.0682 39.3333 63.8829L39.3202 63.777C39.2983 63.5961 39.4209 63.4285 39.6004 63.402L42.5643 62.9785C42.7438 62.952 42.9102 63.0755 42.9365 63.2608ZM39.1407 64.9991C39.1538 64.8359 39.2414 64.7697 39.399 64.7962C39.5347 64.8138 39.6485 64.8756 39.7492 64.9771C39.8499 65.0785 39.9725 65.1359 40.1126 65.1491C40.8656 65.2197 41.7369 65.1756 42.7263 65.0212C43.1773 64.9506 43.4662 65.1359 43.5932 65.5727L43.672 65.8285C43.7902 66.2388 43.637 66.4418 43.2123 66.433L39.6047 66.3668C39.4559 66.3624 39.3552 66.2918 39.3026 66.155C39.1538 65.7712 39.1013 65.3874 39.1407 64.9991ZM43.4443 59.4358L43.5144 58.8446C43.5363 58.6593 43.6983 58.5225 43.8865 58.5358L45.4057 58.6284C45.4714 58.6328 45.5415 58.6593 45.594 58.7034L46.277 59.2328C46.544 59.4402 46.3952 59.8681 46.0581 59.8637L43.7902 59.8284C43.5801 59.8284 43.4225 59.6431 43.4443 59.4358ZM48.7506 59.5373C48.9257 59.5328 49.0439 59.4446 49.1009 59.2814C49.1622 59.1137 49.2366 58.9505 49.3285 58.7961C49.4029 58.6637 49.5168 58.5931 49.6656 58.5799C50.8039 58.4916 51.9247 58.5181 53.0324 58.6593C53.0806 58.6637 53.0893 58.6858 53.0543 58.7255L52.2224 59.6123C52.1568 59.6828 52.0736 59.7225 51.9773 59.727C51.1192 59.7578 50.3311 59.8108 49.6131 59.8858C48.9214 59.9608 48.3785 59.6122 47.7436 59.7402C47.6605 59.7578 47.6123 59.7225 47.6035 59.6387L47.4941 58.5799C47.4853 58.4916 47.5247 58.4475 47.6123 58.4475L48.79 58.4255C49.0571 58.4211 49.079 58.4872 48.8557 58.6328C48.6412 58.7696 48.5142 58.9769 48.4835 59.2505C48.466 59.4093 48.593 59.5461 48.7506 59.5373ZM78.5787 56.8063C78.64 56.8063 78.6925 56.8504 78.6925 56.9122C78.6925 56.974 78.6487 57.0269 78.5874 57.0269L69.1351 57.5078C69.0738 57.5078 69.0213 57.4637 69.0213 57.4019C69.0213 57.3401 69.065 57.2872 69.1263 57.2872L78.5787 56.8063ZM76.0175 54.8077C76.0569 54.5695 76.1795 54.393 76.2933 54.4151C76.4071 54.4371 76.464 54.6445 76.4203 54.8827C76.3809 55.121 76.2583 55.2975 76.1444 55.2754C76.0306 55.2533 75.9737 55.046 76.0175 54.8077ZM81.7747 59.8064C81.8754 59.8681 81.8666 59.899 81.7484 59.8946L78.5743 59.8373C78.4298 59.8373 78.3247 59.7711 78.2634 59.6343C78.1671 59.4225 78.1628 59.224 78.2547 59.0387C78.3291 58.8843 78.4736 58.7784 78.6881 58.7122C80.3387 58.2181 80.5838 59.0564 81.7747 59.8064ZM77.8037 58.7961C77.5936 58.9152 77.3703 58.9946 77.1295 59.0387C76.9675 59.0696 76.8887 59.1667 76.8887 59.3299V59.4799C76.8887 59.6211 76.8187 59.6872 76.6786 59.6828C76.2626 59.6696 75.8993 59.5505 75.5797 59.3167C75.4221 59.202 75.2863 59.224 75.1725 59.3784C75.063 59.524 74.9361 59.6475 74.7829 59.749C74.6778 59.8196 74.5508 59.8549 74.4195 59.8505L72.1429 59.7975C72.0597 59.7931 72.0028 59.7534 71.9677 59.6784L71.3373 58.3152C71.3066 58.249 71.3241 58.2137 71.3986 58.2181C72.4012 58.2534 73.1586 58.6372 73.6708 59.3696C73.754 59.4887 73.8722 59.5505 74.0167 59.5461C74.4151 59.5372 74.6384 59.2902 74.6865 58.8093C74.6997 58.6637 74.7741 58.5799 74.9186 58.5534C75.5271 58.4343 76.1007 58.5137 76.6348 58.7872C76.7617 58.8534 76.8756 58.8402 76.985 58.7519C77.2258 58.549 77.4929 58.4961 77.7862 58.5975C77.9482 58.6505 77.9526 58.7166 77.8037 58.7961ZM69.2489 58.6108C69.4416 58.5446 69.6035 58.5887 69.7393 58.7431L70.6674 59.7887C70.7594 59.8902 70.7375 59.9387 70.6018 59.9343L67.8611 59.8681C67.6947 59.8637 67.6816 59.8152 67.8217 59.7225C68.1982 59.4622 68.2638 59.1269 68.0143 58.7211C67.9661 58.6372 67.988 58.5931 68.0843 58.5975C68.1237 58.6019 68.1588 58.6196 68.1982 58.6505C68.2288 58.6813 68.2682 58.699 68.3164 58.699C68.7586 58.7034 69.0694 58.6725 69.2489 58.6108ZM68.671 57.5696L50.423 57.5387C50.3661 57.5387 50.318 57.4946 50.318 57.4328C50.318 57.371 50.3661 57.3269 50.423 57.3269L68.671 57.3578C68.7279 57.3578 68.7761 57.4019 68.7761 57.4637C68.7761 57.5254 68.7279 57.5696 68.671 57.5696ZM61.1932 58.8225L60.4796 58.9769C60.2694 59.0211 60.2037 59.1446 60.2782 59.3475L60.4314 59.7402C60.4839 59.8858 60.4358 59.9608 60.2826 59.9652C59.8579 59.9828 59.4157 59.7402 58.9647 59.2328C58.8991 59.1578 58.7765 59.1931 58.759 59.2902C58.759 59.3299 58.7677 59.3696 58.8027 59.4181C58.8334 59.4622 58.8246 59.4843 58.7721 59.4799L57.0822 59.3872C56.9114 59.3784 56.7538 59.4181 56.6093 59.502C55.992 59.8681 55.3703 59.8946 54.7442 59.5858C54.6786 59.5549 54.6041 59.5328 54.5297 59.5284C54.359 59.5196 54.2232 59.5505 54.1226 59.6211C54 59.7137 53.9518 59.6828 53.9781 59.5284L54.1313 58.6902C54.1532 58.571 54.2232 58.5093 54.3458 58.5049L56.0226 58.474C56.0883 58.474 56.1321 58.5049 56.154 58.5711L56.189 58.6858C56.2197 58.7784 56.281 58.8269 56.3817 58.8269C57.6469 58.849 58.8991 58.7519 60.1424 58.5402C61.1844 58.3637 62.0601 58.624 63.0714 58.5269C63.3691 58.5005 63.6581 58.6593 63.7938 58.9284L64.0696 59.4667C64.201 59.7181 64.1265 59.8461 63.842 59.8461L61.6441 59.8373C61.434 59.8328 61.3727 59.7358 61.4646 59.5461L61.5741 59.3034C61.6923 59.0475 61.469 58.7608 61.1932 58.8225ZM60.2694 62.4314C59.2143 62.1358 58.2205 62.1094 57.2792 62.3564C57.0997 62.4049 56.9727 62.3432 56.8983 62.1755L56.548 61.3902C56.4955 61.2711 56.583 61.1387 56.7144 61.1387L59.8885 61.2182C60.2431 61.227 60.4664 61.4035 60.5584 61.7476L60.6459 62.0564C60.7423 62.4049 60.6153 62.5329 60.2694 62.4314ZM62.0995 61.2226C63.1458 61.1917 65.8997 60.9182 66.7271 61.6373C66.8541 61.7476 66.9023 61.8844 66.8629 62.0388C66.8234 62.1932 66.7315 62.2417 66.5826 62.1888C65.2999 61.7343 63.9251 61.7211 62.4628 62.1579C62.1914 62.2417 61.9988 62.1491 61.8893 61.8888C61.8412 61.7785 61.8105 61.6593 61.8061 61.5358C61.7974 61.3682 61.9331 61.227 62.0995 61.2226ZM65.7027 59.7755C65.5538 59.8064 65.4487 59.7534 65.383 59.6123C65.2561 59.3343 65.2517 59.0564 65.3655 58.7784C65.4225 58.6372 65.5231 58.5402 65.6632 58.4872C66.1229 58.3152 66.6396 58.3108 67.2175 58.4828C67.4014 58.5358 67.4276 58.6328 67.3007 58.7784C66.8278 59.3122 66.2937 59.6475 65.7027 59.7755ZM48.396 57.499C47.5773 57.5431 46.7629 57.5299 45.9399 57.4637C45.8829 57.4725 45.8304 57.4813 45.7735 57.4813C45.7779 57.4637 45.7866 57.4549 45.8041 57.4549C45.8479 57.4549 45.8961 57.4549 45.9399 57.4637C45.9486 57.4637 45.9574 57.4637 45.9661 57.4637C46.7848 57.2696 47.5948 57.274 48.396 57.4725C48.4047 57.4725 48.4091 57.4813 48.4091 57.4901C48.4091 57.499 48.4047 57.5034 48.396 57.5034V57.499ZM44.1886 61.2226L48.2515 61.1211C48.3259 61.1167 48.3872 61.1652 48.4091 61.2314L48.6587 62.0829C48.6893 62.1888 48.6105 62.2947 48.5011 62.2858L45.3138 62.1049C45.2744 62.1049 45.235 62.1138 45.2043 62.1358L44.6833 62.555C44.5958 62.6211 44.4732 62.5858 44.4382 62.4844L44.0441 61.4343C44.0047 61.3329 44.0792 61.2226 44.1886 61.2226ZM45.0029 63.7461C45.0029 63.5917 45.1299 63.4638 45.2831 63.4638H48.7944C48.9476 63.4638 49.0746 63.5917 49.0746 63.7461V63.7726C49.0746 63.927 48.9476 64.055 48.7944 64.055H45.2831C45.1299 64.055 45.0029 63.927 45.0029 63.7726V63.7461ZM45.1474 65.9962C45.2 65.6785 45.2043 65.3521 45.1606 65.0212C45.1387 64.8712 45.2043 64.7785 45.3532 64.7432C45.5327 64.7035 45.7122 64.73 45.8961 64.8226C46.0362 64.8932 46.185 64.9241 46.347 64.9197L48.8644 64.7962C49.1797 64.7829 49.4205 64.9109 49.5868 65.18L49.9984 65.8594C50.1866 66.1638 50.1034 66.3094 49.7488 66.3006L45.305 66.1815C45.1781 66.1771 45.1255 66.1153 45.1474 65.9962ZM49.9765 61.7785C49.8933 61.7035 49.8276 61.6152 49.7707 61.5138C49.6963 61.377 49.7357 61.3064 49.8933 61.3108C51.4957 61.3417 53.0587 61.2446 54.5822 61.0196C54.915 60.9711 55.0989 61.1123 55.1383 61.452L55.1821 61.8932C55.2127 62.1667 55.0901 62.2858 54.8187 62.2549C54.0875 62.1623 53.2907 62.2108 52.4282 62.4005C51.7846 62.5461 51.233 62.3476 50.5675 62.4358C50.4143 62.4579 50.3092 62.3961 50.2523 62.2505L50.1735 62.0564C50.1297 61.9505 50.064 61.8579 49.9765 61.7785ZM50.6682 64.1388L50.6945 63.9623C50.7251 63.7726 50.839 63.6667 51.0316 63.6535C51.465 63.6138 51.881 63.6358 52.2837 63.7153C52.9098 63.8432 53.8555 63.8609 55.1164 63.777C55.2039 63.7682 55.2827 63.8344 55.2915 63.9226L55.3003 64.0373C55.3003 64.0373 55.2915 64.055 55.2784 64.0594C53.9474 64.2359 52.5333 64.0947 50.9178 64.3859C50.7164 64.4256 50.6332 64.3418 50.6682 64.1388ZM51.8678 64.7521C52.8354 64.7653 53.7548 64.7962 54.626 64.8359C55.2433 64.8668 55.6812 65.1976 55.9395 65.8329C56.027 66.0447 56.2459 66.1683 56.4692 66.1374C56.6925 66.1065 56.8983 66.1153 57.0822 66.1683C57.2704 66.2212 57.266 66.2521 57.0734 66.2653C55.0595 66.3844 53.3608 66.4153 51.9729 66.3491C51.8459 66.3447 51.7759 66.2785 51.7627 66.155L51.6139 65.0432C51.592 64.8888 51.7146 64.7476 51.8678 64.7521ZM57.1741 64.0903L57.1653 63.7726C57.161 63.605 57.2923 63.4638 57.4587 63.4594L60.4883 63.3579C60.6547 63.3491 60.7948 63.4814 60.7992 63.6535L60.8079 63.9711C60.8123 64.1388 60.681 64.28 60.5146 64.2844L57.4849 64.3859C57.3186 64.3947 57.1785 64.2623 57.1741 64.0903ZM58.1241 66.2874C58.1417 65.6874 59.1968 65.2329 60.4796 65.2727H60.5759C61.8587 65.3124 62.8875 65.8285 62.87 66.4286V66.4903C62.8656 66.5388 62.8262 66.5786 62.7781 66.5741L58.2073 66.4374C58.1592 66.4374 58.1198 66.3977 58.1241 66.3491V66.2874ZM62.6993 63.8388C62.5592 63.7285 62.6205 63.4991 62.8 63.4726L66.4732 62.9608C66.5564 62.952 66.6352 62.9917 66.679 63.0623L67.1868 63.9535C67.2656 64.0947 67.1693 64.2623 67.0117 64.2667L63.3604 64.3065C63.3122 64.3065 63.264 64.2888 63.229 64.2623L62.6993 63.8388ZM64.5643 65.7535L66.7359 65.2594C67.0905 65.18 67.467 65.2418 67.7779 65.4359C68.0187 65.5859 68.2551 65.7359 68.4959 65.8903C68.8461 66.1065 68.8199 66.2565 68.4171 66.3403C67.3532 66.5609 66.1711 66.583 64.8796 66.4021C64.6913 66.38 64.5381 66.2962 64.4242 66.1594C64.306 66.0138 64.3805 65.7932 64.5643 65.7535ZM68.2376 62.127C68.1325 62.1314 68.0493 62.0917 67.9836 62.0035L67.6334 61.5138C67.6115 61.4829 67.6159 61.4652 67.6553 61.4696C68.5878 61.5182 69.7305 61.4388 71.0834 61.2314C71.2016 61.2137 71.3198 61.2755 71.3679 61.3858L71.438 61.5446C71.5518 61.8005 71.4686 61.9373 71.1928 61.9549L68.2376 62.127ZM71.4774 65.1182L73.0272 64.7962C73.1367 64.7741 73.2461 64.8315 73.2899 64.9373C73.5044 65.4712 73.7978 65.9212 74.1699 66.2785C74.2137 66.3227 74.1787 66.3977 74.1174 66.3888C73.1892 66.2741 72.388 66.2653 71.7182 66.358C71.3898 66.4065 71.1972 66.2653 71.1315 65.9388L71.0877 65.705C71.022 65.3785 71.1534 65.1844 71.4774 65.1182ZM72.642 61.6152C72.156 61.399 72.1647 61.2093 72.677 61.0461C73.0491 60.927 73.557 60.9226 74.1918 61.0417C75.0893 61.2093 76.0131 61.2887 76.9544 61.2755C77.3528 61.2711 77.6987 61.4123 77.9832 61.6946L78.2897 62.0035C78.4867 62.1976 78.351 62.5329 78.0752 62.5373C76.9763 62.5505 75.873 62.3344 74.7566 61.8799C74.6209 61.827 74.4851 61.8182 74.345 61.8535C73.8459 61.9814 73.2768 61.902 72.642 61.6152ZM74.8748 63.5785C74.9405 63.4153 75.0587 63.3358 75.2382 63.3447L79.2091 63.5344C79.3098 63.5344 79.3405 63.5873 79.3054 63.68C79.2879 63.7285 79.2485 63.7726 79.1916 63.8035C79.1522 63.8256 79.1084 63.83 79.0515 63.8256C77.6724 63.68 76.3765 63.927 75.1637 64.5756C75.0324 64.6462 74.9405 64.6109 74.8835 64.4741C74.7653 64.1609 74.761 63.8653 74.8748 63.5785ZM76.0175 65.1094C77.1602 65.3962 78.1409 65.3874 78.9639 65.0918C79.3448 64.955 79.7695 65.1138 79.9709 65.4668L80.2511 65.9565C80.4394 66.2918 80.343 66.4594 79.9622 66.4594H76.6523C76.3108 66.4594 76 66.2521 75.8686 65.93L75.6891 65.4932C75.549 65.1491 75.6585 65.0212 76.0175 65.1094ZM83.9375 62.3608C83.828 62.3564 83.7273 62.3299 83.6354 62.2814C82.7335 61.8446 81.0435 61.9814 80.0935 62.1888C80.0147 62.2064 79.949 62.1844 79.9009 62.1182L79.4455 61.5182C79.4149 61.4785 79.428 61.4564 79.4762 61.452C81.1092 61.302 82.7598 60.6799 84.025 62.1844C84.1345 62.3123 84.1082 62.3741 83.9375 62.3608ZM81.3281 57.1813C80.2555 57.1946 79.3799 57.1416 79.3799 57.0578C79.3799 56.974 80.2511 56.8946 81.3237 56.8813C82.3964 56.8681 83.272 56.921 83.272 57.0048C83.272 57.0887 82.4008 57.1681 81.3281 57.1813ZM19.5355 12.1849L19.5968 12.2776C19.6143 12.3084 19.6362 12.3128 19.6668 12.2908C21.4443 11.0908 23.0248 9.66133 24.4039 8.00689C24.4959 7.89659 24.5484 7.77306 24.5659 7.63188C24.5703 7.56129 24.5922 7.49511 24.6228 7.43776C24.6798 7.32305 24.7673 7.2657 24.8943 7.27011C44.031 7.36276 63.1721 7.34511 82.3088 7.22599C83.0487 7.22158 83.5741 7.45982 83.8849 7.94512C84.0644 8.22748 84.1564 8.73043 84.1608 9.45838C84.1914 16.0762 84.2089 22.6895 84.2133 29.3029C84.2133 29.9646 84.1826 30.622 84.1257 31.2794C84.1126 31.425 84.0513 31.5485 83.9375 31.6456C82.9655 32.4882 81.2975 33.8868 78.9289 35.8324C76.8581 37.531 74.4414 39.6575 71.6788 42.2031C69.0913 44.5855 65.7245 47.3561 62.9007 50.1135C62.6248 50.3827 62.2045 50.7091 61.6485 51.0886C61.2063 51.3886 60.7247 51.5606 60.1994 51.6092C59.6521 51.6577 59.1048 51.6797 58.5576 51.6753C50.1472 51.6577 41.7807 51.6047 33.4491 51.5209C33.1295 51.5165 33.0989 51.4194 33.3615 51.2341C36.0147 49.3547 38.2037 46.9988 40.6205 44.7884C40.6686 44.7487 40.6686 44.7002 40.6292 44.6517C40.5898 44.6031 40.5417 44.5943 40.4935 44.634C38.4402 46.2002 36.6539 48.04 34.6706 49.6812C33.5017 50.6474 32.2276 51.2915 30.8485 51.6136C30.6077 51.6709 30.507 51.5783 30.5421 51.3356C30.5902 50.9959 30.761 50.8062 31.0499 50.7665C31.1856 50.7444 31.2951 50.6783 31.3695 50.5636C31.6847 50.0959 32.1795 50.0077 32.5385 49.6459C33.6023 48.5606 35.1172 47.1047 37.0829 45.2737C38.2825 44.1575 39.5259 42.7811 40.8087 41.1487C40.8262 41.1266 40.835 41.1001 40.835 41.0693C40.8306 41.0251 40.8306 40.9854 40.8306 40.9545C40.8306 40.9237 40.8175 40.9193 40.7956 40.9413C37.5602 44.2458 34.1759 47.3826 30.634 50.343C30.345 50.5856 30.0386 50.8062 29.719 51.0091C29.5876 51.093 29.4694 51.1283 29.36 51.115C29.2899 51.1062 29.2199 51.0886 29.1542 51.0665C29.0447 51.018 28.9572 51.0489 28.8959 51.1547C28.6989 51.4768 28.3968 51.5783 27.9896 51.468C27.8539 51.4327 27.8101 51.2606 27.9108 51.1636L37.4726 41.6649C37.8053 41.334 37.7747 41.2987 37.385 41.559C36.3343 42.256 35.3799 43.0458 34.5174 43.9281C31.1944 47.3297 28.7996 49.7165 27.3285 51.0974C26.9214 51.4812 26.4617 51.6092 25.9494 51.4856C25.8006 51.4459 25.7743 51.3709 25.875 51.2518C26.9826 49.8841 28.2917 48.6003 29.3293 47.3032C30.2619 46.1385 31.2031 44.987 32.1619 43.8487C32.7267 43.1737 33.8694 42.1502 35.5988 40.7693C36.2205 40.2707 36.9166 39.7501 37.6871 39.1986C38.983 38.2766 40.1739 37.1824 41.264 35.9206C41.3034 35.8809 41.2991 35.8368 41.2597 35.7971L41.1239 35.6736C41.0714 35.625 41.0189 35.625 40.9707 35.678C39.5391 37.1736 38.1906 38.3736 36.9341 39.2736C34.8063 40.7957 33.0157 42.2649 31.5578 43.6811C31.2075 44.0208 31.0236 44.6649 30.704 45.0796C29.0798 47.1929 27.2935 49.1562 25.3452 50.9739C24.8023 51.4812 24.1807 51.6974 23.4758 51.6312C23.3182 51.618 23.2919 51.5518 23.3926 51.4327C24.3645 50.2812 25.8049 49.5268 26.8557 48.1062C27.4029 47.3605 27.9152 46.7605 28.3968 46.2973C29.1104 45.609 29.8109 44.9076 30.4895 44.1884C30.5245 44.1487 30.5245 44.1134 30.4895 44.0737C30.4545 44.034 30.4151 44.034 30.3757 44.0649C29.1892 45.0046 28.0991 45.8252 27.0965 47.0385C25.5598 48.8959 24.0624 50.3518 22.6045 51.415C22.3112 51.6268 21.8296 51.7415 21.1641 51.7592C20.9496 51.7592 20.9365 51.7106 21.1247 51.6047L21.3436 51.4812C21.4794 51.4062 21.5932 51.3047 21.6851 51.1812C21.7508 51.093 21.8252 51.0091 21.904 50.9297C23.4276 49.3415 24.9074 47.7091 26.3391 46.0326C27.832 44.2855 30.0955 42.7281 31.5052 41.506C32.5253 40.6281 33.5367 39.7457 34.5393 38.8501C35.1128 38.3427 35.8177 37.8089 36.6451 37.2486C37.6827 36.5427 38.8999 35.7486 39.6879 34.7559C39.955 34.4162 40.222 34.0809 40.4891 33.7412C40.6555 33.5338 40.7781 33.5559 40.8525 33.8118L41.3341 35.4177C41.3516 35.475 41.3822 35.528 41.4217 35.5721C42.1834 36.4059 42.665 37.3368 43.4575 38.2016C45.6334 40.5751 48.3653 41.5457 51.6445 41.109C56.4342 40.4737 59.4288 37.7692 60.6284 32.9956C60.9042 31.897 60.7904 30.7941 60.9349 29.6338C60.9524 29.4882 61.0181 29.3646 61.1275 29.2676C64.8489 25.9543 68.6229 22.7027 72.4537 19.5218C73.4213 18.7188 74.3494 17.7438 75.2951 16.8703C75.4133 16.76 75.3914 16.707 75.2294 16.7115C75.12 16.7159 75.0061 16.7688 74.8879 16.8615C70.1377 20.6248 65.4969 24.5248 60.9612 28.5661C60.8517 28.6631 60.6766 28.6102 60.6416 28.469C59.8053 25.2749 58.1285 23.0292 55.6023 21.7366C53.2338 20.5233 50.6945 20.2365 47.9888 20.8762C43.6895 21.8954 40.4366 26.1219 40.2571 30.8073C40.2527 30.9573 40.1958 31.1029 40.0995 31.2176C39.4296 31.9941 38.6853 32.7176 37.8623 33.3838C35.4236 35.3559 33.0288 37.3765 30.669 39.4413C28.9309 40.9678 26.1552 43.2178 24.0318 45.2561C24.0187 45.2693 24.0187 45.287 24.0318 45.3002L24.1062 45.384C24.1631 45.4546 24.2288 45.459 24.3032 45.4017C25.4985 44.4267 26.6937 43.4561 27.8933 42.481C28.8083 41.7354 29.9817 40.734 31.4133 39.4766C33.2959 37.8265 35.2266 36.2295 37.2012 34.6897C38.2694 33.8559 39.2632 32.9426 40.1783 31.9456C40.2702 31.8485 40.3446 31.7911 40.4059 31.7779C40.546 31.7382 40.6774 31.8617 40.6599 32.0073C40.384 34.1382 37.9805 35.8898 36.1154 37.1295C34.675 38.0868 33.3134 39.1457 32.0394 40.3148C30.9842 41.281 29.9422 42.1987 28.9134 43.059C27.3504 44.3649 26.3172 45.3135 25.8224 45.9046C24.3908 47.612 23.0292 49.0503 21.7377 50.215C21.1379 50.7533 20.4636 51.168 19.7106 51.4592C19.5618 51.5165 19.4611 51.4724 19.4041 51.318C19.3735 51.2253 19.3691 51.1283 19.391 51.0268C19.4129 50.943 19.4698 50.8636 19.5618 50.793C20.2579 50.2812 20.9846 49.9062 21.5801 49.2797C22.5301 48.2738 23.4977 47.2723 24.4827 46.2796C24.5046 46.2576 24.5046 46.2399 24.4827 46.2179L24.3996 46.1296C24.3032 46.0282 24.2069 46.0282 24.1062 46.1296C23.235 46.99 22.3375 47.837 21.4224 48.6665C21.2692 48.8032 20.8796 49.0723 20.2579 49.4694C19.8507 49.7297 19.5048 50.0606 19.2115 50.4621C19.1283 50.5768 19.0145 50.6518 18.8788 50.6871C18.5241 50.7753 18.2833 50.9915 18.1608 51.34C18.1126 51.4768 18.0163 51.5562 17.8718 51.5739C16.8867 51.6974 16.3614 51.2253 16.3044 50.1577C16.2475 49.1121 16.2037 48.0664 16.1687 47.0208C16.1643 46.9194 16.1906 46.5047 16.2431 45.7811C16.265 45.5032 16.2519 45.2208 16.2125 44.9384C16.16 44.5811 16.1381 44.3076 16.1424 44.1178C16.2081 41.2369 16.23 38.3604 16.2125 35.4883C16.2125 35.3427 16.265 35.2192 16.3745 35.1221C16.5452 34.9721 16.7116 34.8133 16.8823 34.65C21.151 30.4632 25.6123 26.5058 30.275 22.7689C30.8441 22.3145 31.4177 21.7586 31.9956 21.0924C32.0963 20.9733 32.0831 20.9645 31.9649 21.0615C26.9301 24.9837 22.1623 29.0337 17.666 33.2118C17.1494 33.6927 16.6766 34.178 16.2431 34.6721C16.1643 34.7603 16.0242 34.7118 16.0155 34.5971C15.9411 33.6927 16.0987 32.9603 16.7466 32.2544C17.3377 31.6103 17.7711 31.1691 18.0382 30.9352C20.4768 28.8087 22.9329 26.6999 25.4065 24.6131C27.0921 23.188 29.2943 21.2512 32.0043 18.8115C34.6181 16.46 37.2975 14.1791 40.0338 11.9731C40.0732 11.9423 40.0776 11.9114 40.0469 11.8717C40.0163 11.832 39.9856 11.8275 39.9462 11.8584C38.9086 12.6614 37.7922 13.354 36.7721 14.1923C30.113 19.6674 23.6465 25.2351 17.3683 30.8955C17.0224 31.2088 16.6678 31.5441 16.3132 31.9103C16.2081 32.0161 16.1556 31.9941 16.1556 31.8485C16.1074 25.6278 16.0899 19.4115 16.1074 13.204C16.1074 12.3393 16.103 11.8628 16.7335 11.2055C17.9594 9.93928 19.4917 8.87602 20.8445 7.74218C20.9365 7.66717 21.0021 7.56129 21.024 7.44658C21.0459 7.34952 21.081 7.2657 21.1335 7.1907C21.2079 7.0804 21.3086 7.02746 21.4443 7.03187L23.9749 7.16422C24.1194 7.17305 24.1544 7.23923 24.08 7.36276C22.9285 9.2422 21.4268 10.7775 19.5793 11.9731C19.4917 12.0305 19.4786 12.1011 19.5355 12.1893V12.1849ZM84.1476 43.8134C84.1126 44.5855 84.117 45.3532 84.1564 46.1208C84.1651 46.2488 84.1476 46.3546 84.0995 46.4473C84.0338 46.5752 83.955 46.6944 83.8631 46.7958C83.7842 46.8841 83.7799 46.9723 83.8499 47.065C83.8806 47.1003 83.9112 47.1311 83.9506 47.1576C84.0119 47.1973 84.0425 47.2547 84.0469 47.3297C84.0863 48.2032 83.9813 49.0503 83.7317 49.8665C83.6967 49.9812 83.6967 50.1047 83.7405 50.215C83.8499 50.5018 83.7974 50.7488 83.5741 50.965C83.3815 51.1547 83.3333 51.1239 83.4296 50.8724C83.4734 50.7533 83.4997 50.6385 83.504 50.5238C83.504 50.3738 83.4384 50.2944 83.2895 50.2812C82.7116 50.2282 82.3526 49.9238 82.2169 49.3635C82.1819 49.2179 82.0899 49.1606 81.9454 49.1826C81.6302 49.2312 81.4551 49.4429 81.4201 49.8091C81.3938 50.0782 81.2493 50.2106 80.9823 50.215C80.5751 50.2194 80.435 50.4312 80.5532 50.8591C80.5882 50.9871 80.7021 51.0753 80.8378 51.0841L81.2055 51.1062C81.3675 51.115 81.4857 50.9606 81.4376 50.8062C81.3938 50.665 81.3894 50.5238 81.4244 50.3871C81.4551 50.2591 81.5251 50.1532 81.6346 50.0606C81.8141 49.915 81.9936 49.8709 82.1819 49.9282C82.3307 49.9768 82.427 50.0738 82.4664 50.2238C82.5321 50.4753 82.5058 50.7091 82.3876 50.9297C82.3176 51.0621 82.2081 51.1327 82.0593 51.1371L81.674 51.1459C81.5427 51.1503 81.4332 51.2033 81.3413 51.3003C81.2406 51.4062 81.118 51.4856 80.9735 51.5386C80.8465 51.5871 80.7064 51.5297 80.6495 51.4062C80.6233 51.3444 80.5838 51.2915 80.5357 51.2474C80.505 51.2165 80.4656 51.1989 80.4219 51.1944C79.7301 51.093 79.0953 51.2209 78.5218 51.5783C78.3773 51.6709 78.2459 51.6577 78.119 51.5386L77.9088 51.3444C77.8037 51.2474 77.6812 51.2121 77.5411 51.2341C77.0551 51.318 76.5823 51.4283 76.1182 51.5695C76.0919 51.5739 76.0744 51.565 76.0656 51.543L76.0306 51.4283C76 51.3312 76.0306 51.265 76.1226 51.2253C76.5078 51.0577 76.7355 50.7753 76.8055 50.3738C76.8274 50.2371 76.9062 50.1621 77.042 50.1488C77.2039 50.1268 77.3353 50.0694 77.4447 49.9768C77.9482 49.5532 77.6242 49.0326 78.5305 48.7194C78.6662 48.6709 78.7538 48.5826 78.802 48.4459C78.9552 47.9738 79.2617 47.6473 79.7214 47.4576C79.8571 47.4003 79.9709 47.3208 80.0716 47.215C80.9691 46.2576 81.906 45.3355 82.878 44.4531C83.2282 44.1355 83.4296 43.7605 83.6047 43.3369C83.6923 43.1208 83.6529 43.0943 83.4821 43.2531L76.0437 50.3385C75.9693 50.4135 75.908 50.4974 75.8686 50.5944C75.4002 51.6974 74.3275 51.4989 73.3468 51.4636C73.2943 51.4636 73.268 51.4371 73.268 51.3797C73.2724 51.3136 73.3031 51.2827 73.3643 51.2827C73.6489 51.2783 73.8503 51.1327 73.9641 50.8459C74.0079 50.7224 74.0911 50.6121 74.1962 50.5327C75.2338 49.7165 76.2276 48.715 77.1821 47.5194C77.8081 46.7385 78.5743 45.9885 79.4762 45.2737C80.9779 44.087 82.4489 42.7061 83.8981 41.131C83.9769 41.0472 84.0513 41.0119 84.117 41.0251C84.1608 41.0251 84.2002 41.0516 84.2352 41.0869C84.3096 41.1531 84.3271 41.2369 84.2877 41.3296C83.9068 42.2031 84.1826 43.1075 84.1476 43.8134ZM83.5216 34.0191C81.8623 35.5103 80.1767 36.9662 78.4561 38.3824C77.0507 39.5428 75.4877 40.9501 73.7627 42.6046C71.9239 44.3737 70.002 46.0502 67.9924 47.6297C67.2525 48.2076 66.517 48.8738 65.7902 49.6282C64.9452 50.5018 64.2097 51.1812 63.5836 51.6621C63.264 51.9092 62.8788 51.9665 62.4366 51.8386C62.2877 51.7945 62.2702 51.7195 62.384 51.618C64.144 50.0341 65.8646 48.1503 67.4626 46.6899C69.0431 45.2473 70.6236 43.8002 72.1954 42.3487C73.8284 40.8398 75.5228 39.3486 77.2871 37.8795C79.0252 36.4368 80.759 34.9809 82.4796 33.5118C83.0093 33.0618 83.4778 32.497 83.99 31.9853C84.0995 31.875 84.1564 31.897 84.1564 32.0559L84.1257 38.4398C84.1257 38.5766 84.0732 38.6824 83.9637 38.7663C81.4551 40.6898 79.034 42.7149 76.7048 44.8414C76.3721 45.1458 75.711 45.8693 74.7216 47.0208C73.627 48.2959 72.1472 49.5621 70.2865 50.8194C70.1508 50.9121 70.1552 51.0003 70.2909 51.0886C70.4529 51.19 70.6324 51.1812 70.8294 51.0533C71.3635 50.7091 72.0027 50.2238 72.7426 49.5974C74.7084 47.9429 76.1138 45.812 78.0796 44.1399C79.8352 42.6443 81.709 41.0472 83.7011 39.3486C83.99 39.1016 84.1432 39.1678 84.1608 39.5516C84.1608 39.6001 84.1608 39.6663 84.1695 39.7501C84.187 40.1339 84.0644 40.4648 83.7974 40.7428C82.5233 42.0884 81.2493 43.2796 79.984 44.3208C78.8939 45.2208 77.9351 46.1385 77.0989 47.0694C76.1226 48.1591 75.2382 49.0415 74.437 49.7165C73.7759 50.2768 73.2636 50.7753 72.9046 51.2209C72.8127 51.3356 72.6945 51.4062 72.55 51.4283C71.9458 51.5342 71.149 51.4989 70.1596 51.318C69.7918 51.2518 69.1789 51.243 68.3251 51.2959C68.2726 51.3003 67.7429 51.3047 66.7403 51.3092C66.0441 51.3092 65.3612 51.4371 64.6913 51.693C64.5206 51.7592 64.4111 51.7636 64.3673 51.7062C64.2666 51.5783 64.2885 51.3886 64.4199 51.2871C65.1948 50.6915 65.9128 50.0474 66.5739 49.3591C67.2875 48.6223 68.0099 48.0003 68.7454 47.4841C69.551 46.915 70.3259 46.3105 71.0746 45.6664C72.5019 44.4355 73.8678 43.1561 75.1769 41.8281C76.4772 40.509 77.7731 39.3354 79.0603 38.3119C80.5094 37.1604 81.8623 36.0486 83.1188 34.9765C83.4209 34.7162 83.6091 34.4294 83.6792 34.1162C83.7273 33.9177 83.6748 33.8824 83.5216 34.0191ZM47.6035 25.5087C47.6473 25.094 47.875 24.8866 48.2909 24.8822C48.6543 24.8778 49.0965 25.0146 49.6131 25.2925C52.0605 26.6072 54.3458 28.169 56.4692 29.9779C56.7669 30.2338 56.7932 30.6926 56.5261 30.9794C56.0489 31.4956 55.5673 31.95 55.0857 32.3338C53.3739 33.7059 51.6183 34.9633 49.8232 36.1103C49.4818 36.3309 49.0965 36.5162 48.6718 36.6618C48.2646 36.803 47.8224 36.5956 47.6648 36.1942C47.2839 35.2368 47.3409 34.403 47.3015 33.3926C47.2095 30.8029 47.3102 28.1778 47.6035 25.5087ZM20.3148 7.30982C19.6975 8.09512 18.9751 8.79661 18.1476 9.41427C17.4997 9.89516 16.8911 10.4202 16.3176 10.9893C16.2825 11.0246 16.2475 11.0731 16.2169 11.1305C16.1994 11.1614 16.1819 11.1922 16.16 11.2231C16.1337 11.2628 16.1118 11.2628 16.0943 11.2143C15.7659 10.2216 15.8053 9.3172 16.2125 8.50543C16.5321 7.8613 17.0925 7.4157 17.8937 7.16864C18.6336 6.93922 19.3866 6.85981 20.1528 6.9304C20.3367 6.94804 20.4286 7.16422 20.3148 7.30982ZM15.9148 53.6827C16.2169 53.6827 16.4577 53.7886 16.4577 53.9121C16.4577 54.0357 16.2125 54.1327 15.9148 54.1327C15.6171 54.1327 15.3719 54.0269 15.3719 53.9033C15.3719 53.7798 15.6171 53.6827 15.9148 53.6827ZM85.7631 46.6944L85.7019 46.4164C85.6625 46.2355 85.7369 46.1561 85.9164 46.1693C86.0434 46.1782 86.1659 46.1914 86.2885 46.2046C86.4242 46.2179 86.5249 46.1649 86.5819 46.037C86.6913 45.7855 86.919 45.684 87.2561 45.7326C87.5407 45.7767 87.6633 46.1208 87.475 46.337L86.5162 47.4356C86.4199 47.5458 86.2798 47.6076 86.1353 47.612C85.6187 47.6208 85.4698 47.4576 85.6843 47.1179C85.7675 46.99 85.7938 46.8488 85.7631 46.6944ZM86.0258 48.94C85.9558 48.9929 85.8507 48.9709 85.8113 48.8915C85.6012 48.4856 85.6012 48.137 85.8113 47.8459C85.9251 47.687 86.1616 47.6914 86.271 47.8547C86.5381 48.2473 86.4549 48.6091 86.0215 48.94H86.0258ZM4.8513 72.6272C4.80314 73.3243 4.48354 73.8669 4.13767 73.8449L3.98006 73.8316C3.63419 73.8096 3.38901 73.2228 3.43717 72.5301L3.46344 72.1816C3.4722 72.0139 3.61668 71.886 3.78305 71.8992L4.59737 71.9566C4.76374 71.9698 4.89071 72.1154 4.87757 72.2831L4.8513 72.6272ZM5.70941 72.6051L5.65688 73.8625C5.6525 73.911 5.61309 73.9507 5.56494 73.9463L5.22344 73.9331C5.17528 73.9331 5.13588 73.889 5.14026 73.8405L5.1928 72.5787C5.21031 72.1948 5.31101 71.8904 5.42046 71.8948H5.54305C5.6525 71.9036 5.72693 72.2169 5.70941 72.6051ZM6.92215 72.4904L6.73389 73.161C6.69887 73.2846 6.712 73.4037 6.77767 73.514L6.8521 73.6463C6.93528 73.7919 6.89588 73.889 6.74265 73.9419C6.6113 73.9905 6.47996 74.0037 6.34424 73.9905C6.18225 73.9772 6.10344 73.8846 6.10782 73.7213L6.15598 72.0448C6.16036 71.7934 6.26981 71.7404 6.47558 71.886L6.78643 72.1066C6.90902 72.1948 6.96593 72.3492 6.92215 72.4904ZM7.88533 73.8802C7.88096 74.0169 7.76712 74.1228 7.6314 74.1184H7.50882C7.37309 74.1096 7.26802 73.9949 7.2724 73.8581L7.33369 72.0404C7.33807 71.9037 7.4519 71.7978 7.58762 71.8022H7.71021C7.84593 71.811 7.951 71.9257 7.94663 72.0625L7.88533 73.8802ZM9.61469 73.761C9.60155 73.9287 9.46145 74.0566 9.29508 74.0655L9.1112 74.0743C9.03678 74.0787 8.96673 74.0963 8.90106 74.1272C8.78722 74.1758 8.66901 74.2022 8.54643 74.1978C8.38882 74.1934 8.31001 74.1096 8.30563 73.9463V72.3404C8.29688 71.9963 8.62086 71.7404 8.95359 71.8198L9.18125 71.8772C9.52275 71.961 9.75041 72.2831 9.71976 72.636L9.61469 73.761ZM11.5323 72.3669C11.3966 72.9184 11.3659 73.4566 11.4447 73.9772C11.4754 74.1669 11.3922 74.2507 11.2039 74.2287C11.0332 74.2066 10.8931 74.1272 10.7924 73.9905C10.7092 73.8757 10.6392 73.8846 10.5822 74.0169C10.5122 74.189 10.3852 74.2816 10.2014 74.3037C10.0306 74.3213 9.9518 74.2463 9.96056 74.0743L10.035 72.1375C10.0394 72.0184 10.1182 71.9169 10.2276 71.8772L10.429 71.7978C10.5735 71.7448 10.6392 71.7978 10.626 71.9522C10.5735 72.5301 10.556 73.1125 10.5779 73.7037C10.5779 73.7169 10.5822 73.7213 10.5954 73.7213H10.7311C10.7924 73.7302 10.8449 73.6816 10.8449 73.6199L10.8668 71.9919C10.8668 71.886 10.9675 71.8066 11.0726 71.8331L11.239 71.8728C11.4579 71.9257 11.5892 72.1463 11.5323 72.3669ZM12.6006 73.9596C12.5874 74.1758 12.3948 74.339 12.1803 74.3258H12.119C11.9001 74.3037 11.7381 74.114 11.7556 73.8978L11.8738 72.2698C11.8869 72.0536 12.0796 71.8904 12.2941 71.9037H12.3554C12.5743 71.9257 12.7363 72.1154 12.7188 72.3316L12.6006 73.9596ZM13.5769 74.2463C13.5725 74.3302 13.5068 74.3919 13.4236 74.3919L13.196 74.3831C13.1128 74.3831 13.0515 74.3081 13.0515 74.2287L13.1391 71.7316C13.1434 71.6478 13.2091 71.586 13.2923 71.586L13.52 71.5948C13.6031 71.5948 13.6644 71.6698 13.6644 71.7492L13.5769 74.2463ZM15.5645 73.7831C15.4288 74.0787 15.2624 74.2419 15.0567 74.2772C14.9647 74.2905 14.7765 74.286 14.4963 74.2596C14.3693 74.2463 14.2511 74.211 14.1417 74.1537C13.9753 74.061 13.8965 73.9199 13.9009 73.7257L13.9359 72.0581C13.9403 71.9036 14.1066 71.811 14.238 71.886L14.3474 71.9478C14.4656 72.0139 14.5357 72.1419 14.5313 72.2787C14.5094 72.8963 14.5094 73.4302 14.5225 73.8757C14.5269 73.9375 14.5576 73.9684 14.6232 73.9728H14.6539C14.6539 73.9728 14.6889 73.964 14.6933 73.9419C14.7721 73.2404 14.8421 72.6184 14.9034 72.0757C14.9822 71.3831 15.2187 71.3257 15.6127 71.8948C15.9411 72.3669 15.9235 72.9978 15.5645 73.7831ZM17.0881 74.0566C17.0925 74.1978 17.0224 74.2728 16.8823 74.2772L16.0067 74.3258C15.8798 74.3302 15.8316 74.2728 15.8622 74.1493C16.0724 73.3022 16.2169 72.5654 16.3001 71.7448C16.3176 71.5992 16.3964 71.5419 16.5409 71.5816L16.8517 71.6698C17.0093 71.7139 17.0881 71.8198 17.0881 71.9831V74.0566ZM18.4191 74.0478C18.4147 74.2508 18.2527 74.4052 18.0513 74.4008H17.8762C17.6792 74.3919 17.5216 74.2287 17.5259 74.0257L17.5741 71.7934C17.5785 71.5904 17.7405 71.436 17.9419 71.4404H18.117C18.314 71.4492 18.4716 71.6125 18.4672 71.8154L18.4191 74.0478ZM19.6887 74.0037C19.6887 74.211 19.5136 74.3699 19.3122 74.3655H19.1108C18.9094 74.3566 18.7474 74.189 18.7518 73.9816L18.7956 71.9875C18.7956 71.7801 18.9707 71.6213 19.1721 71.6257H19.3735C19.5749 71.6345 19.7369 71.8022 19.7325 72.0095L19.6887 74.0037ZM21.2167 72.9669C21.1379 73.8316 20.827 74.5066 20.5206 74.4802C20.2185 74.4537 20.039 73.7302 20.1178 72.8654C20.1966 72.0007 20.5074 71.3257 20.8139 71.3522C21.1204 71.3786 21.2955 72.1022 21.2167 72.9669ZM22.3243 74.2243L22.3156 74.2993C22.3024 74.4008 22.2105 74.4713 22.1098 74.4581L21.545 74.3919C21.4443 74.3787 21.3743 74.286 21.383 74.1846L21.3918 74.1096C21.5713 72.6051 21.8865 71.4007 22.0967 71.4272L22.2674 71.4492C22.4776 71.4713 22.5038 72.7154 22.3243 74.2243ZM23.2043 74.2331C23.1824 74.3434 23.1124 74.4008 22.9986 74.4008H22.8059C22.6308 74.4096 22.5608 74.3258 22.5958 74.1493C22.7009 73.6419 22.7052 73.1213 22.6089 72.5787C22.587 72.464 22.5914 72.3404 22.6133 72.2257C22.679 71.9081 22.8147 71.6742 23.0205 71.5242C23.0818 71.4801 23.1649 71.511 23.1824 71.586C23.3707 72.5081 23.3795 73.3904 23.2043 74.2331ZM75.5534 74.2772L74.1086 74.2993C73.9598 74.3037 73.8634 74.2287 73.8197 74.0831C73.5745 73.2581 73.592 72.5434 73.8678 71.9389C74.1436 71.3345 74.3232 71.361 74.4107 72.0184C74.4195 72.089 74.5027 72.1684 74.6559 72.2522C74.8398 72.3581 75.0674 72.2301 75.0806 72.0184C75.0806 71.9036 75.0674 71.7934 75.0193 71.6875C74.958 71.5507 75.0018 71.4757 75.1462 71.4625C75.3038 71.4448 75.4439 71.4889 75.5621 71.5948C75.6716 71.6919 75.7285 71.8154 75.7329 71.961L75.7635 74.0522C75.7679 74.1978 75.6979 74.2728 75.5534 74.2772ZM76.6786 74.1272C76.6786 74.2728 76.5604 74.3875 76.4203 74.3875H76.394C76.2495 74.3875 76.1357 74.2684 76.1357 74.1272L76.1444 72.2919C76.1444 72.1463 76.2626 72.0316 76.4027 72.0316H76.429C76.5735 72.0316 76.6873 72.1507 76.6873 72.2919L76.6786 74.1272ZM77.3353 74.361H77.2828C77.0945 74.3655 76.9413 74.2155 76.9413 74.0302L76.9062 71.9213C76.9062 71.736 77.0507 71.5816 77.239 71.5772H77.2915C77.4798 71.5728 77.633 71.7228 77.633 71.9081L77.668 74.0169C77.668 74.2022 77.5235 74.3566 77.3353 74.361ZM78.6706 74.0125C78.64 74.1758 78.5436 74.2772 78.3817 74.3169C78.1146 74.3787 77.9526 74.2816 77.8957 74.0257C77.7687 73.4478 77.8213 72.786 78.0621 72.036C78.0927 71.9345 78.0839 71.8419 78.0314 71.7536L77.9482 71.6213C77.9001 71.5419 77.9088 71.4669 77.9657 71.3963C77.9876 71.3654 78.0227 71.3478 78.0664 71.3389C78.119 71.3257 78.1628 71.3389 78.2021 71.383L78.8545 72.1595C78.9245 72.2434 78.9552 72.3537 78.9377 72.464L78.6706 74.0125ZM79.8002 74.2022V74.2596C79.8002 74.3258 79.7432 74.3743 79.6776 74.3743L79.1434 74.3566C79.0778 74.3522 79.0252 74.2993 79.0296 74.2331V74.1758C79.0778 72.7287 79.2091 71.5595 79.3273 71.5639L79.6688 71.5728C79.787 71.5772 79.8483 72.7551 79.8002 74.2022ZM80.6583 74.211L80.3825 74.2816C80.1066 74.3522 79.984 74.2463 80.0234 73.9596C80.0847 73.4654 80.111 72.989 80.0979 72.5345C80.0891 72.2698 80.1679 72.0139 80.3255 71.7978C80.4 71.6963 80.4963 71.6257 80.6057 71.586C80.7896 71.5242 80.9866 71.661 80.9866 71.8595L81.0041 73.761C81.0041 74.0037 80.8903 74.1537 80.6583 74.211ZM82.1074 73.686C82.1556 73.8316 82.1293 73.9596 82.033 74.0743C81.836 74.3125 81.5821 74.3566 81.2668 74.2022C81.2099 74.1713 81.1836 74.1008 81.2099 74.039C81.4595 73.4831 81.5076 72.989 81.3544 72.5566C81.2449 72.2522 81.4288 71.9213 81.7397 71.8551C81.9104 71.8198 82.0286 71.9081 82.0943 72.1198C82.2431 72.5654 81.906 73.064 82.1074 73.686ZM83.3289 73.9993C83.2939 74.1493 83.202 74.2463 83.0575 74.2905C82.948 74.3258 82.8473 74.3213 82.7554 74.2728C82.6284 74.211 82.5628 74.1096 82.5496 73.9728L82.427 72.6801C82.4051 72.4507 82.4796 72.261 82.6459 72.1066L82.8999 71.8728C83.1056 71.6831 83.237 71.7272 83.3027 71.9963C83.4646 72.7066 83.4734 73.3772 83.3289 73.9993ZM84.5986 74.0566C84.5986 74.1581 84.5198 74.2375 84.4191 74.2375L83.8587 74.2287C83.758 74.2287 83.6792 74.1449 83.6792 74.0478L83.6923 73.2493C83.7054 72.3448 83.8849 71.6169 84.0951 71.6213H84.2527C84.4629 71.6257 84.6248 72.3581 84.6117 73.2581L84.5986 74.0566ZM85.4392 74.211C85.4348 74.264 85.3954 74.3037 85.3428 74.2993H85.1896C84.8919 74.286 84.6642 73.7699 84.6905 73.1434V73.0463C84.7168 72.4198 84.9751 71.9213 85.2772 71.9301L85.4304 71.9389C85.4786 71.9389 85.518 71.9831 85.518 72.0316L85.4392 74.211ZM87.2605 72.9978C87.186 73.1257 87.1554 73.2625 87.1641 73.4081C87.1817 73.6419 87.1598 73.8669 87.0985 74.0831C87.0591 74.2243 86.9759 74.2684 86.8402 74.2199C86.5468 74.1096 86.2579 74.114 85.9645 74.2331C85.7763 74.3081 85.6843 74.2463 85.6887 74.039L85.7456 72.1639C85.75 72.036 85.8682 71.9478 85.9908 71.9787L86.1178 72.0139C86.3498 72.0713 86.4461 72.2213 86.398 72.4595C86.2885 73.0463 86.2404 73.364 86.2579 73.4169C86.4286 73.9243 86.5381 73.911 86.5819 73.3772C86.6213 72.9272 86.5687 72.0669 87.0503 71.7404C87.1817 71.6478 87.278 71.6786 87.3393 71.8286C87.5013 72.2301 87.475 72.6228 87.2605 72.9978ZM88.5345 72.486C88.4294 72.9537 88.3988 73.4037 88.4469 73.8316C88.4644 73.9905 88.3637 74.136 88.2105 74.1758C88.0529 74.2199 87.8865 74.2155 87.707 74.1625C87.5494 74.114 87.4706 73.9331 87.5407 73.7831C87.672 73.4875 87.7158 73.161 87.6764 72.8037C87.6545 72.6537 87.6851 72.5169 87.7683 72.389L87.8734 72.2257C87.9303 72.1419 87.9653 72.0448 87.9829 71.9434C87.996 71.8331 88.0354 71.7272 88.1011 71.6345C88.1886 71.4978 88.2806 71.4934 88.3813 71.6213C88.5608 71.8595 88.6133 72.1463 88.5345 72.486ZM90.1763 74.0875C90.1588 74.1846 90.0537 74.2419 89.9618 74.2022L89.8392 74.1537C89.7078 74.0963 89.629 73.964 89.6422 73.8184C89.6728 73.4875 89.664 73.1875 89.6071 72.9096C89.5502 72.6316 89.4889 72.6316 89.4276 72.9096C89.3532 73.2625 89.3401 73.611 89.3882 73.9508C89.4101 74.1096 89.3444 74.1934 89.1824 74.2022L89.0336 74.211C88.8935 74.211 88.8191 74.1493 88.8059 74.0081L88.6746 72.4948C88.6615 72.336 88.7228 72.2169 88.8629 72.1419C89.038 72.0448 89.2087 72.0536 89.3795 72.1684C89.4889 72.239 89.5765 72.2213 89.6509 72.1154C89.7166 72.0272 89.7866 71.9522 89.8698 71.8904C90.0274 71.7713 90.1281 71.811 90.1675 72.0007C90.3032 72.6272 90.3032 73.3243 90.1763 74.0875ZM90.8768 74.2949C90.6798 74.2949 90.5221 73.739 90.5221 73.0551C90.5221 72.3713 90.6798 71.8154 90.8768 71.8154C91.0738 71.8154 91.2314 72.3713 91.2314 73.0551C91.2314 73.739 91.0738 74.2949 90.8768 74.2949ZM92.1377 73.5493L92.2209 73.7566C92.2471 73.8228 92.234 73.9022 92.1858 73.9552C92.037 74.1316 91.8662 74.1978 91.6692 74.1581C91.481 74.1184 91.4109 74.0037 91.4547 73.8184C91.5466 73.4346 91.5641 72.9669 91.5116 72.4066C91.4722 71.9963 91.6254 71.8992 91.9713 72.1198C92.2646 72.3051 92.3216 72.5875 92.1464 72.9713C92.0632 73.161 92.0589 73.3507 92.1377 73.5493ZM93.2147 73.836C93.2059 73.9905 93.079 74.1052 92.9301 74.0963H92.7988C92.6499 74.0831 92.5361 73.9552 92.5405 73.8052L92.6193 72.1375C92.628 71.9831 92.755 71.8684 92.9038 71.8772H93.0352C93.184 71.8904 93.2979 72.0184 93.2935 72.1684L93.2147 73.836ZM94.1866 73.011C94.1604 73.7654 94.0115 74.3699 93.8583 74.361C93.7007 74.3522 93.6 73.739 93.6262 72.989C93.6525 72.2345 93.8014 71.6301 93.9546 71.6389C94.1122 71.6478 94.2129 72.261 94.1866 73.011ZM94.8565 74.3037C94.6945 74.3037 94.5588 73.7522 94.55 73.064C94.5413 72.3757 94.6638 71.8198 94.8215 71.8154C94.9835 71.8154 95.1192 72.3669 95.1279 73.0551C95.1367 73.7434 95.0141 74.2993 94.8565 74.3037ZM95.6752 74.1493C95.5438 74.1493 95.4344 73.6463 95.4344 73.0287C95.4344 72.411 95.5438 71.9081 95.6752 71.9081C95.8065 71.9081 95.916 72.411 95.916 73.0287C95.916 73.6463 95.8065 74.1493 95.6752 74.1493ZM96.7653 73.0772C96.7303 73.7257 96.5902 74.2463 96.4457 74.2419C96.3013 74.2331 96.2137 73.6993 96.2487 73.0507C96.2837 72.4022 96.4239 71.8816 96.5683 71.886C96.7128 71.8948 96.8004 72.4287 96.7653 73.0772ZM97.8642 72.9581C97.7854 73.5802 97.584 74.0699 97.4133 74.0478C97.2469 74.0257 97.1813 73.5007 97.2644 72.8787C97.3433 72.2566 97.5446 71.7669 97.7154 71.7889C97.8818 71.811 97.9474 72.336 97.8642 72.9581ZM98.788 73.8934C98.7749 74.0037 98.6742 74.0875 98.5647 74.0743L98.4597 74.061C98.3502 74.0522 98.2714 73.9507 98.2802 73.836L98.464 72.0713C98.4772 71.961 98.5779 71.8772 98.6873 71.8904L98.7924 71.8992C98.9019 71.9081 98.9807 72.0095 98.9719 72.1242L98.788 73.889V73.8934ZM96.4589 70.7433C92.9345 70.8316 91.1614 70.8757 91.1482 70.8757C84.7956 70.9154 78.443 70.9242 72.0903 70.9022C71.9502 70.9022 71.832 70.9507 71.7357 71.0522C71.6919 71.1007 71.6394 71.1316 71.5825 71.1536C71.4861 71.1845 71.4205 71.1536 71.3898 71.0566C71.3504 70.9286 71.276 70.8448 71.1753 70.8095C71.0045 70.7477 70.9257 70.8095 70.9301 70.9904L70.9695 72.1816C70.9739 72.3934 71.0658 72.4375 71.2366 72.3184C71.3635 72.2257 71.4424 72.0978 71.4686 71.9301C71.4993 71.7228 71.6175 71.5992 71.8232 71.5595L72.0159 71.5198C72.2085 71.4801 72.3005 71.5595 72.2961 71.7581L72.226 73.8052C72.226 73.911 72.3005 73.9993 72.4055 74.0081L72.5938 74.0257C72.6989 74.0346 72.7383 73.9905 72.712 73.889C72.4362 72.9051 72.6025 72.1242 73.2024 71.5463C73.5176 71.2419 73.6445 71.3081 73.5789 71.7448C73.4738 72.464 73.4519 73.2007 73.5132 73.9463C73.5351 74.2287 73.4081 74.3699 73.1279 74.3655L71.3679 74.3478C71.1884 74.3478 71.0702 74.1581 71.1446 73.9949C71.3417 73.5669 71.3635 73.1654 71.2016 72.7816C71.1359 72.6272 71.0833 72.6316 71.0396 72.7904C70.9214 73.1963 70.8951 73.5051 70.9608 73.7213C71.0965 74.1581 70.9345 74.3699 70.4836 74.3566C66.3462 74.2199 62.314 74.0257 58.2336 74.0478C53.1594 74.0787 48.0895 74.0831 43.0153 74.061C40.1301 74.0478 37.9411 74.0831 36.4481 74.1581C34.5524 74.2552 32.8318 74.2508 31.2863 74.1405C31.1418 74.1316 30.9974 74.1537 30.8617 74.2066C30.7216 74.2596 30.5771 74.286 30.4326 74.2905C30.2837 74.2949 30.1874 74.1316 30.2662 74.0037C30.4238 73.7566 30.4895 73.4875 30.4632 73.1963C30.4501 73.0243 30.3844 72.9978 30.2662 73.1257C30.1699 73.236 30.1217 73.3419 30.1261 73.4522C30.1393 74.0566 29.8853 74.3699 29.3643 74.3963C29.2155 74.4008 29.1586 74.3346 29.198 74.189C29.3249 73.7213 29.3381 73.2537 29.233 72.7904C29.198 72.6316 29.1498 72.6272 29.0885 72.7772C28.944 73.1434 28.8652 73.5184 28.8521 73.9066C28.8477 74.0522 28.7777 74.1537 28.6376 74.2022C28.2085 74.3478 27.7094 74.3743 27.1446 74.286C26.4792 74.1846 25.3846 74.2066 23.8654 74.3522C23.721 74.3655 23.629 74.2993 23.5984 74.1537C23.4626 73.5051 23.4714 72.861 23.6159 72.2125C23.6465 72.0625 23.7428 71.9963 23.8961 72.0139C24.0318 72.0272 24.1281 72.0978 24.1807 72.2169C24.2507 72.389 24.2945 72.3801 24.312 72.1992C24.3295 71.9831 24.3032 71.7801 24.2288 71.586C24.1675 71.4316 24.2069 71.3963 24.3514 71.4757C25.1001 71.8772 25.2839 72.5125 24.9074 73.3816C24.8768 73.4566 24.8899 73.5449 24.9424 73.6066L25.0563 73.7478C25.1088 73.8052 25.157 73.8052 25.2008 73.739C25.3978 73.4346 25.4547 73.1257 25.3627 72.8037C25.3233 72.6625 25.3321 72.5257 25.389 72.3934C25.5072 72.1198 25.6999 71.9125 25.9582 71.7669C26.0851 71.7007 26.1771 71.7316 26.234 71.8595C26.3216 72.0625 26.4704 72.1948 26.6849 72.2522C26.8513 72.3007 26.9476 72.239 26.9783 72.0669C27.0089 71.8816 26.9257 71.7316 26.7331 71.6213C26.7156 71.6081 26.7156 71.5816 26.7375 71.5728C26.7725 71.5551 26.8075 71.5331 26.8382 71.511C26.8644 71.4934 26.8863 71.4978 26.9082 71.5198C27.1227 71.7448 27.3723 71.7845 27.6525 71.6301C27.7795 71.5639 27.8714 71.5948 27.9239 71.7316C27.9633 71.8419 27.9852 71.961 27.9852 72.0801C27.9852 72.3184 28.0597 72.3448 28.2085 72.1595C28.4055 71.9213 28.5325 71.6433 28.5894 71.3257C28.5938 71.3036 28.6069 71.2816 28.6288 71.2683L28.8039 71.1757C28.9178 71.1095 28.9791 71.1448 28.9922 71.2772L29.0622 72.0757C29.0754 72.2478 29.1542 72.2875 29.2943 72.1904C29.6927 71.9169 29.8678 71.5595 29.824 71.1183C29.8065 70.9683 29.7233 70.8933 29.5701 70.8933C24.2376 70.8801 18.9138 70.8933 13.5944 70.9286C9.90364 70.9507 6.2523 70.8978 2.64474 70.761C2.48712 70.7566 2.40394 70.5713 2.50464 70.4477L11.9263 59.0961C12.1978 58.7652 12.6006 58.5666 13.0296 58.5534L18.0863 58.3813C18.4847 58.3681 18.5329 58.4872 18.2264 58.7475C17.9813 58.9549 17.7405 59.2417 17.5084 59.6167C16.8911 60.6093 16.2519 61.5888 15.5996 62.555C14.6145 64.0153 13.7082 65.4756 12.8895 66.9271C12.7231 67.2227 12.9158 67.5933 13.2529 67.6242C14.4 67.7256 15.5645 67.7786 16.7466 67.783C32.8624 67.8006 48.8601 67.7962 64.7307 67.7698C73.9729 67.7521 82.1468 67.7609 89.2569 67.7962C89.5239 67.7962 89.6816 67.5006 89.5327 67.2756C87.961 64.9065 86.3411 62.6344 84.673 60.4681C84.187 59.8328 83.5916 59.299 82.8911 58.9946C81.6871 58.4696 81.7397 58.2843 83.04 58.4343C84.0207 58.5446 85.1677 58.5446 86.4768 58.4255C87.9566 58.2887 89.2219 58.7387 90.2726 59.7755C94.0378 63.4947 97.943 67.055 101.988 70.4566C102.133 70.5757 102.111 70.686 101.932 70.7875C101.905 70.8007 101.879 70.8051 101.848 70.8051C100.058 70.7213 98.2583 70.6992 96.4589 70.7433ZM99.7687 73.8669C99.7687 73.8669 99.7643 73.8934 99.7468 73.8978L99.5805 73.9287C99.4316 73.9508 99.3616 73.889 99.3703 73.739L99.4622 72.261C99.471 72.1551 99.5717 72.0845 99.668 72.1154L99.8169 72.1595C99.8475 72.1684 99.8607 72.1904 99.8519 72.2257C99.7249 72.711 99.6987 73.2581 99.7687 73.8669Z" fill="black"/>
    <path d="M22.3332 8.12602C22.3945 8.09514 22.447 8.05985 22.4952 8.01131C22.5696 7.94073 22.6002 7.8569 22.5871 7.76425C22.5783 7.68925 22.5521 7.61425 22.5039 7.53925C22.412 7.40248 22.2981 7.37601 22.158 7.46425C22.0355 7.53925 21.961 7.66278 21.9348 7.82602C21.9129 7.9672 21.8428 8.0819 21.729 8.16573C20.3762 9.18928 19.1459 10.3452 18.0426 11.6334C18.0164 11.6599 18.0164 11.6864 18.047 11.7129C18.0733 11.7393 18.0995 11.7393 18.1258 11.7129C19.4305 10.4952 20.7789 9.33046 22.1756 8.21426C22.2106 8.18779 22.2631 8.15691 22.3332 8.12161V8.12602Z" fill="black"/>
    <path d="M19.089 7.61887C17.9989 7.92329 17.2502 8.56301 16.8474 9.54244C16.7248 9.84244 16.7861 9.88656 17.0313 9.6792C17.0488 9.66597 17.0707 9.62626 17.1014 9.56449C17.1232 9.52479 17.1495 9.48949 17.1802 9.45861C17.8237 8.89389 18.4892 8.33359 19.1678 7.77329C19.3867 7.5924 19.3605 7.54387 19.089 7.61887Z" fill="black"/>
    <path d="M26.5228 8.58068C26.5798 8.54979 26.6279 8.50567 26.6673 8.44832C26.7067 8.39538 26.7067 8.34685 26.6629 8.29832C26.606 8.23655 26.5097 8.22773 26.444 8.27626C26.0281 8.5895 25.6691 8.97774 25.3583 9.44099C25.1919 9.69246 25.2269 9.72334 25.459 9.53363C25.8311 9.22922 26.1157 8.82333 26.5228 8.58068Z" fill="black"/>
    <path d="M24.6621 10.4729C24.986 10.1508 25.2181 9.85522 25.1787 9.81111C25.1393 9.7714 24.8459 10.0008 24.522 10.3273C24.198 10.6494 23.9659 10.945 24.0053 10.9847C24.0447 11.0244 24.3381 10.7949 24.6621 10.4685V10.4729Z" fill="black"/>
    <path d="M61.3372 30.7893L61.2978 30.829C61.2628 30.8599 61.2584 30.9172 61.2891 30.9525L61.5255 31.2128C61.5605 31.2481 61.613 31.2525 61.6524 31.2217L61.6918 31.182C68.2327 25.1863 73.4733 20.2538 73.3945 20.17L73.3201 20.0862C73.2413 19.9979 67.8781 24.7936 61.3372 30.7893Z" fill="black"/>
    <path d="M83.4207 36.5871L79.7299 39.9533C79.7081 39.9754 79.6905 39.9974 79.6774 40.0283C79.6555 40.0813 79.6292 40.1298 79.603 40.1739C79.5286 40.2886 79.4235 40.3283 79.2921 40.293L79.1783 40.2622C79.0513 40.2269 78.9375 40.2577 78.8456 40.3504C77.6854 41.4578 76.3325 42.4416 75.2643 43.5225C73.1278 45.6887 70.9037 47.8858 68.592 50.1138C68.4519 50.2506 68.0842 50.5153 67.4931 50.9079C67.3968 50.9741 67.4318 51.1285 67.55 51.1374L68.0141 51.1771C68.0929 51.1859 68.1761 51.1594 68.2374 51.1021C70.8205 48.8079 73.2941 46.3858 75.6539 43.8313C75.9823 43.4784 76.4989 43.0019 77.2038 42.4063C77.7861 41.9166 78.5697 40.8004 79.2702 40.6195C79.4673 40.571 79.6511 40.4783 79.8175 40.3504C81.166 39.3004 82.4444 38.1004 83.6483 36.7547C83.6615 36.7415 83.6615 36.7239 83.6483 36.7106L83.5301 36.5915C83.4951 36.5562 83.4601 36.5562 83.4207 36.5871Z" fill="black"/>
    <path d="M13.7643 39.7987C13.8475 39.7987 13.9175 39.5295 13.9219 39.1986C13.9263 38.8678 13.8606 38.5986 13.7731 38.5986C13.6855 38.5986 13.6198 38.8678 13.6154 39.1986C13.6111 39.5295 13.6767 39.7987 13.7643 39.7987Z" fill="black"/>
    <path d="M16.882 39.8777L17.0658 39.6703C17.1184 39.6085 17.1797 39.5556 17.2454 39.5159C17.3898 39.4232 17.4643 39.3482 17.4686 39.2909C17.5168 38.8012 17.3767 38.735 17.044 39.0924C16.8645 39.2821 16.7681 39.5291 16.755 39.8247C16.7462 39.9615 16.79 39.9791 16.882 39.8777Z" fill="black"/>
    <path d="M39.7181 40.1517C39.6874 40.112 39.648 40.1075 39.6086 40.1384C39.1227 40.5355 38.5929 40.8752 38.0281 41.1576C37.9756 41.184 37.9625 41.2237 37.9887 41.2767C38.015 41.334 38.0544 41.3473 38.1026 41.3208C38.6805 41.034 39.2146 40.6811 39.7049 40.2708C39.7443 40.2355 39.7487 40.1958 39.7181 40.1561V40.1517Z" fill="black"/>
    <path d="M16.9693 41.9073C17.2451 41.7794 17.3502 41.5455 17.2801 41.2058C17.2582 41.0955 17.2845 41.0029 17.3633 40.9279C17.429 40.8617 17.464 40.822 17.4684 40.8043C17.591 40.4117 17.4903 40.3367 17.1663 40.5882C16.7854 40.8838 16.6365 41.2764 16.7109 41.7661C16.7328 41.9294 16.8204 41.9735 16.9693 41.9073Z" fill="black"/>
    <path d="M13.8395 41.043C13.7651 41.0386 13.6863 41.343 13.66 41.7269C13.6337 42.1063 13.6775 42.4239 13.752 42.4283C13.8264 42.4327 13.9052 42.1283 13.9315 41.7445C13.9577 41.3651 13.9139 41.0474 13.8395 41.043Z" fill="black"/>
    <path d="M17.9807 42.4144C18.1953 42.3835 18.3354 42.2423 18.4054 41.9997C18.4361 41.8894 18.4974 41.7923 18.5805 41.7173C18.7075 41.5982 18.7688 41.4659 18.7644 41.3114C18.7644 41.1482 18.7163 41.135 18.6156 41.2629L17.8757 42.2423C17.7662 42.3835 17.8012 42.4409 17.9807 42.4144Z" fill="black"/>
    <path d="M13.8783 43.1338H13.8739C13.8257 43.1338 13.7951 43.1558 13.7907 43.2088C13.7513 43.7559 13.7206 44.3029 13.7031 44.8544C13.7031 44.9294 13.7381 44.9647 13.8126 44.9691H13.922C13.922 44.9691 13.9527 44.9559 13.9527 44.9426C13.9483 44.3647 13.9483 43.7867 13.9483 43.2044C13.9439 43.1603 13.922 43.1382 13.8783 43.1338Z" fill="black"/>
    <path d="M16.7635 44.5945C17.3239 44.5018 17.5778 44.1445 17.5209 43.518C17.5078 43.3547 17.4246 43.3018 17.2714 43.3547C16.9167 43.4783 16.7285 43.7606 16.7022 44.2062C16.7022 44.2459 16.6935 44.2856 16.6759 44.3254C16.6628 44.3606 16.6453 44.4004 16.6322 44.4401C16.5928 44.5636 16.6365 44.6165 16.7635 44.5945Z" fill="black"/>
    <path d="M18.4402 44.1006C18.4489 44.1668 18.5278 44.2021 18.5847 44.1668C18.9087 43.9815 19.0225 43.7477 18.9218 43.4609C18.8955 43.3859 18.7992 43.3594 18.7379 43.4168C18.4971 43.6418 18.4008 43.8668 18.4402 44.1006Z" fill="black"/>
    <path d="M18.397 45.3266C18.3445 45.4854 18.3269 45.578 18.3445 45.6089C18.559 46.0148 18.6991 45.9883 18.7604 45.5339C18.8129 45.1413 18.9968 44.8942 19.312 44.7971C19.5528 44.7221 19.6798 44.5236 19.6929 44.2015C19.7017 44.0427 19.6491 44.0162 19.5309 44.1221C19.1938 44.4354 18.8655 44.7574 18.5415 45.0883C18.4758 45.1589 18.4276 45.2383 18.397 45.3266Z" fill="black"/>
    <path d="M17.5646 45.4502C17.5777 45.2208 17.766 45.0399 17.9937 45.0444C18.1775 45.0488 18.2826 44.9605 18.3133 44.7841C18.3527 44.537 18.2695 44.4796 18.0593 44.6164C17.2669 45.1326 16.7152 45.9179 16.4132 46.9723C16.3562 47.1576 16.4132 47.1973 16.5708 47.087C17.1968 46.6503 17.5252 46.1076 17.5646 45.4502Z" fill="black"/>
    <path d="M18.7336 48.0225C19.1977 47.3652 19.6574 46.699 20.1084 46.024C20.2003 45.8916 20.3185 45.7946 20.4674 45.7328L20.6994 45.6401C20.8395 45.5828 20.9052 45.4813 20.8964 45.3269C20.8877 45.1725 20.8264 45.0578 20.7169 44.9828C20.625 44.9166 20.5549 44.9387 20.5111 45.0445L20.4104 45.296C20.371 45.3887 20.3054 45.4284 20.2134 45.4195C19.9639 45.3975 19.7669 45.5122 19.618 45.7725C19.5655 45.8651 19.5436 46.0284 19.5567 46.271C19.5611 46.4078 19.5173 46.5225 19.4166 46.6152C19.0532 46.9637 18.7161 47.3431 18.414 47.7534C18.0857 48.199 17.7092 48.6578 17.2757 49.1255C17.14 49.2711 17.0612 49.2446 17.0393 49.0461L16.9999 48.7108C16.9955 48.6711 17.0087 48.6358 17.0349 48.6093C17.4114 48.2608 17.6873 47.8858 17.8624 47.4755C17.9631 47.2416 17.8974 47.1755 17.6654 47.2769C17.1969 47.4843 16.8379 47.8196 16.5971 48.2828C16.5227 48.4196 16.5096 48.5608 16.5533 48.7108C16.7022 49.2314 16.7416 49.8049 16.6715 50.4358C16.6672 50.4579 16.6847 50.4755 16.7022 50.4799L16.8204 50.4976C16.8948 50.5064 16.9386 50.4755 16.9517 50.4005C17.0656 49.8402 17.3107 49.3858 17.6916 49.0417C18.3002 48.4814 18.6504 48.1417 18.7336 48.0225Z" fill="black"/>
    <path d="M83.4775 45.1321C83.4205 45.0879 83.368 45.0968 83.3286 45.1585C82.6719 46.2041 81.8882 47.0953 80.9732 47.8409C80.4697 48.2512 80.1939 48.7718 79.7298 49.2218C79.6816 49.2704 79.6247 49.2792 79.5634 49.2439L79.4365 49.1689C79.3007 49.0851 79.2219 49.1248 79.2088 49.2836L79.1519 49.8395C79.1387 49.9277 79.1781 49.9674 79.2701 49.9586L79.8174 49.8924C79.9662 49.8748 80.045 49.791 80.0581 49.641C80.0713 49.4601 80.1457 49.3145 80.2771 49.2042C81.6255 48.0218 82.7594 46.7556 83.6745 45.41C83.7139 45.3482 83.7051 45.2953 83.6482 45.2512L83.4775 45.1321Z" fill="black"/>
    <path d="M13.5768 47.6162L13.7694 47.6647C13.8876 47.6956 13.9489 47.6471 13.9533 47.5235L13.9927 45.6C13.9927 45.4809 13.8789 45.397 13.7694 45.4367L13.6118 45.4941C13.5855 45.5029 13.5724 45.5206 13.5768 45.547C13.6687 46.1912 13.6249 46.8044 13.4454 47.3824C13.4104 47.4838 13.4717 47.5941 13.5768 47.6162Z" fill="black"/>
    <path d="M23.2652 45.4764C23.0113 45.5558 22.8055 45.719 22.6435 45.9661C22.6216 45.997 22.5997 46.0235 22.5691 46.0455C22.5384 46.0676 22.5034 46.0941 22.4728 46.1205C22.302 46.2573 22.3195 46.3014 22.5341 46.2573C22.8974 46.1867 23.1908 45.9926 23.4097 45.6793C23.5585 45.472 23.5104 45.4014 23.2652 45.4764Z" fill="black"/>
    <path d="M21.8294 46.0985C21.7769 46.0544 21.7244 46.0544 21.6675 46.0985C19.9556 47.5765 18.6378 48.9795 17.714 50.2986C17.6046 50.4574 17.4557 50.5633 17.2587 50.6207C17.1536 50.6515 17.088 50.7177 17.0617 50.828C17.0048 51.0795 17.2193 51.1589 17.7053 51.0574C17.7315 51.053 17.7534 51.0398 17.7666 51.0177L18.6597 49.7824C18.6728 49.7603 18.6947 49.7427 18.7166 49.7295C19.0844 49.478 19.3689 49.2618 19.6316 48.8912C20.3015 47.9338 21.1202 47.1177 22.0834 46.4515C22.1447 46.4073 22.1447 46.3588 22.0878 46.3103L21.8294 46.0941V46.0985Z" fill="black"/>
    <path d="M82.9171 48.5255C82.8076 48.3888 82.812 48.252 82.9346 48.124L83.0747 47.9785C83.2104 47.8373 83.1842 47.802 83.0003 47.8682C82.6851 47.9873 82.4749 48.1637 82.3655 48.3976C82.291 48.5564 82.3261 48.6932 82.4618 48.8035L83.2498 49.4299C83.2849 49.4564 83.3199 49.4564 83.3593 49.4344C83.4074 49.4035 83.4425 49.3682 83.4556 49.3241C83.4775 49.2623 83.4687 49.2049 83.4293 49.1564L82.9171 48.5255Z" fill="black"/>
    <path d="M13.8745 48.1854C13.73 48.2339 13.6206 48.3266 13.5461 48.4633C13.4717 48.6089 13.5067 48.7192 13.6424 48.7986L14.0627 49.0325C14.1678 49.0942 14.2116 49.0633 14.1941 48.9442C14.1809 48.8736 14.1372 48.8163 14.0627 48.7722C14.0584 48.6354 14.0627 48.4942 14.0759 48.3442C14.089 48.1898 14.0233 48.1368 13.8745 48.1854Z" fill="black"/>
    <path d="M68.6842 48.2477C68.0494 48.5566 67.4934 49.1125 67.0118 49.9154C66.8498 50.1934 66.8892 50.2243 67.13 50.0169C67.1431 50.0037 67.165 49.964 67.1957 49.9022C67.2176 49.8625 67.2394 49.8272 67.2701 49.8007C67.8874 49.1963 68.3865 48.7198 68.7718 48.3801C69.0564 48.1286 69.0301 48.0845 68.6842 48.2477Z" fill="black"/>
    <path d="M13.655 49.5088C13.5981 49.597 13.5631 49.6941 13.55 49.7956C13.5324 49.9411 13.5894 50.047 13.7251 50.1088C13.8696 50.1794 13.9878 50.2764 14.0753 50.4044C14.1935 50.5765 14.2461 50.5588 14.2286 50.347C14.1979 50.0161 14.0972 49.7382 13.9352 49.5044C13.8389 49.3676 13.747 49.3676 13.655 49.5088Z" fill="black"/>
    <path d="M78.5561 50.2331C78.2015 50.2198 77.9782 50.4095 77.8906 50.7978C77.8556 50.961 77.9169 51.1243 78.0395 51.2125C78.0964 51.2522 78.1577 51.261 78.2234 51.2346C78.2453 51.2257 78.2672 51.2213 78.289 51.2257C78.6524 51.2743 78.8451 51.0625 78.8757 50.5904C78.8888 50.4007 78.7444 50.2419 78.5561 50.2331Z" fill="black"/>
    <path d="M13.7783 55.8353C13.936 55.575 13.9666 55.3368 13.8703 55.1294C13.7959 54.9662 13.7171 54.9662 13.6339 55.1206C13.4806 55.4074 13.4412 55.6412 13.52 55.8177C13.5945 55.9853 13.682 55.9897 13.7783 55.8353Z" fill="black"/>
    <path d="M40.1955 59.0433C40.3137 59.1624 40.445 59.2065 40.5808 59.1801C40.7603 59.1448 40.7734 59.0786 40.6202 58.9771C39.9109 58.5139 38.5756 58.4124 37.8357 58.7036C37.7438 58.7389 37.7043 58.8183 37.7131 58.9418C37.7219 59.0433 37.8138 59.1183 37.9145 59.1095L39.8409 58.9198C39.9766 58.9065 40.0948 58.9463 40.1955 59.0433Z" fill="black"/>
    <path d="M94.3479 67.0727C94.1772 67.1477 94.059 67.3065 94.0327 67.4918C93.9933 67.8006 94.094 68.0124 94.3435 68.1271C94.6106 68.2551 94.6413 68.2065 94.4442 67.9904C94.3217 67.858 94.2691 67.7124 94.2866 67.5492C94.3085 67.3683 94.4267 67.2315 94.65 67.1345C95.2717 66.8697 95.7402 67.0771 96.0554 67.7521C96.086 67.8183 96.1342 67.8359 96.1999 67.8051L96.3181 67.7433C96.3837 67.708 96.4013 67.6595 96.3706 67.5933C95.9897 66.808 95.3155 66.6359 94.3479 67.0727Z" fill="black"/>
    <path d="M63.9989 69.473C63.8719 69.3891 63.8106 69.4244 63.8062 69.5788C63.8062 69.8568 63.7318 70.1568 63.6005 70.4877C63.5611 70.5847 63.6486 70.6906 63.7493 70.6641C64.0076 70.598 64.1871 70.448 64.2966 70.2141C64.3623 70.073 64.3579 69.9362 64.2922 69.7994C64.2265 69.6627 64.1258 69.5524 63.9989 69.473Z" fill="black"/>
    <path d="M39.6171 69.9226C39.3894 70.1035 39.2625 70.3594 39.2406 70.6903C39.2362 70.7123 39.2274 70.7256 39.2056 70.7344C39.1662 70.7476 39.1224 70.7476 39.083 70.7388C39.0085 70.7167 38.9735 70.6682 38.9823 70.5888C38.9998 70.4167 38.9604 70.2888 38.8641 70.2138C38.7459 70.1211 38.6671 70.1476 38.6233 70.2932C38.4875 70.7653 38.6452 71.0873 39.0961 71.2594C39.2406 71.3123 39.3675 71.2859 39.4814 71.1844C39.8272 70.88 39.9498 70.4873 39.8579 70.0153C39.8272 69.852 39.7441 69.8211 39.6171 69.9226Z" fill="black"/>
    <path d="M36.9908 70.3067C36.855 70.3023 36.7325 70.8449 36.7149 71.5155C36.6974 72.1861 36.7938 72.7332 36.9295 72.7376C37.0652 72.742 37.1878 72.1994 37.2053 71.5288C37.2228 70.8581 37.1265 70.3111 36.9908 70.3067Z" fill="black"/>
    <path d="M60.9648 70.5846C60.886 70.4831 60.7809 70.4346 60.654 70.4346L42.0908 70.4522C41.723 70.4522 41.3903 70.6772 41.2546 71.0258L40.6329 72.592C40.5147 72.9008 40.6197 73.0552 40.9481 73.0552L61.4858 73.0905C61.5821 73.0905 61.6697 73.1434 61.7135 73.2317C61.7835 73.3773 61.9017 73.4302 62.0637 73.3817C62.2169 73.3331 62.2695 73.2361 62.2301 73.0817C61.9805 72.1508 61.5602 71.3169 60.9648 70.5846Z" fill="black"/>
    <path d="M66.42 70.3637L66.3106 70.3549C66.2449 70.3505 66.2011 70.3814 66.188 70.4476C66.0829 70.9902 66.0917 71.5196 66.2143 72.0446C66.2274 72.0932 66.258 72.1196 66.3062 72.1241L66.4988 72.1373C66.5601 72.1373 66.6127 72.0932 66.6083 72.0314L66.5339 70.4829C66.5339 70.4211 66.4813 70.3681 66.42 70.3637Z" fill="black"/>
    <path d="M70.3916 71.0699C70.4091 70.9066 70.339 70.8272 70.1771 70.8228C70.0807 70.8184 69.9844 70.8448 69.8837 70.8934C69.7611 70.9596 69.6429 70.9551 69.5247 70.8846C69.2226 70.7125 68.9074 70.6728 68.579 70.7654C68.4346 70.8051 68.3426 70.9022 68.3032 71.0478C68.0756 71.9346 68.5353 72.6096 68.3382 73.4478C68.3207 73.5184 68.347 73.5625 68.4214 73.5758L68.5703 73.5978C68.6447 73.6111 68.6841 73.5802 68.6885 73.5052C68.7542 72.7243 68.798 71.961 68.8198 71.2154C68.8242 71.1316 68.8592 71.0919 68.9337 71.0919C69.03 71.0963 69.0825 71.1449 69.0913 71.2419C69.1176 71.5155 69.2577 71.661 69.5072 71.6831C69.6429 71.6963 69.7174 71.7713 69.7261 71.9125C69.7568 72.4111 69.7042 72.9405 69.5729 73.4964C69.4634 73.9684 69.6079 74.0699 70.0063 73.7964C70.3084 73.589 70.3434 73.3728 70.1114 73.1434C69.9844 73.0155 69.9494 72.8699 70.0107 72.6978C70.1989 72.1728 70.3259 71.6302 70.3916 71.0699Z" fill="black"/>
    <path d="M33.4313 70.9281L30.5767 70.8752C30.4279 70.8708 30.3272 70.9414 30.279 71.0781C30.1521 71.4223 30.1433 71.7664 30.2528 72.1061C30.3009 72.2517 30.3666 72.2605 30.4498 72.1282C30.5461 71.9782 30.6424 71.8282 30.7387 71.6826C30.8219 71.5502 30.892 71.5546 30.9489 71.7002C31.0452 71.9429 31.1415 72.2164 31.2335 72.5208C31.2816 72.6752 31.3385 72.6796 31.413 72.5385C31.5618 72.2561 31.6012 71.934 31.5312 71.5767C31.4743 71.2899 31.5793 71.2017 31.8464 71.312L32.0522 71.4002C32.3017 71.5017 32.4243 71.687 32.4243 71.9561C32.4243 72.3487 32.4199 72.7635 32.4156 73.1958C32.4112 73.3944 32.4681 73.5355 32.5863 73.6194C32.687 73.6944 32.7439 73.6679 32.7527 73.5399L32.8928 71.5502C32.9103 71.3252 33.0022 71.2855 33.173 71.4311C33.7027 71.8855 33.8778 72.4635 33.6983 73.1738C33.6677 73.2885 33.6677 73.3811 33.6983 73.4517C33.7377 73.5532 33.799 73.6238 33.8866 73.6635C34.0311 73.7297 34.1055 73.6811 34.1186 73.5223L34.2368 71.8149C34.2675 71.3428 33.9041 70.937 33.4357 70.9281H33.4313Z" fill="black"/>
    <path d="M65.1463 70.8714C65.0193 70.7788 64.958 70.8097 64.958 70.9641C64.958 71.145 65.0149 71.2773 65.1244 71.3523C65.1594 71.3744 65.1857 71.4009 65.2076 71.4406C65.2513 71.5156 65.3126 71.5641 65.3958 71.5862C65.4878 71.6082 65.5228 71.5773 65.5009 71.4847C65.4308 71.2023 65.3126 70.9994 65.1463 70.8714Z" fill="black"/>
    <path d="M35.0245 71.5242C35.1646 72.0801 35.169 72.6801 35.0332 73.3286C35.0201 73.4037 35.0464 73.4478 35.1208 73.4654L35.2478 73.4963C35.3003 73.5095 35.3528 73.4698 35.3616 73.4125L35.436 72.6845C35.4535 72.4948 35.5061 72.3139 35.5936 72.1419C35.7994 71.7271 35.7644 71.4139 35.4973 71.2066C35.0376 70.8536 34.88 70.9595 35.0245 71.5242Z" fill="black"/>
    <path d="M38.2996 71.1539C38.1771 71.1848 38.2033 71.6789 38.3609 72.2524C38.5142 72.826 38.7375 73.2628 38.86 73.2319C38.9826 73.201 38.9564 72.7069 38.7987 72.1333C38.6455 71.5598 38.4222 71.123 38.2996 71.1539Z" fill="black"/>
    <path d="M67.3923 71.8018C67.3004 71.8062 67.261 71.8503 67.2697 71.9385C67.2873 72.1018 67.3442 72.2165 67.4361 72.2871C67.5806 72.3929 67.6857 72.3532 67.7513 72.1724C67.7776 72.1106 67.7645 72.0356 67.7251 71.9782C67.6419 71.8591 67.5324 71.8018 67.3923 71.8018Z" fill="black"/>
    <path d="M4.10669 72.4641C3.95346 72.9671 3.95346 73.3068 4.10231 73.4833C4.22052 73.6289 4.30808 73.6068 4.35624 73.4259C4.46569 73.0244 4.43943 72.698 4.27744 72.4377C4.20301 72.3186 4.14609 72.3274 4.10669 72.4641Z" fill="black"/>
    <path d="M74.7916 72.8078C74.7084 72.746 74.5859 72.7857 74.5596 72.8872C74.4764 73.2181 74.5596 73.4386 74.8048 73.5489C74.9055 73.5975 74.9667 73.5666 74.993 73.4563C75.0061 73.4078 75.0061 73.3592 74.993 73.3107C74.9843 73.2622 74.9492 73.1475 74.8923 72.9666C74.8704 72.9004 74.8354 72.8475 74.7872 72.8078H74.7916Z" fill="black"/>
    <path d="M27.8576 72.8606C27.7175 72.8517 27.5861 73.1297 27.5599 73.4782C27.538 73.8267 27.6299 74.1179 27.77 74.1312C27.9101 74.14 28.0415 73.862 28.0677 73.5135C28.0896 73.165 27.9977 72.8738 27.8576 72.8606Z" fill="black"/>
    <path d="M26.6148 73.0593L26.4835 73.1475C26.4047 73.2049 26.339 73.1917 26.2865 73.1078C26.2383 73.0373 26.1945 73.002 26.1508 73.002C26.0019 73.0064 25.8924 73.1475 25.9275 73.2931C26.0019 73.6064 26.1551 73.7255 26.3872 73.6549C26.6367 73.5799 26.7812 73.4211 26.8162 73.1872C26.8425 72.9975 26.7768 72.9534 26.6148 73.0593Z" fill="black"/>
  </g>
  <defs>
    <clipPath id="clip0_578_3125">
      <rect width="110" height="80" fill="white" transform="translate(0 0.166992)"/>
    </clipPath>
  </defs>
</svg>