<svg xmlns="http://www.w3.org/2000/svg" width="62" height="81" viewBox="0 0 62 81" fill="none">
  <g clip-path="url(#clip0_578_3117)">
    <path d="M53.076 21.6584C53.4105 21.6584 53.7319 21.7242 54.0402 21.8426C54.2042 21.9018 54.3223 21.8492 54.3813 21.6847L54.4469 21.5006C54.4994 21.3625 54.4273 21.2112 54.2895 21.1651C53.8238 21.0007 53.3449 20.9481 52.8595 21.0139C52.8005 21.1191 52.7677 21.2178 52.7611 21.3033C52.7414 21.5335 52.8464 21.6519 53.076 21.6584Z" fill="black"/>
    <path d="M60.4563 45.6918C59.8987 43.883 59.7216 42.4558 59.925 41.41C61.8207 31.3601 61.355 21.2971 55.5891 12.6153C51.6008 6.61033 46.1039 2.74297 39.0916 1.01318C30.105 -1.20332 20.6329 0.0989548 13.6404 6.16309C5.17192 13.5032 4.12238 23.4215 3.69601 33.8989C3.65665 34.8592 3.45986 35.7471 3.10564 36.5693C1.88555 39.4303 0.986888 41.5547 0.888494 45.2051C0.672027 53.2555 3.26307 60.2338 8.66819 66.1401C11.4626 69.1919 15.1097 71.2177 19.216 71.0467C19.9573 71.0138 20.6526 71.4216 20.9806 72.0924C23.0337 76.19 26.6284 78.0119 31.7711 77.5515C32.6239 77.4791 32.9584 77.0187 32.7747 76.1768C32.1909 73.5263 31.7974 70.9612 32.0204 68.2119C32.4271 63.233 33.6931 58.8395 35.8184 55.0379C38.6653 49.9472 42.1812 45.1524 46.3662 40.6602C47.0419 39.9302 47.1337 39.9959 46.6418 40.8641C45.5463 42.7649 44.2934 44.646 42.8831 46.5139C40.4495 49.7433 39.1048 51.552 38.8555 51.9466C34.395 59.05 31.4628 68.1133 34.1588 76.4531C34.9657 78.9458 36.658 80.235 39.2491 80.3336C39.9182 80.3599 40.4692 80.1166 40.8955 79.597C41.171 79.2681 41.0005 78.7617 40.5872 78.663L40.1805 78.5644C39.951 78.5052 39.787 78.3736 39.6754 78.1697C39.131 77.1174 38.8883 75.9861 38.9473 74.7759C38.9605 74.5589 38.908 74.3616 38.7899 74.1774C37.9896 72.9606 38.2717 71.7636 38.1274 70.6981C37.924 69.1656 37.8912 67.6266 38.0159 66.0809C38.0683 65.4693 38.2651 64.7326 38.6128 63.8644C39.1835 62.4503 39.2884 61.1349 40.4429 59.8392C40.9874 59.2275 41.3416 58.6487 41.5187 58.1028C41.9123 56.8335 41.9779 55.4391 42.5289 54.2881C44.0376 51.1245 45.8349 48.1253 47.9274 45.2971C48.3145 44.7775 48.3604 44.8038 48.0652 45.3826C47.6913 46.139 47.2256 46.948 46.6811 47.8162C45.2708 50.059 43.9654 53.0911 42.7519 56.9255C42.6797 57.1426 42.5617 57.3267 42.3846 57.478C42.0369 57.774 41.8401 58.1489 41.7876 58.6159C41.7548 58.8987 41.8729 59.0828 42.1287 59.1815C42.3911 59.2802 42.5354 59.4709 42.5617 59.7406C42.5748 59.905 42.5026 59.9576 42.3518 59.8984C42.1878 59.8392 42.0959 59.7208 42.0697 59.5432C42.0369 59.3393 41.9188 59.2538 41.7089 59.2933C41.5515 59.3262 41.44 59.4249 41.3744 59.5959C41.3088 59.7734 41.1907 59.8984 41.0202 59.9839L40.4364 60.2733C40.2461 60.3654 40.1281 60.5167 40.0756 60.7205C39.8919 61.4375 39.6492 62.1346 39.354 62.8187C39.0851 63.4435 38.9145 64.1341 38.8489 64.8773C38.5997 67.8041 38.6259 70.6455 38.9342 73.4145C39.0392 74.3418 39.4655 74.5326 40.2133 73.9735C40.4692 73.7828 40.7643 73.6841 41.0989 73.6775C41.3613 73.671 41.4006 73.763 41.2235 73.9538L39.951 75.3284C39.8132 75.4731 39.787 75.6375 39.8657 75.8151L41.1317 78.834C41.2432 79.1037 41.5581 79.2352 41.8336 79.13C46.996 77.1503 50.9383 73.763 53.6474 68.9617C55.1102 66.3769 56.5664 63.7921 58.0292 61.2007C59.9906 57.7214 61.0204 53.9592 61.1254 49.9143C61.1582 48.6581 60.9351 47.2505 60.4563 45.6918ZM4.05022 49.546C3.82064 49.2105 3.67633 48.8554 3.61729 48.4936C2.36441 41.3048 5.7426 36.4969 11.4035 32.6953C11.5544 32.5901 11.7643 32.6361 11.8693 32.7874L11.9742 32.9321C12.0267 33.011 12.007 33.1097 11.9283 33.1623C6.10338 36.806 3.91903 42.7123 4.22077 49.4868C4.23389 49.7104 4.17486 49.7301 4.05022 49.546ZM7.27755 55.2484C6.75934 53.7751 6.10338 52.361 5.32279 51.0061C5.28999 50.9469 5.30311 50.9009 5.35559 50.8614H5.36215C5.42118 50.8154 5.48022 50.8285 5.52614 50.8877C6.33953 51.9532 6.87086 53.1502 7.12012 54.4854C7.12668 54.5051 7.13324 54.5249 7.14636 54.5446C7.25131 54.6498 7.3825 54.7222 7.53338 54.7617C7.74984 54.8143 7.80232 54.9392 7.70393 55.1431C7.67113 55.2023 7.62521 55.2615 7.57273 55.3207C7.43498 55.4523 7.33659 55.4259 7.27755 55.2484ZM8.64851 56.3139C8.537 56.4388 8.35333 56.5046 8.11062 56.5046C8.01223 56.623 7.90071 56.669 7.7892 56.6427C7.63833 56.6098 7.61209 56.5243 7.69737 56.3994C7.90071 56.1034 8.1959 55.9982 8.56979 56.0705C8.74034 56.1034 8.76658 56.1823 8.64851 56.3139ZM8.87154 46.31C8.87154 46.3758 8.82562 46.4021 8.76002 46.3955C8.69443 46.3889 8.66163 46.3561 8.66819 46.2969C8.68787 45.6523 8.75346 45.0143 8.85842 44.3698C8.85842 44.3434 8.85842 44.3237 8.85842 44.2974C8.86498 44.2974 8.87154 44.2974 8.87154 44.304C8.87154 44.3237 8.87154 44.35 8.86498 44.3698C8.89777 45.034 8.97649 45.626 8.87809 46.31H8.87154ZM10.9968 61.3914C10.9378 61.4901 10.8788 61.4835 10.8329 61.3717C10.6426 60.9442 10.577 60.635 10.6361 60.4509C10.6885 60.2996 10.8919 60.2865 10.9641 60.4246C11.1674 60.8061 11.174 61.1283 10.9968 61.3914ZM12.276 40.7457C11.4691 41.8836 10.905 43.1267 10.5836 44.4618C10.4196 45.1459 10.19 46.2837 9.88827 47.882C9.67181 49.0264 9.59309 50.1905 9.66525 51.3744C9.66525 51.3941 9.65869 51.4007 9.64557 51.4007L9.48158 51.4139C9.37007 51.4205 9.31103 51.3678 9.29135 51.2626C9.1208 50.0524 9.17328 48.8619 9.45534 47.6978C9.71772 46.6126 9.85548 46.0272 9.87516 45.9285C10.0588 45.0012 10.2556 44.1132 10.4721 43.2516C10.5902 42.7847 10.8263 42.3308 11.1805 41.9033C11.4954 41.5284 11.8037 41.1009 12.0989 40.6208C12.1317 40.5616 12.1841 40.5484 12.2432 40.5879H12.2497C12.3088 40.6339 12.3219 40.6866 12.276 40.7457ZM9.38974 43.3437C9.63901 42.7057 9.87516 42.0546 10.1047 41.3969C10.3802 40.5747 11.01 40.1078 11.2658 39.233C11.3511 38.9633 11.4626 38.9502 11.6003 39.1935C11.7118 39.3974 11.7118 39.5947 11.5872 39.7855C10.8263 40.9496 10.1638 42.1598 9.59309 43.4292C9.56685 43.4884 9.52094 43.5081 9.45534 43.4818H9.44878C9.38974 43.4555 9.37007 43.4095 9.38974 43.3437ZM15.195 37.6808C15.0572 37.5953 14.9261 37.6019 14.8014 37.7137C13.9618 38.4306 13.3058 39.1343 12.827 39.8184C12.6761 40.042 12.5908 40.0157 12.5777 39.746V39.4698C12.5646 39.2988 12.6171 39.1541 12.7417 39.0291L14.0995 37.6216C14.2373 37.4835 14.4013 37.3914 14.5915 37.3454C14.8342 37.2862 15.031 37.1415 15.1688 36.9178C15.2737 36.7403 15.4246 36.6679 15.6214 36.7008C15.851 36.7337 16.0674 36.714 16.2708 36.6482C16.5004 36.5758 16.5528 36.4377 16.4282 36.2338C16.2511 35.9378 16.0215 35.7076 15.7394 35.5366C15.5164 35.3985 15.3852 35.4643 15.3459 35.7208L15.2672 36.1812C15.2344 36.4114 15.1097 36.4837 14.8933 36.3851L14.7227 36.3127C14.5718 36.2404 14.4275 36.2601 14.3029 36.3654L11.889 38.3254C11.7446 38.4437 11.5872 38.47 11.4101 38.4043C11.1346 38.3056 10.8788 38.4043 10.6426 38.7002C8.33365 41.6534 7.16604 45.0077 7.1398 48.7501C7.13324 49.3487 7.28411 49.9603 7.59241 50.5917C7.90727 51.2429 8.16966 51.8414 8.38612 52.3873C8.60259 52.9332 8.51076 52.9858 8.11718 52.5583C7.00205 51.3284 6.44448 49.8617 6.45104 48.1713C6.46416 44.008 7.61865 40.3051 10.9444 37.5361C11.0952 37.4111 11.3183 37.5229 11.3117 37.7203L11.2986 37.9373C11.2855 38.2004 11.3511 38.2267 11.5019 38.0096C11.6135 37.8584 11.679 37.6874 11.7118 37.4966C11.7446 37.2796 11.8758 37.0954 12.0661 36.9968L16.4413 34.6158C16.684 34.4843 16.7627 34.5501 16.6709 34.8132C16.6447 34.8723 16.625 34.9315 16.6053 34.9907C16.5594 35.1091 16.5725 35.2209 16.6381 35.3262C17.0842 36.0168 17.1957 36.5627 16.9661 36.977C16.8021 37.2664 16.2839 37.5164 15.4115 37.7203C15.3327 37.74 15.2606 37.7268 15.195 37.6808ZM18.4682 36.1154C18.5666 36.3325 18.5798 36.5298 18.4945 36.7074C18.383 36.9507 18.2124 37.0033 17.9828 36.8652C17.8844 36.8126 17.8188 36.7337 17.7795 36.6219C17.7467 36.5495 17.7532 36.4509 17.786 36.3259C17.9238 35.8392 17.8713 35.3722 17.6221 34.925C17.5105 34.7276 17.563 34.5961 17.7795 34.5238C17.9238 34.4777 18.0681 34.458 18.2059 34.4711C18.4354 34.4909 18.5273 34.6158 18.4945 34.8395L18.3895 35.4643C18.3502 35.6879 18.3764 35.905 18.4682 36.1154ZM17.7992 44.133C17.7992 44.133 17.8648 44.1593 17.8713 44.1922L17.9107 44.3763C17.9304 44.4816 17.8516 44.5802 17.7467 44.5868C17.2154 44.6263 16.9071 44.8828 16.8218 45.3497C16.3429 47.9083 16.4348 50.572 17.1104 53.3344C17.1235 53.4068 17.0973 53.4462 17.0317 53.466L16.848 53.512C16.7759 53.5317 16.7234 53.5054 16.6971 53.4265C15.8182 50.5786 15.5427 47.9938 15.8641 45.672C16.0084 44.6197 16.6512 44.1067 17.7992 44.133ZM17.1235 66.2059C16.6316 66.1993 16.1921 66.0283 15.805 65.706C15.6804 65.6008 15.687 65.5087 15.8313 65.4298C15.8903 65.3969 15.9494 65.3772 16.0215 65.3706C16.0871 65.364 16.1396 65.3509 16.1855 65.3311C16.4872 65.1996 16.7955 65.1996 17.1104 65.3377C17.3662 65.4495 17.4909 65.6139 17.4909 65.8441C17.4909 66.0875 17.3662 66.2125 17.1235 66.2059ZM18.8356 67.5871C18.383 67.4029 18.0287 67.0412 17.7729 66.4953C17.6286 66.1862 17.7008 66.1204 17.9828 66.3111C18.3502 66.5611 18.6781 66.9425 18.9602 67.449C19.0455 67.6134 19.0061 67.6594 18.8356 67.5871ZM19.7998 44.0212C19.5112 44.5013 19.1176 44.692 18.6126 44.5868C18.3502 44.5342 18.337 44.4421 18.5666 44.3106C18.8356 44.1527 19.2554 44.0475 19.5637 43.9422C19.6162 43.9225 19.6752 43.9159 19.7342 43.9094C19.8195 43.9028 19.8458 43.9422 19.7998 44.0212ZM20.7641 36.589C20.7116 36.6811 20.646 36.6942 20.5673 36.6219L20.4164 36.4903C20.4164 36.4903 20.3836 36.4443 20.3968 36.4114C20.6919 35.8063 20.6591 35.313 20.3049 34.9381C20.1409 34.7605 19.9769 34.7605 19.813 34.9381C19.4653 35.3262 19.4456 35.7931 19.7539 36.3259C19.8654 36.5232 19.813 36.6416 19.5834 36.6745C19.4194 36.6942 19.3079 36.635 19.262 36.4903C18.9733 35.6419 19.157 34.971 19.813 34.4909C20.0032 34.3528 20.1934 34.3396 20.3968 34.4383C21.2036 34.8395 21.3282 35.5564 20.7641 36.5824V36.589ZM21.8792 36.7468C21.689 36.3719 21.6562 35.951 21.794 35.4972C21.7218 35.3591 21.7021 35.2209 21.7349 35.096C21.7677 34.971 21.8464 34.8921 21.9842 34.8592C22.0498 34.846 22.1154 34.8395 22.1875 34.846C22.3384 34.8592 22.4171 34.9381 22.4302 35.0828C22.4893 35.6616 22.4171 36.2141 22.2007 36.7337C22.1023 36.9639 21.9973 36.9705 21.8792 36.7468ZM46.6942 36.9113C44.687 36.6811 43.3291 35.8655 41.1317 36.8192C38.8686 37.7992 36.9729 40.1604 35.5823 42.2124C34.4737 43.8436 33.411 45.4616 32.3812 47.0598C29.2916 51.8546 27.2843 56.8795 26.3594 62.1412C26.038 63.9631 25.7888 65.8639 25.6117 67.8436C25.6051 67.9291 25.5526 67.9686 25.4673 67.962C25.3952 67.9554 25.3624 67.916 25.3624 67.8436C25.8216 56.8203 30.2362 46.948 37.0778 38.4635C37.1238 38.4043 37.1238 38.3517 37.0713 38.3056H37.0647C37.0122 38.253 36.9598 38.253 36.9073 38.299C31.5743 43.199 27.8222 49.1119 25.651 56.0508C24.0898 61.0428 22.8632 65.5219 23.6962 70.0272C24.1161 72.2832 27.3237 73.4408 29.3375 73.9735C29.6458 74.059 29.9541 74.2958 30.2559 74.6904C30.3214 74.7759 30.3608 74.868 30.3674 74.9798C30.3936 75.2626 30.1378 75.4863 29.8557 75.4336C27.691 75.0061 25.651 73.842 23.7356 71.9346C22.9288 71.1256 22.4696 70.0469 22.3646 68.7052C21.9514 63.5553 22.6861 58.5764 24.5687 53.7685C26.2873 49.3881 28.4388 44.8828 31.6137 41.5679C33.7324 39.3514 36.1661 37.4901 38.9014 35.9905C41.0202 34.8263 42.8897 34.3593 44.5099 34.5895C45.5135 34.7276 46.3859 35.2275 47.1272 36.0825C47.6978 36.7337 47.5535 37.0099 46.6942 36.9113ZM23.0862 35.7866C23.1452 35.563 23.283 35.438 23.506 35.4051C24.1029 35.3196 24.5621 35.5235 24.8835 36.0168C25.0147 36.2207 25.0344 36.4311 24.9491 36.6548L24.8245 36.9902C24.772 37.1283 24.7458 37.1217 24.7523 36.977C24.7523 36.6548 24.6671 36.3456 24.49 36.0628C24.2997 35.7537 23.8406 35.8195 23.7422 36.168C23.67 36.4443 23.5454 36.7271 23.3814 37.0165C23.2568 37.227 23.1649 37.2138 23.0993 36.977C22.9878 36.589 22.9878 36.1878 23.0862 35.7866ZM25.5001 37.9044C25.9331 37.398 25.9068 37.0165 26.1955 36.5495C26.2545 36.4574 26.3332 36.4377 26.425 36.4969L26.5628 36.589C26.5628 36.589 26.5956 36.6284 26.5825 36.6548L25.9134 38.082C25.8609 38.1938 25.7756 38.2201 25.6641 38.1741C25.592 38.1478 25.5395 38.1083 25.4936 38.0491C25.4608 37.9965 25.4608 37.9505 25.5001 37.9044ZM27.022 37.8321C27.2253 37.2204 27.3959 37.227 27.5271 37.865C27.5467 37.9505 27.5927 38.082 27.6779 38.2464C27.7763 38.4372 27.9272 38.5819 28.124 38.6805C28.6225 38.9239 28.9111 39.1672 28.9898 39.404C29.3309 40.4629 29.1407 40.5682 28.4257 39.7197C28.1765 39.4237 27.8091 39.0554 27.3172 38.6082C27.1925 38.4964 27.1138 38.3911 27.0679 38.2793C26.9957 38.0951 26.9826 37.9439 27.022 37.8321ZM47.5929 33.0373C41.7548 30.4722 36.927 33.0242 32.3812 37.2072C32.2172 37.3585 32.0597 37.3454 31.9154 37.1809C29.8688 34.8592 28.3208 33.4254 27.2778 32.8795C23.3879 30.8471 19.2816 30.0447 14.9588 30.4591C14.6768 30.4854 14.4275 30.2749 14.4078 29.9855C14.2832 28.1439 14.5128 26.2366 15.09 24.27C17.0251 17.6073 20.587 12.6087 25.7625 9.28066C28.0715 7.8008 30.5314 7.56402 33.1486 8.58348C38.6456 10.7276 43.1848 15.8315 45.5201 21.1656C47.16 24.9277 47.9996 28.7885 48.0389 32.7414C48.0455 33.0702 47.8946 33.1689 47.5929 33.0373ZM45.9399 16.7523C43.3095 12.9178 40.4626 9.99757 37.3993 7.99154C31.0627 3.86108 23.6503 3.5388 17.4449 8.15596C13.4895 11.096 10.7935 15.2198 9.34383 20.5144C8.36645 24.0661 7.65145 27.552 7.19228 30.9787C7.08732 31.7482 6.94301 32.498 6.75278 33.2281C6.55599 33.9713 6.33297 34.7671 6.09026 35.6024C6.09026 35.6287 6.06402 35.6419 6.03779 35.6353L5.86068 35.6024C5.78852 35.5958 5.76228 35.5498 5.76884 35.4774C6.24769 31.7482 6.7659 28.1242 7.32347 24.5988C8.537 16.9957 11.9677 10.0962 18.7634 6.02497C26.471 1.40123 35.7987 3.71639 41.7024 10.0436C46.5237 15.2001 50.7021 21.5339 51.3056 28.5846C51.7582 33.8266 51.4303 39.7789 48.7736 44.1724C48.3932 44.7973 48.3144 44.7644 48.544 44.0672C51.5221 34.9447 51.5155 24.8948 45.9399 16.7523ZM53.9754 57.5306C53.6671 60.885 52.8734 63.6671 51.6008 65.8705C49.7969 68.988 47.5404 71.5663 44.8247 73.6118C44.6476 73.7433 44.4574 73.7828 44.2475 73.7236C43.6309 73.546 43.0996 73.5657 42.6469 73.7696C41.8204 74.1511 41.7024 73.9932 42.2927 73.2961C43.6178 71.7241 45.0806 70.0206 46.6745 68.179C47.3371 67.4095 47.3567 66.9096 46.7598 66.1204C46.5696 65.8639 46.176 65.9428 46.0907 66.2519C45.5988 68.0738 44.5033 69.4813 42.8044 70.481C42.6142 70.5928 42.4633 70.7375 42.3452 70.9217C41.7548 71.8622 40.9611 72.5397 39.9575 72.9672C39.741 73.0593 39.6951 73.0067 39.8132 72.8028C40.5807 71.4873 41.604 70.4284 42.87 69.6326C43.0536 69.5208 43.1914 69.3629 43.2767 69.159C43.867 67.7844 44.5624 66.5347 45.3561 65.4101C45.8349 64.726 45.5201 63.7723 44.7263 63.5158C44.3328 63.3909 43.9392 63.3317 43.5391 63.3448C42.647 63.3777 42.5354 63.0949 43.198 62.4964C43.972 61.7926 44.2672 61.0428 44.418 59.9313C44.7001 57.8069 45.2511 55.7548 46.0711 53.7751C46.4122 52.9398 47.3764 52.236 47.442 51.0916C47.4551 50.868 47.5732 50.7627 47.7962 50.7693C48.59 50.7891 49.2 51.085 49.6329 51.6638C49.7641 51.8414 49.8822 51.8348 49.9806 51.6309C50.302 50.9535 50.7677 50.2826 51.3778 49.6249C51.8304 49.1382 51.9878 48.612 51.8566 48.0398C51.8173 47.8491 51.8501 47.6781 51.955 47.5202L54.0148 44.4487C54.3231 43.9817 54.5198 44.0277 54.6051 44.5802C54.8085 45.8825 54.0279 46.9151 54.1263 48.3424C54.3296 51.1771 54.2771 54.2421 53.9754 57.5306ZM54.6379 43.4753C54.6707 43.5345 54.7101 43.5739 54.7691 43.6002C54.8544 43.6397 54.8544 43.6792 54.7691 43.7252C54.6838 43.7712 54.6182 43.7778 54.5789 43.7449C54.3034 43.5279 53.9032 43.5739 53.6802 43.8436C52.8668 44.817 52.0075 45.751 51.1088 46.652C50.9449 46.8165 50.853 47.0203 50.8333 47.2505L50.8137 47.5005C50.8005 47.6518 50.7349 47.7899 50.6234 47.8951C50.0659 48.4344 49.751 49.0921 49.6854 49.8683C49.6657 50.0853 49.5411 50.2037 49.3246 50.2234C48.9048 50.2563 48.5047 50.2103 48.1177 50.0787C47.9012 50.0064 47.8553 49.8682 47.9668 49.6709L48.9114 48.0266C49.0229 47.8359 49.1672 47.6781 49.3443 47.5531C50.7153 46.5863 51.1613 45.1459 52.2568 44.2579C52.8537 43.7778 53.49 43.3766 54.1722 43.0675C54.592 42.8767 54.8085 42.4032 54.6707 41.9625C54.592 41.7192 54.5986 41.581 54.697 41.5482C54.697 41.5482 54.7013 41.5482 54.7101 41.5482C54.7953 41.5284 54.8478 41.5613 54.8675 41.6534C54.9528 42.1598 54.8741 42.64 54.6379 43.1069C54.5723 43.2319 54.5723 43.3569 54.6379 43.4818V43.4753ZM51.7451 42.9557C51.9485 42.6071 52.2109 42.3111 52.5257 41.8573C52.6241 41.7192 52.7356 41.6008 52.8668 41.5021C53.0767 41.3377 53.1554 41.3903 53.1095 41.6468C52.9718 42.3506 52.5651 42.8504 51.896 43.1333C51.6664 43.2319 51.6139 43.1727 51.7451 42.9557ZM54.756 39.9104C54.4018 40.2722 54.0016 40.4629 53.8704 40.338C53.7392 40.2064 53.9229 39.8052 54.2771 39.4435C54.6314 39.0817 55.0315 38.891 55.1627 39.016C55.2939 39.1475 55.1102 39.5487 54.756 39.9104ZM56.2647 59.1289C56.0417 59.6222 55.8974 59.5959 55.8252 59.0631C55.7793 58.7342 55.8186 58.287 55.9433 57.7148C56.5796 54.8274 56.9207 52.1374 56.96 49.6381C56.9928 47.7504 56.6845 45.8036 56.0351 43.8041C55.9433 43.5213 55.8908 43.1201 55.8842 42.6005C55.8777 42.1072 55.7596 41.6863 55.5366 41.3311C55.4251 41.1535 55.4185 40.9759 55.5169 40.7984C55.9695 39.9762 56.5468 39.3645 57.2486 38.9765C57.3405 38.9239 57.4585 38.9962 57.452 39.1015C57.3601 41.3574 57.5045 43.6002 57.8915 45.8233C58.7311 50.6378 58.2785 54.7617 56.2647 59.1289ZM57.7275 37.1217C57.6422 37.4177 57.4585 37.5032 57.1699 37.3914C56.5664 37.148 56.0745 37.2796 55.7006 37.7992C55.5891 37.9505 55.4382 38.0688 55.2611 38.1346L54.1656 38.5292C53.8639 38.6411 53.8114 38.5687 54.0148 38.3188L55.6678 36.2733C55.917 35.9642 55.8974 35.6682 55.6087 35.3919C55.4907 35.2736 55.3529 35.2341 55.2086 35.2538C55.143 35.2801 55.0774 35.3064 54.9987 35.3262C54.7757 35.7208 54.5133 35.905 54.205 35.8852C54.0148 35.8721 53.8442 35.7866 53.7065 35.6287C53.5162 35.4117 53.5621 35.3064 53.8508 35.313L54.9987 35.3262C55.0709 35.2867 55.143 35.267 55.2086 35.2538C55.3529 35.2012 55.4841 35.142 55.5825 35.0697C55.9958 34.754 56.0876 34.3791 55.8514 33.9384C55.7399 33.7345 55.5759 33.6622 55.3529 33.7279C55.1692 33.7805 54.9987 33.8595 54.8347 33.9581C54.6314 34.0831 54.4608 34.1489 54.3296 34.1489C54.0475 34.1489 53.7983 34.037 53.5949 33.8332C53.4506 33.695 53.2866 33.6687 53.1095 33.7477C52.9455 33.8266 52.8012 33.82 52.6897 33.7213C52.552 33.5964 52.5716 33.5306 52.7553 33.5175C53.7524 33.4319 54.6314 33.2281 55.3988 32.9058C55.7202 32.7677 55.7662 32.5703 55.5366 32.3073L55.2283 31.9587C54.9856 31.689 54.7035 31.6364 54.3755 31.7942C53.9229 32.0244 53.4441 32.1165 52.939 32.0705C52.4076 32.0244 52.3748 31.86 52.834 31.5903C53.5884 31.1497 54.3559 30.9195 55.1496 30.8866C55.3529 30.88 55.4447 30.7748 55.4119 30.5709L55.3004 29.9395C55.2676 29.729 55.084 29.5843 54.8741 29.5975C54.2771 29.6435 53.8114 29.7948 53.4769 30.0579C52.8931 30.5183 52.7553 30.413 53.0636 29.7356C53.3981 28.999 54.1459 28.6964 55.307 28.8345C55.6284 28.874 55.7465 28.7359 55.6547 28.4202L55.5825 28.1702C55.4841 27.8151 55.248 27.6572 54.8806 27.6901C54.2968 27.7493 53.7917 27.9269 53.3653 28.2228C53.2604 28.2952 53.1226 28.236 53.0964 28.1176L53.0505 27.8808C53.0046 27.6375 53.0767 27.4467 53.2735 27.2955C53.7589 26.9206 54.2575 26.8219 54.7625 26.9863C55.1627 27.1179 55.3267 26.9863 55.2676 26.5654C55.1824 26.0129 54.9856 25.763 54.6838 25.8222C54.1066 25.9274 53.6736 26.0655 53.3916 26.23C52.7553 26.6049 52.5848 26.4536 52.8865 25.7761C53.2079 25.0592 53.877 24.7304 54.9003 24.7962C55.1233 24.8159 55.2414 24.7107 55.2611 24.4805C55.2873 24.1845 55.202 23.9411 55.0052 23.7635C54.8347 23.6123 54.6707 23.6188 54.5133 23.7833C54.0344 24.2766 53.4441 24.4607 52.7291 24.3226C52.447 24.27 52.3617 23.9082 52.5913 23.7372C53.1095 23.3492 53.7196 23.2111 54.4149 23.3229C54.6379 23.3623 54.7625 23.2703 54.7888 23.0401C54.8216 22.7441 54.7232 22.4942 54.487 22.2968C54.3099 22.1521 54.1459 22.1587 53.9885 22.3166C53.6933 22.6125 53.3457 22.777 52.9455 22.8099C52.7291 22.8296 52.611 22.7244 52.5979 22.5073C52.5716 22.0798 52.4208 21.7049 52.1453 21.3826C51.9813 21.1919 52.0206 21.0603 52.2633 21.0011C52.4142 20.9617 52.611 20.9683 52.8603 21.0143C53.2801 20.7578 53.6146 20.475 53.8639 20.1527C54.0082 19.9619 53.9885 19.7909 53.8114 19.6331C53.5556 19.416 53.2735 19.3832 52.9652 19.5344C52.5388 19.7383 52.5192 20.1856 52.1846 20.4947C51.9878 20.6854 51.6533 20.5934 51.5746 20.3303C50.7546 17.752 49.5936 15.3251 48.098 13.0494C47.9799 12.8718 48.0193 12.7468 48.2161 12.6613C48.2751 12.635 48.3276 12.6284 48.38 12.635C48.4784 12.6547 48.5244 12.7205 48.5309 12.8192C48.544 13.102 48.6687 13.3848 48.8983 13.6676C49.2197 14.0688 49.8625 13.9241 49.9872 13.4243C50.0331 13.2269 50.0331 13.0494 49.9872 12.8849C49.8494 12.4706 50.2692 12.0957 50.6628 12.2798C51.404 12.6284 52.0141 13.0954 52.4929 13.6808C55.0446 16.7983 56.7107 20.3368 57.4913 24.2963C58.2326 28.0453 58.8361 33.1886 57.734 37.1217H57.7275Z" fill="black"/>
    <path d="M52.8595 21.0139C53.3449 20.9481 53.8238 21.0007 54.2895 21.1651C54.4273 21.2112 54.4994 21.3625 54.4469 21.5006L54.3813 21.6847C54.3223 21.8492 54.2042 21.9018 54.0402 21.8426C53.7319 21.7242 53.4105 21.665 53.076 21.6584C52.8464 21.6519 52.7414 21.5335 52.7611 21.3033C52.7677 21.2178 52.8005 21.1191 52.8595 21.0139Z" fill="black"/>
    <path d="M50.7543 15.3111L50.4657 15.3638C50.282 15.3966 50.1311 15.3375 50.0196 15.1796C49.895 15.002 49.8622 14.785 49.9147 14.5153C49.9212 14.5022 49.9934 14.3575 50.1311 14.0812C50.1836 13.9694 50.2033 13.8576 50.1836 13.7392C50.1639 13.5682 50.223 13.4432 50.3738 13.3577C50.5247 13.2722 50.6756 13.2525 50.833 13.292C51.0232 13.338 51.1282 13.463 51.1413 13.6669L51.2003 14.535C51.22 14.7652 51.3184 14.9428 51.5086 15.0744C51.7973 15.2717 52.04 15.515 52.2302 15.7979C52.368 16.0017 52.3483 16.1925 52.1712 16.3635L51.5874 16.9291C51.4102 17.0935 51.22 17.1199 51.0101 17.0015C50.7215 16.8436 50.5837 16.62 50.5969 16.3306C50.6034 16.1267 50.6821 15.9557 50.8264 15.8176C50.9117 15.7387 50.9642 15.6466 50.9839 15.5479C51.0298 15.3572 50.9511 15.2783 50.7543 15.3111Z" fill="black"/>
    <path d="M53.1087 19.1198C52.7873 19.4355 52.1838 19.3435 51.7705 18.9159C51.3573 18.4884 51.2851 17.8833 51.6131 17.5676C51.9345 17.2519 52.538 17.344 52.9513 17.7715C53.3645 18.199 53.4367 18.8041 53.1087 19.1198Z" fill="black"/>
    <path d="M52.3287 51.8674C51.9745 52.7488 52.191 53.2157 52.2631 54.13C52.2828 54.3602 52.2303 54.3733 52.1188 54.1694C51.8958 53.7682 51.7252 53.3604 51.6006 52.9329C51.5416 52.729 51.5612 52.5383 51.6596 52.3541L52.8797 50.0324C52.9322 49.9337 53.0043 49.9206 53.0896 49.9995L53.2339 50.1376C53.3061 50.21 53.3126 50.2823 53.247 50.3547C52.86 50.8217 52.5517 51.3281 52.3287 51.8674Z" fill="black"/>
    <path d="M46.6414 70.2306C46.3856 71.0067 45.9527 71.671 45.3558 72.2235C45.1852 72.3814 45.0868 72.3419 45.054 72.1117C44.9819 71.5395 45.0803 71.0133 45.3623 70.52C45.4673 70.3293 45.6182 70.1912 45.8149 70.0925C46.5234 69.7505 47.1793 69.0796 47.7894 68.0865C47.8287 68.0273 47.9075 68.001 47.9731 68.0339C48.0386 68.0602 48.0649 68.1391 48.0452 68.2049C47.8878 68.6784 47.5532 69.1454 47.0416 69.6124C46.8514 69.7834 46.7202 69.9873 46.6414 70.2306Z" fill="black"/>
  </g>
  <defs>
    <clipPath id="clip0_578_3117">
      <rect width="60.25" height="80.3333" fill="white" transform="translate(0.875)"/>
    </clipPath>
  </defs>
</svg>