<svg width="880" height="517" viewBox="0 0 880 517" fill="none" xmlns="http://www.w3.org/2000/svg">
<path d="M429.627 390.512C432.22 394.419 447.486 418.347 440 449.294C432.756 479.238 409.589 493.501 405.423 495.973C449.215 495.403 493.025 494.815 536.817 494.245C530.075 489.421 522.191 482.212 516.071 471.769C495.324 436.379 513.616 395.75 516.071 390.512H429.627Z" fill="#0A7CAF"/>
<path d="M730.383 71.5195H212.721C203.135 71.5195 195.364 79.291 195.364 88.8775V416.379C195.364 425.966 203.135 433.737 212.721 433.737H730.383C739.969 433.737 747.741 425.966 747.741 416.379V88.8775C747.741 79.291 739.969 71.5195 730.383 71.5195Z" fill="#0EA5E9"/>
<path d="M716.552 87.0977H226.553C216.967 87.0977 209.195 94.8691 209.195 104.456V354.141C209.195 363.727 216.967 371.498 226.553 371.498H716.552C726.139 371.498 733.91 363.727 733.91 354.141V104.456C733.91 94.8691 726.139 87.0977 716.552 87.0977Z" fill="#FAF8F7"/>
<path d="M467.971 248.939L476.144 258.301L496.576 234.896" stroke="#181818" stroke-width="6" stroke-linecap="round" stroke-linejoin="round"/>
<path d="M216.11 99.5533V350.359C216.11 355.219 221.294 358.321 225.576 356.024L693.208 105.218C699.099 102.059 696.854 93.125 690.17 93.125H222.538C218.988 93.125 216.11 96.003 216.11 99.5533Z" fill="#F3F2F1"/>
<path d="M569.666 483.873H357.014C349.375 483.873 343.183 490.065 343.183 497.704C343.183 505.343 349.375 511.535 357.014 511.535H569.666C577.305 511.535 583.497 505.343 583.497 497.704C583.497 490.065 577.305 483.873 569.666 483.873Z" fill="#0EA5E9"/>
<path d="M56.6038 291.967H375.841C382.619 291.967 388.134 297.482 388.134 304.259V486.241H44.0867V304.484C44.0867 297.568 49.6882 291.967 56.6038 291.967Z" fill="#F0ABFC"/>
<path d="M70.4349 305.799H362.011C368.788 305.799 374.303 311.314 374.303 318.091V478.687H57.9178V318.316C57.9178 311.4 63.5194 305.799 70.4349 305.799Z" fill="#FAF8F7"/>
<path d="M2.59344 478.688H427.898C427.898 498.725 411.629 514.994 391.591 514.994H38.8999C18.8622 514.994 2.59344 498.725 2.59344 478.688Z" fill="#D382E1"/>
<path d="M825.074 269.49H651.39C647.313 269.49 644.008 272.795 644.008 276.873V505.88C644.008 509.957 647.313 513.262 651.39 513.262H825.074C829.151 513.262 832.456 509.957 832.456 505.88V276.873C832.456 272.795 829.151 269.49 825.074 269.49Z" fill="#A8B43C"/>
<path d="M815.565 279.865H662.628C658.551 279.865 655.245 283.17 655.245 287.248V495.508C655.245 499.586 658.551 502.891 662.628 502.891H815.565C819.642 502.891 822.947 499.586 822.947 495.508V287.248C822.947 283.17 819.642 279.865 815.565 279.865Z" fill="#FAF8F7"/>
<path d="M660.432 287.506V491.11C660.432 492.657 662.404 493.31 663.328 492.07L814.984 288.466C815.774 287.405 815.017 285.898 813.695 285.898H662.039C661.152 285.898 660.432 286.618 660.432 287.506Z" fill="#F3F2F1"/>
<path d="M724.01 394.172L732.183 403.533L752.615 380.129" stroke="#181818" stroke-width="6" stroke-linecap="round" stroke-linejoin="round"/>
<path d="M869.973 365.17H793.21C789.104 365.17 785.776 368.498 785.776 372.604V505.244C785.776 509.35 789.104 512.678 793.21 512.678H869.973C874.078 512.678 877.407 509.35 877.407 505.244V372.604C877.407 368.498 874.078 365.17 869.973 365.17Z" fill="#FCD34D"/>
<path d="M859.599 381.871H803.584C799.478 381.871 796.149 385.199 796.149 389.305V488.543C796.149 492.649 799.478 495.977 803.584 495.977H859.599C863.705 495.977 867.034 492.649 867.034 488.543V389.305C867.034 385.199 863.705 381.871 859.599 381.871Z" fill="#FAF8F7"/>
<path d="M830.727 375.817C832.159 375.817 833.32 374.656 833.32 373.224C833.32 371.792 832.159 370.631 830.727 370.631C829.295 370.631 828.134 371.792 828.134 373.224C828.134 374.656 829.295 375.817 830.727 375.817Z" fill="#181818"/>
<path d="M484.951 391.377H469.391C463.185 391.377 458.153 396.408 458.153 402.615C458.153 408.821 463.185 413.852 469.391 413.852H484.951C491.157 413.852 496.189 408.821 496.189 402.615C496.189 396.408 491.157 391.377 484.951 391.377Z" fill="#0A7CAF"/>
<path d="M170.295 478.688H258.468C258.468 487.28 251.501 494.247 242.908 494.247H185.855C177.262 494.247 170.295 487.28 170.295 478.688Z" fill="#F0ABFC"/>
<path d="M62.2399 312.572V471.661C62.2399 472.875 63.535 473.651 64.6055 473.077L361.739 313.989C363.213 313.2 362.653 310.965 360.981 310.965H63.8469C62.9594 310.965 62.2399 311.684 62.2399 312.572Z" fill="#F3F2F1"/>
<path d="M798.743 388.525V484.939C798.743 488.278 803.204 489.403 804.787 486.463L856.703 390.049C857.856 387.907 856.305 385.311 853.873 385.311H801.957C800.182 385.311 798.743 386.75 798.743 388.525Z" fill="#F3F2F1"/>
<path d="M821.907 443.658L830.08 453.02L850.513 429.615" stroke="#181818" stroke-width="6" stroke-linecap="round" stroke-linejoin="round"/>
<path d="M208.704 402.779L216.877 412.141L237.31 388.736" stroke="#181818" stroke-width="6" stroke-linecap="round" stroke-linejoin="round"/>
</svg>
