<svg xmlns="http://www.w3.org/2000/svg" width="84" height="84" viewBox="0 0 84 84" fill="none">
  <g clip-path="url(#clip0_578_3034)">
    <path d="M5.05428 3.62295L51.534 0.189865C57.2435 -0.299855 58.7101 0.0302652 62.3003 2.64015L77.1372 13.0923C79.5841 14.8899 80.3989 15.3796 80.3989 17.3368V74.6609C80.3989 78.2536 79.0944 80.3788 74.5273 80.703L20.5523 83.9723C17.1251 84.1344 15.493 83.6447 13.6979 81.3574L2.772 67.1496C0.81228 64.5347 0 62.5775 0 60.2893V9.33495C0 6.39747 1.30452 3.94803 5.05428 3.62295Z" fill="white"/>
    <path fill-rule="evenodd" clip-rule="evenodd" d="M51.534 0.190705L5.05428 3.62379C1.30452 3.94803 0 6.39831 0 9.33495V60.2893C0 62.5767 0.81228 64.5339 2.772 67.1496L13.6979 81.3565C15.493 83.6439 17.1251 84.1344 20.5523 83.9715L74.5282 80.7039C79.0919 80.3788 80.3997 78.2536 80.3997 74.6618V17.3376C80.3997 15.4812 79.6664 14.9461 77.5076 13.3619L62.3003 2.64015C58.711 0.0302652 57.2435 -0.299855 51.534 0.189865V0.190705ZM21.7728 16.3993C17.3653 16.6959 16.3657 16.7631 13.8625 14.7277L7.49868 9.66591C6.85188 9.01071 7.17696 8.19339 8.80656 8.03043L53.4887 4.76535C57.241 4.43775 59.1948 5.74563 60.6623 6.88803L68.3256 12.4404C68.6532 12.6059 69.468 13.5828 68.4877 13.5828L22.344 16.3607L21.7728 16.3993ZM16.6345 74.172V25.5083C16.6345 23.3831 17.2872 22.4028 19.241 22.2382L72.24 19.1352C74.0376 18.9731 74.8499 20.1155 74.8499 22.2373V70.5768C74.8499 72.702 74.5223 74.4996 71.5882 74.6618L20.8715 77.6017C17.9374 77.7639 16.6354 76.7869 16.6354 74.172H16.6345ZM66.6985 28.1173C67.0236 29.5873 66.6985 31.0573 65.2285 31.2253L62.7841 31.71V67.6394C60.6614 68.7817 58.7076 69.4344 57.0746 69.4344C54.4648 69.4344 53.8129 68.6171 51.8582 66.1693L35.873 41.0197V65.352L40.9298 66.4969C40.9298 66.4969 40.9298 69.437 36.85 69.437L25.6024 70.0896C25.2748 69.4344 25.6024 67.8023 26.7422 67.4772L29.6797 66.6624V34.4904L25.6032 34.1603C25.2756 32.6903 26.0904 30.5676 28.3752 30.403L40.4435 29.5907L57.0755 55.0654V32.5282L52.836 32.041C52.5084 30.2409 53.8129 28.933 55.4425 28.7734L66.6985 28.1173Z" fill="black"/>
  </g>
  <defs>
    <clipPath id="clip0_578_3034">
      <rect width="84" height="84" fill="white"/>
    </clipPath>
  </defs>
</svg>