<svg width="312" height="266" viewBox="0 0 312 266" fill="none" xmlns="http://www.w3.org/2000/svg">
<path d="M67.7837 34.0859H399.851C406.901 34.0859 412.638 39.8227 412.638 46.8723V236.168H54.7635V47.1061C54.7635 39.9126 60.5902 34.0859 67.7837 34.0859Z" fill="#F0ABFC"/>
<path d="M81.9124 48.5898H385.206C392.256 48.5898 397.992 54.3266 397.992 61.3762V228.426H68.8922V61.61C68.8922 54.4165 74.7189 48.5898 81.9124 48.5898Z" fill="#FAF8F7"/>
<path d="M220.456 140.688L228.053 149.39L247.046 127.635" stroke="#181818" stroke-width="6" stroke-linecap="round" stroke-linejoin="round"/>
<path d="M11.6028 228.311H454C454 249.154 437.077 266.076 416.234 266.076H49.3684C28.5254 266.076 11.6028 249.154 11.6028 228.311Z" fill="#D382E1"/>
<path d="M186.044 228.311H277.761C277.761 237.248 270.513 244.496 261.576 244.496H202.23C193.292 244.496 186.044 237.248 186.044 228.311Z" fill="#F0ABFC"/>
<path d="M100.78 0H8.89841C3.98394 0 0 3.98394 0 8.89841V167.663C0 172.577 3.98394 176.561 8.89841 176.561H100.78C105.694 176.561 109.678 172.577 109.678 167.663V8.89841C109.678 3.98394 105.694 0 100.78 0Z" fill="#FCD34D"/>
<path d="M88.3634 19.9902H21.3147C16.4002 19.9902 12.4163 23.9742 12.4163 28.8887V147.672C12.4163 152.587 16.4002 156.571 21.3147 156.571H88.3634C93.2778 156.571 97.2618 152.587 97.2618 147.672V28.8887C97.2618 23.9742 93.2778 19.9902 88.3634 19.9902Z" fill="#FAF8F7"/>
<path d="M42.0605 88.4732L49.6577 97.1754L68.6506 75.4199" stroke="#181818" stroke-width="6" stroke-linecap="round" stroke-linejoin="round"/>
<path d="M53.8042 12.7473C55.5185 12.7473 56.9083 11.3575 56.9083 9.64317C56.9083 7.92882 55.5185 6.53906 53.8042 6.53906C52.0898 6.53906 50.7001 7.92882 50.7001 9.64317C50.7001 11.3575 52.0898 12.7473 53.8042 12.7473Z" fill="#181818"/>
</svg>
