<svg width="200" height="200" viewBox="0 0 200 200" fill="none" xmlns="http://www.w3.org/2000/svg">
<path d="M25 83.3327C25 51.9057 25 36.1922 34.7631 26.4291C44.5262 16.666 60.2397 16.666 91.6667 16.666H108.333C139.76 16.666 155.474 16.666 165.237 26.4291C175 36.1922 175 51.9057 175 83.3327V116.666C175 148.093 175 163.806 165.237 173.57C155.474 183.333 139.76 183.333 108.333 183.333H91.6667C60.2397 183.333 44.5262 183.333 34.7631 173.57C25 163.806 25 148.093 25 116.666V83.3327Z" fill="#F0ABFC"/>
<path d="M66.6669 100H133.334" stroke="#181818" stroke-width="10" stroke-linecap="round"/>
<path d="M66.6669 66.666H133.334" stroke="#181818" stroke-width="10" stroke-linecap="round"/>
<path d="M66.6669 133.334H108.334" stroke="#181818" stroke-width="10" stroke-linecap="round"/>
</svg>
