<svg width="292" height="214" viewBox="0 0 292 214" fill="none" xmlns="http://www.w3.org/2000/svg">
<path d="M267.729 0H24.4134C11.3992 0 0.849121 10.55 0.849121 23.5642V443.995C0.849121 457.009 11.3992 467.56 24.4134 467.56H267.729C280.743 467.56 291.293 457.009 291.293 443.995V23.5642C291.293 10.55 280.743 0 267.729 0Z" fill="#FCD34D"/>
<path d="M234.848 52.9355H57.2932C44.279 52.9355 33.729 63.4857 33.729 76.4999V391.056C33.729 404.07 44.279 414.62 57.2932 414.62H234.848C247.862 414.62 258.412 404.07 258.412 391.056V76.4999C258.412 63.4857 247.862 52.9355 234.848 52.9355Z" fill="#FAF8F7"/>
<path d="M143.33 33.7566C147.87 33.7566 151.55 30.0764 151.55 25.5365C151.55 20.9967 147.87 17.3164 143.33 17.3164C138.79 17.3164 135.11 20.9967 135.11 25.5365C135.11 30.0764 138.79 33.7566 143.33 33.7566Z" fill="#181818"/>
</svg>
