<svg width="222" height="225" viewBox="0 0 222 225" fill="none" xmlns="http://www.w3.org/2000/svg">
<path d="M206.732 34.4377C211.199 39.5794 213.433 42.1503 212.633 44.4998C211.833 46.8492 208.529 47.4213 201.921 48.5655L200.211 48.8615C198.334 49.1867 197.395 49.3492 196.639 49.8581C195.882 50.367 195.394 51.1646 194.418 52.7599L193.53 54.2122C190.095 59.8259 188.378 62.6327 185.837 62.5311C183.297 62.4294 181.616 59.4866 178.254 53.601L177.385 52.0783C176.429 50.4058 175.952 49.5696 175.202 49.0004C174.453 48.4313 173.517 48.1937 171.644 47.7185L169.939 47.2858C163.349 45.6136 160.054 44.7774 159.284 42.3652C158.514 39.9529 160.779 37.562 165.309 32.7803L166.481 31.5433C167.769 30.1844 168.412 29.505 168.705 28.6444C168.999 27.7837 168.908 26.8393 168.726 24.9504L168.561 23.2306C167.923 16.5834 167.604 13.2598 169.668 11.8706C171.733 10.4814 174.814 11.9466 180.975 14.8769L182.569 15.6351C184.32 16.4678 185.196 16.8841 186.126 16.9214C187.057 16.9586 187.937 16.6125 189.698 15.9203L191.301 15.2901C197.496 12.8541 200.594 11.6362 202.64 13.1899C204.686 14.7436 204.325 18.0399 203.603 24.6327L203.416 26.3383C203.211 28.2118 203.108 29.1485 203.39 30.0322C203.672 30.9158 204.307 31.6464 205.576 33.1075L206.732 34.4377Z" fill="#FCD34D"/>
<path d="M171.015 58.1903C171.667 57.3115 171.483 56.0705 170.604 55.4185C169.726 54.7665 168.485 54.9504 167.833 55.8292L171.015 58.1903ZM163.381 61.8302C162.729 62.709 162.912 63.95 163.791 64.602C164.67 65.254 165.911 65.0701 166.563 64.1913L163.381 61.8302ZM167.833 55.8292L163.381 61.8302L166.563 64.1913L171.015 58.1903L167.833 55.8292Z" fill="#1C274C"/>
<rect y="54" width="143" height="171" rx="25" fill="#5BD6FF"/>
<path d="M48.75 165C55.3404 169.885 63.3554 172.75 72 172.75C80.6446 172.75 88.6596 169.885 95.25 165" stroke="#181818" stroke-width="11.625" stroke-linecap="round"/>
<ellipse cx="95.25" cy="122.375" rx="7.75" ry="11.625" fill="#181818"/>
<ellipse cx="48.75" cy="122.375" rx="7.75" ry="11.625" fill="#181818"/>
</svg>
