<svg width="200" height="200" viewBox="0 0 200 200" fill="none" xmlns="http://www.w3.org/2000/svg">
<path d="M25 86.8029C25 60.1563 25 46.8331 28.146 42.3508C31.2919 37.8686 43.8194 33.5804 68.8743 25.004L73.6477 23.37C86.7082 18.8994 93.2384 16.6641 100 16.6641C106.762 16.6641 113.292 18.8994 126.352 23.37L131.126 25.004C156.181 33.5804 168.708 37.8686 171.854 42.3508C175 46.8331 175 60.1563 175 86.8029C175 90.8278 175 95.1925 175 99.9254C175 146.909 139.675 169.71 117.512 179.391C111.5 182.018 108.494 183.331 100 183.331C91.5062 183.331 88.5001 182.018 82.488 179.391C60.3247 169.71 25 146.909 25 99.9254C25 95.1925 25 90.8278 25 86.8029Z" fill="#F2A783"/>
<path d="M79.1671 103.336L91.0718 116.669L120.834 83.3359" stroke="#181818" stroke-width="10" stroke-linecap="round" stroke-linejoin="round"/>
</svg>
