<svg width="433" height="367" viewBox="0 0 433 367" fill="none" xmlns="http://www.w3.org/2000/svg">
<path d="M93.4713 47H551.38C561.101 47 569.012 54.9108 569.012 64.6319V325.663H75.517V64.9543C75.517 55.0348 83.5518 47 93.4713 47Z" fill="#F0ABFC"/>
<path d="M113.311 66.8398H531.541C541.262 66.8398 549.173 74.7506 549.173 84.4717V314.827H95.3563V84.7941C95.3563 74.8746 103.391 66.8398 113.311 66.8398Z" fill="#FAF8F7"/>
<rect x="107" y="77" width="431" height="228" rx="11" fill="white"/>
<path d="M16 314.826H626.049C626.049 343.568 602.713 366.904 573.971 366.904H68.0773C39.3356 366.904 16 343.568 16 314.826Z" fill="#D382E1"/>
<path d="M256.548 314.826H383.022C383.022 327.151 373.028 337.145 360.703 337.145H278.867C266.542 337.145 256.548 327.151 256.548 314.826Z" fill="#F0ABFC"/>
<path d="M258.32 163V147.732H268.374V149.624H260.388V154.288H267.758V156.092H260.388V161.108H268.484V163H258.32ZM270.944 163V152.55H272.924V153.914C273.672 152.924 274.838 152.33 276.224 152.33C278.622 152.33 280.316 154.332 280.316 156.51V163H278.336V156.906C278.336 155.3 277.236 154.178 275.652 154.178C274.068 154.178 272.924 155.322 272.924 156.906V163H270.944ZM282.997 163V152.55H284.977V153.782C285.571 152.858 286.539 152.33 287.815 152.33C288.871 152.33 289.707 152.682 290.433 153.518L289.135 154.86C288.673 154.398 288.167 154.2 287.485 154.2C286.011 154.2 284.977 155.146 284.977 157.038V163H282.997ZM296.257 163.22C293.199 163.22 290.801 160.8 290.801 157.742C290.801 154.706 293.177 152.33 296.257 152.33C299.293 152.33 301.713 154.706 301.713 157.742C301.713 160.822 299.315 163.22 296.257 163.22ZM296.257 161.306C298.237 161.306 299.667 159.81 299.667 157.742C299.667 155.696 298.215 154.244 296.257 154.244C294.277 154.244 292.847 155.718 292.847 157.742C292.847 159.81 294.277 161.306 296.257 161.306ZM303.944 163V147.292H305.924V163H303.944ZM308.821 163V147.292H310.801V163H308.821ZM314.71 150.46C313.984 150.46 313.456 149.91 313.456 149.184C313.456 148.48 313.984 147.93 314.71 147.93C315.436 147.93 315.964 148.48 315.964 149.184C315.964 149.91 315.436 150.46 314.71 150.46ZM313.72 163V152.55H315.7V163H313.72ZM318.618 163V152.55H320.598V153.914C321.346 152.924 322.512 152.33 323.898 152.33C326.296 152.33 327.99 154.332 327.99 156.51V163H326.01V156.906C326.01 155.3 324.91 154.178 323.326 154.178C321.742 154.178 320.598 155.322 320.598 156.906V163H318.618ZM335.005 162.824C332.145 162.824 329.989 160.58 329.989 157.566C329.989 154.596 332.145 152.33 334.983 152.33C336.523 152.33 337.755 152.924 338.525 153.958V152.55H340.505V162.582C340.505 165.596 338.283 167.598 335.005 167.598C332.849 167.598 331.177 166.784 330.165 165.332L331.441 164.034C332.277 165.112 333.443 165.706 335.049 165.706C337.183 165.706 338.525 164.518 338.525 162.582V161.196C337.755 162.23 336.523 162.824 335.005 162.824ZM335.401 160.954C337.337 160.954 338.635 159.612 338.635 157.588C338.635 155.564 337.337 154.2 335.379 154.2C333.399 154.2 332.035 155.586 332.035 157.566C332.035 159.568 333.421 160.954 335.401 160.954ZM352.409 163.22C349.527 163.22 347.327 160.844 347.327 157.786C347.327 154.706 349.527 152.33 352.387 152.33C353.883 152.33 355.137 152.968 355.907 154.002V147.292H357.909V163H355.907V161.57C355.159 162.604 353.883 163.22 352.409 163.22ZM352.739 161.35C354.697 161.35 356.039 159.876 356.039 157.786C356.039 155.674 354.697 154.2 352.717 154.2C350.759 154.2 349.373 155.674 349.373 157.764C349.373 159.876 350.759 161.35 352.739 161.35ZM365.632 163.22C362.486 163.22 360.11 160.888 360.11 157.764C360.11 154.706 362.464 152.33 365.5 152.33C368.36 152.33 370.428 154.486 370.428 157.456C370.428 157.764 370.406 158.094 370.318 158.512H362.134C362.442 160.25 363.762 161.35 365.632 161.35C366.798 161.35 367.832 160.954 368.514 160.118L369.79 161.416C368.778 162.582 367.282 163.22 365.632 163.22ZM365.456 154.156C363.696 154.156 362.442 155.212 362.134 156.862H368.492C368.272 155.168 367.172 154.156 365.456 154.156ZM376.001 163L371.205 152.55H373.405L376.617 159.92L379.851 152.55H381.963L377.167 163H376.001ZM384.663 150.46C383.937 150.46 383.409 149.91 383.409 149.184C383.409 148.48 383.937 147.93 384.663 147.93C385.389 147.93 385.917 148.48 385.917 149.184C385.917 149.91 385.389 150.46 384.663 150.46ZM383.673 163V152.55H385.653V163H383.673ZM393.345 163.22C390.265 163.22 387.889 160.844 387.889 157.764C387.889 154.706 390.265 152.33 393.345 152.33C394.951 152.33 396.381 152.968 397.371 154.09L396.051 155.41C395.391 154.64 394.445 154.244 393.345 154.244C391.365 154.244 389.935 155.696 389.935 157.764C389.935 159.832 391.365 161.306 393.345 161.306C394.467 161.306 395.413 160.91 396.073 160.14L397.371 161.46C396.403 162.582 394.951 163.22 393.345 163.22ZM403.981 163.22C400.835 163.22 398.459 160.888 398.459 157.764C398.459 154.706 400.813 152.33 403.849 152.33C406.709 152.33 408.777 154.486 408.777 157.456C408.777 157.764 408.755 158.094 408.667 158.512H400.483C400.791 160.25 402.111 161.35 403.981 161.35C405.147 161.35 406.181 160.954 406.863 160.118L408.139 161.416C407.127 162.582 405.631 163.22 403.981 163.22ZM403.805 154.156C402.045 154.156 400.791 155.212 400.483 156.862H406.841C406.621 155.168 405.521 154.156 403.805 154.156Z" fill="#451A03"/>
<path d="M332.865 226.573C332.858 227.614 332.006 228.46 330.971 228.355C327.918 228.047 324.968 227.044 322.349 225.413C319.195 223.45 316.646 220.653 314.982 217.332C313.318 214.011 312.604 210.295 312.92 206.594C313.235 202.892 314.567 199.35 316.769 196.359C318.971 193.367 321.957 191.042 325.397 189.641C328.837 188.24 332.598 187.816 336.264 188.418C339.929 189.019 343.357 190.622 346.169 193.05C348.504 195.065 350.339 197.584 351.541 200.407C351.949 201.364 351.394 202.429 350.403 202.746C349.411 203.063 348.361 202.51 347.932 201.561C346.955 199.397 345.515 197.464 343.706 195.902C341.42 193.929 338.633 192.626 335.653 192.137C332.673 191.648 329.616 191.992 326.819 193.131C324.022 194.27 321.595 196.16 319.804 198.593C318.014 201.025 316.931 203.905 316.675 206.914C316.418 209.923 316.999 212.944 318.351 215.644C319.704 218.344 321.777 220.618 324.341 222.214C326.369 223.477 328.643 224.277 331 224.567C332.033 224.694 332.873 225.532 332.865 226.573Z" fill="#FFD8C4"/>
<path d="M328.874 190.508C328.639 189.494 329.27 188.472 330.301 188.333C333.342 187.922 336.445 188.21 339.371 189.185C342.895 190.359 346.026 192.485 348.418 195.326C350.81 198.168 352.37 201.616 352.926 205.289C353.482 208.962 353.012 212.717 351.568 216.139C350.123 219.562 347.762 222.518 344.743 224.683C341.724 226.847 338.165 228.135 334.461 228.404C330.756 228.674 327.048 227.914 323.748 226.208C321.008 224.792 318.637 222.77 316.81 220.305C316.19 219.469 316.482 218.304 317.372 217.765C318.262 217.226 319.413 217.519 320.05 218.342C321.505 220.219 323.355 221.763 325.478 222.86C328.161 224.247 331.175 224.864 334.187 224.646C337.199 224.427 340.092 223.38 342.547 221.62C345.001 219.86 346.921 217.456 348.095 214.674C349.27 211.892 349.652 208.839 349.2 205.853C348.748 202.867 347.48 200.064 345.535 197.753C343.59 195.443 341.045 193.715 338.18 192.76C335.912 192.005 333.515 191.757 331.155 192.024C330.121 192.141 329.109 191.521 328.874 190.508Z" fill="#451A03"/>
<path d="M138.972 0H12.2706C5.4937 0 0 5.4937 0 12.2706V231.201C0 237.978 5.4937 243.472 12.2706 243.472H138.972C145.749 243.472 151.242 237.978 151.242 231.201V12.2706C151.242 5.4937 145.749 0 138.972 0Z" fill="#FCD34D"/>
<path d="M121.85 27.5664H29.3922C22.6153 27.5664 17.1216 33.0602 17.1216 39.837V203.635C17.1216 210.412 22.6153 215.906 29.3922 215.906H121.85C128.627 215.906 134.12 210.412 134.12 203.635V39.837C134.12 33.0602 128.627 27.5664 121.85 27.5664Z" fill="#FAF8F7"/>
<path d="M75.3655 140.098C75.3578 141.139 74.506 141.986 73.4707 141.881C70.4181 141.572 67.4676 140.569 64.8489 138.939C61.6955 136.975 59.146 134.179 57.482 130.858C55.8181 127.537 55.1044 123.82 55.4198 120.119C55.7351 116.418 57.0674 112.876 59.2693 109.884C61.4712 106.893 64.4571 104.568 67.8972 103.166C71.3374 101.765 75.0979 101.342 78.7635 101.943C82.4291 102.545 85.8571 104.148 88.669 106.575C91.004 108.591 92.8387 111.11 94.0411 113.932C94.4489 114.89 93.8938 115.955 92.9025 116.271C91.9112 116.588 90.8607 116.035 90.4323 115.087C89.4549 112.922 88.0154 110.989 86.2064 109.428C83.9204 107.454 81.1334 106.151 78.1532 105.662C75.1731 105.173 72.1158 105.517 69.319 106.656C66.5221 107.796 64.0946 109.686 62.3044 112.118C60.5143 114.55 59.4312 117.43 59.1748 120.439C58.9183 123.448 59.4986 126.47 60.8514 129.17C62.2042 131.87 64.2769 134.143 66.8407 135.739C68.8694 137.002 71.143 137.802 73.5 138.092C74.5329 138.219 75.3731 139.058 75.3655 140.098Z" fill="#FFD8C4"/>
<path d="M71.3738 104.033C71.1387 103.019 71.7697 101.997 72.801 101.858C75.8415 101.447 78.9446 101.735 81.871 102.71C85.3952 103.884 88.5261 106.01 90.9182 108.852C93.3103 111.694 94.8703 115.142 95.4261 118.814C95.9819 122.487 95.5117 126.242 94.0676 129.665C92.6235 133.087 90.2615 136.044 87.2426 138.208C84.2237 140.373 80.6654 141.66 76.9605 141.93C73.2557 142.199 69.5485 141.439 66.2484 139.734C63.5079 138.318 61.1368 136.295 59.3097 133.831C58.69 132.995 58.9816 131.83 59.8719 131.291C60.7621 130.752 61.9126 131.045 62.5501 131.867C64.005 133.744 65.8554 135.289 67.9784 136.386C70.6614 137.772 73.6753 138.39 76.6874 138.171C79.6994 137.952 82.5924 136.905 85.0467 135.145C87.5011 133.386 89.4214 130.982 90.5954 128.199C91.7695 125.417 92.1518 122.364 91.6999 119.378C91.2481 116.392 89.9797 113.589 88.035 111.279C86.0902 108.968 83.5447 107.24 80.6796 106.285C78.4125 105.53 76.015 105.282 73.6554 105.549C72.6213 105.666 71.6088 105.047 71.3738 104.033Z" fill="#451A03"/>
<path d="M74.194 17.5785C76.558 17.5785 78.4745 15.662 78.4745 13.298C78.4745 10.934 76.558 9.01758 74.194 9.01758C71.83 9.01758 69.9136 10.934 69.9136 13.298C69.9136 15.662 71.83 17.5785 74.194 17.5785Z" fill="#181818"/>
</svg>
