<svg xmlns="http://www.w3.org/2000/svg" width="70" height="66" viewBox="0 0 70 66" fill="none">
  <g clip-path="url(#clip0_545_5194)">
    <path d="M35.8075 5.62404C35.6654 5.57729 35.5875 5.42777 35.6306 5.28558L35.7071 5.05161C35.8694 4.5369 36.4033 4.24793 36.8943 4.40341L37.0442 4.44742C37.5348 4.60653 37.8016 5.14757 37.6393 5.66228L37.5624 5.89988C37.5156 6.04163 37.3658 6.11925 37.2273 6.07295L35.8075 5.62404Z" fill="black"/>
    <path d="M33.7668 4.7794C33.8379 5.16766 33.5335 5.54349 33.0916 5.62249C32.6501 5.69786 32.2374 5.44501 32.1696 5.06082C32.0985 4.67256 32.4028 4.29673 32.8447 4.21773C33.2862 4.14236 33.6989 4.39521 33.7668 4.7794Z" fill="black"/>
    <path d="M40.4123 5.43592L40.7601 5.49291C40.8689 5.50981 40.9164 5.57456 40.9068 5.68397L40.8424 6.33588C40.8293 6.47435 40.754 6.54629 40.613 6.55127C40.164 6.56676 39.7746 6.4568 39.4371 6.22413C39.3344 6.15638 39.2872 6.0585 39.2986 5.93457C39.3259 5.58775 39.4851 5.34172 39.7735 5.18877C39.8883 5.12533 39.998 5.13497 40.103 5.21406C40.1404 5.24072 40.1732 5.2742 40.2057 5.31131C40.2601 5.38057 40.3289 5.42211 40.4123 5.43592Z" fill="black"/>
    <path d="M54.5198 12.9204C54.6118 12.9537 54.6697 12.9939 54.6968 13.0451C54.9562 13.5558 54.907 14.0216 54.5528 14.4429C54.4708 14.5399 54.3681 14.5642 54.2524 14.5133C53.8026 14.3223 53.4114 13.9836 53.0779 13.5045C53.0057 13.3999 53.0208 13.3059 53.1119 13.2248C53.2389 13.1223 53.3463 12.999 53.4417 12.8521C53.5552 12.6779 53.6636 12.5768 53.7713 12.542C53.9826 12.4755 54.1585 12.5485 54.3063 12.7618C54.3598 12.8383 54.4273 12.8908 54.5161 12.92L54.5198 12.9204Z" fill="black"/>
    <path d="M59.7776 41.0586C61.8558 33.7148 61.1699 27.012 58.5469 19.8895C58.4215 19.5536 58.4671 19.2385 58.6762 18.9469C58.7781 18.8082 58.8984 18.7307 59.0448 18.7116C59.5745 18.6396 59.9407 18.8499 60.1432 19.3426C61.6147 22.8938 62.8175 26.9541 62.9209 30.8182C62.9411 31.4731 62.9536 32.1306 62.9661 32.7882C63.0202 35.4153 62.3807 38.124 61.6481 40.991C58.7992 52.1848 49.022 58.1768 37.9454 58.4087C36.8968 58.4324 34.9729 58.2098 32.1726 57.748C32.0675 57.7315 32.019 57.674 32.0245 57.5678L32.0313 57.4212C32.0415 57.2455 32.1875 57.1085 32.3645 57.1115C33.3377 57.1303 34.2652 57.1913 35.1513 57.2879C36.5546 57.4473 37.9459 57.2183 39.3658 57.0886C44.9194 56.5727 51.2651 54.1297 54.9778 49.8482C57.2685 47.2038 58.8694 44.2764 59.7776 41.0586Z" fill="black"/>
    <path d="M66.0062 30.7283C66.5905 32.7932 66.2241 35.7784 65.7631 37.9006C65.738 38.0155 65.6682 38.0734 65.5504 38.0701L64.7937 38.063C64.6277 38.0612 64.5527 37.9784 64.5694 37.8109C64.8472 35.1283 64.9422 33.2822 64.8569 32.2804C64.8098 31.7255 64.8082 31.1909 64.8486 30.6761C64.8636 30.5526 64.9247 30.4753 65.0465 30.4458C65.2297 30.3981 65.4303 30.3893 65.6484 30.4194C65.8377 30.4424 65.9582 30.5455 66.0062 30.7283Z" fill="black"/>
    <path d="M58.712 26.684C56.9439 17.9994 50.9262 11.8725 42.4771 9.36448C37.7694 7.96699 33.0868 7.45712 28.429 7.83851C21.573 8.39884 16.1516 11.2638 12.1724 16.4306C10.4534 18.658 9.18275 21.3306 8.35695 24.4479C7.053 29.3721 7.29739 34.2042 9.09696 38.9489C10.1718 41.7811 11.7515 44.1991 13.8328 46.199C14.872 47.1951 15.7308 47.609 15.6199 49.2209C15.4902 51.1401 15.2899 53.0324 15.0149 54.9008C14.9989 55.002 15.1116 55.0784 15.1996 55.0227L21.273 51.2013C21.4051 51.1179 21.5805 51.165 21.6483 51.3059C21.6804 51.3761 21.698 51.4446 21.6969 51.5145C21.6904 51.7201 21.6041 51.8829 21.4412 52.0068C19.2423 53.6526 17.0113 55.1359 14.7492 56.4497C14.5145 56.587 14.2874 56.6921 14.0606 56.7641C13.8993 56.8145 13.7455 56.6816 13.7658 56.5145C14.043 54.263 14.2337 51.9937 14.3379 49.7065C14.3687 48.9657 14.2727 48.4786 13.6425 47.9782C9.68622 44.866 7.2292 39.754 6.29682 35.0188C4.72663 27.0476 7.2792 18.5673 12.4093 12.5341C15.7462 8.60874 19.9405 6.68939 25.0075 5.768C25.3435 5.7093 25.4897 5.5096 25.4457 5.17254L25.3922 4.73112C25.3536 4.40947 25.1692 4.25439 24.8422 4.26994C24.1994 4.29875 23.5601 4.39062 22.9178 4.53742C16.2234 6.07935 11.1652 9.81769 7.75037 15.7533C4.09239 22.1091 2.7561 29.5504 4.63677 36.73C5.927 41.6524 8.34073 45.9041 11.8715 49.4769C12.1118 49.7198 12.2211 50.0059 12.1992 50.3386C12.0603 52.4557 11.8261 54.9004 11.5012 57.6658C11.4153 58.4035 11.8267 60.0052 12.8145 59.7824C13.4332 59.6475 14.2311 59.2542 15.2146 58.6107C17.9449 56.8195 20.652 55.0364 23.3359 53.2616C23.5692 53.1057 23.8648 53.0752 24.1295 53.1774C26.3251 54.0228 28.4743 54.3686 30.9947 54.7006C37.7306 55.5852 44.767 54.7262 50.3839 50.6171C57.9236 45.0978 60.602 35.9767 58.712 26.684ZM19.6548 13.9081C16.3717 16.4173 13.8179 18.9156 12.47 22.9241C12.3836 23.1789 12.2377 23.2239 12.0255 23.0544C11.9954 23.0286 11.9657 22.9992 11.9442 22.9634C11.7794 22.7075 11.7287 22.3954 11.8053 22.0988C12.8117 18.2553 15.7344 15.1236 19.1247 13.0698C19.2645 12.9835 19.4512 13.0283 19.5337 13.171L19.7337 13.5013C19.829 13.6602 19.8013 13.7969 19.6548 13.9081ZM36.4158 40.797C35.7407 43.8294 31.5326 44.0369 31.5226 40.6522C31.5184 38.4661 31.7145 35.9394 32.1177 33.0767C32.1415 32.8805 32.0587 32.7709 31.8653 32.7511L26.0261 32.0897C25.8804 32.072 25.7952 32.1354 25.7702 32.2798C25.3376 34.9288 25.3557 37.4262 24.9877 39.6335C24.7382 41.1401 23.8804 41.9352 22.4189 42.012C20.4402 42.1181 18.9814 40.3781 18.7371 38.4651C18.5704 37.1917 18.4781 36.248 18.4607 35.6304C18.3018 30.886 18.7062 26.1879 19.6736 21.5398C19.7268 21.2846 19.9355 20.7829 20.2953 20.0416C20.7378 19.137 21.3722 18.477 22.1946 18.0646C23.9025 17.2069 25.7817 17.859 26.4628 19.674C26.6558 20.184 26.7138 20.954 26.6298 21.9794C26.4557 24.1734 26.2674 26.2403 26.0682 28.1843C26.0538 28.3336 26.121 28.4192 26.2743 28.4342L31.9295 29.029C32.0902 29.0448 32.18 28.9747 32.1994 28.8148C32.5091 26.3867 32.7775 24.0863 33.0077 21.9176C33.2098 20.0108 34.2538 19.1425 36.1357 19.3158C38.1569 19.4987 39.0452 21.4642 38.9084 23.3199C38.4502 29.5558 37.6205 35.3816 36.4158 40.797ZM47.1421 41.8051C46.009 45.6886 39.6329 44.3059 40.2582 40.1322C40.6158 37.7357 41.3296 34.9623 42.4 31.8084C42.9426 30.201 43.9651 28.6888 45.9511 29.435C47.379 29.9696 47.5265 31.3107 47.5912 32.6639C47.6669 34.2616 47.6911 35.8568 47.6671 37.4534C47.6379 39.2448 47.4655 40.6945 47.1421 41.8051ZM45.8654 26.4908C43.8429 26.4404 42.235 24.8629 42.2806 22.9667C42.3226 21.0699 43.998 19.567 46.0209 19.6137C48.0434 19.664 49.6513 21.2415 49.6057 23.1378C49.5637 25.0345 47.8883 26.5375 45.8654 26.4908Z" fill="black"/>
  </g>
  <defs>
    <clipPath id="clip0_545_5194">
      <rect width="62.7692" height="57.9408" fill="white" transform="translate(7.15686 0.776367) rotate(6.92635)"/>
    </clipPath>
  </defs>
</svg>