<svg width="594" height="220" viewBox="0 0 594 220" fill="none" xmlns="http://www.w3.org/2000/svg">
<path d="M300.729 323.028C307.526 319.36 314.314 315.745 321.045 312.016C322.498 311.213 323.764 310.048 325.037 308.961C326.787 307.464 326.994 305.613 325.573 303.873C322.729 300.4 319.755 297.032 316.947 293.526C313.076 288.686 309.307 283.76 305.505 278.867C305.18 278.445 304.872 277.998 304.641 277.52C303.687 275.559 303.947 275.105 305.886 274.123C307.591 273.259 309.315 272.326 310.792 271.133C314.456 268.171 315.45 264.28 314.05 259.837C312.281 254.222 310.382 248.651 308.556 243.051C307.668 240.321 308.593 237.708 311.331 236.75C320.818 233.447 325.196 225.961 328.061 217.083C329.704 211.987 329.817 206.834 329.359 201.535C328.981 197.173 329.266 192.755 329.262 188.357C329.262 188.222 329.229 188.057 329.29 187.955C331.887 183.812 333.433 178.984 337.089 175.539C340.667 172.171 344.822 170.621 349.861 171.648C353.042 172.297 356.248 172.39 359.084 170.106C360.723 168.783 360.946 167.087 359.246 165.703C355.229 162.441 351.184 159.215 347.159 155.966C346.696 155.592 346.295 155.15 345.703 154.586C346.774 153.694 347.751 152.906 348.693 152.082C350.819 150.224 350.811 149.608 348.77 147.66C345.362 144.402 341.946 141.148 338.577 137.853C337.336 136.636 336.208 135.297 335.056 133.362C335.818 133.312 336.602 133.142 337.348 133.236C342.619 133.905 347.082 136.34 351.091 139.699C351.46 140.008 351.687 140.478 352.02 140.839C353.769 142.718 355.274 145.006 357.388 146.301C358.593 147.039 361.031 146.637 362.512 145.915C371.67 141.464 380.406 136.356 387.418 128.736C388.257 127.827 389.665 127.458 390.765 126.768C392.98 125.384 393.248 124.678 391.649 122.674C390.343 121.035 388.61 119.737 386.752 117.996C388.87 114.112 391.118 109.978 393.402 105.864C393.564 105.576 393.966 105.337 394.307 105.243C396.275 104.707 398.36 104.456 400.211 103.652C402.17 102.8 403.94 101.486 405.717 100.265C405.972 100.09 405.919 99.2622 405.802 98.7915C405.66 98.2356 405.367 97.6757 405.007 97.2254C403.688 95.5865 404.073 93.7319 405.072 92.4215C406.24 90.8875 408.147 90.1939 410.253 90.6685C414.44 91.6099 418.636 92.5309 422.835 93.4153C423.484 93.5536 424.19 93.5208 424.856 93.4402C426.95 93.1845 427.448 92.1658 426.385 90.2142C429.12 90.2142 431.822 90.4128 434.484 90.1696C438.704 89.7802 442.973 89.4066 447.082 88.4449C451.757 87.3534 453.794 83.5439 455.064 79.2146C455.761 76.8448 455.498 74.8604 453.465 73.3592C452.803 72.8721 451.952 72.5234 451.136 72.3896C447.017 71.7039 442.879 71.1402 438.757 70.4826C432.585 69.5006 426.414 68.4904 420.25 67.4559C418.1 67.0947 415.783 66.9971 413.892 66.0681C412.375 65.3256 411.125 63.658 410.237 62.1242C409.198 60.339 408.577 58.2818 407.952 56.2855C406.309 51.023 404.852 45.6996 403.148 40.4573C402.255 37.7186 401.006 35.0933 399.907 32.4235C399.537 31.5228 399.253 30.5773 397.857 30.902C397.598 30.9628 396.908 30.1553 396.782 29.6522C395.962 26.4549 393.211 25.2174 390.793 23.6959C386.156 20.7867 380.804 19.683 375.716 17.9018C370.068 15.9258 364.501 13.7186 358.841 11.7832C356.991 11.1502 354.945 11.1137 353.022 10.6593C351.991 10.4158 351.03 9.87207 349.618 9.2959C346.352 11.2678 342.639 13.4386 339.357 16.5831C336.72 19.1069 332.938 20.6933 329.403 21.9755C322.956 24.3126 316.314 26.102 309.761 28.151C308.824 28.4431 307.931 28.8853 307.014 29.2546C303.915 30.5043 300.79 31.6972 297.723 33.0199C296.278 33.6407 294.704 34.2696 293.625 35.3327C292.631 36.3146 291.929 37.8281 291.641 39.2198C291.341 40.6602 291.551 42.2588 291.791 43.7479C292.603 48.8603 293.487 53.9607 294.428 59.0487C294.647 60.2254 294.087 60.7203 293.369 61.5034C291.836 63.1792 290.533 65.0902 289.287 67.0016C289.011 67.4271 289.36 68.259 289.445 69.1519C288.2 68.9814 286.857 69.0745 285.79 68.5796C284.43 67.9509 283.915 68.5881 283.237 69.4764C281.789 71.3755 281.81 72.2395 283.331 74.1223C284.621 75.7166 285.749 77.4492 287.112 78.9708C289.206 81.3039 292.026 82.3626 294.534 82.9185C295.065 84.6308 295.909 86.1124 295.848 87.5566C295.8 88.7208 294.627 89.8209 294.01 90.9812C293.832 91.3175 293.657 91.8859 293.811 92.1376C296.453 96.3528 298.708 100.841 302.827 103.973C303.797 104.712 304.255 106.119 304.953 107.223C304.77 107.466 304.584 107.706 304.401 107.95C301.647 107.58 298.778 107.572 296.177 106.732C294.091 106.058 292.359 104.33 290.415 103.158C288.513 102.005 286.617 101.06 284.171 101.843C282.941 102.236 282.54 102.626 282.577 103.851C282.653 106.484 282.616 109.122 282.596 111.76C282.588 113.131 282.791 115.2 281.213 115.22C279.659 115.241 280.02 113.139 279.712 111.82C278.998 108.797 278.433 105.604 276.981 102.935C276.072 101.263 273.78 100.151 271.893 99.234C267.56 97.1362 263.133 95.2128 258.183 94.9696C256.896 94.9047 255.631 94.3816 254.276 94.0486C254.462 88.3354 250.408 86.1773 245.949 84.5784C242.919 83.4908 239.754 82.7645 236.621 81.9896C234.832 81.5471 234.422 80.7722 235.278 79.0842C238.342 73.055 240.638 66.7335 242.452 60.2213C244.006 54.6382 245.426 48.9983 247.39 43.5572C249.085 38.8505 251.622 34.4523 253.48 29.7983C254.908 26.2197 255.963 22.4746 256.957 18.7458C257.233 17.7152 257.095 15.9948 256.434 15.447C255.732 14.8627 254.186 15.2482 253.01 15.2969C248.425 15.4754 246.834 19.2895 245.382 22.4583C240.772 32.5006 236.779 42.8269 232.263 52.9137C229.083 60.0143 225.439 66.9079 222.006 73.8987C221.633 74.6618 221.239 75.4203 220.935 76.2161C219.852 79.0239 219.121 79.0927 216.171 78.8003C212.057 78.3906 207.85 78.2038 203.752 78.6017C200.81 78.8856 199.211 81.4907 198.222 84.2008C197.008 87.5238 196.034 88.064 192.504 87.2681C191.218 86.9803 189.932 86.6965 188.589 86.3962C188.784 86.0468 189.067 85.6738 189.218 85.2516C189.684 83.9373 189.68 82.8379 187.944 82.4728C187.059 82.2899 186.211 81.9286 185.432 81.6769C183.537 83.1381 181.784 85.3369 179.597 85.9216C177.711 86.4244 175.333 85.0976 173.576 84.6754C172.33 85.0655 171.235 85.6942 170.143 85.6942C166.67 85.6981 163.201 85.4588 159.728 85.3533C159.371 85.3408 158.974 85.5519 158.649 85.7512C156.332 87.1672 154.072 88.6802 151.707 89.9992C150.899 90.4495 149.84 90.5387 148.883 90.6161C144.821 90.9366 140.747 91.0907 136.698 91.5168C134.612 91.7358 132.296 90.7662 130.457 92.5513C130.08 92.9203 129.553 93.1845 129.289 93.6185C125.986 99.015 121.888 103.989 120.858 110.567C120.427 113.317 119.466 115.991 118.642 118.669C118.066 120.54 118.886 122.005 119.721 123.526C120.772 125.445 122.578 127.296 120.906 129.665C120.346 130.456 119.194 130.813 118.577 131.58C116.788 133.808 114.97 136.04 113.469 138.462C111.874 141.03 110.616 143.809 109.245 146.516C108.567 147.851 107.435 148.955 108.746 150.821C109.229 151.511 108.068 153.519 107.394 154.785C107.07 155.393 106.129 155.669 105.735 155.925C105.236 162.108 102.448 166.868 97.5106 170.857C98.549 170.946 99 170.987 99.4418 171.023C99.6162 173.007 97.8514 174.76 94.5284 175.941C94.3337 177.174 94.0781 178.411 93.9522 179.661C93.7693 181.463 92.2969 181.589 91.0507 181.828C90.7059 181.893 89.9107 181.138 89.8051 180.655C89.5455 179.471 89.5659 178.221 89.0873 177.016C89.0873 179.032 88.3728 181.499 89.2859 182.94C90.2273 184.433 89.9717 185.877 90.4955 187.261C90.6292 187.614 90.5276 188.146 90.3571 188.515C88.8599 191.834 87.8582 195.291 86.8231 198.788C85.626 202.833 85.8777 206.721 86.1091 210.713C86.1701 211.764 86.4822 212.802 86.6165 213.508C84.5103 213.671 82.5711 214.109 80.7166 213.878C79.0613 213.671 77.5436 212.567 75.8884 212.146C74.0298 211.671 72.0862 211.541 70.1877 211.225C68.2157 210.895 67.4651 212.296 67.2173 213.708C66.7427 216.451 66.4831 219.25 66.3776 222.037C66.333 223.178 66.9007 224.346 67.2134 225.495C67.8585 227.86 66.3737 231.577 64.2149 232.433C63.6675 232.652 62.7747 232.007 61.9755 231.735C61.7887 231.962 61.4399 232.433 61.042 232.863C58.7089 235.362 58.4126 238.353 59.9466 241.124C62.1945 245.186 63.1883 249.588 64.4909 253.941C65.1117 256.019 66.4955 257.857 67.3268 259.886C67.7772 260.981 67.631 262.316 68.0328 263.444C70.3699 270.025 74.8172 274.874 81.0004 277.905C85.1474 279.934 89.6026 281.326 93.9201 283.005C96.7357 284.101 99.5192 285.302 102.375 286.284C113.172 289.996 124.396 292.074 135.484 294.63C141.258 295.961 147.154 296.768 152.948 298.03C154.49 298.367 155.853 299.519 157.484 300.4C156.04 301.957 154.701 303.179 153.638 304.603C152.043 306.738 150.282 308.868 149.284 311.286C148.533 313.1 148.095 315.721 148.858 317.36C151.463 322.967 152.927 328.859 154.408 334.791C155.038 337.31 155.938 339.773 156.863 342.208C157.476 343.827 157.135 345.02 156.007 346.274C153.955 348.554 153.049 351.394 152.263 354.324C151.191 358.296 150.226 362.211 150.226 366.411C150.226 369.381 152.189 370.428 153.966 371.807C155.163 372.736 156.511 373.503 157.882 374.16C159.565 374.964 161.331 375.155 162.925 373.869C164.285 372.773 165.603 371.632 166.958 370.492C169.474 371.762 168.882 374.627 169.369 376.997C170.683 383.383 171.839 389.806 173.069 396.209C174.002 401.086 175.077 405.943 175.865 410.844C177.098 418.557 179.188 426.023 181.521 433.464C183.781 440.671 185.898 447.942 187.538 455.306C188.52 459.712 188.504 464.346 188.865 468.882C189.072 471.483 189.206 474.088 189.258 476.697C189.336 480.624 189.226 484.366 187.266 488.139C184.706 493.065 184.102 493.373 179.119 492.213C170.87 490.294 162.702 488.017 154.461 486.062C149.105 484.788 143.729 484.897 138.247 485.834C134.624 486.451 130.81 485.972 127.081 485.956C125.268 485.948 123.45 485.895 121.636 485.822C120.452 485.774 119.048 485.194 118.143 485.648C116.549 486.447 114.682 487.571 113.943 489.06C111.026 494.927 108.141 500.896 108.555 507.745C108.766 511.202 109.038 514.655 109.399 518.099C109.464 518.729 109.975 519.661 110.487 519.832C112.519 520.518 112.649 522.222 112.535 523.755C112.349 526.324 111.773 528.86 111.375 531.412C111.095 533.218 110.722 535.015 110.596 536.833C110.348 540.407 113.781 542.497 116.983 540.894C120.058 539.352 123.15 537.839 126.29 536.435C130.36 534.613 134.624 534.549 138.953 535.307C144.48 536.281 150.055 537.04 155.536 538.229C160.207 539.239 164.82 540.582 169.376 542.034C175.998 544.145 182.555 546.478 189.128 548.733C191.79 549.647 194.176 551.148 197.203 551.257C200.372 551.375 203.216 550.636 206.121 549.654C214.95 546.66 220.684 540.342 224.68 532.264C228.677 524.178 232.811 516.123 235.197 507.367C238.764 494.266 242.249 481.136 245.588 467.974C246.286 465.222 246.307 462.285 246.469 459.421C246.813 453.2 247.045 446.968 247.333 440.744C247.345 440.508 247.475 440.277 247.645 439.745C249.094 441.344 250.429 442.708 251.642 444.172C255.204 448.473 258.828 452.734 262.212 457.173C264.524 460.212 266.399 463.579 268.611 466.699C270.242 469 271.828 471.459 273.922 473.281C277.156 476.093 278.405 479.781 279.809 483.558C283.222 492.732 287.007 501.777 290.249 511.007C292.266 516.757 293.905 522.689 295.102 528.661C296.331 534.808 296.883 541.094 297.601 547.334C298.124 551.902 298.274 556.519 298.887 561.072C299.585 566.266 300.401 571.464 301.545 576.576C303.525 585.437 305.797 594.234 307.935 603.063C308 603.339 307.948 603.643 307.952 603.931C307.996 605.721 309.112 606.683 310.845 606.248C312.954 605.721 315.048 605.12 317.109 604.431C324.116 602.089 331.246 600.113 337.86 596.668C341.933 594.546 346.226 592.854 350.397 590.919C351.647 590.339 353.055 589.779 352.474 587.856C352.41 587.637 352.856 587.243 353.095 586.955C354.876 584.853 354.84 583.709 353.018 581.558C351.675 579.972 350.381 578.349 349.107 576.71C345.24 571.747 343.966 565.913 343.475 559.823C343.325 557.96 342.951 556.082 343.09 554.243C343.386 550.271 343.97 546.319 344.396 542.355C344.667 539.847 345.167 537.312 345.037 534.821C344.704 528.381 344.132 521.95 343.552 515.523C343.057 510.07 342.749 504.568 341.759 499.2C340.395 491.791 338.464 484.488 336.8 477.131C336.622 476.336 336.516 475.5 336.553 474.688C336.739 470.591 336.374 466.667 334.467 462.877C327.504 449.029 320.526 435.181 313.864 421.183C310.674 414.476 308.118 407.461 305.404 400.53C303.395 395.402 301.31 390.277 299.784 384.994C298.526 380.648 297.983 376.088 297.236 371.604C296.725 368.528 296.416 365.425 295.994 362.333C295.844 361.217 296.343 360.803 297.386 360.394C303.379 358.048 309.34 355.61 315.283 353.135C317.183 352.343 319.142 351.398 318.797 348.797C318.619 347.446 318.428 345.977 317.775 344.825C314.659 339.319 311.429 333.89 306.718 329.5C304.515 327.447 302.612 325.069 300.741 323.024L300.729 323.028Z" fill="white"/>
<path d="M99.803 159.103C98.2127 159.87 95.7091 159.103 95.9647 162.008C96.0624 163.12 96.8084 163.404 97.8068 163.221C99.3245 162.945 100.079 161.508 99.803 159.103Z" fill="white"/>
<path d="M94.0944 166.962C93.9849 167.201 93.7902 167.429 93.7942 167.655C93.806 168.508 93.8833 169.36 93.9404 170.212C94.2931 170.172 94.6418 170.135 94.9951 170.094C94.8653 169.173 94.7513 168.244 94.5854 167.331C94.5605 167.189 94.2767 167.096 94.0944 166.962Z" fill="white"/>
<path d="M250.92 443.215C252.437 445.462 253.922 447.731 255.48 449.946C260.447 457.015 265.417 464.087 270.44 471.118C272.36 473.804 274.591 476.283 276.36 479.058C277.423 480.726 278.466 482.775 278.494 484.666C278.612 493.085 280.15 501.286 281.753 509.486C283.302 517.394 285.015 525.269 286.626 533.165C288.813 543.872 291.065 554.572 293.109 565.305C294.623 573.249 295.718 581.278 297.297 589.211C297.772 591.613 297.703 593.577 296.469 595.667C296.043 596.388 296.299 597.517 296.238 598.539C294.278 598.701 293.544 599.764 293.954 602.256C294.757 607.165 297.423 611.158 299.805 615.402C302.138 619.565 305.29 617.702 308.293 617.812C309.336 617.849 310.378 618.071 311.412 618.015C315.072 617.816 318.732 617.617 322.38 617.252C324.981 616.992 327.55 616.368 330.15 616.132C330.73 616.08 331.692 616.834 331.976 617.447C333.397 620.527 334.654 623.683 335.632 626.02C334.09 627.712 332.698 629.242 331.307 630.775C331.615 630.865 331.923 630.958 332.232 631.048C332.565 631.887 332.999 632.707 333.206 633.575C333.709 635.718 334.289 637.864 334.5 640.043C334.731 642.465 335.108 644.936 331.773 646.117C329.809 646.811 329.038 649.1 330.252 651.01C332.211 654.094 331.156 657.367 331.696 660.507C332.386 664.512 332.966 668.531 333.615 672.536C334.183 676.044 334.683 679.564 335.393 683.045C335.912 685.595 336.594 688.139 337.49 690.577C337.738 691.246 339.024 691.541 340.054 692.138C340.156 691.436 340.229 690.951 340.245 690.833C351.546 688.066 362.707 685.333 373.874 682.599C373.874 682.376 373.865 682.153 373.865 681.937C373.127 681.852 372.369 681.609 371.654 681.701C366.595 682.363 361.559 683.327 356.483 683.74C351.245 684.166 345.966 684.081 340.703 684.231C340.322 684.238 339.945 684.349 339.572 684.415C339.507 682.973 339.572 681.472 339.348 680.003C338.245 672.72 337.08 665.443 335.903 658.167C335.656 656.619 335.437 655.036 334.889 653.587C334.613 652.857 335.141 650.95 333.104 651.591C333.056 651.607 332.524 650.698 332.58 650.268C332.641 649.789 333.019 649.144 333.433 648.957C335.141 648.19 336.898 647.525 338.663 646.9C341.089 646.04 343.657 645.501 345.946 644.376C349.448 642.656 352.771 640.562 356.159 638.615C357.328 637.945 358.479 637.243 359.636 636.554C359.749 636.708 359.867 636.862 359.981 637.012V635.686C360.273 635.686 360.443 635.636 360.484 635.693C364.2 640.372 369.337 642.218 375.001 643.127C377.972 643.601 380.881 644.567 383.859 644.867C388.176 645.306 392.55 645.695 396.867 645.472C402.114 645.2 407.34 644.365 412.55 643.601C415.844 643.119 419.11 642.384 422.361 641.637C423.123 641.463 424.19 640.911 424.401 640.286C425.684 636.546 428.998 634.241 430.796 630.954C432.216 628.357 434.306 628.974 436.359 628.775C437.953 628.621 439.536 628.362 441.131 628.183C442.169 628.069 443.264 627.786 444.246 627.993C445.812 628.321 447.103 627.997 448.596 627.489C450.479 626.848 452.584 626.787 454.605 626.629C456.663 626.471 458.781 626.743 460.793 626.385C463.613 625.882 465.333 627.538 466.704 629.299C469.529 632.934 472.012 636.837 474.608 640.651C475.213 641.54 475.963 642.669 476.974 641.873C477.522 641.443 477.611 639.791 477.25 638.988C476.593 637.527 475.518 636.221 474.479 634.967C471.837 631.778 469.155 628.621 466.417 625.517C465.256 624.203 464.091 622.673 462.59 621.939C461.284 621.297 459.486 621.46 457.924 621.561C452.187 621.931 446.413 622.125 440.733 622.941C433.681 623.955 426.681 625.391 419.715 626.897C414.639 627.992 409.571 627.396 404.516 627.27C397.24 627.092 389.974 626.516 382.707 626.057C382.183 626.025 381.647 625.599 381.185 625.266C380.016 624.422 378.856 623.566 377.765 622.632C377.331 622.263 377.079 621.675 376.746 621.184C376.872 620.957 376.998 620.729 377.123 620.502C376.101 620.697 375.075 620.888 374.202 621.054C373.565 619.756 373.135 618.145 372.117 617.118C371.601 616.599 369.897 616.871 368.944 617.281C367.605 617.853 366.992 617.978 366.517 616.315C365.929 614.25 364.87 612.322 364.196 610.278C363.255 607.425 363.705 606.686 366.172 604.853C367.491 603.875 368.607 602.876 367.297 600.637C366.091 598.58 366.25 595.768 365.333 593.48C364.087 590.367 363.138 587.219 362.517 583.94C362.237 582.459 361.429 581.603 359.725 581.948C359.015 582.094 358.248 581.973 357.482 581.973C355.911 577.043 354.597 572.08 352.747 567.325C350.596 561.803 350.466 555.981 349.585 550.271C348.653 544.193 347.901 538.086 347.139 531.985C346.538 527.18 346.116 522.356 345.479 517.56C344.607 510.999 343.54 504.458 342.696 497.893C342.262 494.529 342.067 491.13 341.864 487.737C341.657 484.321 341.99 480.811 341.337 477.492C340.456 473.017 339.215 468.537 337.482 464.326C335.076 458.471 331.887 452.94 329.367 447.126C325.184 437.469 321.029 427.784 317.296 417.949C312.667 405.744 308.519 393.352 304.06 381.083C303.208 378.741 301.845 376.591 300.778 374.327C300.47 373.674 300.36 372.931 300.161 372.225L300.178 372.184C299.492 371.052 298.684 369.977 298.141 368.785C295.329 362.613 292.582 356.409 289.827 350.21C289.388 349.228 289.036 348.205 288.642 347.203C288.796 347.138 288.951 347.069 289.105 347.004C290.675 350.282 292.318 353.533 293.795 356.852C295.844 361.457 295.852 361.696 300.547 360.353C306.686 358.596 312.744 356.535 318.781 354.441C321.646 353.447 321.621 352.96 319.942 350.445C319.426 349.674 319.122 348.574 319.171 347.649C319.431 342.873 317.073 339.153 314.346 335.655C311.165 331.573 307.765 327.666 304.544 323.783C307.461 323.065 310.719 322.476 313.831 321.45C318.976 319.754 323.447 316.877 327.127 312.86C328.701 311.14 329.335 309.099 328.852 306.774C328.787 306.466 328.657 305.979 328.458 305.922C325.675 305.151 325.476 302.266 324.064 300.424C320.7 296.034 317.84 291.258 314.557 286.799C311.989 283.306 309.1 280.051 306.179 276.477C309.753 275.592 312.557 272.781 316.631 272.412C319.231 267.161 314.857 246.573 309.445 239.781C311.218 237.513 313.819 237.379 316.363 237.087C320.85 236.568 324.457 234.543 326.368 230.367C328.158 226.46 329.854 222.463 331.031 218.345C331.956 215.116 332.013 211.642 332.483 208.283C332.552 207.788 332.784 207.317 332.945 206.838C333.067 206.473 333.404 206.011 333.286 205.759C331.599 202.148 332.666 198.334 332.532 194.638C332.378 190.361 332.751 186.06 332.93 181.771C332.942 181.467 333.25 181.171 333.397 180.915C331.692 180.627 330.349 181.455 329.724 183.922C328.966 186.924 328.377 190 328.085 193.083C327.411 200.217 327.233 207.407 326.32 214.507C325.74 219.031 324.701 223.62 321.893 227.471C319.248 231.106 315.632 233.378 311.36 234.661C311.295 234.681 311.214 234.705 311.161 234.681C307.753 233.265 307.404 236.365 306 238.223C302.194 236.564 298.059 236.434 293.966 236.75C290.679 237.006 287.238 237.339 284.24 238.551C282.179 239.383 280.483 239.745 278.487 239.111C278.072 238.981 277.712 238.69 277.33 238.471C277.74 238.284 278.142 238.073 278.559 237.915C278.795 237.825 279.059 237.83 279.44 237.33C278.535 237.034 277.63 236.738 276.892 236.499C284.293 234.648 290.76 230.636 296.834 225.888C297.995 224.983 299.038 223.936 300.153 222.975C300.393 222.768 300.717 222.5 300.989 222.517C304.937 222.724 306.523 219.733 308.183 217.051C309.859 214.34 311.575 211.525 311.429 208.165C311.295 205.114 314.18 203.645 314.817 200.683C315.9 201.032 316.915 201.697 317.771 201.535C318.736 201.353 319.954 200.622 320.376 199.786C323.525 193.574 326.523 187.286 329.493 180.984C329.704 180.538 329.481 179.438 329.136 179.256C327.923 178.611 328.02 177.616 328.045 176.561C328.215 169.287 326.316 162.401 323.273 155.949C320.083 149.194 316.456 142.609 312.561 136.23C309.384 131.029 305.712 126.078 300.73 122.333C296.847 119.42 292.485 117.505 287.847 116.195C285.453 115.517 283.027 114.953 280.637 114.344C281.367 110.693 280.791 107.187 279.643 103.742C279.318 102.764 278.863 101.823 278.437 100.881C277.175 98.0855 274.388 97.2661 271.913 96.5076C266.643 94.8969 261.226 93.7687 255.87 92.4419C255.793 92.6405 255.716 92.8437 255.638 93.0424C255.33 91.6631 255.193 90.2143 254.681 88.9117C253.516 85.9663 251.196 84.3759 248.132 83.6941C244.046 82.7809 239.981 81.7543 235.635 80.712C237.583 76.5204 239.364 72.3694 241.417 68.3528C245.187 60.9762 247.966 53.2021 250.969 45.5131C251.585 43.9388 251.711 42.1575 253.229 40.9038C253.748 40.4778 253.351 39.0821 253.659 38.23C255.452 33.2596 257.387 28.3418 259.156 23.3593C260.488 19.6142 258.361 14.8833 255.979 12.6841C253.922 10.7812 250.932 11.8563 248.429 13.8486C245.662 16.0477 244.74 19.4195 243.271 22.4261C241.056 26.9583 238.873 31.5067 236.743 36.0836C234.406 41.1026 232.183 46.1785 229.829 51.1895C229.423 52.0578 228.571 52.707 228.004 53.5145C227.484 54.2529 226.583 54.9508 227.496 56.0382C227.671 56.2451 227.65 56.7442 227.537 57.0404C225.39 62.5991 223.199 68.1417 221.053 73.7002C220.586 74.9097 220.245 76.167 219.961 77.0481C213.482 76.6948 207.196 76.3499 200.915 76.0091C199.649 75.9402 198.728 75.916 198.485 77.7456C198.144 80.322 197.223 82.8177 196.517 85.4753H190.443C191.498 82.0749 189.206 79.0482 186.065 78.8004C182.945 78.5533 180.924 79.9411 180.016 82.6348C179.261 84.8827 177.784 84.6637 176.153 84.4815C170.156 83.8154 164.159 83.1907 158.134 84.1242C157.017 84.2986 155.882 84.5418 154.843 84.9679C154.157 85.2478 153.175 85.5723 153.881 86.871C154.096 87.2643 153.253 88.1735 153.009 88.8835C152.084 91.5982 151.216 94.3325 150.306 97.0511C150.209 97.3435 149.966 97.5867 149.467 97.7453C150.16 95.1605 150.858 92.5795 151.585 89.8859C148.338 90.133 145.243 90.47 142.139 90.588C138.211 90.7381 134.251 90.4582 130.364 90.8961C129.029 91.0462 127.374 92.5435 126.716 93.85C123.004 101.222 118.577 108.298 116.573 116.438C116.025 118.661 115.461 120.901 115.205 123.169C115.096 124.155 115.984 124.959 116.954 125.583C117.571 125.981 119.234 125.486 118.699 127.178C117.887 128.261 117.076 129.34 116.264 130.424C112.52 134.615 111.53 140.101 109.448 145.067C108.884 146.41 108.365 146.995 106.79 147.084C103.816 147.254 101 148.143 98.7116 150.265C94.1063 154.537 89.8544 159.029 88.1054 165.33C86.9286 169.578 86.7746 173.798 87.773 178.099C88.2312 180.079 88.4587 182.116 88.7871 184.129C88.8278 184.364 88.9536 184.664 88.856 184.835C85.4071 190.986 82.6728 197.442 80.5101 204.152C80.0958 205.431 79.5156 206.717 78.7329 207.796C77.8643 208.989 78.5382 209.455 79.3943 209.898C80.5383 210.49 81.7314 210.985 82.7698 211.959C80.457 211.387 78.1685 210.693 75.8275 210.283C73.4865 209.874 71.0557 209.362 68.7429 209.618C66.7061 209.845 66.3331 212.15 65.9718 213.874C65.1891 217.603 64.584 221.368 63.9717 225.13C63.6027 227.402 65.3589 226.818 66.6051 226.955C67.1486 228.152 66.5684 228.81 65.4769 229.207C63.0874 230.08 60.7011 230.973 58.2992 231.808C57.1068 232.222 56.579 232.774 56.5869 234.239C56.6033 236.791 55.934 239.351 55.9785 241.899C56.0067 243.449 56.7409 245.023 57.3296 246.516C58.9607 250.639 60.5878 254.765 62.3853 258.819C65.1157 264.974 67.9844 271.064 70.7921 277.179C71.6889 279.134 73.0033 280.425 75.3404 280.567C76.0064 280.607 76.696 281.37 77.2474 281.926C78.5742 283.269 79.6375 284.969 81.163 285.996C82.7377 287.055 84.7175 287.521 86.5432 288.191C89.8459 289.404 93.1125 290.751 96.4879 291.708C99.8273 292.654 103.281 293.198 106.693 293.888C111.964 294.951 117.226 296.071 122.521 297.004C127.272 297.84 132.06 298.452 136.831 299.166C141.218 299.824 145.6 300.505 149.986 301.143C151.13 301.308 152.295 301.362 153.747 301.495C151.832 303.159 150.258 304.603 148.603 305.946C144.951 308.908 144.8 313.067 145.714 316.926C147.255 323.434 149.535 329.772 151.56 336.166C151.869 337.14 152.287 338.268 153.021 338.885C154.332 339.985 153.979 341.08 153.553 342.306C152.526 345.259 151.5 348.213 150.481 351.171C150.396 351.414 150.282 351.707 150.339 351.938C151.353 356.003 149.012 359.631 148.829 363.53C148.736 365.547 148.173 367.851 148.935 369.511C149.698 371.166 151.828 372.213 153.41 373.463C154.015 373.941 154.762 374.238 155.521 374.656C154.25 377.184 152.198 379.464 152.822 382.486C153.049 383.578 153.755 385.043 154.648 385.448C159.59 387.692 158.592 389.283 158.336 393.15C158.174 395.637 157.066 398.063 156.461 400.238C152.94 396.319 149.369 392.342 145.819 388.39C146.967 387.092 148.513 385.655 149.645 383.947C150.436 382.755 150.749 381.209 151.085 379.772C151.183 379.358 150.623 378.794 150.363 378.299C149.868 378.583 149.159 378.741 148.915 379.167C148.083 380.637 147.402 382.19 146.692 383.724C146.253 384.669 146.079 385.85 145.401 386.548C144.496 387.477 143.214 388.037 142.585 388.443C144.857 391.271 147.239 394.201 149.572 397.162C150.814 398.737 151.881 400.453 153.195 401.962C154.981 404.016 157.082 404.048 158.787 402.019C162.118 398.047 163.761 393.405 163.696 388.224C163.668 385.749 161.335 383.501 158.49 383.168C155.792 382.852 154.88 381.732 156.011 378.352C156.34 377.374 156.916 376.478 157.569 375.151C158.726 375.901 159.761 376.936 160.986 377.269C162.195 377.593 163.855 378.381 164.719 376.311C165.072 375.459 165.896 374.801 166.963 374.136V378.044C166.963 382.235 166.76 386.443 167.015 390.618C167.312 395.385 167.957 400.137 168.561 404.884C169.178 409.753 169.856 414.614 170.635 419.458C171.402 424.222 172.327 428.957 173.179 433.708C174.087 438.776 175.004 443.84 175.885 448.907C176.587 452.949 177.188 457.01 177.922 461.048C179.098 467.515 180.307 473.982 181.606 480.426C181.869 481.741 182.596 482.962 183.095 484.195C181.808 488.306 178.822 486.054 176.554 485.693C169.121 484.508 161.732 483.072 154.324 481.736C153.483 481.586 152.603 481.566 151.796 481.311C148.805 480.365 146.761 482.727 144.273 483.469C140.484 484.601 136.685 484.313 132.912 484.065C131.253 483.956 129.715 482.479 128.031 482.219C124.692 481.704 121.292 481.558 117.911 481.343C115.7 481.201 113.473 481.128 111.262 481.193C110.498 481.213 109.286 480.836 109.562 482.735C109.768 484.163 106.823 485.421 105.244 484.99C101.597 483.997 97.9203 483.112 94.2768 482.106C93.8303 481.984 93.2947 481.481 93.1695 481.043C92.7677 479.684 92.6661 478.227 92.2078 476.892C91.8224 475.764 90.9295 475.293 89.5823 475.151C88.1499 475.001 86.8028 474.141 85.4032 473.634C81.7111 472.295 78.0144 470.98 74.3184 469.658C73.965 469.532 73.3606 469.499 73.2878 469.284C72.4356 466.716 70.4027 466.35 68.0735 466.139C64.4096 465.807 61.6222 463.396 58.5876 461.648C56.2663 460.313 54.1037 458.702 52.4851 457.619C51.9613 456.3 51.8807 455.221 51.3248 454.852C48.3223 452.851 45.3356 451.553 41.3144 451.857C37.2087 452.169 35.1352 454.702 33.2766 457.209C27.8886 464.48 24.0215 472.583 21.2177 481.245C19.8509 485.478 21.0879 488.691 23.5227 491.86C24.2084 492.757 24.955 493.604 25.8269 494.664C23.7947 495.248 21.8713 495.719 20.0049 496.364C18.6335 496.834 16.6656 496.952 17.9236 499.468C18.1989 500.02 17.3027 501.237 16.8281 502.077C13.2816 508.345 10.8108 515.065 9.19547 522.031C7.05771 531.25 5.34933 540.57 3.45871 549.845C3.42987 549.975 3.47446 550.121 3.44629 550.251C2.92316 552.523 0.516571 554.608 3.48297 557.112C5.49551 558.808 6.806 561.312 8.67236 563.219C9.41052 563.974 10.774 564.193 11.8977 564.469C13.1432 564.777 13.7358 563.693 14.6366 563.125C16.4059 562.002 18.7633 561.835 20.6212 560.809C24.3303 558.756 28.164 556.747 31.3821 554.049C34.4737 551.452 35.8005 547.48 36.8514 543.56C37.7115 540.339 38.645 537.137 39.6021 533.948C39.728 533.526 40.1298 533.072 40.5238 532.865C46.4395 529.728 52.4077 526.685 58.2992 523.504C61.4557 521.8 64.5152 519.905 67.5747 518.026C68.6983 517.337 68.8445 516.156 69.1408 514.894C69.5833 513.02 70.7069 511.312 71.4903 509.51C71.7781 508.853 71.9243 508.13 72.1721 507.319C72.61 507.457 73.0079 507.644 73.4215 507.7C75.7396 508.012 76.8999 509.322 76.9026 511.632C76.9026 513.413 76.9026 515.198 76.9026 516.927C79.7837 516.55 82.4046 516.119 83.5977 513.352C84.6001 511.032 85.4313 508.638 86.3124 506.358C91.4041 507.153 96.5122 507.952 101.617 508.751C101.662 508.532 101.702 508.317 101.747 508.098C96.0133 504.312 89.2657 504.507 82.5344 503.473C82.8386 496.173 85.6064 489.316 87.0912 482.577C92.455 484.134 97.8069 485.689 103.159 487.247C103.224 487.267 103.276 487.32 103.337 487.336C105.739 487.906 106.687 489.448 106.182 491.962C105.094 497.439 103.69 502.884 103.029 508.414C102.25 514.922 101.714 521.529 103.293 528.028C104.311 532.215 105.544 536.35 106.673 540.513C106.77 540.878 106.916 541.284 106.851 541.637C106.271 544.802 108.024 546.733 111.278 546.559C112.507 546.494 113.749 546.664 114.982 546.64C119.162 546.55 123.3 546.209 127.102 544.234C128.327 543.596 129.382 542.879 128.538 541.122C128.137 540.286 128.421 539.507 129.698 539.333C132.839 538.907 135.939 538.095 139.088 537.872C141.214 537.721 143.425 538.168 145.547 538.586C155.099 540.469 164.483 542.972 173.645 546.271C178.887 548.157 184 550.446 189.315 552.085C195.629 554.033 202.137 554.232 208.645 552.791C209.923 552.507 211.21 552.17 212.508 552.049C215.721 551.744 217.007 549.001 218.89 547.074C223.11 542.749 226.506 537.815 228.993 532.301C230.45 529.071 231.963 525.837 233.018 522.47C235.4 514.882 237.697 507.258 239.689 499.565C241.888 491.065 243.929 482.512 245.616 473.898C247.175 465.953 248.591 457.947 248.644 449.796C248.659 447.061 248.587 444.326 248.558 441.592C248.558 441.543 248.635 441.442 248.66 441.446C248.806 441.474 248.948 441.527 249.09 441.572C248.944 441.052 248.948 440.407 248.631 440.034C243.097 433.481 237.522 426.961 231.959 420.432C226.997 414.605 222.018 408.795 217.085 402.944C215.457 401.017 213.944 398.997 212.382 397.016C212.552 396.879 212.727 396.74 212.898 396.603L259.38 449.93C259.137 450.165 258.889 450.397 258.645 450.632C256.835 448.778 255.042 446.907 253.204 445.082C252.515 444.396 251.703 443.831 250.948 443.215H250.92ZM294.44 342.528C294.327 342.569 294.217 342.614 294.103 342.654C294.067 342.484 294.03 342.317 293.994 342.147C293.754 342.147 293.438 342.252 293.292 342.135C288.354 338.264 283.424 334.381 278.523 330.466C278.247 330.247 278.214 329.719 278.068 329.338C280.677 330.806 283.067 332.376 285.226 334.215C288.224 336.767 291.052 339.518 293.949 342.188C294.095 342.317 294.238 342.443 294.379 342.573C294.477 342.675 294.57 342.78 294.668 342.882C294.607 342.894 294.546 342.91 294.485 342.922C294.469 342.793 294.457 342.658 294.44 342.528ZM162.921 368.155C162.804 368.44 162.682 368.728 162.564 369.012C162.065 370.485 161.566 371.962 160.982 373.69C157.675 371.856 154.62 370.156 151.56 368.472C150.546 367.912 150.392 367.206 150.692 366.062C151.487 363.011 152.116 359.91 152.765 356.823C153.475 353.455 153.622 353.394 156.348 355.586C156.644 355.821 156.965 356.024 157.233 356.214C155.963 359.201 155.281 362.13 155.719 365.839C158.555 363.55 158.92 360.458 160.349 357.939C161.322 358.15 162.337 358.373 163.416 358.609C162.228 361.802 161.047 364.967 159.878 368.107C157.476 367.328 155.18 366.581 152.315 365.652C152.875 366.407 153.062 366.898 153.418 367.093C154.798 367.855 156.239 368.5 157.634 369.231C158.385 369.625 159.091 370.095 159.817 370.533C161.322 371.187 161.505 369.608 162.26 368.703C162.397 368.448 162.532 368.192 162.67 367.936C162.836 367.62 162.998 367.308 163.165 366.991C163.266 367.052 163.368 367.117 163.465 367.178C163.282 367.502 163.1 367.827 162.917 368.148L162.921 368.155ZM249.804 317.031C249.91 316.885 250.011 316.735 250.117 316.589C250.153 315.989 250.193 315.392 250.23 314.792C250.425 314.857 250.62 314.922 250.814 314.987C250.477 315.668 250.141 316.349 249.804 317.031ZM162.584 219.153C164.013 220.029 165.271 221.036 165.757 222.638C165.62 222.752 165.477 222.869 165.34 222.983C164.285 221.807 163.225 220.634 162.171 219.457C161.262 218.548 160.353 217.635 159.444 216.727L157.395 215.806C157.298 215.943 157.2 216.082 157.103 216.215C159.74 219.14 162.378 222.066 165.015 224.996C164.897 225.211 164.784 225.426 164.666 225.641C163.104 224.898 161.193 224.505 160.041 223.348C156.324 219.62 152.891 215.611 149.037 211.367C149.714 209.375 150.729 206.388 151.861 203.061C153.256 203.511 154.713 203.682 155.821 204.396C158.495 206.12 160.994 208.117 163.591 209.963C165.376 211.232 167.218 212.426 168.95 213.598C168.31 214.97 167.803 216.061 167.214 217.319C163.214 213.172 159.444 209.038 154.611 206.181C154.441 206.372 154.275 206.558 154.104 206.749C158.397 210.636 162.686 214.519 167.024 218.447C166.76 219.027 166.508 219.575 166.346 219.932C162.958 216.731 159.647 213.606 156.34 210.482C156.084 210.717 155.829 210.953 155.573 211.188C156.961 212.892 158.353 214.592 159.74 216.297C160.686 217.246 161.635 218.199 162.58 219.149L162.584 219.153ZM354.479 628.577C355.027 629.563 355.643 630.521 356.106 631.546C356.735 632.943 356.682 632.962 355.473 634.424C355.01 632.423 354.593 630.625 354.178 628.828C353.651 627.582 353.12 626.341 352.576 625.063C352.982 624.917 353.521 624.722 353.955 624.568C354.142 625.976 354.313 627.278 354.483 628.581L354.479 628.577ZM273.808 260.49C277.857 262.641 278.6 262.284 277.192 264.406C275.995 263.128 274.827 261.882 273.658 260.636C273.528 260.543 273.394 260.45 273.264 260.357C273.309 260.312 273.378 260.223 273.394 260.231C273.54 260.308 273.674 260.401 273.812 260.49H273.808ZM187.631 127.913C187.716 127.604 187.802 127.296 187.887 126.987C187.988 127.016 188.09 127.04 188.191 127.068C188.11 127.422 188.033 127.774 187.952 128.132C187.084 130.343 186.215 132.554 185.303 134.875C184.783 134.53 184.243 134.169 183.882 133.925C185.168 131.864 186.402 129.889 187.635 127.913H187.631ZM290.111 476.685C290.302 476.58 290.488 476.478 290.679 476.373C293.033 474.315 295.524 472.392 297.694 470.157C299.179 468.623 301.427 467.479 301.391 464.805C301.391 464.614 302.203 464.196 302.543 464.277C302.864 464.354 303.343 465.052 303.253 465.303C302.929 466.213 302.547 467.182 301.918 467.888C298.709 471.483 294.964 474.425 290.72 476.721C290.59 476.782 290.46 476.839 290.33 476.9C294.055 479.379 297.78 481.862 301.504 484.341L302.064 484.82C301.999 484.901 301.938 484.979 301.873 485.06C301.663 484.914 301.452 484.771 301.241 484.625C300.016 484.037 298.826 483.343 297.557 482.877C294.019 481.578 291.742 477.642 286.788 478.219C288.277 477.533 289.194 477.111 290.111 476.693V476.685ZM157.078 289.156C156.904 289.286 156.733 289.416 156.559 289.542C156.644 289.367 156.73 289.189 156.819 289.015C158.714 285.858 160.584 282.685 162.536 279.56C162.784 279.163 163.461 279.033 163.94 278.778L164.541 279.431C162.053 282.673 159.565 285.915 157.078 289.156ZM115.047 164.47C115.003 164.762 114.954 165.054 114.909 165.347C114.796 165.33 114.686 165.314 114.572 165.294C114.629 164.945 114.686 164.596 114.743 164.251C117.323 157.374 119.904 150.492 122.48 143.615C122.711 143.7 122.939 143.785 123.17 143.87C122.213 146.674 121.377 149.526 120.277 152.269C118.63 156.376 116.8 160.405 115.047 164.47ZM127.374 499.39C127.52 499.086 127.67 498.778 127.816 498.473C127.897 498.502 127.978 498.534 128.059 498.563C127.93 498.928 127.8 499.293 127.67 499.659C127.325 509.494 126.976 519.329 126.631 529.16C125.54 519.216 125.864 509.291 127.374 499.386V499.39ZM38.1658 482.069C37.9796 482.195 37.7967 482.317 37.6099 482.442C37.7036 482.195 37.7967 481.947 37.8898 481.704C39.3713 479.091 40.8241 476.466 42.3332 473.869C45.0635 469.171 47.8267 464.493 50.5984 459.769C51.3162 460.297 51.9292 460.743 52.3468 461.048C51.5516 461.701 50.7079 462.155 50.1965 462.857C48.8454 464.719 47.5914 466.655 46.3825 468.615C43.6154 473.086 40.9008 477.581 38.1619 482.069H38.1658ZM71.6483 486.987C74.7602 487.421 77.507 489.649 80.9926 488.833C80.4897 491.121 79.9987 493.357 79.5562 495.37C79.199 494.729 78.9276 493.471 78.3029 493.256C75.1214 492.168 73.6038 489.267 71.2956 487.251C71.1736 487.068 71.0517 486.886 70.9305 486.699C71.1697 486.792 71.409 486.89 71.6483 486.983V486.987ZM240.841 139.728C240.784 139.967 240.727 140.211 240.671 140.45C240.582 140.43 240.493 140.41 240.403 140.393C240.439 140.101 240.472 139.809 240.508 139.517C240.744 138.697 241.056 137.893 241.202 137.058C242.172 131.511 243.199 125.969 244.018 120.398C244.501 117.12 246.164 114.977 249.407 113.926C249.155 114.908 248.696 115.756 248.116 116.515C247.228 117.676 245.812 118.637 245.418 119.923C244.562 122.719 244.294 125.685 243.637 128.549C242.78 132.294 241.778 136.003 240.841 139.728ZM296.007 327.143C298.157 331.078 300.307 335.01 302.458 338.946C302.937 338.353 303.168 337.717 302.977 337.246C301.354 333.229 299.658 329.24 297.97 325.248C297.488 324.107 296.964 322.984 296.457 321.852C295.589 321.02 294.72 320.188 293.852 319.357C293.653 319.405 293.454 319.454 293.252 319.503C293.101 320.955 292.951 322.411 292.797 323.864C292.911 324.201 293.024 324.538 293.138 324.874C293.053 324.903 292.968 324.927 292.883 324.956C292.765 324.672 292.647 324.383 292.525 324.099C291.191 321.462 290.241 318.582 287.628 316.216C285.307 321.77 288.188 326.794 288.139 332.085C285.859 330.352 283.441 328.924 281.554 326.985C279.436 324.805 277.196 322.659 274.352 322.002C269.649 320.914 264.789 320.087 259.98 319.977C254.973 319.863 249.942 320.723 244.813 321.17C245.783 316.999 246.765 312.775 247.747 308.556C247.934 308.563 248.12 308.571 248.311 308.58C248.562 311.725 248.81 314.872 249.065 318.046C249.544 317.754 250.222 317.222 250.307 317.303C251.658 318.618 251.573 317.441 251.796 316.54C252.218 314.848 252.734 313.181 253.216 311.485C253.435 313.449 253.651 315.368 253.861 317.259C255.598 317.733 256.385 317.263 256.247 315.449C256.142 314.037 256.413 312.581 256.183 311.197C255.805 308.917 256.17 306.417 254.685 304.494C252.024 305.018 251.516 306.859 251.342 308.99C251.229 310.365 250.973 311.724 250.753 313.286C250.534 310.596 250.38 308.129 250.108 305.678C250.043 305.111 249.585 304.587 249.309 304.043C248.814 304.336 248.092 304.51 247.869 304.944C246.895 306.827 246.067 308.782 245.167 310.75C244.959 309.813 244.708 308.819 244.522 307.809C244.233 306.263 243.519 305.885 242.407 307.111C241.653 307.943 240.687 308.843 240.472 309.854C239.75 313.217 239.352 316.654 238.755 320.046C238.597 320.951 238.346 322.436 237.83 322.582C235.128 323.353 232.328 323.779 229.302 324.375C230.499 320.748 231.606 317.385 232.86 313.582C233.542 316.95 232.413 319.969 233.829 323.158C235.773 318.991 235.595 310.45 233.562 308.478C233.079 309.18 232.406 309.781 232.211 310.507C230.969 315.148 229.837 319.823 228.624 324.647C228.21 324.672 227.618 324.704 227.029 324.737L226.749 324.976C226.794 324.842 226.839 324.708 226.883 324.574C227.516 319.49 228.62 314.402 226.79 309.294C221.56 313.875 222.416 320.359 221.15 326.1C212.479 328.332 203.768 330.575 194.801 332.884C195.929 330.056 196.964 327.463 198.217 324.327V329.398C200.789 330.421 201.91 329.318 202.401 327.061C202.592 326.185 203.009 325.357 203.537 323.938V329.756C207.489 329.379 206.527 325.479 208.393 323.547C208.259 324.432 207.931 325.252 208.089 325.966C208.248 326.68 208.747 327.577 209.351 327.873C210.26 328.315 211.351 327.93 211.469 326.761C211.801 323.447 212.098 320.119 212.131 316.792C212.138 316.025 211.136 314.755 210.402 314.589C209.241 314.325 207.878 314.674 207.331 316.188C206.669 318.026 205.922 319.835 205.306 321.425V313.688C217.072 310.775 229.038 307.711 241.06 304.883C246.213 303.67 251.455 302.404 256.702 302.161C261.47 301.938 266.302 303.07 271.155 303.609C269.045 307.245 269.118 309.683 271.317 311.193C273.893 312.962 276.32 312.418 278.43 309.557C280.353 310.71 282.272 311.879 284.212 313.023C287.392 314.901 290.525 316.881 293.804 318.569C295.305 319.34 296.331 320.148 296.392 321.884C297.581 322.72 298.908 323.414 299.922 324.424C301.91 326.408 303.805 328.498 305.59 330.665C310.155 336.219 314.89 341.66 316.034 349.203C316.237 350.526 316.079 350.875 314.955 351.094C314.338 351.216 313.73 351.39 313.34 351.487C312.959 350.664 312.821 349.889 312.358 349.45C310.577 347.771 308.82 346.022 306.828 344.622C301.367 340.788 295.787 337.128 290.269 333.375C289.803 333.058 289.145 332.6 289.101 332.154C288.707 328.404 288.435 324.643 288.127 320.886C288.76 321.239 288.947 321.694 289.206 322.103C291.491 325.714 291.921 330.397 295.65 333.184C295.966 333.419 295.982 334.032 296.193 334.446C296.408 334.864 296.688 335.254 296.936 335.651L297.39 335.484C296.842 332.774 296.295 330.064 295.747 327.354C295.706 327.07 295.666 326.781 295.621 326.497C295.702 326.485 295.779 326.473 295.861 326.457C295.905 326.684 295.954 326.911 295.998 327.139L296.007 327.143ZM363.633 618.356C360.845 619.074 358.053 619.796 355.262 620.506C352.284 621.265 349.232 621.813 346.344 622.823C343.649 623.764 341.771 623.383 340.436 620.94C338.192 616.834 335.964 612.724 333.676 608.521C336.415 607.579 339.15 606.82 341.742 605.717C346.429 603.721 351.266 602.467 356.353 602.309C356.909 602.292 357.838 602.933 358.005 603.457C358.82 606.013 359.239 608.707 360.171 611.214C361.092 613.686 362.464 615.986 363.637 618.36C363.547 618.453 363.458 618.551 363.657 618.34C363.429 618.518 363.535 618.437 363.637 618.356H363.633ZM189.384 271.673C187.866 271.957 186.353 272.237 184.836 272.521C184.816 272.387 184.795 272.257 184.775 272.123C186.199 271.86 187.619 271.591 189.043 271.328C190.435 271.109 191.823 270.894 192.967 270.716C194.367 273.649 193.146 275.909 192.082 278.396C190.248 282.693 188.938 287.209 187.311 291.595C184.621 298.834 181.808 306.028 179.123 313.266C174.104 326.785 169.093 340.309 164.204 353.873C163.716 355.229 163.335 355.095 162.256 354.798C160.11 354.21 157.906 353.841 155.224 353.273C155.224 353.078 155.013 352.307 155.26 351.739C156.149 349.702 157.411 347.812 158.146 345.726C162.459 333.505 166.857 321.304 170.813 308.965C172.688 303.118 174.911 297.275 175.114 290.991C175.122 290.702 175.459 290.386 175.703 290.151C179.578 286.422 183.582 282.815 187.303 278.936C189.465 276.684 191.182 273.998 193.372 271.15C191.612 271.376 190.5 271.523 189.388 271.669L189.384 271.673ZM261.883 198.159C256.398 195.165 250.944 192.11 245.41 189.204C241.726 187.273 237.924 185.561 234.175 183.752C234.049 183.942 233.927 184.133 233.801 184.319C234.463 184.847 235.076 185.455 235.793 185.881C239.891 188.3 244.006 190.689 248.132 193.059C252.831 195.761 257.456 198.61 262.297 201.032C264.083 201.929 265.446 202.866 266.565 204.514C267.701 206.185 269.024 207.934 272.035 207.39C270.716 207.958 269.909 208.307 269.106 208.652C272.948 209.099 276.421 208.25 279.663 206.486C280.344 206.117 280.839 205.235 281.525 205.081C283.607 204.623 285.737 204.404 288.009 204.067C286.922 205.958 285.875 207.768 284.832 209.577C284.739 209.358 284.642 209.143 284.548 208.924C283.806 209.135 282.516 209.2 282.414 209.581C281.842 211.752 280.223 212.884 278.596 214.105C276.178 215.923 273.812 217.81 271.304 219.757C270.655 215.586 269.588 211.894 264.532 211.391C265.429 209.699 266.168 208.303 266.91 206.907C266.732 206.741 266.553 206.571 266.374 206.404C265.429 207.142 264.484 207.885 263.522 208.636C261.672 207.597 259.838 206.392 257.87 205.483C246.813 200.375 235.558 195.81 223.532 193.481C221.308 193.051 219.02 192.909 216.816 193.745C226.64 195.811 235.672 199.929 244.87 203.706C235.518 203.219 226.226 203.13 216.938 204.286C217.482 204.627 218.034 204.911 218.606 204.972C225.252 205.682 231.903 206.351 238.553 207.045C242.07 207.415 245.58 207.877 249.106 208.157C250.332 208.254 251.589 207.906 252.839 207.804C253.371 207.759 253.959 207.691 254.434 207.869C255.444 208.242 256.402 208.77 257.229 209.164C255.931 209.756 254.632 210.348 252.851 211.164C253.95 212.044 254.552 212.738 255.31 213.095C258.097 214.41 260.999 215.497 263.725 216.925C264.663 217.416 265.6 218.545 265.864 219.559C267.113 224.33 267.973 229.207 269.284 233.959C270.014 236.612 271.171 239.197 272.477 241.627C273.504 243.538 275.476 243.713 276.721 242.451C278.279 243.177 279.821 243.892 281.424 244.638C281.217 245.628 281.018 246.594 280.844 247.437C279.168 247.089 277.516 246.52 275.845 246.452C273.731 246.366 273.106 247.656 274.189 249.527C273.902 249.568 273.601 249.531 273.394 249.657C272.538 250.176 271.715 250.744 270.879 251.296C271.398 251.897 271.893 252.517 272.441 253.086C272.952 253.613 273.524 254.084 274.393 254.871H269.479C269.629 255.897 269.738 256.64 269.848 257.374C267.892 258.547 267.815 259.663 269.99 261.253C272.25 262.901 274.745 264.224 277.395 265.842C276.571 266.378 275.813 266.869 275.074 267.347C271.532 265.514 267.986 263.68 264.354 261.805C264.541 261.493 264.958 261.07 265.048 260.592C265.271 259.363 265.129 258.251 263.486 258.166C260.8 258.032 258.106 257.947 255.423 257.743C252.835 257.549 250.262 257.123 247.674 256.985C245.065 256.847 242.436 255.825 239.815 257.252C239.166 257.606 237.985 257.488 237.267 257.135C234.008 255.54 230.661 254.043 227.658 252.047C217.368 245.206 207.209 238.162 196.996 231.203C195.917 230.465 194.533 229.97 193.782 228.984C188.58 222.159 181.809 217.124 174.972 212.157C172.164 210.121 169.287 208.178 166.463 206.206C166.845 205.203 167.218 204.428 167.433 203.613C168.196 200.724 170.062 199.117 172.947 198.476C173.803 198.285 174.643 197.746 175.337 197.177C175.779 196.812 176.242 196.058 176.169 195.55C175.926 193.814 175.451 192.106 175.077 190.43C175.39 190.227 175.577 190.138 175.722 190.008C177.545 188.369 179.626 186.924 181.054 184.993C181.667 184.161 180.819 182.323 180.839 180.944C180.847 180.315 181.338 179.69 181.667 178.931C181.906 179.365 182.032 179.593 181.902 179.357C184.665 176.578 187.518 173.705 190.374 170.836C190.756 170.455 191.104 170.029 191.53 169.704C192.419 169.027 193.263 168.11 194.277 167.822C196.874 167.079 199.556 166.633 202.202 166.061C211.461 164.057 220.716 162.052 229.951 160.052C231.703 161.123 233.72 162.352 235.599 163.501C234.836 164.973 233.302 166.641 233.294 168.32C233.286 169.976 234.783 171.66 235.684 173.299C236.382 174.565 237.177 175.779 237.919 177.016C241.413 182.847 246.688 184.899 253.253 184.376C253.756 184.336 254.519 184.855 254.807 185.334C257.323 189.489 259.757 193.692 262.212 197.883C262.334 198.066 262.451 198.252 262.573 198.435L261.859 198.148L261.883 198.159ZM188.698 334.166C189.36 333.143 190.033 332.584 190.021 332.036C189.952 328.831 189.786 325.621 189.49 322.432C189.433 321.811 188.662 321.255 188.224 320.671C187.766 321.186 187.047 321.637 186.893 322.229C185.696 326.863 184.604 331.52 183.403 336.495C181.164 337.266 178.381 338.223 175.309 339.283C175.524 338.463 175.646 337.834 175.857 337.234C177.983 331.16 180.145 325.098 182.255 319.02C186.325 307.305 190.358 295.576 194.448 283.869C195.016 282.238 196.245 280.746 196.44 279.102C196.773 276.282 196.534 273.394 196.534 270.436C196.975 270.318 197.666 270.095 198.371 269.96C209.095 267.883 219.763 265.583 230.154 262.138C230.916 261.886 231.898 261.826 232.641 262.077C235.806 263.152 238.768 262.86 241.644 261.205C241.961 261.022 242.419 260.981 242.801 261.022C248.238 261.55 253.675 262.045 259.1 262.697C260.288 262.84 261.461 263.457 262.549 264.037C264.662 265.169 266.663 266.512 268.797 267.603C270.879 268.67 273.07 269.534 275.386 270.565C269.775 272.492 264.37 274.351 258.966 276.213C259.035 276.416 259.1 276.615 259.169 276.818C262.431 275.909 265.725 275.093 268.955 274.075C274.673 272.277 280.333 270.232 286.508 271.928C285.514 273.308 284.439 274.801 283.363 276.294C280.572 280.169 277.695 283.987 275.066 287.972C274.603 288.674 274.794 290.349 275.35 291.056C276.279 292.24 276.92 290.78 277.516 290.224C279.082 288.759 280.596 287.233 282.081 285.683C283.826 283.865 285.518 282.003 287.259 280.133C288.703 282.243 290.237 282.734 292.89 281.784C296.1 280.636 299.257 279.35 302.117 278.242C309.534 287.814 316.89 297.312 324.381 306.977C321.829 308.616 319.316 310.239 316.797 311.846C312.212 314.775 307.428 317.271 301.979 318.086C300.153 318.362 298.145 319.129 296.469 317.51C295.43 316.504 294.525 315.319 293.374 314.475C290.066 312.057 286.646 309.789 283.303 307.423C281.956 306.47 280.661 305.914 279.241 307.334C278.993 306.875 278.819 306.547 278.641 306.219C278.791 306.356 278.941 306.494 279.091 306.632C281.554 304.141 284.134 301.751 286.443 299.126C289.064 296.148 289.851 292.264 291.202 288.645C291.912 286.734 291.162 285.898 289.819 285.095C289.206 284.73 288.488 284.539 288.265 284.45C284.09 290.516 280.068 296.358 276.048 302.201C283.566 299.779 285.928 293.007 289.612 286.588C289.612 287.473 289.734 287.931 289.592 288.28C289.056 289.571 288.435 290.828 287.847 292.099C285.745 296.61 283.213 300.81 279.44 304.169C278.551 304.961 277.845 305.22 276.713 304.595C275.386 303.865 273.954 303.2 272.49 302.859C268.643 301.958 264.768 301.138 260.869 300.505C258.56 300.128 256.142 299.816 253.849 300.096C249.264 300.655 244.68 301.426 240.184 302.485C223.256 306.474 206.49 311.067 190.017 316.67C187.566 317.502 185.27 318.78 182.9 319.851L183.091 320.845C183.891 320.845 184.755 321.045 185.472 320.805C187.408 320.16 189.262 319.283 191.178 318.586C194.659 317.311 198.165 316.098 201.865 314.787C201.431 315.895 201.143 316.625 200.859 317.348C198.688 316.033 197.3 316.386 196.623 318.812C195.405 323.174 194.476 327.617 193.304 331.996C193.101 332.754 192.448 333.72 191.774 333.968C189.555 334.783 187.234 335.31 184.758 336C185.655 332.332 186.528 328.77 187.396 325.211C187.558 325.211 187.72 325.219 187.879 325.224C188.135 327.982 188.386 330.745 188.702 334.174L188.698 334.166ZM152.64 200.521C152.347 199.673 152.319 198.602 151.812 198.277C149.276 196.646 146.768 194.69 143.397 195.887C142.07 196.358 140.719 197.149 139.38 197.141C135.558 197.121 131.735 196.646 127.913 196.585C125.58 196.549 123.3 197.036 122.005 199.41C121.304 200.696 120.184 200.987 118.727 201.069C116.553 201.186 114.402 201.726 112.244 202.087C111.047 202.29 109.849 202.501 108.474 202.736C111.728 195.575 114.901 188.681 118.001 181.759C123.475 169.55 128.948 157.341 134.296 145.076C134.892 143.708 136.499 142.211 135.03 140.786C136.43 139.496 137.704 138.312 138.998 137.139C139.278 136.887 139.591 136.62 139.939 136.502C143.888 135.139 147.836 133.763 151.824 132.517C152.315 132.363 153.102 132.863 153.642 133.223C154.461 133.775 155.005 133.982 155.658 132.939C156.024 132.359 156.835 131.67 157.432 131.681C161.12 131.755 164.856 131.686 168.48 132.274C175.442 133.402 181.338 137.22 187.396 140.543C188.63 141.221 189.165 142.052 188.361 143.761C184.913 151.081 181.61 158.473 178.437 165.915C174.359 175.474 170.484 185.123 166.435 194.69C166.111 195.457 165.165 196.102 164.362 196.5C162.398 197.478 160.114 197.965 158.393 199.234C156.478 200.65 154.575 200.578 152.647 200.509L152.64 200.521ZM22.8205 488.914C26.984 476.34 34.8874 465.539 42.3574 454.462C44.5771 455.748 46.4396 456.828 48.3505 457.94C43.9032 463.016 40.5435 468.468 37.8859 474.328C36.3525 477.712 35.204 481.278 33.9827 484.796C33.7395 485.498 33.9466 486.354 33.9466 487.141C34.1452 487.177 34.3439 487.218 34.5425 487.255C34.9726 486.654 35.4072 486.054 35.8333 485.453C38.0157 486.188 39.4769 485.652 41.3793 482.783C44.2074 478.523 46.8493 474.141 49.4905 469.763C51.0003 467.264 52.3553 464.667 53.6251 462.39C57.8082 464.606 62.1414 466.878 66.4386 469.211C66.9296 469.479 67.5622 470.103 67.5465 470.538C67.5262 471.041 66.946 471.795 66.455 471.954C64.2517 472.66 63.3103 474.453 62.3407 476.279C61.716 477.452 61.0139 478.584 60.3485 479.732C60.0804 479.732 59.8129 479.732 59.5448 479.732C62.6816 484.455 65.8506 489.158 68.9258 493.917C69.4778 494.773 70.0579 495.93 69.9281 496.851C69.2221 501.805 68.2925 506.727 67.4409 511.66C66.7998 510.886 66.5317 510.041 66.1993 509.218C65.0383 506.345 63.3509 505.676 60.6081 506.938C57.7918 508.232 54.9598 509.49 52.1403 510.772C49.381 512.026 46.4717 513.04 43.9157 514.626C42.126 515.734 40.2433 517.365 39.4323 519.216C38.2963 521.808 38.0242 524.802 37.5575 527.655C37.1517 530.163 37.2493 532.775 36.6482 535.226C36.0195 537.782 34.9201 540.245 33.8489 542.668C32.745 545.159 32.0436 547.808 29.3532 549.448C24.3257 552.515 19.4936 555.899 14.6405 559.243C13.9509 559.717 13.5982 560.683 13.0947 561.413C9.78415 560.703 7.74738 558.094 6.02261 555.177C5.74661 554.71 5.60498 553.895 5.82394 553.452C8.13281 548.754 8.66449 543.613 9.50034 538.57C10.4496 532.849 10.9445 527.05 12.0236 521.358C13.3989 514.099 16.0041 507.23 19.8463 500.884C20.2278 500.259 21.2223 499.748 21.9847 499.659C24.3788 499.383 26.805 499.415 29.1991 499.139C29.7223 499.078 30.5909 498.198 30.5463 497.772C30.4407 496.708 30.1851 495.402 29.483 494.704C27.4626 492.696 25.1865 490.939 22.8166 488.919L22.8205 488.914ZM299.983 190.414C298.944 192.053 297.679 193.989 296.482 195.961C295.763 197.145 295.118 198.026 293.442 198.257C291.742 198.492 289.786 199.117 289.271 201.345C289.174 201.767 288.829 202.132 288.654 202.432C286.037 199.908 283.631 202.493 281.237 202.554C279.448 191.165 275.82 180.509 269.422 171.554C269.503 170.041 269.738 168.897 269.564 167.822C269.414 166.88 268.963 165.886 268.371 165.128C266.005 162.084 263.324 159.265 261.169 156.083C259.562 153.71 257.606 153.199 255.063 153.47C254.596 153.519 253.975 153.357 253.63 153.056C252.206 151.811 250.859 150.472 249.411 149.105C250.368 148.427 251.204 148.034 251.743 147.393C252.194 146.853 252.713 145.615 252.49 145.392C251.147 144.041 252.263 142.962 252.709 141.858C253.695 139.424 254.807 137.042 255.809 134.62C257.606 130.278 259.359 125.92 261.133 121.566C261.259 121.769 261.384 121.968 261.51 122.171C262.082 121.96 262.666 121.781 263.218 121.534C263.807 121.27 264.411 120.617 264.93 120.686C270.047 121.368 275.155 122.135 280.251 122.938C283.213 123.404 285.567 124.488 287.271 127.413C292.452 136.299 297.625 145.181 301.111 154.891C303.119 160.482 304.612 166.259 306.329 171.928C303.245 173.105 303.176 173.121 302.418 175.961C301.33 180.031 300.263 184.104 299.314 188.207C299.171 188.823 299.711 189.598 299.97 190.418L299.983 190.414ZM135.521 267.25C135.265 266.37 134.937 265.753 134.937 265.14C134.945 261.927 133.168 259.708 130.684 258.166C127.07 255.918 123.421 253.564 119.494 251.998C109.586 248.046 99.3567 245.734 88.5885 247.973C88.2391 248.046 87.8536 247.949 87.3141 247.925C87.7645 247.129 88.1624 246.529 88.4626 245.884C92.333 237.582 96.1798 229.268 100.075 220.983C100.327 220.443 100.866 219.867 101.402 219.664C104.071 218.674 106.77 217.733 109.496 216.909C112.775 215.919 115.98 214.787 119.531 216.341C121.47 217.189 123.811 217.668 125.905 217.493C129.057 217.233 132.06 216.901 134.839 218.796C134.982 218.893 135.237 218.808 135.44 218.824C137.233 218.946 139.051 218.938 140.82 219.23C142.24 219.465 143.506 219.753 144.585 218.434C145.101 217.81 145.815 217.347 146.416 216.828C149.073 219.039 151.698 221.222 154.332 223.413C148.083 237.963 141.871 252.441 135.513 267.246L135.521 267.25ZM289.502 277.301C289.664 275.442 289.847 273.353 290.03 271.308C291.162 271.15 292.57 271.056 293.917 270.72C294.534 270.565 295.564 269.738 295.496 269.555C295.094 268.479 295.353 266.755 293.56 266.727C291.961 266.698 290.338 266.767 288.76 267.003C285.388 267.506 282.032 268.143 278.791 268.703C280.064 259.708 285.55 252.002 286.005 242.735C291.791 242.476 297.532 242.248 303.265 241.944C304.69 241.867 305.42 242.224 305.809 243.766C306.402 246.123 307.376 248.379 308.167 250.688C309.896 255.743 311.603 260.811 313.332 265.866C313.721 267.007 313.239 267.558 312.183 267.879C310.491 268.394 308.763 268.837 307.149 269.534C301.163 272.107 295.22 274.773 289.502 277.297V277.301ZM277.18 109.179C275.382 110.469 272.603 110.526 271.828 113.058C268.457 113.435 265.08 113.813 261.388 114.227C259.98 111.159 257.039 109.325 253.488 108.875C248.165 108.201 243.243 109.844 238.65 112.466C234.95 114.575 232.243 117.691 229.796 121.136C228.584 122.845 227.111 124.544 224.449 124.695C224.839 123.891 225.252 123.352 225.362 122.759C225.702 120.873 225.845 118.949 226.218 117.07C227.033 112.981 228.206 109.058 231.302 105.965C235.871 101.397 241.718 99.3639 247.67 97.5303C249.029 97.112 250.523 96.5561 251.865 96.739C256.661 97.3802 261.457 98.1511 266.184 99.1856C269.852 99.9886 273.418 101.254 277.212 102.37C274.997 104.959 277.03 106.927 277.18 109.187V109.179ZM132.096 265.952C131.16 266.942 130.474 268.285 129.475 268.589C127.126 269.304 124.639 269.79 122.188 269.9C113.81 270.265 105.784 268.447 97.9695 265.554C93.5301 263.911 89.2657 261.927 86.1131 258.242C83.6096 255.317 83.0458 252.441 88.0483 251.199C92.0977 250.197 96.1189 250.367 100.213 250.842C108.267 251.783 115.952 253.861 123.085 257.76C126.712 259.744 130.189 261.947 132.1 265.948L132.096 265.952ZM427.014 630.021C425.947 631.709 424.62 633.864 423.221 635.969C423.014 636.281 422.482 636.489 422.072 636.546C416.282 637.369 410.492 638.197 404.694 638.948C400.819 639.447 396.932 639.913 393.037 640.234C387.515 640.688 382.005 641.236 376.434 640.615C371.902 640.112 367.763 639.024 364.533 635.531C363.275 634.172 361.795 633.016 360.386 631.737C359.952 629.23 361.413 628.297 363.759 627.725C365.827 627.221 367.779 626.207 369.759 625.367C371.398 624.674 373.001 623.903 374.843 623.067C375.911 624.138 377.607 625.144 378.211 626.601C379.445 629.567 379.436 629.965 382.698 630.228C388.196 630.678 393.71 631.376 399.208 631.287C408.565 631.137 417.913 630.46 427.014 630.017V630.021ZM243.357 93.1682C244.095 93.3505 244.635 93.4849 245.174 93.6186C245.126 93.8618 245.077 94.1057 245.028 94.3489C240.001 93.2128 235.091 91.4684 230.008 90.628C224.717 89.7561 219.409 88.9445 214.102 88.1775C208.819 87.4144 203.521 86.7372 198.104 86.003C198.737 84.7168 199.349 83.6292 199.816 82.4768C200.298 81.2837 200.972 80.6792 202.36 80.8457C206.194 81.3079 210.057 81.5596 213.875 82.1116C219.433 82.9107 224.989 83.7872 230.506 84.8381C235.607 85.8122 240.654 87.0453 245.718 88.1939C246.648 88.405 247.544 88.7498 248.457 89.0336C245.454 89.8006 245.239 89.9586 243.357 93.1682ZM236.305 167.298C239.567 163.61 243.462 161.427 247.666 159.78C250.888 158.518 254.117 157.093 257.724 157.56C258.215 157.625 258.844 157.921 259.104 158.315C261.007 161.188 262.792 164.137 264.691 167.01C265.64 168.446 265.442 169.607 264.302 170.8C262.768 172.399 261.437 174.228 259.749 175.636C258.531 176.651 258.105 178.785 255.631 178.444C254.993 178.359 252.356 178.83 252.482 181.171C252.49 181.35 251.143 181.934 250.672 181.739C249.118 181.094 247.556 180.335 246.209 179.337C241.9 176.144 239.011 171.754 236.309 167.298H236.305ZM270.124 206.562C270.274 196.119 264.431 188.333 258.974 180.364C261.713 178.116 264.448 175.872 267.276 173.551C272.615 183.09 275.362 193.38 278.47 203.856C275.703 204.753 272.907 205.662 270.128 206.562H270.124ZM156.948 331.31C156.737 330.945 156.527 330.693 156.429 330.401C155.63 328.051 154.936 325.666 154.04 323.353C152.693 319.884 151.207 316.467 149.779 313.026C149.183 311.59 149.248 310.32 150.627 309.334C154.461 306.595 158.312 303.877 162.118 301.098C164.24 299.548 166.285 297.896 168.752 295.989C164.723 308.048 160.86 319.604 156.948 331.305V331.31ZM305.099 191.907C305.736 190.864 306.377 189.992 306.832 189.03C307.87 186.831 308.958 184.632 309.713 182.327C309.916 181.702 309.003 180.708 308.601 179.884C308.049 180.375 307.25 180.761 306.994 181.374C305.659 184.583 304.458 187.853 303.185 191.18C302.673 190.893 302.182 190.613 301.902 190.459C303.209 187.837 304.694 185.403 305.663 182.773C306.629 180.16 307.079 177.357 307.826 174.35C313.161 176.27 318.517 178.201 324.238 180.258C322.563 184.827 320.964 189.245 319.301 193.639C319.162 194.004 318.591 194.427 318.205 194.443C313.689 194.625 309.421 193.538 305.103 191.903L305.099 191.907ZM196.185 244.09C193.702 243.677 192.062 244.212 191.376 246.585C191.279 246.926 190.318 247 189.77 247.235C189.214 247.474 188.248 247.689 188.195 248.03C187.879 250.091 188.451 252.343 186.475 253.97C186.033 254.335 185.923 255.102 185.659 255.682C184.706 255.175 183.452 254.891 182.859 254.108C181.679 252.554 180.811 250.753 179.93 248.996C179.679 248.492 179.638 247.697 179.849 247.178C181.318 243.579 182.99 240.057 184.369 236.425C185.331 233.902 185.935 231.24 186.641 228.834C190.192 231.683 193.652 234.461 197.179 237.289C196.862 239.44 196.538 241.655 196.18 244.09H196.185ZM133.874 126.176C134.081 126.286 134.288 126.391 134.494 126.501C134.064 127.648 133.59 128.785 133.229 129.953C133.103 130.363 133.261 130.862 133.293 131.316C133.679 131.223 134.138 131.24 134.43 131.025C136.666 129.389 138.84 127.673 141.084 126.054C146.034 122.483 151.244 119.396 157.135 117.505C156.096 120.885 155.082 124.188 154.275 126.821C150.453 128.545 146.858 129.835 143.612 131.718C139.68 134.003 136.329 137.244 131.788 138.547C130.328 138.965 129.021 139.919 127.163 140.872C129.22 135.699 131.764 131.032 133.87 126.168L133.874 126.176ZM309.283 209.164C307.745 211.286 306.093 213.691 304.284 215.976C303.821 216.556 302.746 217.193 302.149 217.039C297.763 215.907 293.426 214.58 289.105 213.322C290.038 210.981 293.543 210.356 292.566 206.599C291.291 208.356 290.294 209.735 289.299 211.115C287.628 213.428 287.384 213.436 285.587 211.326C286.054 210.498 286.346 209.167 286.991 208.965C289.454 208.202 290.05 205.905 291.251 204.185C292.521 202.363 293.884 201.791 295.994 202.809C300.316 204.891 304.645 206.952 309.279 209.167L309.283 209.164ZM135.797 214.345C135.197 214.345 134.596 214.401 134.008 214.337C130.632 213.96 127.264 213.489 123.88 213.18C121.527 212.969 120.979 212.462 121.685 210.239C122.805 206.717 124.095 203.248 125.264 199.888H138.523C136.466 204.493 135.46 209.147 135.793 214.345H135.797ZM91.2133 180.761C86.7097 167.108 96.602 154.176 107.147 150.253C102.627 160.944 97.2307 170.885 91.2133 180.761ZM116.021 213.026C115.059 213.164 113.66 213.249 112.32 213.578C109.208 214.34 106.035 214.994 103.053 216.126C101.163 216.844 99.6162 217.542 98.1275 215.598C97.5676 217.049 96.7521 217.62 95.6809 217.315C96.4434 215.359 97.3887 213.432 97.9085 211.399C98.1721 210.368 98.3503 210.02 99.4543 209.837C101.552 209.488 103.99 209.322 105.548 208.121C107.054 206.96 108.523 206.132 110.259 205.674C113.14 204.911 116.045 204.258 118.962 203.556C117.94 206.855 117.031 209.776 116.025 213.026H116.021ZM191.498 125.157C194.111 128.834 198.509 129.45 202.518 130.343C201.715 133.747 200.952 136.883 200.238 140.028C200.039 140.897 199.788 141.635 198.704 141.318C195.028 140.239 190.942 140.145 188.171 136.855C187.656 136.242 186.816 135.897 186.454 135.654C188.102 132.222 189.721 128.849 191.494 125.157H191.498ZM220.967 131.451C221.787 132.189 222.984 133.269 224.185 134.352C223.962 134.405 223.739 134.457 223.516 134.51V142.13C220.964 142.13 218.914 142.048 216.881 142.162C215.656 142.231 214.22 142.276 213.278 142.917C211.741 143.964 210.374 144.439 208.754 143.558C209.688 139.646 210.621 135.751 211.473 132.169C214.492 131.942 217.502 131.714 220.967 131.455V131.451ZM171.491 117.091C175.893 118.491 180.356 119.907 184.434 121.201C183.476 123.1 182.636 124.691 181.874 126.322C181.07 128.034 180.348 129.783 179.691 131.288C175.629 129.795 171.783 128.383 167.875 126.946C169 123.883 170.172 120.69 171.495 117.091H171.491ZM192.476 122.751C187.684 118.86 182.515 116.073 176.619 114.486C170.696 112.896 164.78 111.707 158.555 111.865C161.648 110.794 164.743 109.718 167.92 109.349C173.049 108.757 178.121 109.613 183.107 110.915C188.386 112.295 192.448 117.286 192.476 122.751ZM242.683 34.1075C244.363 36.5583 246.01 38.8914 247.565 41.2893C247.816 41.6748 247.816 42.3929 247.645 42.8555C246.578 45.8093 245.43 48.7307 244.322 51.6196C240.951 51.0516 237.708 50.5038 234.43 49.952C237.133 44.7625 239.826 39.5891 242.679 34.1075H242.683ZM41.5825 527.339C42.1299 525.026 42.398 522.356 43.4607 520.052C43.9602 518.964 45.9564 518.542 47.3036 517.872C48.0011 517.528 48.7563 517.3 49.4905 517.041C54.4203 515.312 59.3501 513.592 64.4909 511.794C64.8036 512.387 65.3431 513.421 65.688 514.087C57.6338 518.514 49.6282 522.912 41.5786 527.339H41.5825ZM233.525 156.003C236.877 153.527 240.046 151.17 243.255 148.865C243.527 148.67 244.217 148.683 244.472 148.894C246.676 150.703 248.822 152.586 251.042 154.489C245.71 156.132 241.097 158.562 236.926 162.283C235.818 160.234 234.804 158.36 233.525 155.998V156.003ZM148.318 200.947C147.478 203.6 146.756 206.185 145.843 208.697C144.914 211.253 145.649 214.405 142.922 216.516C141.892 215.704 140.82 214.868 139.798 214.064C139.944 213.444 140.054 212.929 140.187 212.418C141.169 208.628 142.102 204.826 143.19 201.069C143.348 200.529 144.314 199.79 144.8 199.859C146.111 200.05 147.369 200.631 148.318 200.947ZM68.1385 483.477C64.9984 482.203 64.487 481.169 65.1524 478.405C65.2901 477.829 65.2455 477.143 65.5542 476.689C66.4222 475.415 67.3229 474.125 68.4433 473.086C68.7881 472.766 69.8999 473.139 70.606 473.362C76.4443 475.229 82.267 477.136 88.0326 479.01C86.888 480.937 86.8034 480.937 85.0013 479.553C84.4414 479.123 83.7721 478.738 83.0943 478.563C79.2318 477.562 75.3607 476.584 71.47 475.695C70.2605 475.419 68.9782 475.448 67.7287 475.334C67.8828 477.825 69.6561 478.007 70.9586 478.45C75.1785 479.886 79.471 481.124 83.8128 482.463C83.6141 482.857 83.4109 483.254 83.2772 483.518C82.5633 483.177 81.8933 482.698 81.1551 482.532C76.8462 481.558 72.5287 480.633 68.1994 479.764C67.7975 479.684 67.0063 480.036 66.9008 480.357C66.7506 480.807 66.9984 481.449 67.2095 481.947C67.437 482.491 67.8218 482.97 68.1345 483.477H68.1385ZM210.8 247.036C205.48 248.642 200.319 250.201 195.223 251.739C194.914 250.651 194.647 249.71 194.273 248.403C195.763 248.501 196.988 248.655 198.213 248.642C199.134 248.635 200.599 248.699 200.854 248.217C201.28 247.417 200.976 246.2 200.879 245.169C200.843 244.804 200.554 244.431 200.315 244.114C199.167 242.613 199.212 241.116 200.291 239.396C203.784 241.935 207.196 244.415 210.795 247.032L210.8 247.036ZM173.97 246.391C173.946 246.585 173.921 246.785 173.893 246.979C172.647 247.064 171.405 247.194 170.156 247.23C166.374 247.336 166.172 247.308 164.962 250.927C162.325 258.823 159.858 266.776 157.16 275.215C157.16 274.095 157.067 273.394 157.176 272.728C157.638 269.969 157.979 267.173 158.701 264.483C160.085 259.33 161.806 254.266 163.161 249.105C163.611 247.389 164.528 246.634 166.066 246.452C167.985 246.224 169.921 246.103 171.856 246.034C172.553 246.009 173.264 246.265 173.965 246.395L173.97 246.391ZM243.527 53.7052C242.598 55.9733 241.612 58.3915 240.662 60.7125C237.672 58.7527 234.767 56.8457 231.744 54.8656C232.406 53.6687 233.034 52.5366 233.46 51.7657C237.002 52.4473 240.232 53.0682 243.527 53.7052ZM238.703 65.2486C237.708 67.2246 236.609 69.4076 235.461 71.6876C233.927 69.4725 232.674 67.4075 231.14 65.5693C230.389 64.6685 229.123 64.1978 227.946 63.439C228.482 62.2177 229.192 60.5988 229.85 59.0935C232.787 61.1344 235.651 63.1266 238.703 65.2446V65.2486ZM248.907 39.2037C247.382 37.1628 245.803 35.1423 244.347 33.0364C244.022 32.5657 243.868 31.7055 244.071 31.1943C244.963 28.9383 246.014 26.7473 247.045 24.4508C248.299 26.9502 249.613 29.2873 250.664 31.7421C251.894 34.6229 249.146 36.6799 248.83 39.2686C248.827 39.3092 248.753 39.3376 248.907 39.2078V39.2037ZM81.009 510.91C81.0254 507.335 80.2911 506.958 77.5725 505.359C76.582 504.775 75.442 504.446 74.298 503.971C74.0581 504.227 73.5881 504.731 73.1128 505.237C72.983 505.152 72.8492 505.067 72.7195 504.982C73.2144 502.681 73.714 500.381 74.2332 497.963H79.1911C79.8244 500.953 78.2989 505.091 83.565 505.396C82.7252 507.201 81.9825 508.804 81.005 510.91H81.009ZM170.655 259.837C171.986 259.05 172.477 257.772 172.671 256.169C172.821 254.911 173.296 253.674 173.767 252.481C173.901 252.144 174.534 252.006 174.936 251.775C175.094 252.237 175.463 252.745 175.374 253.155C174.782 255.905 174.091 258.632 173.43 261.4C173.268 261.4 172.923 261.456 172.599 261.391C167.859 260.45 168.399 261.16 167.762 264.313C167.384 266.175 166.954 268.029 166.548 269.884C166.309 269.839 166.074 269.794 165.835 269.745C164.71 264.471 167.011 259.728 168.358 254.838C168.545 254.818 168.731 254.798 168.918 254.778C169.478 256.4 170.034 258.023 170.659 259.833L170.655 259.837ZM252.981 27.5223C251.878 25.8587 250.928 24.1871 249.743 22.702C248.286 20.8761 248.161 20.2148 249.8 18.466C250.518 17.7032 251.374 16.9891 252.304 16.5265C252.973 16.1938 254.296 15.9503 254.584 16.2912C255.338 17.192 256.324 18.6039 256.081 19.5046C255.334 22.2597 254.048 24.8687 252.981 27.5223ZM167.141 116.649C166.419 118.868 165.62 121.067 164.99 123.315C164.009 126.821 164.057 126.837 160.483 126.707C160.365 126.703 160.247 126.594 160.065 126.505C160.065 126.204 160.004 125.859 160.073 125.543C160.467 123.741 160.803 121.92 161.315 120.15C162.475 116.162 162.512 116.17 166.622 116.584C166.821 116.604 167.019 116.633 167.137 116.649H167.141ZM370.222 622.441C365.946 624.292 361.637 626.158 357.461 627.968C357.031 626.726 356.613 625.525 356.183 624.296C356.662 624.032 357.185 623.614 357.782 623.432C360.569 622.567 363.397 621.841 366.164 620.92C367.893 620.344 369.524 619.565 370.222 622.446V622.441ZM234.191 74.5157C233.668 76.1795 233.059 78.1068 232.483 79.9365C228.932 79.239 225.374 78.5408 221.446 77.7738C222.087 76.8534 222.587 75.3679 223.264 75.2866C226.883 74.8363 230.547 74.7392 234.191 74.5203V74.5157ZM88.3164 276.899C88.3695 276.667 88.4181 276.432 88.4705 276.201C106.94 280.242 125.414 284.288 143.883 288.329C143.827 288.593 143.766 288.856 143.709 289.12C125.244 285.046 106.782 280.972 88.3164 276.895V276.899ZM180.307 99.0191C180.535 99.1121 180.762 99.2059 180.989 99.295C181.184 101.121 181.582 102.959 181.485 104.768C181.439 105.617 180.413 107.134 179.882 107.114C177.764 107.025 175.662 106.448 173.633 106.067C175.974 103.596 178.141 101.308 180.307 99.0191ZM202.794 142.178C203.703 138.251 204.559 134.57 205.403 130.923C206.158 131.049 207.047 131.195 207.911 131.337C207.055 135.122 206.219 138.823 205.354 142.661C204.466 142.495 203.638 142.337 202.798 142.178H202.794ZM307.433 137.687C307.598 137.593 307.765 137.504 307.931 137.411C310.447 139.979 319.905 158.433 320.112 161.484C315.782 153.357 311.607 145.522 307.433 137.683V137.687ZM223.605 72.8158C224.932 70.0081 226.129 67.4842 227.337 64.9282C228.644 66.9775 229.813 68.8032 231.107 70.8315C228.653 71.4811 226.279 72.1098 223.605 72.8158ZM239.559 322.322C240.586 318.147 241.559 314.187 242.533 310.231C242.683 310.248 242.837 310.259 242.988 310.276V321.787C241.863 321.961 240.784 322.131 239.559 322.326V322.322ZM204.093 160.36C203.882 160.287 203.667 160.214 203.456 160.137C204.693 155.548 206.06 151.007 208.41 146.792C210.661 147.806 209.607 149.287 209.108 150.371C207.546 153.75 205.776 157.037 204.088 160.36H204.093ZM209.501 502.519C209.371 502.673 209.242 502.827 209.112 502.982C204.129 498.871 199.143 494.765 194.176 490.631C194.079 490.55 194.237 490.164 194.379 489.279C200.169 493.272 204.653 498.104 209.497 502.515L209.501 502.519ZM320.997 586.622C330.369 583.465 337.085 582.516 339.673 583.762C333.254 584.744 327.123 585.681 320.997 586.622ZM348.007 626.004C345.962 630.585 349.654 633.559 350.271 637.276C349.452 637.718 348.571 638.193 347.78 638.619C347.187 634.647 346.599 630.699 345.994 626.653C346.303 626.556 346.965 626.341 348.007 626.004ZM142.732 507.939C142.557 507.907 142.383 507.879 142.212 507.846C142.212 502.974 142.183 498.096 142.252 493.223C142.261 492.708 142.845 492.201 143.165 491.69C143.372 491.799 143.579 491.912 143.786 492.022C143.949 497.366 143.879 502.693 142.732 507.936V507.939ZM352.191 685.221C352.227 685.411 352.259 685.608 352.296 685.805C348.182 686.552 344.072 687.306 339.393 688.158C340.545 686.454 340.975 685.425 342.968 685.595C346.011 685.857 349.115 685.379 352.191 685.221ZM279.33 257.439C279.132 258.466 278.969 259.285 278.778 260.251C275.963 258.718 273.192 257.208 270.42 255.699C270.497 255.512 270.574 255.329 270.651 255.143C273.516 255.901 276.376 256.656 279.33 257.439ZM335.786 644.189C336.423 641.569 337.003 639.179 337.669 636.432C338.671 638.55 339.507 640.307 340.367 642.128C338.849 642.81 337.409 643.459 335.782 644.189H335.786ZM90.7059 196.256C91.806 194.386 94.4596 193.177 95.4371 194.297C95.9077 194.836 95.7255 196.281 95.3807 197.125C94.9054 198.285 92.6982 197.822 90.7059 196.256ZM187.631 493.118L188.613 493.037C190.118 497.569 191.624 502.101 193.129 506.633C192.581 506.641 192.387 506.523 192.318 506.353C190.691 502.373 189.064 498.393 187.49 494.392C187.351 494.039 187.575 493.548 187.627 493.122L187.631 493.118ZM225.532 315.526C225.621 315.542 225.711 315.559 225.8 315.571C225.8 316.167 225.8 316.764 225.8 317.364C225.8 319.178 225.861 320.995 225.784 322.809C225.678 325.293 225.398 325.524 222.968 325.512C223.824 322.176 224.676 318.849 225.528 315.526H225.532ZM342.878 627.437C343.106 628.633 343.203 629.619 343.487 630.545C344.262 633.097 345.138 635.616 345.922 638.164C346.068 638.639 346.027 639.187 345.97 639.69C345.958 639.808 345.532 639.884 345.297 639.978C345.094 639.454 344.782 638.948 344.708 638.408C344.189 634.691 343.171 631.157 341.114 627.94C341.45 627.777 341.791 627.567 342.156 627.449C342.396 627.372 342.68 627.432 342.875 627.432L342.878 627.437ZM187.027 122.78C184.284 125.66 184.048 129.67 182.645 133.147C181.919 132.789 181.33 132.502 180.778 132.229C182.58 128.882 184.353 125.583 186.126 122.289C186.495 122.492 186.836 122.674 187.031 122.78H187.027ZM104.53 167.25C105.281 164.714 107.24 165.858 108.673 165.749C109.269 165.703 109.927 166.474 110.559 166.876C109.821 167.286 109.082 168.033 108.344 168.029C107.107 168.029 105.873 167.55 104.53 167.245V167.25ZM180.908 84.8584C182.45 83.4994 183.704 82.3955 185.209 81.0686C185.712 82.5213 186.102 83.6496 186.519 84.8584H180.908ZM277.395 306.92C275.885 308.767 274.287 308.072 272.806 307.635C272.343 307.496 272.047 306.807 271.674 306.369C272.282 306.108 272.944 305.552 273.483 305.654C274.766 305.893 275.995 306.445 277.395 306.92ZM99.097 181.694C103.195 181.142 104.043 181.285 105.678 182.749C104.023 183.756 100.371 183.252 99.097 181.694ZM323.37 612.135C323.346 612.01 323.321 611.888 323.297 611.762C325.513 611.032 327.72 610.265 329.959 609.616C330.317 609.511 330.823 609.933 331.262 610.111C331.079 610.456 330.941 611.064 330.71 611.101C328.271 611.499 325.821 611.807 323.374 612.14L323.37 612.135ZM229.517 143.793C229.902 142.543 230.113 141.168 231.809 141.898C232.243 142.085 232.783 143.112 232.625 143.4C231.837 144.836 230.665 144.106 229.517 143.793ZM111.602 159.869C111.753 160.068 111.903 160.267 112.053 160.462C111.708 160.892 111.379 161.667 111.018 161.683C110.036 161.728 109.038 161.448 108.048 161.297C108.052 160.972 108.056 160.652 108.06 160.327L111.606 159.865L111.602 159.869ZM107.898 172.338C106.056 174.188 105.021 174.184 103.029 172.338H107.898ZM352.041 636.31C351.858 634.882 351.683 633.551 351.513 632.224C351.639 632.196 351.768 632.163 351.894 632.135C352.539 633.129 353.184 634.127 353.854 635.166C353.127 635.625 352.641 635.933 352.041 636.31ZM190.979 253.316C190.788 252.46 190.63 251.743 190.472 251.025C190.605 250.878 190.739 250.732 190.874 250.586C191.831 251.081 192.788 251.576 194.054 252.23C192.756 252.688 191.956 252.972 190.979 253.316ZM235.051 132.778C233.659 130.968 234.986 129.6 235.189 128.213C236.216 129.62 236.207 131.008 235.051 132.778ZM210.394 394.724C210.548 394.606 210.702 394.488 210.856 394.375C211.396 395.073 211.931 395.771 212.471 396.469C212.337 396.574 212.199 396.68 212.066 396.789C211.51 396.104 210.95 395.413 210.394 394.728V394.724ZM212.41 505.562C212.487 505.68 212.572 505.806 212.658 505.935C212.544 505.98 212.386 506.097 212.329 506.061C212.211 505.98 212.147 505.817 212.062 505.692C212.163 505.656 212.26 505.619 212.41 505.566V505.562ZM303.103 485.173C302.941 485.259 302.835 485.315 302.734 485.368C302.681 485.262 302.628 485.157 302.579 485.047C302.738 485.084 302.896 485.12 303.103 485.169V485.173Z" fill="black"/>
<path d="M408.391 52.6475C408.516 52.4243 408.808 52.0956 408.748 51.9942C406.326 48.1518 406.183 43.5141 404.353 39.4607C402.548 35.4641 400.442 31.504 399.391 27.2964C398.105 22.1637 394.198 20.2444 390.225 18.3253C384.833 15.7204 379.404 13.0586 373.739 11.1759C367.11 8.96868 360.285 7.15501 353.412 5.91341C343.402 4.10377 333.806 6.11226 324.514 10.2144C312.581 15.481 301.837 22.7317 290.935 29.735C288.29 31.431 285.648 33.1391 282.99 34.8148C282.755 34.9649 282.402 34.9285 281.963 35.0015C282.017 35.2734 282.296 35.8576 282.138 36.032C279.387 38.9818 281.375 42.0818 281.854 45.0883C282.276 47.742 282.564 50.5255 283.623 52.9396C284.906 55.8529 286.922 58.4497 288.674 61.1479C288.889 61.4766 289.449 61.5698 289.827 61.8092C290.143 62.0121 290.419 62.2758 290.711 62.5112C290.29 62.6775 289.75 63.0995 289.458 62.9697C287.198 61.9513 284.946 60.9003 282.779 59.7034C281.817 59.1719 281.083 58.2468 280.199 57.557C279.817 57.2608 279.318 57.1229 278.872 56.9119C278.803 57.407 278.518 58.0114 278.705 58.3766C279.57 60.0645 280.56 61.6875 281.537 63.3877C281.185 63.4688 280.389 63.8705 280.178 63.6676C278.746 62.2718 277.086 62.9413 275.524 63.059C274.948 63.1036 274.011 63.5256 273.938 63.907C273.796 64.6455 273.869 65.867 274.344 66.2118C277.18 68.265 277.744 71.5231 278.904 74.4279C280.207 77.6781 281.542 80.3764 285.798 80.6157C287.875 80.7337 289.921 82.2709 291.868 83.3664C292.375 83.6509 292.623 84.6853 292.638 85.3875C292.643 85.6267 291.6 85.9388 291.007 86.1381C289.709 86.572 288.398 86.9575 287.153 87.343C287.632 88.8442 287.721 89.956 288.293 90.7066C288.995 91.6316 290.143 92.2078 291 93.0397C291.357 93.3885 291.563 93.9811 291.661 94.4964C292.022 96.4034 292.647 98.0141 294.485 99.1181C296.226 100.16 297.735 101.589 299.155 103.187C297.751 103.053 296.343 102.762 294.947 102.814C291.888 102.924 289.15 101.921 286.39 100.798C284.589 100.063 282.629 101.248 282.232 103.305C281.956 104.729 281.923 106.202 281.798 107.655C281.672 109.107 281.472 110.564 281.481 112.017C281.481 112.722 281.887 113.424 282.106 114.126C282.73 113.704 283.696 113.412 283.92 112.836C284.702 110.815 285.242 108.698 285.847 106.608C286.009 106.048 286.078 105.464 286.207 104.798C289.778 105.942 293.138 107.391 296.647 108.068C304.888 109.663 311.035 114.796 316.939 120.042C323.63 125.991 329.72 132.62 336.038 138.982C337.758 140.715 339.58 142.411 340.971 144.395C342.822 147.044 345.634 148.465 348.104 150.867C347.467 151.203 346.867 151.723 346.193 151.849C341.332 152.746 337.299 155.237 333.599 158.341C332.11 159.59 330.528 160.873 329.485 162.463C328.888 163.376 329.282 164.938 329.229 166.208C329.753 166.16 330.406 166.297 330.775 166.034C332.917 164.5 334.873 162.682 337.117 161.327C340.282 159.416 343.641 157.83 346.506 156.316C351.147 160.345 355.465 164.09 359.806 167.856C358.609 168.923 357.197 170.363 355.582 171.527C354.954 171.982 353.834 172.039 353.014 171.885C350.178 171.353 347.387 170.586 344.555 170.018C340.476 169.203 336.995 170.821 335.145 174.461C334.816 175.11 335.096 176.068 335.096 177.188C336.427 176.453 337.526 176.08 338.318 175.366C340.959 172.984 343.856 173.017 346.997 174.047C348.369 174.498 350 174.392 351.208 175.074C354.585 176.985 357.307 176.031 359.948 173.714C361.397 172.445 362.854 171.142 364.468 170.119C365.787 169.283 365.491 168.432 364.858 167.552C364.416 166.931 363.726 166.472 363.097 166.005C358.532 162.589 353.959 159.185 349.183 155.626C350.592 154.928 351.484 154.486 352.381 154.04C352.129 153.289 351.931 152.689 351.683 151.955C352.385 151.435 353.237 150.899 353.955 150.222C354.199 149.99 354.276 149.11 354.142 149.033C353.282 148.55 352.268 147.775 351.444 147.913C350.004 148.152 349.318 147.491 348.49 146.614C344.984 142.91 341.43 139.246 337.916 135.55C337.433 135.043 337.06 134.43 336.605 133.83C339.624 132.779 341.312 134.799 343.134 136.341C348.003 140.472 352.824 144.663 357.68 148.81C357.899 148.997 358.285 148.984 358.865 149.134C358.82 148.356 358.784 147.739 358.747 147.114C370.36 145.986 392.132 132.259 392.525 125.735C391.065 125.066 390.156 125.861 389.032 126.741C383.571 131.002 378.008 135.128 372.145 139.559C371.715 136.934 370.254 136.167 368.518 136.138C367.71 136.126 366.895 136.877 366.083 137.279C365.966 137.587 365.852 137.895 365.734 138.204C366.842 139.003 367.949 139.802 369.415 140.861C365.207 142.561 361.353 144.119 357.843 145.539C353.606 141.827 349.48 138.171 345.301 134.576C343.897 133.371 342.327 132.365 340.878 131.204C338.573 129.358 336.504 129.451 334.427 131.712C326.413 123.313 318.063 115.307 307.583 109.493C312.236 107.756 316.493 105.906 318.534 101.289C320.335 101.848 322.059 103.865 324.051 102.002C325.107 101.017 325.135 99.5481 323.946 97.9899C323.723 98.6716 323.691 99.1423 323.447 99.4465C322.611 100.489 321.808 101.402 320.396 99.9618C316.03 95.5105 313.372 90.5486 314.626 84.0278C315.34 80.3075 319.102 78.3678 322.019 78.0151C327.087 77.4061 330.016 80.6602 332.897 83.9832C333.623 84.8191 334.147 85.8293 334.751 86.7425C332.276 86.7707 331.887 86.5556 330.215 84.8722C329.14 83.7885 328.073 82.5836 326.766 81.8697C322.514 79.5406 319.032 81.439 318.513 86.2193C318.404 87.2453 318.367 88.2804 318.562 89.5424C320.213 85.9309 322.14 83.0786 326.632 85.3304C325.959 85.3304 325.281 85.318 324.607 85.3304C322.051 85.3789 320.189 87.6268 320.607 90.1507C320.648 90.4024 320.7 90.666 320.663 90.9092C319.962 95.5433 323.565 99.0931 328.239 98.2167C329.822 97.921 331.294 96.9226 332.876 96.7279C334.853 96.4847 336.894 96.6748 338.898 96.8053C339.726 96.8577 340.526 97.2799 341.349 97.4706C343.078 97.8718 344.429 96.7076 345.089 94.2571C345.187 93.892 345.171 93.498 345.207 93.121C345.402 93.0358 345.597 92.946 345.792 92.8608C346.242 93.6199 346.664 94.3948 347.147 95.1336C347.406 95.5269 347.804 96.1641 348.084 96.1353C348.806 96.0664 349.8 95.896 350.145 95.3932C350.977 94.1758 351.496 92.7513 352.109 91.4736C353.525 93.7294 350.523 95.8108 351.18 98.1275C354.154 97.5152 355.359 95.0156 356.581 92.358C357.266 92.5363 358.114 93.9326 358.776 92.2603C358.833 92.1102 360.224 92.143 360.484 92.4838C361.303 93.5511 361.896 94.8006 362.545 95.9976C362.821 96.5129 362.902 97.1704 363.271 97.5841C363.677 98.0384 364.318 98.2816 364.854 98.6185C365.036 98.0829 365.43 97.5231 365.365 97.0242C364.902 93.3439 364.314 89.6761 363.851 85.9919C363.779 85.4117 363.965 84.6368 364.326 84.1943C365.426 82.8557 366.461 81.1512 367.921 80.5023C369.475 79.812 371.804 79.5078 373.257 80.1895C379.112 82.9285 385.129 85.0341 391.479 86.1256C397.318 87.1319 403.193 87.9513 409.028 89.1444C406.333 88.8927 403.611 88.7996 400.957 88.3329C399.399 88.0615 398.458 88.1827 397.837 89.7613C395.995 94.4394 394.185 99.1338 392.156 103.735C390.412 107.691 388.387 111.526 386.48 115.413C386.367 115.644 386.204 115.916 385.994 116.017C384.2 116.873 383.936 117.312 385.198 118.926C387.036 121.271 388.959 123.65 392.112 124.36C392.619 124.473 393.187 124.331 393.95 124.295C393.013 120.797 389.803 119.523 388.277 117.312C390.188 114.216 392.213 111.237 393.901 108.085C394.916 106.194 396.339 106.904 397.683 106.973C398.77 107.026 399.874 107.566 400.924 107.448C402.02 107.326 403.242 107.367 403.802 105.67C404.43 103.759 405.895 103.666 407.859 104.888C410.488 106.526 412.148 106.523 413.389 105.168C410.951 101.893 408.552 98.6756 406.154 95.462C406.297 95.2791 406.443 95.0969 406.585 94.914C409.486 95.4135 412.383 95.9445 415.292 96.3995C419.605 97.0727 423.923 97.7302 428.248 98.3104C431.802 98.785 435.365 99.3934 438.931 99.4871C446.198 99.6779 451.647 96.3503 455.478 90.2195C458.082 86.0443 459.255 81.6586 457.604 76.8501C456.5 73.6366 456.2 73.5357 453.08 74.5334C452.73 74.6429 452.369 74.7117 451.939 74.5334C452.45 74.3348 452.962 74.1316 453.477 73.9414C453.96 73.7585 454.451 73.592 454.995 73.3973C455.254 72.1596 454.791 71.413 453.493 71.1291C448.636 70.0665 443.812 68.853 438.931 67.928C433.875 66.9703 428.78 66.2197 423.683 65.5097C420.461 65.0593 417.203 64.8524 413.743 64.5156C413.227 62.9575 412.825 61.1925 412.066 59.5979C411.113 57.5935 409.851 55.7352 408.748 53.7998C408.573 53.4914 408.532 53.1101 408.431 52.7611C407.563 52.8991 406.695 53.037 405.899 53.1628C405.392 53.6578 404.613 54.8304 404.236 54.7127C403.209 54.3962 402.353 53.528 401.408 52.8626C401.107 53.2399 400.698 53.9499 400.109 54.4368C399.172 55.2078 397.963 55.3943 397.44 54.1081C396.421 51.5966 395.67 48.9795 394.806 46.4071C394.981 46.3502 395.159 46.2894 395.333 46.2326C394.863 46.0906 394.393 45.9486 393.407 45.6484C395.285 45.4739 396.425 45.417 396.234 47.3606C396.153 48.1721 396.372 49.1053 396.733 49.8437C397.48 51.3653 397.464 53.4224 399.959 54.522C400.32 51.9982 400.633 49.8113 401.026 47.0644C402.093 49.6977 402.965 51.8522 403.842 54.0108C404.102 53.9539 404.362 53.8972 404.617 53.8363C404.694 52.1849 404.767 50.5376 404.853 48.6712C406.487 49.8843 405.976 52.5867 408.411 52.6516L408.391 52.6475ZM396.749 36.4947L396.717 36.5433C397.257 36.308 397.796 36.0686 398.539 35.744C399.16 37.156 399.853 38.3652 400.214 39.6636C400.665 41.2906 399.293 42.9339 397.756 42.7188C396.124 42.4916 394.814 41.5705 394.656 39.8988C394.518 38.4341 394.912 36.9248 396.749 36.4906V36.4947ZM332.248 78.0636C332.804 78.0957 333.299 77.9947 333.647 78.1731C335.445 79.098 337.494 79.7923 338.906 81.1388C341.081 83.2208 343.284 85.6064 342.611 89.0631C342.302 90.6457 341.369 92.1108 341.089 93.6973C340.838 95.1211 340.042 95.5472 339.048 95.028C337.563 94.2486 336.054 94.6747 334.597 94.6262C333.072 94.5777 331.46 94.9874 330.008 95.5269C327.42 96.4847 325.261 95.6285 324.377 93.0515C324.052 92.1023 323.662 91.1734 323.176 89.9193C324.032 89.9193 324.656 89.8669 325.273 89.9278C328.15 90.2117 331.023 90.6214 333.907 90.7676C334.792 90.8122 335.737 90.2235 336.605 89.8177C337.263 89.5135 337.839 89.0389 338.504 88.6049C337.791 84.8073 336.829 83.1599 332.248 78.0636ZM349.387 33.3095C349.598 33.1188 349.805 32.9281 350.015 32.7374C350.624 33.2933 351.448 33.7315 351.809 34.4172C357.291 44.78 360.873 55.8975 364.509 66.9827C364.744 67.7045 364.541 68.5692 364.541 68.9992C359.55 57.2405 354.47 45.275 349.391 33.3055L349.387 33.3095ZM399.338 32.1937C399.01 32.1937 398.681 32.2059 398.357 32.1937C395.22 32.0679 392.128 32.1409 389.313 33.8248C385.855 35.8941 385.482 38.3125 388.2 41.2988C389.588 42.8244 391.024 44.3052 392.497 45.8714C390.403 45.2831 387.186 42.589 386.03 40.5156C384.48 37.7362 384.893 35.5817 387.454 33.8939C391.089 31.4959 395.021 30.6843 399.338 32.1978V32.1937ZM324.908 32.7374C324.924 33.058 324.944 33.3785 324.961 33.699C317.162 34.5835 309.291 34.2549 301.464 34.7093C301.452 34.4537 301.435 34.2022 301.423 33.9465C309.25 33.5449 317.077 33.1432 324.908 32.7374ZM412.513 65.0025C403.667 65.8263 394.798 66.6497 386.565 67.4128C394.697 65.1607 403.546 63.8421 412.513 65.0025ZM346.108 24.5454C345.881 24.4602 345.654 24.375 345.43 24.2897C346.12 21.9405 346.847 19.6034 347.496 17.246C348.137 14.9008 348.701 12.5352 349.297 10.1819C349.529 10.1413 349.76 10.1048 349.991 10.0642C350.141 10.6769 350.556 11.3626 350.405 11.886C349.448 15.2091 348.384 18.5038 347.305 21.7904C346.993 22.7398 346.514 23.6325 346.112 24.5495L346.108 24.5454ZM283.663 71.8797C284.649 72.6349 285.616 73.4177 286.63 74.1361C287.547 74.7891 288.444 75.5843 289.478 75.933C291.673 76.6758 291.717 76.5827 291.219 79.0941C288.346 77.0042 284.349 76.388 283.663 71.8758V71.8797ZM347.609 85.6431C347.341 84.2835 347.098 83.0379 346.842 81.7393H349.516C348.875 83.0504 348.279 84.2717 347.609 85.6431ZM352.832 81.5892C352.263 82.8393 351.696 84.0927 351.131 85.3429C350.961 85.2616 350.79 85.1803 350.62 85.099C351.631 84.016 350.109 81.7353 352.832 81.5892ZM310.528 87.0952C310.873 89.4893 308.686 88.479 307.866 89.408C307.859 88.2476 308.745 87.4767 310.528 87.0952Z" fill="black"/>
<path d="M377.955 91.5703C382.788 93.1161 387.162 94.5124 391.564 95.9199C392.246 93.6563 391.049 92.2114 389.527 91.0793C387.085 89.266 384.325 88.1339 381.217 88.1863C378.478 88.2309 377.492 89.5092 377.955 91.5703Z" fill="black"/>
<path d="M381.174 106.82C380.707 106.577 380.268 106.423 379.92 106.15C377.846 104.527 376.223 104.738 374.827 106.982C374.044 108.244 373.277 109.579 372.876 110.987C372.644 111.803 372.933 112.987 373.424 113.706C373.72 114.136 374.917 114.229 375.611 114.062C378.917 113.263 381.173 110.167 381.169 106.82H381.174Z" fill="black"/>
<path d="M408.391 52.6436C405.96 52.5786 406.471 49.8763 404.832 48.6632C404.747 50.5296 404.67 52.1809 404.597 53.8283C404.337 53.8851 404.077 53.9419 403.822 54.0027C402.95 51.8482 402.073 49.6897 401.006 47.0564C400.613 49.8033 400.3 51.9902 399.939 54.514C397.444 53.4144 397.459 51.3572 396.713 49.8357C396.352 49.0973 396.133 48.1641 396.214 47.3526C396.405 45.4131 395.269 45.4659 393.386 45.6403C394.372 45.9365 394.843 46.0826 395.313 46.2246C395.139 46.2814 394.96 46.3422 394.786 46.399C395.65 48.9715 396.401 51.5885 397.419 54.1001C397.943 55.3904 399.151 55.2038 400.089 54.4288C400.681 53.9419 401.087 53.2278 401.387 52.8545C402.333 53.52 403.189 54.3841 404.216 54.7047C404.593 54.8224 405.376 53.6498 405.879 53.1548C406.674 53.029 407.543 52.891 408.411 52.7531L408.391 52.6436Z" fill="white"/>
<path d="M307.429 137.683C311.604 145.518 315.779 153.353 320.108 161.484C319.901 158.433 310.443 139.98 307.928 137.411C307.761 137.504 307.595 137.593 307.429 137.687V137.683Z" fill="white"/>
<path d="M115.047 164.476C116.8 160.415 118.63 156.381 120.277 152.276C121.377 149.529 122.217 146.681 123.17 143.877C122.939 143.792 122.712 143.706 122.481 143.621C119.9 150.499 117.32 157.38 114.743 164.257C114.853 164.318 114.954 164.391 115.047 164.476Z" fill="white"/>
<path d="M107.894 172.339H103.025C105.021 174.185 106.056 174.19 107.894 172.339Z" fill="white"/>
<path d="M114.743 164.263C114.686 164.611 114.629 164.961 114.573 165.306C114.686 165.321 114.796 165.338 114.909 165.358C114.954 165.066 115.003 164.774 115.047 164.482C114.954 164.4 114.853 164.328 114.743 164.263Z" fill="white"/>
<path d="M349.391 33.3072C354.471 45.2728 359.55 57.2423 364.541 69.0011C364.541 68.571 364.748 67.7024 364.508 66.9846C360.873 55.8952 357.291 44.7818 351.809 34.419C351.448 33.7333 350.624 33.2951 350.015 32.7393C349.804 32.93 349.597 33.1206 349.387 33.3113L349.391 33.3072Z" fill="white"/>
<path d="M399.342 32.1982C395.025 30.6847 391.093 31.4963 387.458 33.8943C384.898 35.5822 384.484 37.7366 386.034 40.516C387.19 42.5894 390.412 45.2835 392.502 45.8719C391.029 44.3057 389.593 42.8248 388.205 41.2992C385.486 38.3169 385.859 35.8986 389.316 33.8252C392.129 32.1414 395.224 32.0684 398.361 32.1941C398.689 32.2063 399.018 32.1941 399.342 32.1941V32.1982Z" fill="white"/>
<path d="M324.912 32.7393C317.085 33.1409 309.258 33.5426 301.427 33.9484C301.44 34.204 301.456 34.4555 301.468 34.7111C309.295 34.2567 317.162 34.5853 324.965 33.7008C324.948 33.3803 324.928 33.0598 324.912 32.7393Z" fill="white"/>
<path d="M412.517 65.0071C403.546 63.8508 394.696 65.1654 386.569 67.4171C394.802 66.6501 403.676 65.8268 412.517 65.0071Z" fill="white"/>
<path d="M396.75 36.5015C394.912 36.9316 394.519 38.445 394.656 39.9097C394.814 41.5815 396.125 42.5024 397.756 42.7297C399.29 42.9448 400.665 41.2975 400.215 39.6745C399.854 38.3761 399.16 37.1709 398.539 35.7549C397.796 36.0795 397.257 36.3189 396.713 36.5583C398.422 36.9113 399.326 38.4328 399.022 40.6198C398.957 41.0702 398.673 41.7153 398.328 41.8452C397.935 41.9953 397.273 41.7924 396.88 41.5246C395.399 40.5103 395.378 38.583 396.75 36.5056V36.5015Z" fill="white"/>
<path d="M352.836 81.5918C350.113 81.7373 351.635 84.018 350.624 85.101C350.795 85.1823 350.965 85.2636 351.135 85.3449C351.704 84.0947 352.271 82.8413 352.836 81.5918Z" fill="white"/>
<path d="M231.631 233.055C225.171 225.622 220.886 216.866 216.553 208.09C214.594 208.995 213.766 209.855 214.285 212.034C215.519 217.195 218.573 221.236 221.836 225.127C224.129 227.861 226.827 230.259 229.403 232.743C229.865 233.189 230.625 233.327 231.245 233.607C231.375 233.424 231.505 233.242 231.635 233.059L231.631 233.055Z" fill="black"/>
<path d="M285.344 190.377C285.883 190.093 286.699 189.942 286.914 189.5C289.004 185.212 291.024 180.882 292.955 176.52C293.11 176.167 292.578 175.336 292.16 174.942C291.259 174.09 290.671 174.828 290.371 175.603C288.695 179.932 287.072 184.287 285.437 188.632C285.283 189.046 285.157 189.467 285.019 189.89L285.344 190.385V190.377Z" fill="black"/>
<path d="M252.925 162.422C253.416 163.132 253.631 163.448 254.065 164.077C253.553 163.866 253.399 163.817 253.262 163.741C251.37 162.69 249.597 161.456 247.175 161.963C242.541 162.937 240.054 168.836 242.862 172.671C244.521 174.935 246.952 176.359 249.747 176.124C253.196 175.832 255.826 174.022 256.88 170.463C257.858 167.161 256.288 163.57 252.925 162.422ZM254.422 164.763C254.937 169.344 253.046 172.517 249.374 173.604C247.179 174.253 245.247 173.47 244.428 171.592C243 168.33 245.864 164.138 249.695 164.093C251.294 164.077 252.9 164.532 254.422 164.759V164.763Z" fill="black"/>
<path d="M130.486 207.358C130.795 206.88 131.366 206.396 131.362 205.922C131.346 204.619 131.062 203.244 129.289 203.459C128.753 203.524 127.804 204.417 127.869 204.563C128.319 205.565 128.989 206.474 129.589 207.411C129.889 207.395 130.189 207.378 130.49 207.362L130.486 207.358Z" fill="black"/>
<path d="M325.228 92.1888C326.154 93.0121 327.079 93.8316 328 94.6556C328.284 94.2702 328.892 93.7261 328.795 93.5274C328.198 92.2983 327.489 91.0645 325.228 92.1888Z" fill="black"/>
<path d="M396.75 36.5C395.378 38.5775 395.398 40.5006 396.879 41.5191C397.273 41.7869 397.935 41.9898 398.328 41.8396C398.673 41.7098 398.957 41.0646 399.022 40.6143C399.327 38.4313 398.426 36.9098 396.713 36.5527C396.717 36.5486 396.75 36.5 396.75 36.5Z" fill="black"/>
</svg>
